<?xml version="1.0" encoding="utf-8" standalone="no"?>
<!DOCTYPE svg PUBLIC "-//W3C//DTD SVG 1.1//EN"
  "http://www.w3.org/Graphics/SVG/1.1/DTD/svg11.dtd">
<svg xmlns:xlink="http://www.w3.org/1999/xlink" width="237.335pt" height="192.26375pt" viewBox="0 0 237.335 192.26375" xmlns="http://www.w3.org/2000/svg" version="1.1">
 <metadata>
  <rdf:RDF xmlns:dc="http://purl.org/dc/elements/1.1/" xmlns:cc="http://creativecommons.org/ns#" xmlns:rdf="http://www.w3.org/1999/02/22-rdf-syntax-ns#">
   <cc:Work>
    <dc:type rdf:resource="http://purl.org/dc/dcmitype/StillImage"/>
    <dc:date>2023-02-12T12:54:09.112319</dc:date>
    <dc:format>image/svg+xml</dc:format>
    <dc:creator>
     <cc:Agent>
      <dc:title>Matplotlib v3.5.1, https://matplotlib.org/</dc:title>
     </cc:Agent>
    </dc:creator>
   </cc:Work>
  </rdf:RDF>
 </metadata>
 <defs>
  <style type="text/css">*{stroke-linejoin: round; stroke-linecap: butt}</style>
 </defs>
 <g id="figure_1">
  <g id="patch_1">
   <path d="M 0 192.26375 
L 237.335 192.26375 
L 237.335 0 
L 0 0 
L 0 192.26375 
z
" style="fill: none"/>
  </g>
  <g id="axes_1">
   <g id="patch_2">
    <path d="M 45.995 151.689375 
L 230.135 151.689375 
L 230.135 15.789375 
L 45.995 15.789375 
z
" style="fill: #ffffff"/>
   </g>
   <g id="matplotlib.axis_1">
    <g id="xtick_1">
     <g id="line2d_1">
      <defs>
       <path id="m7c4c69c67e" d="M 0 0 
L 0 3.5 
" style="stroke: #000000; stroke-width: 0.8"/>
      </defs>
      <g>
       <use xlink:href="#m7c4c69c67e" x="75.29" y="151.689375" style="stroke: #000000; stroke-width: 0.8"/>
      </g>
     </g>
     <g id="text_1">
      <!-- 0.2 -->
      <g transform="translate(66.95 167.27875)scale(0.12 -0.12)">
       <defs>
        <path id="ArialMT-30" d="M 266 2259 
Q 266 3072 433 3567 
Q 600 4063 929 4331 
Q 1259 4600 1759 4600 
Q 2128 4600 2406 4451 
Q 2684 4303 2865 4023 
Q 3047 3744 3150 3342 
Q 3253 2941 3253 2259 
Q 3253 1453 3087 958 
Q 2922 463 2592 192 
Q 2263 -78 1759 -78 
Q 1097 -78 719 397 
Q 266 969 266 2259 
z
M 844 2259 
Q 844 1131 1108 757 
Q 1372 384 1759 384 
Q 2147 384 2411 759 
Q 2675 1134 2675 2259 
Q 2675 3391 2411 3762 
Q 2147 4134 1753 4134 
Q 1366 4134 1134 3806 
Q 844 3388 844 2259 
z
" transform="scale(0.015625)"/>
        <path id="ArialMT-2e" d="M 581 0 
L 581 641 
L 1222 641 
L 1222 0 
L 581 0 
z
" transform="scale(0.015625)"/>
        <path id="ArialMT-32" d="M 3222 541 
L 3222 0 
L 194 0 
Q 188 203 259 391 
Q 375 700 629 1000 
Q 884 1300 1366 1694 
Q 2113 2306 2375 2664 
Q 2638 3022 2638 3341 
Q 2638 3675 2398 3904 
Q 2159 4134 1775 4134 
Q 1369 4134 1125 3890 
Q 881 3647 878 3216 
L 300 3275 
Q 359 3922 746 4261 
Q 1134 4600 1788 4600 
Q 2447 4600 2831 4234 
Q 3216 3869 3216 3328 
Q 3216 3053 3103 2787 
Q 2991 2522 2730 2228 
Q 2469 1934 1863 1422 
Q 1356 997 1212 845 
Q 1069 694 975 541 
L 3222 541 
z
" transform="scale(0.015625)"/>
       </defs>
       <use xlink:href="#ArialMT-30"/>
       <use xlink:href="#ArialMT-2e" x="55.615234"/>
       <use xlink:href="#ArialMT-32" x="83.398438"/>
      </g>
     </g>
    </g>
    <g id="xtick_2">
     <g id="line2d_2">
      <g>
       <use xlink:href="#m7c4c69c67e" x="117.14" y="151.689375" style="stroke: #000000; stroke-width: 0.8"/>
      </g>
     </g>
     <g id="text_2">
      <!-- 0.4 -->
      <g transform="translate(108.8 167.27875)scale(0.12 -0.12)">
       <defs>
        <path id="ArialMT-34" d="M 2069 0 
L 2069 1097 
L 81 1097 
L 81 1613 
L 2172 4581 
L 2631 4581 
L 2631 1613 
L 3250 1613 
L 3250 1097 
L 2631 1097 
L 2631 0 
L 2069 0 
z
M 2069 1613 
L 2069 3678 
L 634 1613 
L 2069 1613 
z
" transform="scale(0.015625)"/>
       </defs>
       <use xlink:href="#ArialMT-30"/>
       <use xlink:href="#ArialMT-2e" x="55.615234"/>
       <use xlink:href="#ArialMT-34" x="83.398438"/>
      </g>
     </g>
    </g>
    <g id="xtick_3">
     <g id="line2d_3">
      <g>
       <use xlink:href="#m7c4c69c67e" x="158.99" y="151.689375" style="stroke: #000000; stroke-width: 0.8"/>
      </g>
     </g>
     <g id="text_3">
      <!-- 0.6 -->
      <g transform="translate(150.65 167.27875)scale(0.12 -0.12)">
       <defs>
        <path id="ArialMT-36" d="M 3184 3459 
L 2625 3416 
Q 2550 3747 2413 3897 
Q 2184 4138 1850 4138 
Q 1581 4138 1378 3988 
Q 1113 3794 959 3422 
Q 806 3050 800 2363 
Q 1003 2672 1297 2822 
Q 1591 2972 1913 2972 
Q 2475 2972 2870 2558 
Q 3266 2144 3266 1488 
Q 3266 1056 3080 686 
Q 2894 316 2569 119 
Q 2244 -78 1831 -78 
Q 1128 -78 684 439 
Q 241 956 241 2144 
Q 241 3472 731 4075 
Q 1159 4600 1884 4600 
Q 2425 4600 2770 4297 
Q 3116 3994 3184 3459 
z
M 888 1484 
Q 888 1194 1011 928 
Q 1134 663 1356 523 
Q 1578 384 1822 384 
Q 2178 384 2434 671 
Q 2691 959 2691 1453 
Q 2691 1928 2437 2201 
Q 2184 2475 1800 2475 
Q 1419 2475 1153 2201 
Q 888 1928 888 1484 
z
" transform="scale(0.015625)"/>
       </defs>
       <use xlink:href="#ArialMT-30"/>
       <use xlink:href="#ArialMT-2e" x="55.615234"/>
       <use xlink:href="#ArialMT-36" x="83.398438"/>
      </g>
     </g>
    </g>
    <g id="xtick_4">
     <g id="line2d_4">
      <g>
       <use xlink:href="#m7c4c69c67e" x="200.84" y="151.689375" style="stroke: #000000; stroke-width: 0.8"/>
      </g>
     </g>
     <g id="text_4">
      <!-- 0.8 -->
      <g transform="translate(192.5 167.27875)scale(0.12 -0.12)">
       <defs>
        <path id="ArialMT-38" d="M 1131 2484 
Q 781 2613 612 2850 
Q 444 3088 444 3419 
Q 444 3919 803 4259 
Q 1163 4600 1759 4600 
Q 2359 4600 2725 4251 
Q 3091 3903 3091 3403 
Q 3091 3084 2923 2848 
Q 2756 2613 2416 2484 
Q 2838 2347 3058 2040 
Q 3278 1734 3278 1309 
Q 3278 722 2862 322 
Q 2447 -78 1769 -78 
Q 1091 -78 675 323 
Q 259 725 259 1325 
Q 259 1772 486 2073 
Q 713 2375 1131 2484 
z
M 1019 3438 
Q 1019 3113 1228 2906 
Q 1438 2700 1772 2700 
Q 2097 2700 2305 2904 
Q 2513 3109 2513 3406 
Q 2513 3716 2298 3927 
Q 2084 4138 1766 4138 
Q 1444 4138 1231 3931 
Q 1019 3725 1019 3438 
z
M 838 1322 
Q 838 1081 952 856 
Q 1066 631 1291 507 
Q 1516 384 1775 384 
Q 2178 384 2440 643 
Q 2703 903 2703 1303 
Q 2703 1709 2433 1975 
Q 2163 2241 1756 2241 
Q 1359 2241 1098 1978 
Q 838 1716 838 1322 
z
" transform="scale(0.015625)"/>
       </defs>
       <use xlink:href="#ArialMT-30"/>
       <use xlink:href="#ArialMT-2e" x="55.615234"/>
       <use xlink:href="#ArialMT-38" x="83.398438"/>
      </g>
     </g>
    </g>
    <g id="text_5">
     <!-- Time($t$) -->
     <g transform="translate(118.325 182.42375)scale(0.12 -0.12)">
      <defs>
       <path id="ArialMT-54" d="M 1659 0 
L 1659 4041 
L 150 4041 
L 150 4581 
L 3781 4581 
L 3781 4041 
L 2266 4041 
L 2266 0 
L 1659 0 
z
" transform="scale(0.015625)"/>
       <path id="ArialMT-69" d="M 425 3934 
L 425 4581 
L 988 4581 
L 988 3934 
L 425 3934 
z
M 425 0 
L 425 3319 
L 988 3319 
L 988 0 
L 425 0 
z
" transform="scale(0.015625)"/>
       <path id="ArialMT-6d" d="M 422 0 
L 422 3319 
L 925 3319 
L 925 2853 
Q 1081 3097 1340 3245 
Q 1600 3394 1931 3394 
Q 2300 3394 2536 3241 
Q 2772 3088 2869 2813 
Q 3263 3394 3894 3394 
Q 4388 3394 4653 3120 
Q 4919 2847 4919 2278 
L 4919 0 
L 4359 0 
L 4359 2091 
Q 4359 2428 4304 2576 
Q 4250 2725 4106 2815 
Q 3963 2906 3769 2906 
Q 3419 2906 3187 2673 
Q 2956 2441 2956 1928 
L 2956 0 
L 2394 0 
L 2394 2156 
Q 2394 2531 2256 2718 
Q 2119 2906 1806 2906 
Q 1569 2906 1367 2781 
Q 1166 2656 1075 2415 
Q 984 2175 984 1722 
L 984 0 
L 422 0 
z
" transform="scale(0.015625)"/>
       <path id="ArialMT-65" d="M 2694 1069 
L 3275 997 
Q 3138 488 2766 206 
Q 2394 -75 1816 -75 
Q 1088 -75 661 373 
Q 234 822 234 1631 
Q 234 2469 665 2931 
Q 1097 3394 1784 3394 
Q 2450 3394 2872 2941 
Q 3294 2488 3294 1666 
Q 3294 1616 3291 1516 
L 816 1516 
Q 847 969 1125 678 
Q 1403 388 1819 388 
Q 2128 388 2347 550 
Q 2566 713 2694 1069 
z
M 847 1978 
L 2700 1978 
Q 2663 2397 2488 2606 
Q 2219 2931 1791 2931 
Q 1403 2931 1139 2672 
Q 875 2413 847 1978 
z
" transform="scale(0.015625)"/>
       <path id="ArialMT-28" d="M 1497 -1347 
Q 1031 -759 709 28 
Q 388 816 388 1659 
Q 388 2403 628 3084 
Q 909 3875 1497 4659 
L 1900 4659 
Q 1522 4009 1400 3731 
Q 1209 3300 1100 2831 
Q 966 2247 966 1656 
Q 966 153 1900 -1347 
L 1497 -1347 
z
" transform="scale(0.015625)"/>
       <path id="DejaVuSans-Oblique-74" d="M 2706 3500 
L 2619 3053 
L 1472 3053 
L 1100 1153 
Q 1081 1047 1072 975 
Q 1063 903 1063 863 
Q 1063 663 1183 572 
Q 1303 481 1569 481 
L 2150 481 
L 2053 0 
L 1503 0 
Q 991 0 739 200 
Q 488 400 488 806 
Q 488 878 497 964 
Q 506 1050 525 1153 
L 897 3053 
L 409 3053 
L 500 3500 
L 978 3500 
L 1172 4494 
L 1747 4494 
L 1556 3500 
L 2706 3500 
z
" transform="scale(0.015625)"/>
       <path id="ArialMT-29" d="M 791 -1347 
L 388 -1347 
Q 1322 153 1322 1656 
Q 1322 2244 1188 2822 
Q 1081 3291 891 3722 
Q 769 4003 388 4659 
L 791 4659 
Q 1378 3875 1659 3084 
Q 1900 2403 1900 1659 
Q 1900 816 1576 28 
Q 1253 -759 791 -1347 
z
" transform="scale(0.015625)"/>
      </defs>
      <use xlink:href="#ArialMT-54" transform="translate(0 0.203125)"/>
      <use xlink:href="#ArialMT-69" transform="translate(61.083984 0.203125)"/>
      <use xlink:href="#ArialMT-6d" transform="translate(83.300781 0.203125)"/>
      <use xlink:href="#ArialMT-65" transform="translate(166.601562 0.203125)"/>
      <use xlink:href="#ArialMT-28" transform="translate(222.216797 0.203125)"/>
      <use xlink:href="#DejaVuSans-Oblique-74" transform="translate(255.517578 0.203125)"/>
      <use xlink:href="#ArialMT-29" transform="translate(294.726562 0.203125)"/>
     </g>
    </g>
   </g>
   <g id="matplotlib.axis_2">
    <g id="ytick_1">
     <g id="line2d_5">
      <defs>
       <path id="mf672ef761f" d="M 0 0 
L -3.5 0 
" style="stroke: #000000; stroke-width: 0.8"/>
      </defs>
      <g>
       <use xlink:href="#mf672ef761f" x="45.995" y="127.619396" style="stroke: #000000; stroke-width: 0.8"/>
      </g>
     </g>
     <g id="text_6">
      <!-- 0.6 -->
      <g transform="translate(22.315 131.914084)scale(0.12 -0.12)">
       <use xlink:href="#ArialMT-30"/>
       <use xlink:href="#ArialMT-2e" x="55.615234"/>
       <use xlink:href="#ArialMT-36" x="83.398438"/>
      </g>
     </g>
    </g>
    <g id="ytick_2">
     <g id="line2d_6">
      <g>
       <use xlink:href="#mf672ef761f" x="45.995" y="74.792918" style="stroke: #000000; stroke-width: 0.8"/>
      </g>
     </g>
     <g id="text_7">
      <!-- 0.8 -->
      <g transform="translate(22.315 79.087606)scale(0.12 -0.12)">
       <use xlink:href="#ArialMT-30"/>
       <use xlink:href="#ArialMT-2e" x="55.615234"/>
       <use xlink:href="#ArialMT-38" x="83.398438"/>
      </g>
     </g>
    </g>
    <g id="ytick_3">
     <g id="line2d_7">
      <g>
       <use xlink:href="#mf672ef761f" x="45.995" y="21.96644" style="stroke: #000000; stroke-width: 0.8"/>
      </g>
     </g>
     <g id="text_8">
      <!-- 1.0 -->
      <g transform="translate(22.315 26.261128)scale(0.12 -0.12)">
       <defs>
        <path id="ArialMT-31" d="M 2384 0 
L 1822 0 
L 1822 3584 
Q 1619 3391 1289 3197 
Q 959 3003 697 2906 
L 697 3450 
Q 1169 3672 1522 3987 
Q 1875 4303 2022 4600 
L 2384 4600 
L 2384 0 
z
" transform="scale(0.015625)"/>
       </defs>
       <use xlink:href="#ArialMT-31"/>
       <use xlink:href="#ArialMT-2e" x="55.615234"/>
       <use xlink:href="#ArialMT-30" x="83.398438"/>
      </g>
     </g>
    </g>
    <g id="text_9">
     <!-- Accuracy -->
     <g transform="translate(15.789375 108.4125)rotate(-90)scale(0.12 -0.12)">
      <defs>
       <path id="ArialMT-41" d="M -9 0 
L 1750 4581 
L 2403 4581 
L 4278 0 
L 3588 0 
L 3053 1388 
L 1138 1388 
L 634 0 
L -9 0 
z
M 1313 1881 
L 2866 1881 
L 2388 3150 
Q 2169 3728 2063 4100 
Q 1975 3659 1816 3225 
L 1313 1881 
z
" transform="scale(0.015625)"/>
       <path id="ArialMT-63" d="M 2588 1216 
L 3141 1144 
Q 3050 572 2676 248 
Q 2303 -75 1759 -75 
Q 1078 -75 664 370 
Q 250 816 250 1647 
Q 250 2184 428 2587 
Q 606 2991 970 3192 
Q 1334 3394 1763 3394 
Q 2303 3394 2647 3120 
Q 2991 2847 3088 2344 
L 2541 2259 
Q 2463 2594 2264 2762 
Q 2066 2931 1784 2931 
Q 1359 2931 1093 2626 
Q 828 2322 828 1663 
Q 828 994 1084 691 
Q 1341 388 1753 388 
Q 2084 388 2306 591 
Q 2528 794 2588 1216 
z
" transform="scale(0.015625)"/>
       <path id="ArialMT-75" d="M 2597 0 
L 2597 488 
Q 2209 -75 1544 -75 
Q 1250 -75 995 37 
Q 741 150 617 320 
Q 494 491 444 738 
Q 409 903 409 1263 
L 409 3319 
L 972 3319 
L 972 1478 
Q 972 1038 1006 884 
Q 1059 663 1231 536 
Q 1403 409 1656 409 
Q 1909 409 2131 539 
Q 2353 669 2445 892 
Q 2538 1116 2538 1541 
L 2538 3319 
L 3100 3319 
L 3100 0 
L 2597 0 
z
" transform="scale(0.015625)"/>
       <path id="ArialMT-72" d="M 416 0 
L 416 3319 
L 922 3319 
L 922 2816 
Q 1116 3169 1280 3281 
Q 1444 3394 1641 3394 
Q 1925 3394 2219 3213 
L 2025 2691 
Q 1819 2813 1613 2813 
Q 1428 2813 1281 2702 
Q 1134 2591 1072 2394 
Q 978 2094 978 1738 
L 978 0 
L 416 0 
z
" transform="scale(0.015625)"/>
       <path id="ArialMT-61" d="M 2588 409 
Q 2275 144 1986 34 
Q 1697 -75 1366 -75 
Q 819 -75 525 192 
Q 231 459 231 875 
Q 231 1119 342 1320 
Q 453 1522 633 1644 
Q 813 1766 1038 1828 
Q 1203 1872 1538 1913 
Q 2219 1994 2541 2106 
Q 2544 2222 2544 2253 
Q 2544 2597 2384 2738 
Q 2169 2928 1744 2928 
Q 1347 2928 1158 2789 
Q 969 2650 878 2297 
L 328 2372 
Q 403 2725 575 2942 
Q 747 3159 1072 3276 
Q 1397 3394 1825 3394 
Q 2250 3394 2515 3294 
Q 2781 3194 2906 3042 
Q 3031 2891 3081 2659 
Q 3109 2516 3109 2141 
L 3109 1391 
Q 3109 606 3145 398 
Q 3181 191 3288 0 
L 2700 0 
Q 2613 175 2588 409 
z
M 2541 1666 
Q 2234 1541 1622 1453 
Q 1275 1403 1131 1340 
Q 988 1278 909 1158 
Q 831 1038 831 891 
Q 831 666 1001 516 
Q 1172 366 1500 366 
Q 1825 366 2078 508 
Q 2331 650 2450 897 
Q 2541 1088 2541 1459 
L 2541 1666 
z
" transform="scale(0.015625)"/>
       <path id="ArialMT-79" d="M 397 -1278 
L 334 -750 
Q 519 -800 656 -800 
Q 844 -800 956 -737 
Q 1069 -675 1141 -563 
Q 1194 -478 1313 -144 
Q 1328 -97 1363 -6 
L 103 3319 
L 709 3319 
L 1400 1397 
Q 1534 1031 1641 628 
Q 1738 1016 1872 1384 
L 2581 3319 
L 3144 3319 
L 1881 -56 
Q 1678 -603 1566 -809 
Q 1416 -1088 1222 -1217 
Q 1028 -1347 759 -1347 
Q 597 -1347 397 -1278 
z
" transform="scale(0.015625)"/>
      </defs>
      <use xlink:href="#ArialMT-41"/>
      <use xlink:href="#ArialMT-63" x="66.699219"/>
      <use xlink:href="#ArialMT-63" x="116.699219"/>
      <use xlink:href="#ArialMT-75" x="166.699219"/>
      <use xlink:href="#ArialMT-72" x="222.314453"/>
      <use xlink:href="#ArialMT-61" x="255.615234"/>
      <use xlink:href="#ArialMT-63" x="311.230469"/>
      <use xlink:href="#ArialMT-79" x="361.230469"/>
     </g>
    </g>
   </g>
   <g id="line2d_8">
    <path d="M 54.365 131.878723 
L 56.4575 131.551314 
L 58.55 130.716787 
L 60.6425 130.155013 
L 62.735 129.347516 
L 64.8275 129.064211 
L 66.92 128.278592 
L 69.0125 127.757507 
L 71.105 127.244492 
L 73.1975 126.739005 
L 75.29 125.988973 
L 77.3825 125.497948 
L 79.475 125.013126 
L 81.5675 124.284564 
L 83.66 124.060764 
L 85.7525 123.592635 
L 87.845 122.881987 
L 89.9375 122.424312 
L 92.03 121.971196 
L 94.1225 121.522444 
L 96.215 121.077879 
L 98.3075 120.637338 
L 100.4 119.956572 
L 102.4925 119.524207 
L 104.585 119.095439 
L 106.6775 118.912567 
L 108.77 118.490107 
L 110.8625 118.070928 
L 112.955 117.654938 
L 115.0475 117.001775 
L 117.14 116.592441 
L 119.2325 116.425304 
L 121.325 116.021306 
L 123.4175 115.620148 
L 125.51 115.221781 
L 127.6025 114.588962 
L 129.695 114.19655 
L 131.7875 114.042984 
L 133.88 113.655368 
L 135.9725 113.270362 
L 138.065 112.887944 
L 140.1575 112.508092 
L 142.25 112.130792 
L 144.3425 111.75603 
L 146.435 111.616328 
L 148.5275 111.24609 
L 150.62 110.87836 
L 152.7125 110.744071 
L 154.805 110.380815 
L 156.8975 110.020053 
L 158.99 109.661786 
L 161.0825 109.306014 
L 163.175 109.180974 
L 165.2675 108.829641 
L 167.36 108.480802 
L 169.4525 108.134461 
L 171.545 107.790622 
L 173.6375 107.674713 
L 175.73 107.335298 
L 177.8225 107.22269 
L 179.915 106.887688 
L 182.0075 106.555186 
L 184.1 106.447755 
L 186.1925 106.119647 
L 188.285 105.794036 
L 190.3775 105.691723 
L 192.47 105.370476 
L 194.5625 105.051718 
L 196.655 104.954448 
L 198.7475 104.640015 
L 200.84 104.328055 
L 202.9325 104.235739 
L 205.025 103.928054 
L 207.1175 103.838807 
L 209.21 103.535354 
L 211.3025 103.449125 
L 213.395 103.149856 
L 215.4875 102.852997 
L 217.58 102.771458 
L 219.6725 102.478706 
L 221.765 102.400046 
" clip-path="url(#p6a2340eeef)" style="fill: none; stroke: #ffd700; stroke-width: 1.5; stroke-linecap: square"/>
   </g>
   <g id="line2d_9">
    <path d="M 54.365 110.932875 
L 56.4575 110.330608 
L 58.55 108.804073 
L 60.6425 107.781701 
L 62.735 106.320858 
L 64.8275 105.809761 
L 66.92 104.401338 
L 69.0125 103.471972 
L 71.105 102.561167 
L 73.1975 101.667833 
L 75.29 100.3508 
L 77.3825 99.493071 
L 79.475 98.650135 
L 81.5675 97.391834 
L 83.66 97.005934 
L 85.7525 96.203472 
L 87.845 94.993629 
L 89.9375 94.218589 
L 92.03 93.454971 
L 94.1225 92.702377 
L 96.215 91.960437 
L 98.3075 91.228809 
L 100.4 90.10646 
L 102.4925 89.397476 
L 104.585 88.697895 
L 106.6775 88.39943 
L 108.77 87.715053 
L 110.8625 87.039403 
L 112.955 86.372277 
L 115.0475 85.332864 
L 117.14 84.685021 
L 119.2325 84.420233 
L 121.325 83.785457 
L 123.4175 83.158394 
L 125.51 82.538914 
L 127.6025 81.562735 
L 129.695 80.960765 
L 131.7875 80.724825 
L 133.88 80.13457 
L 135.9725 79.551383 
L 138.065 78.975181 
L 140.1575 78.405887 
L 142.25 77.84343 
L 144.3425 77.287742 
L 146.435 77.080189 
L 148.5275 76.535262 
L 150.62 75.996932 
L 152.7125 75.799935 
L 154.805 75.272077 
L 156.8975 74.750664 
L 158.99 74.235647 
L 161.0825 73.726976 
L 163.175 73.547818 
L 165.2675 73.049185 
L 167.36 72.556764 
L 169.4525 72.070509 
L 171.545 71.590373 
L 173.6375 71.428187 
L 175.73 70.957679 
L 177.8225 70.801262 
L 179.915 70.340227 
L 182.0075 69.88509 
L 184.1 69.737752 
L 186.1925 69.291841 
L 188.285 68.851686 
L 190.3775 68.71313 
L 192.47 68.281944 
L 194.5625 67.856366 
L 196.655 67.726283 
L 198.7475 67.309406 
L 200.84 66.897984 
L 202.9325 66.77605 
L 205.025 66.373051 
L 207.1175 66.255989 
L 209.21 65.86123 
L 211.3025 65.748905 
L 213.395 65.362201 
L 215.4875 64.980583 
L 217.58 64.875641 
L 219.6725 64.501783 
L 221.765 64.401222 
" clip-path="url(#p6a2340eeef)" style="fill: none; stroke: #008000; stroke-width: 1.5; stroke-linecap: square"/>
   </g>
   <g id="line2d_10">
    <path d="M 54.365 76.103056 
L 56.4575 75.222399 
L 58.55 73.034869 
L 60.6425 71.595462 
L 62.735 69.581078 
L 64.8275 68.88243 
L 66.92 66.999968 
L 69.0125 65.779074 
L 71.105 64.600882 
L 73.1975 63.462959 
L 75.29 61.821496 
L 77.3825 60.770404 
L 79.475 59.753245 
L 81.5675 58.268352 
L 83.66 57.814338 
L 85.7525 56.889709 
L 87.845 55.526989 
L 89.9375 54.668141 
L 92.03 53.834869 
L 94.1225 53.026152 
L 96.215 52.241033 
L 98.3075 51.478615 
L 100.4 50.336228 
L 102.4925 49.625858 
L 104.585 48.935583 
L 106.6775 48.639807 
L 108.77 47.97918 
L 110.8625 47.336865 
L 112.955 46.712264 
L 115.0475 45.76245 
L 117.14 45.17931 
L 119.2325 44.9392 
L 121.325 44.380047 
L 123.4175 43.836032 
L 125.51 43.306711 
L 127.6025 42.492956 
L 129.695 41.998461 
L 131.7875 41.80274 
L 133.88 41.32811 
L 135.9725 40.866212 
L 138.065 40.416698 
L 140.1575 39.979233 
L 142.25 39.553492 
L 144.3425 39.139161 
L 146.435 38.982606 
L 148.5275 38.58471 
L 150.62 38.197466 
L 152.7125 38.054042 
L 154.805 37.682103 
L 156.8975 37.320114 
L 158.99 36.967812 
L 161.0825 36.624942 
L 163.175 36.50269 
L 165.2675 36.173305 
L 167.36 35.852731 
L 169.4525 35.540732 
L 171.545 35.23708 
L 173.6375 35.133269 
L 175.73 34.84148 
L 177.8225 34.743315 
L 179.915 34.462877 
L 182.0075 34.189905 
L 184.1 34.100511 
L 186.1925 33.838085 
L 188.285 33.582617 
L 190.3775 33.501301 
L 192.47 33.255622 
L 194.5625 33.016424 
L 196.655 32.942532 
L 198.7475 32.712409 
L 200.84 32.488319 
L 202.9325 32.421238 
L 205.025 32.205554 
L 207.1175 32.142297 
L 209.21 31.934636 
L 211.3025 31.874999 
L 213.395 31.674992 
L 215.4875 31.480124 
L 217.58 31.426076 
L 219.6725 31.238288 
L 221.765 31.187364 
" clip-path="url(#p6a2340eeef)" style="fill: none; stroke: #0000ff; stroke-width: 1.5; stroke-linecap: square"/>
   </g>
   <g id="line2d_11">
    <path d="M 54.365 38.34873 
L 56.4575 37.711011 
L 58.55 36.220093 
L 60.6425 35.282767 
L 62.735 34.043773 
L 64.8275 33.619993 
L 66.92 32.552765 
L 69.0125 31.888561 
L 71.105 31.272107 
L 73.1975 30.699256 
L 75.29 29.919002 
L 77.3825 29.437696 
L 79.475 28.989022 
L 81.5675 28.370744 
L 83.66 28.179482 
L 85.7525 27.814165 
L 87.845 27.306196 
L 89.9375 26.996183 
L 92.03 26.705883 
L 94.1225 26.433884 
L 96.215 26.178892 
L 98.3075 25.939722 
L 100.4 25.601952 
L 102.4925 25.397649 
L 104.585 25.205764 
L 106.6775 25.120731 
L 108.77 24.945959 
L 110.8625 24.781633 
L 112.955 24.62708 
L 115.0475 24.405829 
L 117.14 24.273152 
L 119.2325 24.216049 
L 121.325 24.094787 
L 123.4175 23.980593 
L 125.51 23.873034 
L 127.6025 23.717409 
L 129.695 23.624828 
L 131.7875 23.586244 
L 133.88 23.501428 
L 135.9725 23.421468 
L 138.065 23.346072 
L 140.1575 23.274968 
L 142.25 23.207899 
L 144.3425 23.144627 
L 146.435 23.11935 
L 148.5275 23.061248 
L 150.62 23.006404 
L 152.7125 22.984916 
L 154.805 22.934499 
L 156.8975 22.886881 
L 158.99 22.841896 
L 161.0825 22.79939 
L 163.175 22.78337 
L 165.2675 22.744213 
L 167.36 22.707186 
L 169.4525 22.672166 
L 171.545 22.639034 
L 173.6375 22.62709 
L 175.73 22.596493 
L 177.8225 22.58565 
L 179.915 22.557365 
L 182.0075 22.530569 
L 184.1 22.521343 
L 186.1925 22.496531 
L 188.285 22.473003 
L 190.3775 22.465148 
L 192.47 22.443324 
L 194.5625 22.422611 
L 196.655 22.415916 
L 198.7475 22.396669 
L 200.84 22.378384 
L 202.9325 22.372671 
L 205.025 22.35565 
L 207.1175 22.350448 
L 209.21 22.334583 
L 211.3025 22.329844 
L 213.395 22.315039 
L 215.4875 22.300943 
L 217.58 22.296888 
L 219.6725 22.28371 
L 221.765 22.280009 
" clip-path="url(#p6a2340eeef)" style="fill: none; stroke: #000000; stroke-width: 1.5; stroke-linecap: square"/>
   </g>
   <g id="line2d_12">
    <path d="M 54.365 23.069134 
L 56.4575 22.970697 
L 58.55 22.773812 
L 60.6425 22.6595 
L 62.735 22.526258 
L 64.8275 22.479827 
L 66.92 22.382663 
L 69.0125 22.326061 
L 71.105 22.277523 
L 73.1975 22.235826 
L 75.29 22.1861 
L 77.3825 22.157062 
L 79.475 22.131998 
L 81.5675 22.10188 
L 83.66 22.091601 
L 85.7525 22.075375 
L 87.845 22.055792 
L 89.9375 22.044319 
L 92.03 22.034357 
L 94.1225 22.025703 
L 96.215 22.01818 
L 98.3075 22.011638 
L 100.4 22.003686 
L 102.4925 21.999022 
L 104.585 21.994961 
L 106.6775 21.992925 
L 108.77 21.989653 
L 110.8625 21.986802 
L 112.955 21.984316 
L 115.0475 21.981267 
L 117.14 21.979484 
L 119.2325 21.978605 
L 121.325 21.977163 
L 123.4175 21.975902 
L 125.51 21.9748 
L 127.6025 21.973427 
L 129.695 21.972629 
L 131.7875 21.972248 
L 133.88 21.971598 
L 135.9725 21.971026 
L 138.065 21.970524 
L 140.1575 21.970081 
L 142.25 21.969691 
L 144.3425 21.969347 
L 146.435 21.969191 
L 148.5275 21.968906 
L 150.62 21.968654 
L 152.7125 21.968543 
L 154.805 21.968332 
L 156.8975 21.968146 
L 158.99 21.967979 
L 161.0825 21.967831 
L 163.175 21.967769 
L 165.2675 21.967644 
L 167.36 21.967532 
L 169.4525 21.967432 
L 171.545 21.967342 
L 173.6375 21.967306 
L 175.73 21.967229 
L 177.8225 21.9672 
L 179.915 21.967134 
L 182.0075 21.967074 
L 184.1 21.967052 
L 186.1925 21.967001 
L 188.285 21.966954 
L 190.3775 21.966938 
L 192.47 21.966897 
L 194.5625 21.96686 
L 196.655 21.966848 
L 198.7475 21.966816 
L 200.84 21.966786 
L 202.9325 21.966777 
L 205.025 21.966751 
L 207.1175 21.966743 
L 209.21 21.96672 
L 211.3025 21.966713 
L 213.395 21.966693 
L 215.4875 21.966674 
L 217.58 21.966669 
L 219.6725 21.966652 
L 221.765 21.966648 
" clip-path="url(#p6a2340eeef)" style="fill: none; stroke: #800080; stroke-width: 1.5; stroke-linecap: square"/>
   </g>
   <g id="line2d_13">
    <path d="M 54.365 145.512102 
L 56.4575 145.097142 
L 58.55 144.700785 
L 60.6425 144.320753 
L 62.735 143.955199 
L 64.8275 143.602601 
L 66.92 143.261685 
L 69.0125 142.931376 
L 71.105 142.610753 
L 73.1975 142.299022 
L 75.29 141.995492 
L 77.3825 141.699558 
L 79.475 141.410685 
L 81.5675 141.128398 
L 83.66 140.852276 
L 85.7525 140.581938 
L 87.845 140.317042 
L 89.9375 140.057279 
L 92.03 139.802367 
L 94.1225 139.552052 
L 96.215 139.306098 
L 98.3075 139.064292 
L 100.4 138.826436 
L 102.4925 138.592349 
L 104.585 138.361864 
L 106.6775 138.134826 
L 108.77 137.911091 
L 110.8625 137.690526 
L 112.955 137.473008 
L 115.0475 137.258423 
L 117.14 137.046663 
L 119.2325 136.83763 
L 121.325 136.631232 
L 123.4175 136.427381 
L 125.51 136.225998 
L 127.6025 136.027009 
L 129.695 135.830344 
L 131.7875 135.635938 
L 133.88 135.443731 
L 135.9725 135.253666 
L 138.065 135.065691 
L 140.1575 134.879758 
L 142.25 134.69582 
L 144.3425 134.513836 
L 146.435 134.333765 
L 148.5275 134.155572 
L 150.62 133.979221 
L 152.7125 133.804681 
L 154.805 133.631922 
L 156.8975 133.460916 
L 158.99 133.291637 
L 161.0825 133.12406 
L 163.175 132.958162 
L 165.2675 132.793923 
L 167.36 132.631322 
L 169.4525 132.47034 
L 171.545 132.310959 
L 173.6375 132.153163 
L 175.73 131.996935 
L 177.8225 131.842261 
L 179.915 131.689126 
L 182.0075 131.537516 
L 184.1 131.387418 
L 186.1925 131.23882 
L 188.285 131.091709 
L 190.3775 130.946074 
L 192.47 130.801904 
L 194.5625 130.659186 
L 196.655 130.517912 
L 198.7475 130.378069 
L 200.84 130.239648 
L 202.9325 130.102639 
L 205.025 129.967032 
L 207.1175 129.832817 
L 209.21 129.699983 
L 211.3025 129.568523 
L 213.395 129.438425 
L 215.4875 129.30968 
L 217.58 129.182279 
L 219.6725 129.056213 
L 221.765 128.931471 
" clip-path="url(#p6a2340eeef)" style="fill: none; stroke-dasharray: 5.55,2.4; stroke-dashoffset: 0; stroke: #ffd700; stroke-width: 1.5"/>
   </g>
   <g id="line2d_14">
    <path d="M 54.365 137.047189 
L 56.4575 136.225787 
L 58.55 135.44198 
L 60.6425 134.691195 
L 62.735 133.969722 
L 64.8275 133.274502 
L 66.92 132.602979 
L 69.0125 131.952986 
L 71.105 131.322675 
L 73.1975 130.710447 
L 75.29 130.114911 
L 77.3825 129.534849 
L 79.475 128.969183 
L 81.5675 128.41696 
L 83.66 127.877325 
L 85.7525 127.349513 
L 87.845 126.832835 
L 89.9375 126.326667 
L 92.03 125.830441 
L 94.1225 125.34364 
L 96.215 124.865793 
L 98.3075 124.396466 
L 100.4 123.935261 
L 102.4925 123.481812 
L 104.585 123.03578 
L 106.6775 122.596852 
L 108.77 122.164738 
L 110.8625 121.73917 
L 112.955 121.319898 
L 115.0475 120.906691 
L 117.14 120.499333 
L 119.2325 120.097623 
L 121.325 119.701376 
L 123.4175 119.310417 
L 125.51 118.924585 
L 127.6025 118.543728 
L 129.695 118.167707 
L 131.7875 117.79639 
L 133.88 117.429656 
L 135.9725 117.067391 
L 138.065 116.709488 
L 140.1575 116.355849 
L 142.25 116.006381 
L 144.3425 115.660999 
L 146.435 115.319622 
L 148.5275 114.982174 
L 150.62 114.648587 
L 152.7125 114.318793 
L 154.805 113.992732 
L 156.8975 113.670345 
L 158.99 113.351579 
L 161.0825 113.036382 
L 163.175 112.724706 
L 165.2675 112.416507 
L 167.36 112.111741 
L 169.4525 111.810367 
L 171.545 111.512347 
L 173.6375 111.217644 
L 175.73 110.926223 
L 177.8225 110.63805 
L 179.915 110.353092 
L 182.0075 110.071318 
L 184.1 109.792699 
L 186.1925 109.517204 
L 188.285 109.244805 
L 190.3775 108.975475 
L 192.47 108.709186 
L 194.5625 108.445912 
L 196.655 108.185626 
L 198.7475 107.928303 
L 200.84 107.673917 
L 202.9325 107.422444 
L 205.025 107.173858 
L 207.1175 106.928134 
L 209.21 106.685248 
L 211.3025 106.445176 
L 213.395 106.207894 
L 215.4875 105.973376 
L 217.58 105.741598 
L 219.6725 105.512538 
L 221.765 105.286169 
" clip-path="url(#p6a2340eeef)" style="fill: none; stroke-dasharray: 5.55,2.4; stroke-dashoffset: 0; stroke: #008000; stroke-width: 1.5"/>
   </g>
   <g id="line2d_15">
    <path d="M 54.365 120.500212 
L 56.4575 118.923819 
L 58.55 117.425483 
L 60.6425 115.995905 
L 62.735 114.627534 
L 64.8275 113.314131 
L 66.92 112.050474 
L 69.0125 110.832135 
L 71.105 109.655323 
L 73.1975 108.516759 
L 75.29 107.413585 
L 77.3825 106.343292 
L 79.475 105.30366 
L 81.5675 104.292715 
L 83.66 103.308694 
L 85.7525 102.35001 
L 87.845 101.415233 
L 89.9375 100.503064 
L 92.03 99.612324 
L 94.1225 98.741936 
L 96.215 97.890913 
L 98.3075 97.058352 
L 100.4 96.243417 
L 102.4925 95.445343 
L 104.585 94.663419 
L 106.6775 93.896989 
L 108.77 93.145445 
L 110.8625 92.408222 
L 112.955 91.684796 
L 115.0475 90.974681 
L 117.14 90.277422 
L 119.2325 89.592598 
L 121.325 88.919817 
L 123.4175 88.258711 
L 125.51 87.608939 
L 127.6025 86.970182 
L 129.695 86.342143 
L 131.7875 85.724542 
L 133.88 85.117119 
L 135.9725 84.51963 
L 138.065 83.931846 
L 140.1575 83.353552 
L 142.25 82.784547 
L 144.3425 82.224639 
L 146.435 81.673649 
L 148.5275 81.131407 
L 150.62 80.597752 
L 152.7125 80.072531 
L 154.805 79.555599 
L 156.8975 79.046816 
L 158.99 78.54605 
L 161.0825 78.053172 
L 163.175 77.56806 
L 165.2675 77.090596 
L 167.36 76.620664 
L 169.4525 76.158154 
L 171.545 75.702957 
L 173.6375 75.254967 
L 175.73 74.814082 
L 177.8225 74.380201 
L 179.915 73.953225 
L 182.0075 73.533057 
L 184.1 73.1196 
L 186.1925 72.712761 
L 188.285 72.312447 
L 190.3775 71.918564 
L 192.47 71.531023 
L 194.5625 71.149734 
L 196.655 70.774606 
L 198.7475 70.405551 
L 200.84 70.042481 
L 202.9325 69.68531 
L 205.025 69.333951 
L 207.1175 68.988317 
L 209.21 68.648325 
L 211.3025 68.313888 
L 213.395 67.984924 
L 215.4875 67.661349 
L 217.58 67.34308 
L 219.6725 67.030035 
L 221.765 66.722133 
" clip-path="url(#p6a2340eeef)" style="fill: none; stroke-dasharray: 5.55,2.4; stroke-dashoffset: 0; stroke: #0000ff; stroke-width: 1.5"/>
   </g>
   <g id="line2d_16">
    <path d="M 54.365 90.277832 
L 56.4575 87.604735 
L 58.55 85.103662 
L 60.6425 82.754614 
L 62.735 80.541236 
L 64.8275 78.449931 
L 66.92 76.469242 
L 69.0125 74.589391 
L 71.105 72.801956 
L 73.1975 71.099605 
L 75.29 69.475913 
L 77.3825 67.925201 
L 79.475 66.442422 
L 81.5675 65.023064 
L 83.66 63.66307 
L 85.7525 62.358778 
L 87.845 61.106866 
L 89.9375 59.904312 
L 92.03 58.748356 
L 94.1225 57.636469 
L 96.215 56.566331 
L 98.3075 55.535805 
L 100.4 54.54292 
L 102.4925 53.585858 
L 104.585 52.662932 
L 106.6775 51.772581 
L 108.77 50.913355 
L 110.8625 50.083905 
L 112.955 49.282976 
L 115.0475 48.509396 
L 117.14 47.762071 
L 119.2325 47.039975 
L 121.325 46.342147 
L 123.4175 45.667683 
L 125.51 45.015729 
L 127.6025 44.385482 
L 129.695 43.776179 
L 131.7875 43.187097 
L 133.88 42.617546 
L 135.9725 42.06687 
L 138.065 41.534439 
L 140.1575 41.019651 
L 142.25 40.521928 
L 144.3425 40.040711 
L 146.435 39.575463 
L 148.5275 39.125664 
L 150.62 38.690812 
L 152.7125 38.270419 
L 154.805 37.864015 
L 156.8975 37.47114 
L 158.99 37.091349 
L 161.0825 36.724211 
L 163.175 36.369306 
L 165.2675 36.026224 
L 167.36 35.694569 
L 169.4525 35.373956 
L 171.545 35.064009 
L 173.6375 34.764365 
L 175.73 34.474669 
L 177.8225 34.194578 
L 179.915 33.923759 
L 182.0075 33.661888 
L 184.1 33.408652 
L 186.1925 33.163747 
L 188.285 32.926878 
L 190.3775 32.697761 
L 192.47 32.47612 
L 194.5625 32.261687 
L 196.655 32.054206 
L 198.7475 31.853425 
L 200.84 31.659106 
L 202.9325 31.471015 
L 205.025 31.288927 
L 207.1175 31.112627 
L 209.21 30.941905 
L 211.3025 30.776559 
L 213.395 30.616396 
L 215.4875 30.461229 
L 217.58 30.310877 
L 219.6725 30.165167 
L 221.765 30.023932 
" clip-path="url(#p6a2340eeef)" style="fill: none; stroke-dasharray: 5.55,2.4; stroke-dashoffset: 0; stroke: #000000; stroke-width: 1.5"/>
   </g>
   <g id="line2d_17">
    <path d="M 54.365 47.753578 
L 56.4575 44.990361 
L 58.55 42.562667 
L 60.6425 40.421611 
L 62.735 38.527254 
L 64.8275 36.84654 
L 66.92 35.351803 
L 69.0125 34.019683 
L 71.105 32.830296 
L 73.1975 31.766608 
L 75.29 30.813941 
L 77.3825 29.959586 
L 79.475 29.192489 
L 81.5675 28.503004 
L 83.66 27.882684 
L 85.7525 27.324112 
L 87.845 26.820758 
L 89.9375 26.366862 
L 92.03 25.957331 
L 94.1225 25.58765 
L 96.215 25.253811 
L 98.3075 24.952246 
L 100.4 24.67977 
L 102.4925 24.433535 
L 104.585 24.210987 
L 106.6775 24.009832 
L 108.77 23.828002 
L 110.8625 23.663632 
L 112.955 23.515037 
L 115.0475 23.380691 
L 117.14 23.259213 
L 119.2325 23.149352 
L 121.325 23.049976 
L 123.4175 22.960056 
L 125.51 22.878665 
L 127.6025 22.804962 
L 129.695 22.738186 
L 131.7875 22.677652 
L 133.88 22.622739 
L 135.9725 22.572891 
L 138.065 22.527605 
L 140.1575 22.486428 
L 142.25 22.448953 
L 144.3425 22.414815 
L 146.435 22.383686 
L 148.5275 22.355271 
L 150.62 22.329306 
L 152.7125 22.305553 
L 154.805 22.283798 
L 156.8975 22.263852 
L 158.99 22.245543 
L 161.0825 22.228715 
L 163.175 22.213232 
L 165.2675 22.198968 
L 167.36 22.185812 
L 169.4525 22.173664 
L 171.545 22.162433 
L 173.6375 22.152037 
L 175.73 22.142404 
L 177.8225 22.133466 
L 179.915 22.125164 
L 182.0075 22.117445 
L 184.1 22.110258 
L 186.1925 22.103561 
L 188.285 22.097312 
L 190.3775 22.091476 
L 192.47 22.086019 
L 194.5625 22.080912 
L 196.655 22.076127 
L 198.7475 22.07164 
L 200.84 22.067427 
L 202.9325 22.063468 
L 205.025 22.059744 
L 207.1175 22.056239 
L 209.21 22.052936 
L 211.3025 22.04982 
L 213.395 22.046879 
L 215.4875 22.0441 
L 217.58 22.041473 
L 219.6725 22.038986 
L 221.765 22.036631 
" clip-path="url(#p6a2340eeef)" style="fill: none; stroke-dasharray: 5.55,2.4; stroke-dashoffset: 0; stroke: #800080; stroke-width: 1.5"/>
   </g>
   <g id="patch_3">
    <path d="M 45.995 151.689375 
L 45.995 15.789375 
" style="fill: none; stroke: #000000; stroke-width: 0.8; stroke-linejoin: miter; stroke-linecap: square"/>
   </g>
   <g id="patch_4">
    <path d="M 45.995 151.689375 
L 230.135 151.689375 
" style="fill: none; stroke: #000000; stroke-width: 0.8; stroke-linejoin: miter; stroke-linecap: square"/>
   </g>
   <g id="text_10">
    <!-- A -->
    <g transform="translate(18.374 15.789375)scale(0.12 -0.12)">
     <defs>
      <path id="Arial-BoldMT-41" d="M 4597 0 
L 3591 0 
L 3191 1041 
L 1359 1041 
L 981 0 
L 0 0 
L 1784 4581 
L 2763 4581 
L 4597 0 
z
M 2894 1813 
L 2263 3513 
L 1644 1813 
L 2894 1813 
z
" transform="scale(0.015625)"/>
     </defs>
     <use xlink:href="#Arial-BoldMT-41"/>
    </g>
   </g>
  </g>
 </g>
 <defs>
  <clipPath id="p6a2340eeef">
   <rect x="45.995" y="15.789375" width="184.14" height="135.9"/>
  </clipPath>
 </defs>
</svg>
