<?xml version="1.0" encoding="utf-8" standalone="no"?>
<!DOCTYPE svg PUBLIC "-//W3C//DTD SVG 1.1//EN"
  "http://www.w3.org/Graphics/SVG/1.1/DTD/svg11.dtd">
<svg xmlns:xlink="http://www.w3.org/1999/xlink" width="237.48125pt" height="192.26375pt" viewBox="0 0 237.48125 192.26375" xmlns="http://www.w3.org/2000/svg" version="1.1">
 <metadata>
  <rdf:RDF xmlns:dc="http://purl.org/dc/elements/1.1/" xmlns:cc="http://creativecommons.org/ns#" xmlns:rdf="http://www.w3.org/1999/02/22-rdf-syntax-ns#">
   <cc:Work>
    <dc:type rdf:resource="http://purl.org/dc/dcmitype/StillImage"/>
    <dc:date>2023-02-12T12:54:09.453822</dc:date>
    <dc:format>image/svg+xml</dc:format>
    <dc:creator>
     <cc:Agent>
      <dc:title>Matplotlib v3.5.1, https://matplotlib.org/</dc:title>
     </cc:Agent>
    </dc:creator>
   </cc:Work>
  </rdf:RDF>
 </metadata>
 <defs>
  <style type="text/css">*{stroke-linejoin: round; stroke-linecap: butt}</style>
 </defs>
 <g id="figure_1">
  <g id="patch_1">
   <path d="M 0 192.26375 
L 237.48125 192.26375 
L 237.48125 0 
L 0 0 
L 0 192.26375 
z
" style="fill: none"/>
  </g>
  <g id="axes_1">
   <g id="patch_2">
    <path d="M 46.14125 151.689375 
L 230.28125 151.689375 
L 230.28125 15.789375 
L 46.14125 15.789375 
z
" style="fill: #ffffff"/>
   </g>
   <g id="matplotlib.axis_1">
    <g id="xtick_1">
     <g id="line2d_1">
      <defs>
       <path id="mc0f8c21eff" d="M 0 0 
L 0 3.5 
" style="stroke: #000000; stroke-width: 0.8"/>
      </defs>
      <g>
       <use xlink:href="#mc0f8c21eff" x="75.43625" y="151.689375" style="stroke: #000000; stroke-width: 0.8"/>
      </g>
     </g>
     <g id="text_1">
      <!-- 0.2 -->
      <g transform="translate(67.09625 167.27875)scale(0.12 -0.12)">
       <defs>
        <path id="ArialMT-30" d="M 266 2259 
Q 266 3072 433 3567 
Q 600 4063 929 4331 
Q 1259 4600 1759 4600 
Q 2128 4600 2406 4451 
Q 2684 4303 2865 4023 
Q 3047 3744 3150 3342 
Q 3253 2941 3253 2259 
Q 3253 1453 3087 958 
Q 2922 463 2592 192 
Q 2263 -78 1759 -78 
Q 1097 -78 719 397 
Q 266 969 266 2259 
z
M 844 2259 
Q 844 1131 1108 757 
Q 1372 384 1759 384 
Q 2147 384 2411 759 
Q 2675 1134 2675 2259 
Q 2675 3391 2411 3762 
Q 2147 4134 1753 4134 
Q 1366 4134 1134 3806 
Q 844 3388 844 2259 
z
" transform="scale(0.015625)"/>
        <path id="ArialMT-2e" d="M 581 0 
L 581 641 
L 1222 641 
L 1222 0 
L 581 0 
z
" transform="scale(0.015625)"/>
        <path id="ArialMT-32" d="M 3222 541 
L 3222 0 
L 194 0 
Q 188 203 259 391 
Q 375 700 629 1000 
Q 884 1300 1366 1694 
Q 2113 2306 2375 2664 
Q 2638 3022 2638 3341 
Q 2638 3675 2398 3904 
Q 2159 4134 1775 4134 
Q 1369 4134 1125 3890 
Q 881 3647 878 3216 
L 300 3275 
Q 359 3922 746 4261 
Q 1134 4600 1788 4600 
Q 2447 4600 2831 4234 
Q 3216 3869 3216 3328 
Q 3216 3053 3103 2787 
Q 2991 2522 2730 2228 
Q 2469 1934 1863 1422 
Q 1356 997 1212 845 
Q 1069 694 975 541 
L 3222 541 
z
" transform="scale(0.015625)"/>
       </defs>
       <use xlink:href="#ArialMT-30"/>
       <use xlink:href="#ArialMT-2e" x="55.615234"/>
       <use xlink:href="#ArialMT-32" x="83.398438"/>
      </g>
     </g>
    </g>
    <g id="xtick_2">
     <g id="line2d_2">
      <g>
       <use xlink:href="#mc0f8c21eff" x="117.28625" y="151.689375" style="stroke: #000000; stroke-width: 0.8"/>
      </g>
     </g>
     <g id="text_2">
      <!-- 0.4 -->
      <g transform="translate(108.94625 167.27875)scale(0.12 -0.12)">
       <defs>
        <path id="ArialMT-34" d="M 2069 0 
L 2069 1097 
L 81 1097 
L 81 1613 
L 2172 4581 
L 2631 4581 
L 2631 1613 
L 3250 1613 
L 3250 1097 
L 2631 1097 
L 2631 0 
L 2069 0 
z
M 2069 1613 
L 2069 3678 
L 634 1613 
L 2069 1613 
z
" transform="scale(0.015625)"/>
       </defs>
       <use xlink:href="#ArialMT-30"/>
       <use xlink:href="#ArialMT-2e" x="55.615234"/>
       <use xlink:href="#ArialMT-34" x="83.398438"/>
      </g>
     </g>
    </g>
    <g id="xtick_3">
     <g id="line2d_3">
      <g>
       <use xlink:href="#mc0f8c21eff" x="159.13625" y="151.689375" style="stroke: #000000; stroke-width: 0.8"/>
      </g>
     </g>
     <g id="text_3">
      <!-- 0.6 -->
      <g transform="translate(150.79625 167.27875)scale(0.12 -0.12)">
       <defs>
        <path id="ArialMT-36" d="M 3184 3459 
L 2625 3416 
Q 2550 3747 2413 3897 
Q 2184 4138 1850 4138 
Q 1581 4138 1378 3988 
Q 1113 3794 959 3422 
Q 806 3050 800 2363 
Q 1003 2672 1297 2822 
Q 1591 2972 1913 2972 
Q 2475 2972 2870 2558 
Q 3266 2144 3266 1488 
Q 3266 1056 3080 686 
Q 2894 316 2569 119 
Q 2244 -78 1831 -78 
Q 1128 -78 684 439 
Q 241 956 241 2144 
Q 241 3472 731 4075 
Q 1159 4600 1884 4600 
Q 2425 4600 2770 4297 
Q 3116 3994 3184 3459 
z
M 888 1484 
Q 888 1194 1011 928 
Q 1134 663 1356 523 
Q 1578 384 1822 384 
Q 2178 384 2434 671 
Q 2691 959 2691 1453 
Q 2691 1928 2437 2201 
Q 2184 2475 1800 2475 
Q 1419 2475 1153 2201 
Q 888 1928 888 1484 
z
" transform="scale(0.015625)"/>
       </defs>
       <use xlink:href="#ArialMT-30"/>
       <use xlink:href="#ArialMT-2e" x="55.615234"/>
       <use xlink:href="#ArialMT-36" x="83.398438"/>
      </g>
     </g>
    </g>
    <g id="xtick_4">
     <g id="line2d_4">
      <g>
       <use xlink:href="#mc0f8c21eff" x="200.98625" y="151.689375" style="stroke: #000000; stroke-width: 0.8"/>
      </g>
     </g>
     <g id="text_4">
      <!-- 0.8 -->
      <g transform="translate(192.64625 167.27875)scale(0.12 -0.12)">
       <defs>
        <path id="ArialMT-38" d="M 1131 2484 
Q 781 2613 612 2850 
Q 444 3088 444 3419 
Q 444 3919 803 4259 
Q 1163 4600 1759 4600 
Q 2359 4600 2725 4251 
Q 3091 3903 3091 3403 
Q 3091 3084 2923 2848 
Q 2756 2613 2416 2484 
Q 2838 2347 3058 2040 
Q 3278 1734 3278 1309 
Q 3278 722 2862 322 
Q 2447 -78 1769 -78 
Q 1091 -78 675 323 
Q 259 725 259 1325 
Q 259 1772 486 2073 
Q 713 2375 1131 2484 
z
M 1019 3438 
Q 1019 3113 1228 2906 
Q 1438 2700 1772 2700 
Q 2097 2700 2305 2904 
Q 2513 3109 2513 3406 
Q 2513 3716 2298 3927 
Q 2084 4138 1766 4138 
Q 1444 4138 1231 3931 
Q 1019 3725 1019 3438 
z
M 838 1322 
Q 838 1081 952 856 
Q 1066 631 1291 507 
Q 1516 384 1775 384 
Q 2178 384 2440 643 
Q 2703 903 2703 1303 
Q 2703 1709 2433 1975 
Q 2163 2241 1756 2241 
Q 1359 2241 1098 1978 
Q 838 1716 838 1322 
z
" transform="scale(0.015625)"/>
       </defs>
       <use xlink:href="#ArialMT-30"/>
       <use xlink:href="#ArialMT-2e" x="55.615234"/>
       <use xlink:href="#ArialMT-38" x="83.398438"/>
      </g>
     </g>
    </g>
    <g id="text_5">
     <!-- Time($t$) -->
     <g transform="translate(118.47125 182.42375)scale(0.12 -0.12)">
      <defs>
       <path id="ArialMT-54" d="M 1659 0 
L 1659 4041 
L 150 4041 
L 150 4581 
L 3781 4581 
L 3781 4041 
L 2266 4041 
L 2266 0 
L 1659 0 
z
" transform="scale(0.015625)"/>
       <path id="ArialMT-69" d="M 425 3934 
L 425 4581 
L 988 4581 
L 988 3934 
L 425 3934 
z
M 425 0 
L 425 3319 
L 988 3319 
L 988 0 
L 425 0 
z
" transform="scale(0.015625)"/>
       <path id="ArialMT-6d" d="M 422 0 
L 422 3319 
L 925 3319 
L 925 2853 
Q 1081 3097 1340 3245 
Q 1600 3394 1931 3394 
Q 2300 3394 2536 3241 
Q 2772 3088 2869 2813 
Q 3263 3394 3894 3394 
Q 4388 3394 4653 3120 
Q 4919 2847 4919 2278 
L 4919 0 
L 4359 0 
L 4359 2091 
Q 4359 2428 4304 2576 
Q 4250 2725 4106 2815 
Q 3963 2906 3769 2906 
Q 3419 2906 3187 2673 
Q 2956 2441 2956 1928 
L 2956 0 
L 2394 0 
L 2394 2156 
Q 2394 2531 2256 2718 
Q 2119 2906 1806 2906 
Q 1569 2906 1367 2781 
Q 1166 2656 1075 2415 
Q 984 2175 984 1722 
L 984 0 
L 422 0 
z
" transform="scale(0.015625)"/>
       <path id="ArialMT-65" d="M 2694 1069 
L 3275 997 
Q 3138 488 2766 206 
Q 2394 -75 1816 -75 
Q 1088 -75 661 373 
Q 234 822 234 1631 
Q 234 2469 665 2931 
Q 1097 3394 1784 3394 
Q 2450 3394 2872 2941 
Q 3294 2488 3294 1666 
Q 3294 1616 3291 1516 
L 816 1516 
Q 847 969 1125 678 
Q 1403 388 1819 388 
Q 2128 388 2347 550 
Q 2566 713 2694 1069 
z
M 847 1978 
L 2700 1978 
Q 2663 2397 2488 2606 
Q 2219 2931 1791 2931 
Q 1403 2931 1139 2672 
Q 875 2413 847 1978 
z
" transform="scale(0.015625)"/>
       <path id="ArialMT-28" d="M 1497 -1347 
Q 1031 -759 709 28 
Q 388 816 388 1659 
Q 388 2403 628 3084 
Q 909 3875 1497 4659 
L 1900 4659 
Q 1522 4009 1400 3731 
Q 1209 3300 1100 2831 
Q 966 2247 966 1656 
Q 966 153 1900 -1347 
L 1497 -1347 
z
" transform="scale(0.015625)"/>
       <path id="DejaVuSans-Oblique-74" d="M 2706 3500 
L 2619 3053 
L 1472 3053 
L 1100 1153 
Q 1081 1047 1072 975 
Q 1063 903 1063 863 
Q 1063 663 1183 572 
Q 1303 481 1569 481 
L 2150 481 
L 2053 0 
L 1503 0 
Q 991 0 739 200 
Q 488 400 488 806 
Q 488 878 497 964 
Q 506 1050 525 1153 
L 897 3053 
L 409 3053 
L 500 3500 
L 978 3500 
L 1172 4494 
L 1747 4494 
L 1556 3500 
L 2706 3500 
z
" transform="scale(0.015625)"/>
       <path id="ArialMT-29" d="M 791 -1347 
L 388 -1347 
Q 1322 153 1322 1656 
Q 1322 2244 1188 2822 
Q 1081 3291 891 3722 
Q 769 4003 388 4659 
L 791 4659 
Q 1378 3875 1659 3084 
Q 1900 2403 1900 1659 
Q 1900 816 1576 28 
Q 1253 -759 791 -1347 
z
" transform="scale(0.015625)"/>
      </defs>
      <use xlink:href="#ArialMT-54" transform="translate(0 0.203125)"/>
      <use xlink:href="#ArialMT-69" transform="translate(61.083984 0.203125)"/>
      <use xlink:href="#ArialMT-6d" transform="translate(83.300781 0.203125)"/>
      <use xlink:href="#ArialMT-65" transform="translate(166.601562 0.203125)"/>
      <use xlink:href="#ArialMT-28" transform="translate(222.216797 0.203125)"/>
      <use xlink:href="#DejaVuSans-Oblique-74" transform="translate(255.517578 0.203125)"/>
      <use xlink:href="#ArialMT-29" transform="translate(294.726562 0.203125)"/>
     </g>
    </g>
   </g>
   <g id="matplotlib.axis_2">
    <g id="ytick_1">
     <g id="line2d_5">
      <defs>
       <path id="m847246afc6" d="M 0 0 
L -3.5 0 
" style="stroke: #000000; stroke-width: 0.8"/>
      </defs>
      <g>
       <use xlink:href="#m847246afc6" x="46.14125" y="148.564183" style="stroke: #000000; stroke-width: 0.8"/>
      </g>
     </g>
     <g id="text_6">
      <!-- 0.0 -->
      <g transform="translate(22.46125 152.85887)scale(0.12 -0.12)">
       <use xlink:href="#ArialMT-30"/>
       <use xlink:href="#ArialMT-2e" x="55.615234"/>
       <use xlink:href="#ArialMT-30" x="83.398438"/>
      </g>
     </g>
    </g>
    <g id="ytick_2">
     <g id="line2d_6">
      <g>
       <use xlink:href="#m847246afc6" x="46.14125" y="120.65669" style="stroke: #000000; stroke-width: 0.8"/>
      </g>
     </g>
     <g id="text_7">
      <!-- 0.2 -->
      <g transform="translate(22.46125 124.951377)scale(0.12 -0.12)">
       <use xlink:href="#ArialMT-30"/>
       <use xlink:href="#ArialMT-2e" x="55.615234"/>
       <use xlink:href="#ArialMT-32" x="83.398438"/>
      </g>
     </g>
    </g>
    <g id="ytick_3">
     <g id="line2d_7">
      <g>
       <use xlink:href="#m847246afc6" x="46.14125" y="92.749197" style="stroke: #000000; stroke-width: 0.8"/>
      </g>
     </g>
     <g id="text_8">
      <!-- 0.4 -->
      <g transform="translate(22.46125 97.043884)scale(0.12 -0.12)">
       <use xlink:href="#ArialMT-30"/>
       <use xlink:href="#ArialMT-2e" x="55.615234"/>
       <use xlink:href="#ArialMT-34" x="83.398438"/>
      </g>
     </g>
    </g>
    <g id="ytick_4">
     <g id="line2d_8">
      <g>
       <use xlink:href="#m847246afc6" x="46.14125" y="64.841704" style="stroke: #000000; stroke-width: 0.8"/>
      </g>
     </g>
     <g id="text_9">
      <!-- 0.6 -->
      <g transform="translate(22.46125 69.136391)scale(0.12 -0.12)">
       <use xlink:href="#ArialMT-30"/>
       <use xlink:href="#ArialMT-2e" x="55.615234"/>
       <use xlink:href="#ArialMT-36" x="83.398438"/>
      </g>
     </g>
    </g>
    <g id="ytick_5">
     <g id="line2d_9">
      <g>
       <use xlink:href="#m847246afc6" x="46.14125" y="36.934211" style="stroke: #000000; stroke-width: 0.8"/>
      </g>
     </g>
     <g id="text_10">
      <!-- 0.8 -->
      <g transform="translate(22.46125 41.228898)scale(0.12 -0.12)">
       <use xlink:href="#ArialMT-30"/>
       <use xlink:href="#ArialMT-2e" x="55.615234"/>
       <use xlink:href="#ArialMT-38" x="83.398438"/>
      </g>
     </g>
    </g>
    <g id="text_11">
     <!-- Sure target proportion -->
     <g transform="translate(15.935625 142.1025)rotate(-90)scale(0.12 -0.12)">
      <defs>
       <path id="ArialMT-53" d="M 288 1472 
L 859 1522 
Q 900 1178 1048 958 
Q 1197 738 1509 602 
Q 1822 466 2213 466 
Q 2559 466 2825 569 
Q 3091 672 3220 851 
Q 3350 1031 3350 1244 
Q 3350 1459 3225 1620 
Q 3100 1781 2813 1891 
Q 2628 1963 1997 2114 
Q 1366 2266 1113 2400 
Q 784 2572 623 2826 
Q 463 3081 463 3397 
Q 463 3744 659 4045 
Q 856 4347 1234 4503 
Q 1613 4659 2075 4659 
Q 2584 4659 2973 4495 
Q 3363 4331 3572 4012 
Q 3781 3694 3797 3291 
L 3216 3247 
Q 3169 3681 2898 3903 
Q 2628 4125 2100 4125 
Q 1550 4125 1298 3923 
Q 1047 3722 1047 3438 
Q 1047 3191 1225 3031 
Q 1400 2872 2139 2705 
Q 2878 2538 3153 2413 
Q 3553 2228 3743 1945 
Q 3934 1663 3934 1294 
Q 3934 928 3725 604 
Q 3516 281 3123 101 
Q 2731 -78 2241 -78 
Q 1619 -78 1198 103 
Q 778 284 539 648 
Q 300 1013 288 1472 
z
" transform="scale(0.015625)"/>
       <path id="ArialMT-75" d="M 2597 0 
L 2597 488 
Q 2209 -75 1544 -75 
Q 1250 -75 995 37 
Q 741 150 617 320 
Q 494 491 444 738 
Q 409 903 409 1263 
L 409 3319 
L 972 3319 
L 972 1478 
Q 972 1038 1006 884 
Q 1059 663 1231 536 
Q 1403 409 1656 409 
Q 1909 409 2131 539 
Q 2353 669 2445 892 
Q 2538 1116 2538 1541 
L 2538 3319 
L 3100 3319 
L 3100 0 
L 2597 0 
z
" transform="scale(0.015625)"/>
       <path id="ArialMT-72" d="M 416 0 
L 416 3319 
L 922 3319 
L 922 2816 
Q 1116 3169 1280 3281 
Q 1444 3394 1641 3394 
Q 1925 3394 2219 3213 
L 2025 2691 
Q 1819 2813 1613 2813 
Q 1428 2813 1281 2702 
Q 1134 2591 1072 2394 
Q 978 2094 978 1738 
L 978 0 
L 416 0 
z
" transform="scale(0.015625)"/>
       <path id="ArialMT-20" transform="scale(0.015625)"/>
       <path id="ArialMT-74" d="M 1650 503 
L 1731 6 
Q 1494 -44 1306 -44 
Q 1000 -44 831 53 
Q 663 150 594 308 
Q 525 466 525 972 
L 525 2881 
L 113 2881 
L 113 3319 
L 525 3319 
L 525 4141 
L 1084 4478 
L 1084 3319 
L 1650 3319 
L 1650 2881 
L 1084 2881 
L 1084 941 
Q 1084 700 1114 631 
Q 1144 563 1211 522 
Q 1278 481 1403 481 
Q 1497 481 1650 503 
z
" transform="scale(0.015625)"/>
       <path id="ArialMT-61" d="M 2588 409 
Q 2275 144 1986 34 
Q 1697 -75 1366 -75 
Q 819 -75 525 192 
Q 231 459 231 875 
Q 231 1119 342 1320 
Q 453 1522 633 1644 
Q 813 1766 1038 1828 
Q 1203 1872 1538 1913 
Q 2219 1994 2541 2106 
Q 2544 2222 2544 2253 
Q 2544 2597 2384 2738 
Q 2169 2928 1744 2928 
Q 1347 2928 1158 2789 
Q 969 2650 878 2297 
L 328 2372 
Q 403 2725 575 2942 
Q 747 3159 1072 3276 
Q 1397 3394 1825 3394 
Q 2250 3394 2515 3294 
Q 2781 3194 2906 3042 
Q 3031 2891 3081 2659 
Q 3109 2516 3109 2141 
L 3109 1391 
Q 3109 606 3145 398 
Q 3181 191 3288 0 
L 2700 0 
Q 2613 175 2588 409 
z
M 2541 1666 
Q 2234 1541 1622 1453 
Q 1275 1403 1131 1340 
Q 988 1278 909 1158 
Q 831 1038 831 891 
Q 831 666 1001 516 
Q 1172 366 1500 366 
Q 1825 366 2078 508 
Q 2331 650 2450 897 
Q 2541 1088 2541 1459 
L 2541 1666 
z
" transform="scale(0.015625)"/>
       <path id="ArialMT-67" d="M 319 -275 
L 866 -356 
Q 900 -609 1056 -725 
Q 1266 -881 1628 -881 
Q 2019 -881 2231 -725 
Q 2444 -569 2519 -288 
Q 2563 -116 2559 434 
Q 2191 0 1641 0 
Q 956 0 581 494 
Q 206 988 206 1678 
Q 206 2153 378 2554 
Q 550 2956 876 3175 
Q 1203 3394 1644 3394 
Q 2231 3394 2613 2919 
L 2613 3319 
L 3131 3319 
L 3131 450 
Q 3131 -325 2973 -648 
Q 2816 -972 2473 -1159 
Q 2131 -1347 1631 -1347 
Q 1038 -1347 672 -1080 
Q 306 -813 319 -275 
z
M 784 1719 
Q 784 1066 1043 766 
Q 1303 466 1694 466 
Q 2081 466 2343 764 
Q 2606 1063 2606 1700 
Q 2606 2309 2336 2618 
Q 2066 2928 1684 2928 
Q 1309 2928 1046 2623 
Q 784 2319 784 1719 
z
" transform="scale(0.015625)"/>
       <path id="ArialMT-70" d="M 422 -1272 
L 422 3319 
L 934 3319 
L 934 2888 
Q 1116 3141 1344 3267 
Q 1572 3394 1897 3394 
Q 2322 3394 2647 3175 
Q 2972 2956 3137 2557 
Q 3303 2159 3303 1684 
Q 3303 1175 3120 767 
Q 2938 359 2589 142 
Q 2241 -75 1856 -75 
Q 1575 -75 1351 44 
Q 1128 163 984 344 
L 984 -1272 
L 422 -1272 
z
M 931 1641 
Q 931 1000 1190 694 
Q 1450 388 1819 388 
Q 2194 388 2461 705 
Q 2728 1022 2728 1688 
Q 2728 2322 2467 2637 
Q 2206 2953 1844 2953 
Q 1484 2953 1207 2617 
Q 931 2281 931 1641 
z
" transform="scale(0.015625)"/>
       <path id="ArialMT-6f" d="M 213 1659 
Q 213 2581 725 3025 
Q 1153 3394 1769 3394 
Q 2453 3394 2887 2945 
Q 3322 2497 3322 1706 
Q 3322 1066 3130 698 
Q 2938 331 2570 128 
Q 2203 -75 1769 -75 
Q 1072 -75 642 372 
Q 213 819 213 1659 
z
M 791 1659 
Q 791 1022 1069 705 
Q 1347 388 1769 388 
Q 2188 388 2466 706 
Q 2744 1025 2744 1678 
Q 2744 2294 2464 2611 
Q 2184 2928 1769 2928 
Q 1347 2928 1069 2612 
Q 791 2297 791 1659 
z
" transform="scale(0.015625)"/>
       <path id="ArialMT-6e" d="M 422 0 
L 422 3319 
L 928 3319 
L 928 2847 
Q 1294 3394 1984 3394 
Q 2284 3394 2536 3286 
Q 2788 3178 2913 3003 
Q 3038 2828 3088 2588 
Q 3119 2431 3119 2041 
L 3119 0 
L 2556 0 
L 2556 2019 
Q 2556 2363 2490 2533 
Q 2425 2703 2258 2804 
Q 2091 2906 1866 2906 
Q 1506 2906 1245 2678 
Q 984 2450 984 1813 
L 984 0 
L 422 0 
z
" transform="scale(0.015625)"/>
      </defs>
      <use xlink:href="#ArialMT-53"/>
      <use xlink:href="#ArialMT-75" x="66.699219"/>
      <use xlink:href="#ArialMT-72" x="122.314453"/>
      <use xlink:href="#ArialMT-65" x="155.615234"/>
      <use xlink:href="#ArialMT-20" x="211.230469"/>
      <use xlink:href="#ArialMT-74" x="239.013672"/>
      <use xlink:href="#ArialMT-61" x="266.796875"/>
      <use xlink:href="#ArialMT-72" x="322.412109"/>
      <use xlink:href="#ArialMT-67" x="355.712891"/>
      <use xlink:href="#ArialMT-65" x="411.328125"/>
      <use xlink:href="#ArialMT-74" x="466.943359"/>
      <use xlink:href="#ArialMT-20" x="494.726562"/>
      <use xlink:href="#ArialMT-70" x="522.509766"/>
      <use xlink:href="#ArialMT-72" x="578.125"/>
      <use xlink:href="#ArialMT-6f" x="611.425781"/>
      <use xlink:href="#ArialMT-70" x="667.041016"/>
      <use xlink:href="#ArialMT-6f" x="722.65625"/>
      <use xlink:href="#ArialMT-72" x="778.271484"/>
      <use xlink:href="#ArialMT-74" x="811.572266"/>
      <use xlink:href="#ArialMT-69" x="839.355469"/>
      <use xlink:href="#ArialMT-6f" x="861.572266"/>
      <use xlink:href="#ArialMT-6e" x="917.1875"/>
     </g>
    </g>
   </g>
   <g id="line2d_10">
    <path d="M 54.51125 21.966648 
L 56.60375 24.216371 
L 58.69625 24.679947 
L 60.78875 25.864564 
L 62.88125 26.101992 
L 64.97375 27.93171 
L 67.06625 27.977117 
L 69.15875 28.796304 
L 71.25125 29.545554 
L 73.34375 30.230932 
L 75.43625 30.033056 
L 77.52875 30.610239 
L 79.62125 31.139472 
L 81.71375 30.833996 
L 83.80625 32.069437 
L 85.89875 32.476963 
L 87.99125 32.075489 
L 90.08375 32.423158 
L 92.17625 32.741859 
L 94.26875 33.033736 
L 96.36125 33.300745 
L 98.45375 33.544674 
L 100.54625 33.047593 
L 102.63875 33.256623 
L 104.73125 33.44713 
L 106.82375 34.320296 
L 108.91625 34.470786 
L 111.00875 34.606186 
L 113.10125 34.72748 
L 115.19375 34.161959 
L 117.28625 34.264213 
L 119.37875 35.015446 
L 121.47125 35.088712 
L 123.56375 35.151766 
L 125.65625 35.205222 
L 127.74875 34.614455 
L 129.84125 34.656585 
L 131.93375 35.313489 
L 134.02625 35.333851 
L 136.11875 35.347082 
L 138.21125 35.353577 
L 140.30375 35.353703 
L 142.39625 35.347803 
L 144.48875 35.336196 
L 146.58125 35.910632 
L 148.67375 35.882735 
L 150.76625 35.85004 
L 152.85875 36.396398 
L 154.95125 36.349142 
L 157.04375 36.297845 
L 159.13625 36.242702 
L 161.22875 36.183896 
L 163.32125 36.686088 
L 165.41375 36.615035 
L 167.50625 36.540874 
L 169.59875 36.463744 
L 171.69125 36.383773 
L 173.78375 36.847111 
L 175.87625 36.756655 
L 177.96875 37.207221 
L 180.06125 37.106889 
L 182.15375 37.004395 
L 184.24625 37.435497 
L 186.33875 37.32392 
L 188.43125 37.21049 
L 190.52375 37.623252 
L 192.61625 37.50143 
L 194.70875 37.378014 
L 196.80125 37.773444 
L 198.89375 37.64224 
L 200.98625 37.509662 
L 203.07875 37.888665 
L 205.17125 37.748829 
L 207.26375 38.117959 
L 209.35625 37.9712 
L 211.44875 38.330752 
L 213.54125 38.177382 
L 215.63375 38.023078 
L 217.72625 38.367944 
L 219.81875 38.207428 
L 221.91125 38.54342 
" clip-path="url(#pc72c1a412b)" style="fill: none; stroke: #ff0000; stroke-width: 1.5; stroke-linecap: square"/>
   </g>
   <g id="line2d_11">
    <path d="M 54.51125 22.115074 
L 56.60375 24.39319 
L 58.69625 24.875653 
L 60.78875 26.083878 
L 62.88125 26.339713 
L 64.97375 28.197965 
L 67.06625 28.261451 
L 69.15875 29.103774 
L 71.25125 29.876039 
L 73.34375 30.58431 
L 75.43625 30.403725 
L 77.52875 31.003536 
L 79.62125 31.555283 
L 81.71375 31.26649 
L 83.80625 32.529944 
L 85.89875 32.959658 
L 87.99125 32.574469 
L 90.08375 32.944096 
L 92.17625 33.284658 
L 94.26875 33.598301 
L 96.36125 33.886984 
L 98.45375 34.152495 
L 100.54625 33.67072 
L 102.63875 33.901117 
L 104.73125 34.112904 
L 106.82375 35.013574 
L 108.91625 35.185215 
L 111.00875 35.341683 
L 113.10125 35.483961 
L 115.19375 34.932839 
L 117.28625 35.055857 
L 119.37875 35.834372 
L 121.47125 35.928281 
L 123.56375 36.011891 
L 125.65625 36.085812 
L 127.74875 35.508582 
L 129.84125 35.570929 
L 131.93375 36.254915 
L 134.02625 36.295358 
L 136.11875 36.328568 
L 138.21125 36.354935 
L 140.30375 36.374822 
L 142.39625 36.388568 
L 144.48875 36.396487 
L 146.58125 36.997565 
L 148.67375 36.989019 
L 150.76625 36.975544 
L 152.85875 37.548236 
L 154.95125 37.520003 
L 157.04375 37.487585 
L 159.13625 37.45117 
L 161.22875 37.410936 
L 163.32125 37.938985 
L 165.41375 37.886265 
L 167.50625 37.830267 
L 169.59875 37.771122 
L 171.69125 37.708954 
L 173.78375 38.19759 
L 175.87625 38.124655 
L 177.96875 38.600191 
L 180.06125 38.517081 
L 182.15375 38.431601 
L 184.24625 38.887228 
L 186.33875 38.792343 
L 188.43125 38.695382 
L 190.52375 39.1322 
L 192.61625 39.026503 
L 194.70875 38.918976 
L 196.80125 39.337968 
L 198.89375 39.222287 
L 200.98625 39.104983 
L 203.07875 39.507037 
L 205.17125 39.382089 
L 207.26375 39.773881 
L 209.35625 39.641613 
L 211.44875 40.023431 
L 213.54125 39.884146 
L 215.63375 39.743652 
L 217.72625 40.110243 
L 219.81875 39.963117 
L 221.91125 40.32043 
" clip-path="url(#pc72c1a412b)" style="fill: none; stroke: #ffd700; stroke-width: 1.5; stroke-linecap: square"/>
   </g>
   <g id="line2d_12">
    <path d="M 54.51125 22.560119 
L 56.60375 24.923022 
L 58.69625 25.461947 
L 60.78875 26.740611 
L 62.88125 27.051419 
L 64.97375 28.99458 
L 67.06625 29.111996 
L 69.15875 30.023148 
L 71.25125 30.863826 
L 73.34375 31.640092 
L 75.43625 31.511001 
L 77.52875 32.177944 
L 79.62125 32.796432 
L 81.71375 32.557277 
L 83.80625 33.903445 
L 85.89875 34.39879 
L 87.99125 34.062002 
L 90.08375 34.496516 
L 92.17625 34.901632 
L 94.26875 35.279505 
L 96.36125 35.632101 
L 98.45375 35.961216 
L 100.54625 35.524889 
L 102.63875 35.818203 
L 104.73125 36.092609 
L 106.82375 37.073726 
L 108.91625 37.3075 
L 111.00875 37.525815 
L 113.10125 37.729656 
L 115.19375 37.221263 
L 117.28625 37.405156 
L 119.37875 38.263045 
L 121.47125 38.417369 
L 123.56375 38.561098 
L 125.65625 38.694838 
L 127.74875 38.157782 
L 129.84125 38.279179 
L 131.93375 39.041527 
L 134.02625 39.140515 
L 136.11875 39.231929 
L 138.21125 39.316149 
L 140.30375 39.393526 
L 142.39625 39.464388 
L 144.48875 39.529034 
L 146.58125 40.206627 
L 148.67375 40.254182 
L 150.76625 40.296385 
L 152.85875 40.944422 
L 154.95125 40.971176 
L 157.04375 40.99328 
L 159.13625 41.010906 
L 161.22875 41.024216 
L 163.32125 41.625797 
L 165.41375 41.625808 
L 167.50625 41.622001 
L 169.59875 41.614491 
L 171.69125 41.603386 
L 173.78375 42.1635 
L 175.87625 42.140688 
L 177.96875 42.686556 
L 180.06125 42.652587 
L 182.15375 42.615607 
L 184.24625 43.140008 
L 186.33875 43.092577 
L 188.43125 43.04239 
L 190.52375 43.546363 
L 192.61625 43.486332 
L 194.70875 43.423756 
L 196.80125 43.908234 
L 198.89375 43.836342 
L 200.98625 43.762079 
L 203.07875 44.227907 
L 205.17125 44.144791 
L 207.26375 44.599068 
L 209.35625 44.5074 
L 211.44875 44.95041 
L 213.54125 44.85047 
L 215.63375 44.748513 
L 217.72625 45.174537 
L 219.81875 45.064662 
L 221.91125 45.480109 
" clip-path="url(#pc72c1a412b)" style="fill: none; stroke: #008000; stroke-width: 1.5; stroke-linecap: square"/>
   </g>
   <g id="line2d_13">
    <path d="M 54.51125 24.336549 
L 56.60375 27.032705 
L 58.69625 27.794439 
L 60.78875 29.349073 
L 62.88125 29.876021 
L 64.97375 32.148478 
L 67.06625 32.476956 
L 69.15875 33.654742 
L 71.25125 34.759633 
L 73.34375 35.7977 
L 75.43625 35.868771 
L 77.52875 36.793022 
L 79.62125 37.666579 
L 81.71375 37.61967 
L 83.80625 39.277225 
L 85.89875 40.021249 
L 87.99125 39.871089 
L 90.08375 40.550508 
L 92.17625 41.198616 
L 94.26875 41.817615 
L 96.36125 42.409515 
L 98.45375 42.976154 
L 100.54625 42.714275 
L 102.63875 43.241762 
L 104.73125 43.748646 
L 106.82375 45.021632 
L 108.91625 45.4845 
L 111.00875 45.930288 
L 113.10125 46.359991 
L 115.19375 46.014939 
L 117.28625 46.421479 
L 119.37875 47.561326 
L 121.47125 47.935074 
L 123.56375 48.296594 
L 125.65625 48.646476 
L 127.74875 48.26272 
L 129.84125 48.596789 
L 131.93375 49.631446 
L 134.02625 49.939712 
L 136.11875 50.238603 
L 138.21125 50.528458 
L 140.30375 50.809587 
L 142.39625 51.082269 
L 144.48875 51.346761 
L 146.58125 52.282322 
L 148.67375 52.525865 
L 150.76625 52.761942 
L 152.85875 53.660115 
L 154.95125 53.876667 
L 157.04375 54.086316 
L 159.13625 54.289184 
L 161.22875 54.48538 
L 163.32125 55.325012 
L 165.41375 55.50344 
L 167.50625 55.67556 
L 169.59875 55.841442 
L 171.69125 56.001146 
L 173.78375 56.786628 
L 175.87625 56.929817 
L 177.96875 57.694625 
L 180.06125 57.821764 
L 182.15375 57.94314 
L 184.24625 58.677837 
L 186.33875 58.783748 
L 188.43125 58.884067 
L 190.52375 59.58969 
L 192.61625 59.675068 
L 194.70875 59.755001 
L 196.80125 60.432539 
L 198.89375 60.49801 
L 200.98625 60.558165 
L 203.07875 61.208572 
L 205.17125 61.254712 
L 207.26375 61.887407 
L 209.35625 61.919857 
L 211.44875 62.535232 
L 213.54125 62.554307 
L 215.63375 62.56838 
L 217.72625 63.158763 
L 219.81875 63.159863 
L 221.91125 63.733922 
" clip-path="url(#pc72c1a412b)" style="fill: none; stroke: #0000ff; stroke-width: 1.5; stroke-linecap: square"/>
   </g>
   <g id="line2d_14">
    <path d="M 54.51125 31.368415 
L 56.60375 35.302804 
L 58.69625 36.904087 
L 60.78875 39.469305 
L 62.88125 40.797294 
L 64.97375 44.226159 
L 67.06625 45.321139 
L 69.15875 47.428928 
L 71.25125 49.443196 
L 73.34375 51.370469 
L 75.43625 52.145481 
L 77.52875 53.925848 
L 79.62125 55.637114 
L 81.71375 56.253392 
L 83.80625 58.870168 
L 85.89875 60.399984 
L 87.99125 60.879295 
L 90.08375 62.317989 
L 92.17625 63.710053 
L 94.26875 65.058125 
L 96.36125 66.364626 
L 98.45375 67.631774 
L 100.54625 67.939866 
L 102.63875 69.145678 
L 104.73125 70.317663 
L 106.82375 72.344894 
L 108.91625 73.442417 
L 111.00875 74.510385 
L 113.10125 75.549948 
L 115.19375 75.718743 
L 117.28625 76.715203 
L 119.37875 78.508124 
L 121.47125 79.443504 
L 123.56375 80.354749 
L 125.65625 81.242472 
L 127.74875 81.32534 
L 129.84125 82.177229 
L 131.93375 83.769749 
L 134.02625 84.568376 
L 136.11875 85.345749 
L 138.21125 86.102207 
L 140.30375 86.83806 
L 142.39625 87.553601 
L 144.48875 88.249101 
L 146.58125 89.626287 
L 148.67375 90.274587 
L 150.76625 90.903809 
L 152.85875 92.191124 
L 154.95125 92.775559 
L 157.04375 93.341827 
L 159.13625 93.890153 
L 161.22875 94.420764 
L 163.32125 95.574359 
L 165.41375 96.063894 
L 167.50625 96.536609 
L 169.59875 96.992732 
L 171.69125 97.432494 
L 173.78375 98.464758 
L 175.87625 98.867151 
L 177.96875 99.849796 
L 180.06125 100.216514 
L 182.15375 100.568434 
L 184.24625 101.484522 
L 186.33875 101.803092 
L 188.43125 102.107742 
L 190.52375 102.96192 
L 192.61625 103.23548 
L 194.70875 103.495972 
L 196.80125 104.292735 
L 198.89375 104.524307 
L 200.98625 104.743624 
L 203.07875 105.487273 
L 205.17125 105.679731 
L 207.26375 106.388308 
L 209.35625 106.555311 
L 211.44875 107.230708 
L 213.54125 107.373594 
L 215.63375 107.506029 
L 217.72625 108.137663 
L 219.81875 108.247727 
L 221.91125 108.850447 
" clip-path="url(#pc72c1a412b)" style="fill: none; stroke: #000000; stroke-width: 1.5; stroke-linecap: square"/>
   </g>
   <g id="line2d_15">
    <path d="M 54.51125 57.650801 
L 56.60375 65.068188 
L 58.69625 69.114272 
L 60.78875 74.28967 
L 62.88125 77.742416 
L 64.97375 83.607567 
L 67.06625 86.522551 
L 69.15875 90.471364 
L 71.25125 94.151977 
L 73.34375 97.583054 
L 75.43625 99.721784 
L 77.52875 102.756987 
L 79.62125 105.590943 
L 81.71375 107.317136 
L 83.80625 110.710548 
L 85.89875 113.021368 
L 87.99125 114.39404 
L 90.08375 116.45423 
L 92.17625 118.381346 
L 94.26875 120.183994 
L 96.36125 121.87008 
L 98.45375 123.446872 
L 100.54625 124.342328 
L 102.63875 125.750405 
L 104.73125 127.066195 
L 106.82375 128.787891 
L 108.91625 129.909533 
L 111.00875 130.955692 
L 113.10125 131.930864 
L 115.19375 132.439854 
L 117.28625 133.305559 
L 119.37875 134.472176 
L 121.47125 135.204153 
L 123.56375 135.884593 
L 125.65625 136.516857 
L 127.74875 136.806439 
L 129.84125 137.365048 
L 131.93375 138.155722 
L 134.02625 138.625601 
L 136.11875 139.061656 
L 138.21125 139.466283 
L 140.30375 139.841723 
L 142.39625 140.190071 
L 144.48875 140.51328 
L 146.58125 141.015077 
L 148.67375 141.28647 
L 150.76625 141.538275 
L 152.85875 141.950735 
L 154.95125 142.162086 
L 157.04375 142.358161 
L 159.13625 142.540046 
L 161.22875 142.708742 
L 163.32125 143.017088 
L 165.41375 143.158431 
L 167.50625 143.2894 
L 169.59875 143.410694 
L 171.69125 143.522954 
L 173.78375 143.759774 
L 175.87625 143.853248 
L 177.96875 144.064853 
L 180.06125 144.142307 
L 182.15375 144.213564 
L 184.24625 144.395911 
L 186.33875 144.454303 
L 188.43125 144.507645 
L 190.52375 144.666234 
L 192.61625 144.709145 
L 194.70875 144.747878 
L 196.80125 144.887031 
L 198.89375 144.917219 
L 200.98625 144.943896 
L 203.07875 145.067028 
L 205.17125 145.086627 
L 207.26375 145.199679 
L 209.35625 145.213051 
L 211.44875 145.317198 
L 213.54125 145.325062 
L 215.63375 145.330466 
L 217.72625 145.424282 
L 219.81875 145.424993 
L 221.91125 145.512102 
" clip-path="url(#pc72c1a412b)" style="fill: none; stroke: #800080; stroke-width: 1.5; stroke-linecap: square"/>
   </g>
   <g id="patch_3">
    <path d="M 46.14125 151.689375 
L 46.14125 15.789375 
" style="fill: none; stroke: #000000; stroke-width: 0.8; stroke-linejoin: miter; stroke-linecap: square"/>
   </g>
   <g id="patch_4">
    <path d="M 46.14125 151.689375 
L 230.28125 151.689375 
" style="fill: none; stroke: #000000; stroke-width: 0.8; stroke-linejoin: miter; stroke-linecap: square"/>
   </g>
   <g id="text_12">
    <!-- B -->
    <g transform="translate(18.52025 15.789375)scale(0.12 -0.12)">
     <defs>
      <path id="Arial-BoldMT-42" d="M 469 4581 
L 2300 4581 
Q 2844 4581 3111 4536 
Q 3378 4491 3589 4347 
Q 3800 4203 3940 3964 
Q 4081 3725 4081 3428 
Q 4081 3106 3907 2837 
Q 3734 2569 3438 2434 
Q 3856 2313 4081 2019 
Q 4306 1725 4306 1328 
Q 4306 1016 4161 720 
Q 4016 425 3764 248 
Q 3513 72 3144 31 
Q 2913 6 2028 0 
L 469 0 
L 469 4581 
z
M 1394 3819 
L 1394 2759 
L 2000 2759 
Q 2541 2759 2672 2775 
Q 2909 2803 3045 2939 
Q 3181 3075 3181 3297 
Q 3181 3509 3064 3642 
Q 2947 3775 2716 3803 
Q 2578 3819 1925 3819 
L 1394 3819 
z
M 1394 1997 
L 1394 772 
L 2250 772 
Q 2750 772 2884 800 
Q 3091 838 3220 983 
Q 3350 1128 3350 1372 
Q 3350 1578 3250 1722 
Q 3150 1866 2961 1931 
Q 2772 1997 2141 1997 
L 1394 1997 
z
" transform="scale(0.015625)"/>
     </defs>
     <use xlink:href="#Arial-BoldMT-42"/>
    </g>
   </g>
   <g id="legend_1">
    <g id="line2d_16">
     <path d="M 56.94125 30.97875 
L 68.94125 30.97875 
L 80.94125 30.97875 
" style="fill: none; stroke: #ff0000; stroke-width: 1.5; stroke-linecap: square"/>
    </g>
    <g id="text_13">
     <!-- 0.512 -->
     <g transform="translate(90.54125 35.17875)scale(0.12 -0.12)">
      <defs>
       <path id="ArialMT-35" d="M 266 1200 
L 856 1250 
Q 922 819 1161 601 
Q 1400 384 1738 384 
Q 2144 384 2425 690 
Q 2706 997 2706 1503 
Q 2706 1984 2436 2262 
Q 2166 2541 1728 2541 
Q 1456 2541 1237 2417 
Q 1019 2294 894 2097 
L 366 2166 
L 809 4519 
L 3088 4519 
L 3088 3981 
L 1259 3981 
L 1013 2750 
Q 1425 3038 1878 3038 
Q 2478 3038 2890 2622 
Q 3303 2206 3303 1553 
Q 3303 931 2941 478 
Q 2500 -78 1738 -78 
Q 1113 -78 717 272 
Q 322 622 266 1200 
z
" transform="scale(0.015625)"/>
       <path id="ArialMT-31" d="M 2384 0 
L 1822 0 
L 1822 3584 
Q 1619 3391 1289 3197 
Q 959 3003 697 2906 
L 697 3450 
Q 1169 3672 1522 3987 
Q 1875 4303 2022 4600 
L 2384 4600 
L 2384 0 
z
" transform="scale(0.015625)"/>
      </defs>
      <use xlink:href="#ArialMT-30"/>
      <use xlink:href="#ArialMT-2e" x="55.615234"/>
      <use xlink:href="#ArialMT-35" x="83.398438"/>
      <use xlink:href="#ArialMT-31" x="139.013672"/>
      <use xlink:href="#ArialMT-32" x="194.628906"/>
     </g>
    </g>
    <g id="line2d_17">
     <path d="M 56.94125 47.953125 
L 68.94125 47.953125 
L 80.94125 47.953125 
" style="fill: none; stroke: #ffd700; stroke-width: 1.5; stroke-linecap: square"/>
    </g>
    <g id="text_14">
     <!-- 0.256 -->
     <g transform="translate(90.54125 52.153125)scale(0.12 -0.12)">
      <use xlink:href="#ArialMT-30"/>
      <use xlink:href="#ArialMT-2e" x="55.615234"/>
      <use xlink:href="#ArialMT-32" x="83.398438"/>
      <use xlink:href="#ArialMT-35" x="139.013672"/>
      <use xlink:href="#ArialMT-36" x="194.628906"/>
     </g>
    </g>
    <g id="line2d_18">
     <path d="M 56.94125 64.9275 
L 68.94125 64.9275 
L 80.94125 64.9275 
" style="fill: none; stroke: #008000; stroke-width: 1.5; stroke-linecap: square"/>
    </g>
    <g id="text_15">
     <!-- 0.128 -->
     <g transform="translate(90.54125 69.1275)scale(0.12 -0.12)">
      <use xlink:href="#ArialMT-30"/>
      <use xlink:href="#ArialMT-2e" x="55.615234"/>
      <use xlink:href="#ArialMT-31" x="83.398438"/>
      <use xlink:href="#ArialMT-32" x="139.013672"/>
      <use xlink:href="#ArialMT-38" x="194.628906"/>
     </g>
    </g>
    <g id="line2d_19">
     <path d="M 56.94125 81.901875 
L 68.94125 81.901875 
L 80.94125 81.901875 
" style="fill: none; stroke: #0000ff; stroke-width: 1.5; stroke-linecap: square"/>
    </g>
    <g id="text_16">
     <!-- 0.064 -->
     <g transform="translate(90.54125 86.101875)scale(0.12 -0.12)">
      <use xlink:href="#ArialMT-30"/>
      <use xlink:href="#ArialMT-2e" x="55.615234"/>
      <use xlink:href="#ArialMT-30" x="83.398438"/>
      <use xlink:href="#ArialMT-36" x="139.013672"/>
      <use xlink:href="#ArialMT-34" x="194.628906"/>
     </g>
    </g>
    <g id="line2d_20">
     <path d="M 56.94125 98.87625 
L 68.94125 98.87625 
L 80.94125 98.87625 
" style="fill: none; stroke: #000000; stroke-width: 1.5; stroke-linecap: square"/>
    </g>
    <g id="text_17">
     <!-- 0.032 -->
     <g transform="translate(90.54125 103.07625)scale(0.12 -0.12)">
      <defs>
       <path id="ArialMT-33" d="M 269 1209 
L 831 1284 
Q 928 806 1161 595 
Q 1394 384 1728 384 
Q 2125 384 2398 659 
Q 2672 934 2672 1341 
Q 2672 1728 2419 1979 
Q 2166 2231 1775 2231 
Q 1616 2231 1378 2169 
L 1441 2663 
Q 1497 2656 1531 2656 
Q 1891 2656 2178 2843 
Q 2466 3031 2466 3422 
Q 2466 3731 2256 3934 
Q 2047 4138 1716 4138 
Q 1388 4138 1169 3931 
Q 950 3725 888 3313 
L 325 3413 
Q 428 3978 793 4289 
Q 1159 4600 1703 4600 
Q 2078 4600 2393 4439 
Q 2709 4278 2876 4000 
Q 3044 3722 3044 3409 
Q 3044 3113 2884 2869 
Q 2725 2625 2413 2481 
Q 2819 2388 3044 2092 
Q 3269 1797 3269 1353 
Q 3269 753 2831 336 
Q 2394 -81 1725 -81 
Q 1122 -81 723 278 
Q 325 638 269 1209 
z
" transform="scale(0.015625)"/>
      </defs>
      <use xlink:href="#ArialMT-30"/>
      <use xlink:href="#ArialMT-2e" x="55.615234"/>
      <use xlink:href="#ArialMT-30" x="83.398438"/>
      <use xlink:href="#ArialMT-33" x="139.013672"/>
      <use xlink:href="#ArialMT-32" x="194.628906"/>
     </g>
    </g>
    <g id="line2d_21">
     <path d="M 56.94125 115.850625 
L 68.94125 115.850625 
L 80.94125 115.850625 
" style="fill: none; stroke: #800080; stroke-width: 1.5; stroke-linecap: square"/>
    </g>
    <g id="text_18">
     <!-- 0.0 -->
     <g transform="translate(90.54125 120.050625)scale(0.12 -0.12)">
      <use xlink:href="#ArialMT-30"/>
      <use xlink:href="#ArialMT-2e" x="55.615234"/>
      <use xlink:href="#ArialMT-30" x="83.398438"/>
     </g>
    </g>
   </g>
  </g>
 </g>
 <defs>
  <clipPath id="pc72c1a412b">
   <rect x="46.14125" y="15.789375" width="184.14" height="135.9"/>
  </clipPath>
 </defs>
</svg>
