<?xml version="1.0" encoding="utf-8" standalone="no"?>
<!DOCTYPE svg PUBLIC "-//W3C//DTD SVG 1.1//EN"
  "http://www.w3.org/Graphics/SVG/1.1/DTD/svg11.dtd">
<svg xmlns:xlink="http://www.w3.org/1999/xlink" width="350.230625pt" height="219.44375pt" viewBox="0 0 350.230625 219.44375" xmlns="http://www.w3.org/2000/svg" version="1.1">
 <metadata>
  <rdf:RDF xmlns:dc="http://purl.org/dc/elements/1.1/" xmlns:cc="http://creativecommons.org/ns#" xmlns:rdf="http://www.w3.org/1999/02/22-rdf-syntax-ns#">
   <cc:Work>
    <dc:type rdf:resource="http://purl.org/dc/dcmitype/StillImage"/>
    <dc:date>2023-02-13T15:08:07.039612</dc:date>
    <dc:format>image/svg+xml</dc:format>
    <dc:creator>
     <cc:Agent>
      <dc:title>Matplotlib v3.5.1, https://matplotlib.org/</dc:title>
     </cc:Agent>
    </dc:creator>
   </cc:Work>
  </rdf:RDF>
 </metadata>
 <defs>
  <style type="text/css">*{stroke-linejoin: round; stroke-linecap: butt}</style>
 </defs>
 <g id="figure_1">
  <g id="patch_1">
   <path d="M 0 219.44375 
L 350.230625 219.44375 
L 350.230625 0 
L 0 0 
L 0 219.44375 
z
" style="fill: none"/>
  </g>
  <g id="axes_1">
   <g id="patch_2">
    <path d="M 43.281875 178.869375 
L 266.481875 178.869375 
L 266.481875 15.789375 
L 43.281875 15.789375 
z
" style="fill: #ffffff"/>
   </g>
   <g id="matplotlib.axis_1">
    <g id="xtick_1">
     <g id="line2d_1">
      <defs>
       <path id="m66d0aeee9d" d="M 0 0 
L 0 3.5 
" style="stroke: #000000; stroke-width: 0.8"/>
      </defs>
      <g>
       <use xlink:href="#m66d0aeee9d" x="53.020698" y="178.869375" style="stroke: #000000; stroke-width: 0.8"/>
      </g>
     </g>
     <g id="text_1">
      <!-- 0 -->
      <g transform="translate(49.684136 194.45875)scale(0.12 -0.12)">
       <defs>
        <path id="ArialMT-30" d="M 266 2259 
Q 266 3072 433 3567 
Q 600 4063 929 4331 
Q 1259 4600 1759 4600 
Q 2128 4600 2406 4451 
Q 2684 4303 2865 4023 
Q 3047 3744 3150 3342 
Q 3253 2941 3253 2259 
Q 3253 1453 3087 958 
Q 2922 463 2592 192 
Q 2263 -78 1759 -78 
Q 1097 -78 719 397 
Q 266 969 266 2259 
z
M 844 2259 
Q 844 1131 1108 757 
Q 1372 384 1759 384 
Q 2147 384 2411 759 
Q 2675 1134 2675 2259 
Q 2675 3391 2411 3762 
Q 2147 4134 1753 4134 
Q 1366 4134 1134 3806 
Q 844 3388 844 2259 
z
" transform="scale(0.015625)"/>
       </defs>
       <use xlink:href="#ArialMT-30"/>
      </g>
     </g>
    </g>
    <g id="xtick_2">
     <g id="line2d_2">
      <g>
       <use xlink:href="#m66d0aeee9d" x="93.683843" y="178.869375" style="stroke: #000000; stroke-width: 0.8"/>
      </g>
     </g>
     <g id="text_2">
      <!-- 2 -->
      <g transform="translate(90.34728 194.45875)scale(0.12 -0.12)">
       <defs>
        <path id="ArialMT-32" d="M 3222 541 
L 3222 0 
L 194 0 
Q 188 203 259 391 
Q 375 700 629 1000 
Q 884 1300 1366 1694 
Q 2113 2306 2375 2664 
Q 2638 3022 2638 3341 
Q 2638 3675 2398 3904 
Q 2159 4134 1775 4134 
Q 1369 4134 1125 3890 
Q 881 3647 878 3216 
L 300 3275 
Q 359 3922 746 4261 
Q 1134 4600 1788 4600 
Q 2447 4600 2831 4234 
Q 3216 3869 3216 3328 
Q 3216 3053 3103 2787 
Q 2991 2522 2730 2228 
Q 2469 1934 1863 1422 
Q 1356 997 1212 845 
Q 1069 694 975 541 
L 3222 541 
z
" transform="scale(0.015625)"/>
       </defs>
       <use xlink:href="#ArialMT-32"/>
      </g>
     </g>
    </g>
    <g id="xtick_3">
     <g id="line2d_3">
      <g>
       <use xlink:href="#m66d0aeee9d" x="134.346987" y="178.869375" style="stroke: #000000; stroke-width: 0.8"/>
      </g>
     </g>
     <g id="text_3">
      <!-- 4 -->
      <g transform="translate(131.010425 194.45875)scale(0.12 -0.12)">
       <defs>
        <path id="ArialMT-34" d="M 2069 0 
L 2069 1097 
L 81 1097 
L 81 1613 
L 2172 4581 
L 2631 4581 
L 2631 1613 
L 3250 1613 
L 3250 1097 
L 2631 1097 
L 2631 0 
L 2069 0 
z
M 2069 1613 
L 2069 3678 
L 634 1613 
L 2069 1613 
z
" transform="scale(0.015625)"/>
       </defs>
       <use xlink:href="#ArialMT-34"/>
      </g>
     </g>
    </g>
    <g id="xtick_4">
     <g id="line2d_4">
      <g>
       <use xlink:href="#m66d0aeee9d" x="175.010132" y="178.869375" style="stroke: #000000; stroke-width: 0.8"/>
      </g>
     </g>
     <g id="text_4">
      <!-- 6 -->
      <g transform="translate(171.673569 194.45875)scale(0.12 -0.12)">
       <defs>
        <path id="ArialMT-36" d="M 3184 3459 
L 2625 3416 
Q 2550 3747 2413 3897 
Q 2184 4138 1850 4138 
Q 1581 4138 1378 3988 
Q 1113 3794 959 3422 
Q 806 3050 800 2363 
Q 1003 2672 1297 2822 
Q 1591 2972 1913 2972 
Q 2475 2972 2870 2558 
Q 3266 2144 3266 1488 
Q 3266 1056 3080 686 
Q 2894 316 2569 119 
Q 2244 -78 1831 -78 
Q 1128 -78 684 439 
Q 241 956 241 2144 
Q 241 3472 731 4075 
Q 1159 4600 1884 4600 
Q 2425 4600 2770 4297 
Q 3116 3994 3184 3459 
z
M 888 1484 
Q 888 1194 1011 928 
Q 1134 663 1356 523 
Q 1578 384 1822 384 
Q 2178 384 2434 671 
Q 2691 959 2691 1453 
Q 2691 1928 2437 2201 
Q 2184 2475 1800 2475 
Q 1419 2475 1153 2201 
Q 888 1928 888 1484 
z
" transform="scale(0.015625)"/>
       </defs>
       <use xlink:href="#ArialMT-36"/>
      </g>
     </g>
    </g>
    <g id="xtick_5">
     <g id="line2d_5">
      <g>
       <use xlink:href="#m66d0aeee9d" x="215.673276" y="178.869375" style="stroke: #000000; stroke-width: 0.8"/>
      </g>
     </g>
     <g id="text_5">
      <!-- 8 -->
      <g transform="translate(212.336713 194.45875)scale(0.12 -0.12)">
       <defs>
        <path id="ArialMT-38" d="M 1131 2484 
Q 781 2613 612 2850 
Q 444 3088 444 3419 
Q 444 3919 803 4259 
Q 1163 4600 1759 4600 
Q 2359 4600 2725 4251 
Q 3091 3903 3091 3403 
Q 3091 3084 2923 2848 
Q 2756 2613 2416 2484 
Q 2838 2347 3058 2040 
Q 3278 1734 3278 1309 
Q 3278 722 2862 322 
Q 2447 -78 1769 -78 
Q 1091 -78 675 323 
Q 259 725 259 1325 
Q 259 1772 486 2073 
Q 713 2375 1131 2484 
z
M 1019 3438 
Q 1019 3113 1228 2906 
Q 1438 2700 1772 2700 
Q 2097 2700 2305 2904 
Q 2513 3109 2513 3406 
Q 2513 3716 2298 3927 
Q 2084 4138 1766 4138 
Q 1444 4138 1231 3931 
Q 1019 3725 1019 3438 
z
M 838 1322 
Q 838 1081 952 856 
Q 1066 631 1291 507 
Q 1516 384 1775 384 
Q 2178 384 2440 643 
Q 2703 903 2703 1303 
Q 2703 1709 2433 1975 
Q 2163 2241 1756 2241 
Q 1359 2241 1098 1978 
Q 838 1716 838 1322 
z
" transform="scale(0.015625)"/>
       </defs>
       <use xlink:href="#ArialMT-38"/>
      </g>
     </g>
    </g>
    <g id="xtick_6">
     <g id="line2d_6">
      <g>
       <use xlink:href="#m66d0aeee9d" x="256.33642" y="178.869375" style="stroke: #000000; stroke-width: 0.8"/>
      </g>
     </g>
     <g id="text_6">
      <!-- 10 -->
      <g transform="translate(249.663295 194.45875)scale(0.12 -0.12)">
       <defs>
        <path id="ArialMT-31" d="M 2384 0 
L 1822 0 
L 1822 3584 
Q 1619 3391 1289 3197 
Q 959 3003 697 2906 
L 697 3450 
Q 1169 3672 1522 3987 
Q 1875 4303 2022 4600 
L 2384 4600 
L 2384 0 
z
" transform="scale(0.015625)"/>
       </defs>
       <use xlink:href="#ArialMT-31"/>
       <use xlink:href="#ArialMT-30" x="55.615234"/>
      </g>
     </g>
    </g>
    <g id="text_7">
     <!-- Time($t$) -->
     <g transform="translate(135.141875 209.60375)scale(0.12 -0.12)">
      <defs>
       <path id="ArialMT-54" d="M 1659 0 
L 1659 4041 
L 150 4041 
L 150 4581 
L 3781 4581 
L 3781 4041 
L 2266 4041 
L 2266 0 
L 1659 0 
z
" transform="scale(0.015625)"/>
       <path id="ArialMT-69" d="M 425 3934 
L 425 4581 
L 988 4581 
L 988 3934 
L 425 3934 
z
M 425 0 
L 425 3319 
L 988 3319 
L 988 0 
L 425 0 
z
" transform="scale(0.015625)"/>
       <path id="ArialMT-6d" d="M 422 0 
L 422 3319 
L 925 3319 
L 925 2853 
Q 1081 3097 1340 3245 
Q 1600 3394 1931 3394 
Q 2300 3394 2536 3241 
Q 2772 3088 2869 2813 
Q 3263 3394 3894 3394 
Q 4388 3394 4653 3120 
Q 4919 2847 4919 2278 
L 4919 0 
L 4359 0 
L 4359 2091 
Q 4359 2428 4304 2576 
Q 4250 2725 4106 2815 
Q 3963 2906 3769 2906 
Q 3419 2906 3187 2673 
Q 2956 2441 2956 1928 
L 2956 0 
L 2394 0 
L 2394 2156 
Q 2394 2531 2256 2718 
Q 2119 2906 1806 2906 
Q 1569 2906 1367 2781 
Q 1166 2656 1075 2415 
Q 984 2175 984 1722 
L 984 0 
L 422 0 
z
" transform="scale(0.015625)"/>
       <path id="ArialMT-65" d="M 2694 1069 
L 3275 997 
Q 3138 488 2766 206 
Q 2394 -75 1816 -75 
Q 1088 -75 661 373 
Q 234 822 234 1631 
Q 234 2469 665 2931 
Q 1097 3394 1784 3394 
Q 2450 3394 2872 2941 
Q 3294 2488 3294 1666 
Q 3294 1616 3291 1516 
L 816 1516 
Q 847 969 1125 678 
Q 1403 388 1819 388 
Q 2128 388 2347 550 
Q 2566 713 2694 1069 
z
M 847 1978 
L 2700 1978 
Q 2663 2397 2488 2606 
Q 2219 2931 1791 2931 
Q 1403 2931 1139 2672 
Q 875 2413 847 1978 
z
" transform="scale(0.015625)"/>
       <path id="ArialMT-28" d="M 1497 -1347 
Q 1031 -759 709 28 
Q 388 816 388 1659 
Q 388 2403 628 3084 
Q 909 3875 1497 4659 
L 1900 4659 
Q 1522 4009 1400 3731 
Q 1209 3300 1100 2831 
Q 966 2247 966 1656 
Q 966 153 1900 -1347 
L 1497 -1347 
z
" transform="scale(0.015625)"/>
       <path id="DejaVuSans-Oblique-74" d="M 2706 3500 
L 2619 3053 
L 1472 3053 
L 1100 1153 
Q 1081 1047 1072 975 
Q 1063 903 1063 863 
Q 1063 663 1183 572 
Q 1303 481 1569 481 
L 2150 481 
L 2053 0 
L 1503 0 
Q 991 0 739 200 
Q 488 400 488 806 
Q 488 878 497 964 
Q 506 1050 525 1153 
L 897 3053 
L 409 3053 
L 500 3500 
L 978 3500 
L 1172 4494 
L 1747 4494 
L 1556 3500 
L 2706 3500 
z
" transform="scale(0.015625)"/>
       <path id="ArialMT-29" d="M 791 -1347 
L 388 -1347 
Q 1322 153 1322 1656 
Q 1322 2244 1188 2822 
Q 1081 3291 891 3722 
Q 769 4003 388 4659 
L 791 4659 
Q 1378 3875 1659 3084 
Q 1900 2403 1900 1659 
Q 1900 816 1576 28 
Q 1253 -759 791 -1347 
z
" transform="scale(0.015625)"/>
      </defs>
      <use xlink:href="#ArialMT-54" transform="translate(0 0.203125)"/>
      <use xlink:href="#ArialMT-69" transform="translate(61.083984 0.203125)"/>
      <use xlink:href="#ArialMT-6d" transform="translate(83.300781 0.203125)"/>
      <use xlink:href="#ArialMT-65" transform="translate(166.601562 0.203125)"/>
      <use xlink:href="#ArialMT-28" transform="translate(222.216797 0.203125)"/>
      <use xlink:href="#DejaVuSans-Oblique-74" transform="translate(255.517578 0.203125)"/>
      <use xlink:href="#ArialMT-29" transform="translate(294.726562 0.203125)"/>
     </g>
    </g>
   </g>
   <g id="matplotlib.axis_2">
    <g id="ytick_1">
     <g id="line2d_7">
      <defs>
       <path id="m3486551152" d="M 0 0 
L -3.5 0 
" style="stroke: #000000; stroke-width: 0.8"/>
      </defs>
      <g>
       <use xlink:href="#m3486551152" x="43.281875" y="142.256948" style="stroke: #000000; stroke-width: 0.8"/>
      </g>
     </g>
     <g id="text_8">
      <!-- −2 -->
      <g transform="translate(22.6 146.551636)scale(0.12 -0.12)">
       <defs>
        <path id="ArialMT-2212" d="M 3381 1997 
L 356 1997 
L 356 2522 
L 3381 2522 
L 3381 1997 
z
" transform="scale(0.015625)"/>
       </defs>
       <use xlink:href="#ArialMT-2212"/>
       <use xlink:href="#ArialMT-32" x="58.398438"/>
      </g>
     </g>
    </g>
    <g id="ytick_2">
     <g id="line2d_8">
      <g>
       <use xlink:href="#m3486551152" x="43.281875" y="97.007083" style="stroke: #000000; stroke-width: 0.8"/>
      </g>
     </g>
     <g id="text_9">
      <!-- 0 -->
      <g transform="translate(29.60875 101.30177)scale(0.12 -0.12)">
       <use xlink:href="#ArialMT-30"/>
      </g>
     </g>
    </g>
    <g id="ytick_3">
     <g id="line2d_9">
      <g>
       <use xlink:href="#m3486551152" x="43.281875" y="51.757217" style="stroke: #000000; stroke-width: 0.8"/>
      </g>
     </g>
     <g id="text_10">
      <!-- 2 -->
      <g transform="translate(29.60875 56.051904)scale(0.12 -0.12)">
       <use xlink:href="#ArialMT-32"/>
      </g>
     </g>
    </g>
    <g id="text_11">
     <!-- Evidence($x$) -->
     <g transform="translate(15.96 129.609375)rotate(-90)scale(0.12 -0.12)">
      <defs>
       <path id="ArialMT-45" d="M 506 0 
L 506 4581 
L 3819 4581 
L 3819 4041 
L 1113 4041 
L 1113 2638 
L 3647 2638 
L 3647 2100 
L 1113 2100 
L 1113 541 
L 3925 541 
L 3925 0 
L 506 0 
z
" transform="scale(0.015625)"/>
       <path id="ArialMT-76" d="M 1344 0 
L 81 3319 
L 675 3319 
L 1388 1331 
Q 1503 1009 1600 663 
Q 1675 925 1809 1294 
L 2547 3319 
L 3125 3319 
L 1869 0 
L 1344 0 
z
" transform="scale(0.015625)"/>
       <path id="ArialMT-64" d="M 2575 0 
L 2575 419 
Q 2259 -75 1647 -75 
Q 1250 -75 917 144 
Q 584 363 401 755 
Q 219 1147 219 1656 
Q 219 2153 384 2558 
Q 550 2963 881 3178 
Q 1213 3394 1622 3394 
Q 1922 3394 2156 3267 
Q 2391 3141 2538 2938 
L 2538 4581 
L 3097 4581 
L 3097 0 
L 2575 0 
z
M 797 1656 
Q 797 1019 1065 703 
Q 1334 388 1700 388 
Q 2069 388 2326 689 
Q 2584 991 2584 1609 
Q 2584 2291 2321 2609 
Q 2059 2928 1675 2928 
Q 1300 2928 1048 2622 
Q 797 2316 797 1656 
z
" transform="scale(0.015625)"/>
       <path id="ArialMT-6e" d="M 422 0 
L 422 3319 
L 928 3319 
L 928 2847 
Q 1294 3394 1984 3394 
Q 2284 3394 2536 3286 
Q 2788 3178 2913 3003 
Q 3038 2828 3088 2588 
Q 3119 2431 3119 2041 
L 3119 0 
L 2556 0 
L 2556 2019 
Q 2556 2363 2490 2533 
Q 2425 2703 2258 2804 
Q 2091 2906 1866 2906 
Q 1506 2906 1245 2678 
Q 984 2450 984 1813 
L 984 0 
L 422 0 
z
" transform="scale(0.015625)"/>
       <path id="ArialMT-63" d="M 2588 1216 
L 3141 1144 
Q 3050 572 2676 248 
Q 2303 -75 1759 -75 
Q 1078 -75 664 370 
Q 250 816 250 1647 
Q 250 2184 428 2587 
Q 606 2991 970 3192 
Q 1334 3394 1763 3394 
Q 2303 3394 2647 3120 
Q 2991 2847 3088 2344 
L 2541 2259 
Q 2463 2594 2264 2762 
Q 2066 2931 1784 2931 
Q 1359 2931 1093 2626 
Q 828 2322 828 1663 
Q 828 994 1084 691 
Q 1341 388 1753 388 
Q 2084 388 2306 591 
Q 2528 794 2588 1216 
z
" transform="scale(0.015625)"/>
       <path id="DejaVuSans-Oblique-78" d="M 3841 3500 
L 2234 1784 
L 3219 0 
L 2559 0 
L 1819 1388 
L 531 0 
L -166 0 
L 1556 1844 
L 641 3500 
L 1300 3500 
L 1972 2234 
L 3144 3500 
L 3841 3500 
z
" transform="scale(0.015625)"/>
      </defs>
      <use xlink:href="#ArialMT-45" transform="translate(0 0.203125)"/>
      <use xlink:href="#ArialMT-76" transform="translate(66.699219 0.203125)"/>
      <use xlink:href="#ArialMT-69" transform="translate(116.699219 0.203125)"/>
      <use xlink:href="#ArialMT-64" transform="translate(138.916016 0.203125)"/>
      <use xlink:href="#ArialMT-65" transform="translate(194.53125 0.203125)"/>
      <use xlink:href="#ArialMT-6e" transform="translate(250.146484 0.203125)"/>
      <use xlink:href="#ArialMT-63" transform="translate(305.761719 0.203125)"/>
      <use xlink:href="#ArialMT-65" transform="translate(355.761719 0.203125)"/>
      <use xlink:href="#ArialMT-28" transform="translate(411.376953 0.203125)"/>
      <use xlink:href="#DejaVuSans-Oblique-78" transform="translate(444.677734 0.203125)"/>
      <use xlink:href="#ArialMT-29" transform="translate(503.857422 0.203125)"/>
     </g>
    </g>
   </g>
   <g id="line2d_10">
    <path d="M 53.42733 72.190561 
L 53.833961 71.545976 
L 54.647224 71.545976 
L 55.053855 70.901391 
L 55.867118 70.901391 
L 56.27375 70.256806 
L 57.087013 70.256806 
L 57.493644 69.612221 
L 58.306907 69.612221 
L 58.713538 68.967636 
L 59.933433 68.967636 
L 60.340064 68.323051 
L 61.153327 68.323051 
L 61.559958 67.678466 
L 62.779853 67.678466 
L 63.186484 67.033881 
L 64.81301 67.033881 
L 65.219641 66.389296 
L 66.846167 66.389296 
L 67.252799 65.744711 
L 68.879324 65.744711 
L 69.285956 65.100126 
L 70.912482 65.100126 
L 71.319113 64.455541 
L 73.35227 64.455541 
L 73.758902 63.810956 
L 75.792059 63.810956 
L 76.19869 63.166371 
L 78.638479 63.166371 
L 79.045111 62.521786 
L 81.078268 62.521786 
L 81.484899 61.877201 
L 83.924688 61.877201 
L 84.331319 61.232616 
L 86.364477 61.232616 
L 86.771108 60.588031 
L 89.210897 60.588031 
L 89.617528 59.943446 
L 91.650685 59.943446 
L 92.057317 59.298861 
L 94.497105 59.298861 
L 94.903737 58.654276 
L 96.936894 58.654276 
L 97.343526 58.009691 
L 99.783314 58.009691 
L 100.189946 57.365106 
L 102.629734 57.365106 
L 103.036366 56.720521 
L 105.069523 56.720521 
L 105.476154 56.075936 
L 107.915943 56.075936 
L 108.322575 55.431351 
L 110.355732 55.431351 
L 110.762363 54.786766 
L 113.202152 54.786766 
L 113.608783 54.142181 
L 116.048572 54.142181 
L 116.455203 53.497596 
L 118.488361 53.497596 
L 118.894992 52.853011 
L 121.334781 52.853011 
L 121.741412 52.208426 
L 124.181201 52.208426 
L 124.587832 51.563841 
L 126.62099 51.563841 
L 127.027621 50.919256 
L 129.46741 50.919256 
L 129.874041 50.274671 
L 132.31383 50.274671 
L 132.720461 49.630086 
L 134.753618 49.630086 
L 135.16025 48.985501 
L 137.600039 48.985501 
L 138.00667 48.340917 
L 140.446459 48.340917 
L 140.85309 47.696332 
L 142.886247 47.696332 
L 143.292879 47.051747 
L 145.732667 47.051747 
L 146.139299 46.407162 
L 148.579088 46.407162 
L 148.985719 45.762577 
L 151.425508 45.762577 
L 151.832139 45.117992 
L 154.271928 45.117992 
L 154.678559 44.473407 
L 156.711717 44.473407 
L 157.118348 43.828822 
L 159.558137 43.828822 
L 159.964768 43.184237 
L 162.404557 43.184237 
L 162.811188 42.539652 
L 165.250977 42.539652 
L 165.657608 41.895067 
L 168.097397 41.895067 
L 168.504028 41.250482 
L 170.943817 41.250482 
L 171.350449 40.605897 
L 173.790237 40.605897 
L 174.196869 39.961312 
L 176.636657 39.961312 
L 177.043289 39.316727 
L 179.483077 39.316727 
L 179.889709 38.672142 
L 182.329498 38.672142 
L 182.736129 38.027557 
L 185.175918 38.027557 
L 185.582549 37.382972 
L 188.022338 37.382972 
L 188.428969 36.738387 
L 190.868758 36.738387 
L 191.275389 36.093802 
L 194.121809 36.093802 
L 194.528441 35.449217 
L 196.96823 35.449217 
L 197.374861 34.804632 
L 199.81465 34.804632 
L 200.221281 34.160047 
L 202.66107 34.160047 
L 203.067701 33.515462 
L 205.50749 33.515462 
L 205.914121 32.870877 
L 208.760541 32.870877 
L 209.167173 32.226292 
L 211.606962 32.226292 
L 212.013593 31.581707 
L 214.453382 31.581707 
L 214.860013 30.937122 
L 217.706433 30.937122 
L 218.113065 30.292537 
L 220.552853 30.292537 
L 220.959485 29.647952 
L 223.399273 29.647952 
L 223.805905 29.003367 
L 226.652325 29.003367 
L 227.058956 28.358782 
L 229.498745 28.358782 
L 229.905377 27.714197 
L 232.751797 27.714197 
L 233.158428 27.069612 
L 235.598217 27.069612 
L 236.004848 26.425027 
L 238.851268 26.425027 
L 239.2579 25.780442 
L 241.697688 25.780442 
L 242.10432 25.135857 
L 244.95074 25.135857 
L 245.357371 24.491272 
L 247.79716 24.491272 
L 248.203792 23.846687 
L 251.050212 23.846687 
L 251.456843 23.202102 
L 255.523158 23.202102 
L 255.929789 23.846687 
L 256.33642 23.846687 
L 256.33642 23.846687 
" clip-path="url(#pe1ff87659e)" style="fill: none; stroke-dasharray: 5.55,2.4; stroke-dashoffset: 0; stroke: #440154; stroke-width: 1.5"/>
   </g>
   <g id="line2d_11">
    <path d="M 53.42733 122.468189 
L 53.833961 123.112774 
L 54.647224 123.112774 
L 55.053855 123.757359 
L 55.867118 123.757359 
L 56.27375 124.401944 
L 57.087013 124.401944 
L 57.493644 125.046529 
L 58.306907 125.046529 
L 58.713538 125.691114 
L 59.933433 125.691114 
L 60.340064 126.335699 
L 61.153327 126.335699 
L 61.559958 126.980284 
L 62.779853 126.980284 
L 63.186484 127.624869 
L 64.81301 127.624869 
L 65.219641 128.269454 
L 66.846167 128.269454 
L 67.252799 128.914039 
L 68.879324 128.914039 
L 69.285956 129.558624 
L 70.912482 129.558624 
L 71.319113 130.203209 
L 73.35227 130.203209 
L 73.758902 130.847794 
L 75.792059 130.847794 
L 76.19869 131.492379 
L 78.638479 131.492379 
L 79.045111 132.136964 
L 81.078268 132.136964 
L 81.484899 132.781549 
L 83.924688 132.781549 
L 84.331319 133.426134 
L 86.364477 133.426134 
L 86.771108 134.070719 
L 89.210897 134.070719 
L 89.617528 134.715304 
L 91.650685 134.715304 
L 92.057317 135.359889 
L 94.497105 135.359889 
L 94.903737 136.004474 
L 96.936894 136.004474 
L 97.343526 136.649059 
L 99.783314 136.649059 
L 100.189946 137.293644 
L 102.629734 137.293644 
L 103.036366 137.938229 
L 105.069523 137.938229 
L 105.476154 138.582814 
L 107.915943 138.582814 
L 108.322575 139.227399 
L 110.355732 139.227399 
L 110.762363 139.871984 
L 113.202152 139.871984 
L 113.608783 140.516569 
L 116.048572 140.516569 
L 116.455203 141.161154 
L 118.488361 141.161154 
L 118.894992 141.805739 
L 121.334781 141.805739 
L 121.741412 142.450324 
L 124.181201 142.450324 
L 124.587832 143.094909 
L 126.62099 143.094909 
L 127.027621 143.739494 
L 129.46741 143.739494 
L 129.874041 144.384079 
L 132.31383 144.384079 
L 132.720461 145.028664 
L 134.753618 145.028664 
L 135.16025 145.673249 
L 137.600039 145.673249 
L 138.00667 146.317833 
L 140.446459 146.317833 
L 140.85309 146.962418 
L 142.886247 146.962418 
L 143.292879 147.607003 
L 145.732667 147.607003 
L 146.139299 148.251588 
L 148.579088 148.251588 
L 148.985719 148.896173 
L 151.425508 148.896173 
L 151.832139 149.540758 
L 154.271928 149.540758 
L 154.678559 150.185343 
L 156.711717 150.185343 
L 157.118348 150.829928 
L 159.558137 150.829928 
L 159.964768 151.474513 
L 162.404557 151.474513 
L 162.811188 152.119098 
L 165.250977 152.119098 
L 165.657608 152.763683 
L 168.097397 152.763683 
L 168.504028 153.408268 
L 170.943817 153.408268 
L 171.350449 154.052853 
L 173.790237 154.052853 
L 174.196869 154.697438 
L 176.636657 154.697438 
L 177.043289 155.342023 
L 179.483077 155.342023 
L 179.889709 155.986608 
L 182.329498 155.986608 
L 182.736129 156.631193 
L 185.175918 156.631193 
L 185.582549 157.275778 
L 188.022338 157.275778 
L 188.428969 157.920363 
L 190.868758 157.920363 
L 191.275389 158.564948 
L 194.121809 158.564948 
L 194.528441 159.209533 
L 196.96823 159.209533 
L 197.374861 159.854118 
L 199.81465 159.854118 
L 200.221281 160.498703 
L 202.66107 160.498703 
L 203.067701 161.143288 
L 205.50749 161.143288 
L 205.914121 161.787873 
L 208.760541 161.787873 
L 209.167173 162.432458 
L 211.606962 162.432458 
L 212.013593 163.077043 
L 214.453382 163.077043 
L 214.860013 163.721628 
L 217.706433 163.721628 
L 218.113065 164.366213 
L 220.552853 164.366213 
L 220.959485 165.010798 
L 223.399273 165.010798 
L 223.805905 165.655383 
L 226.652325 165.655383 
L 227.058956 166.299968 
L 229.498745 166.299968 
L 229.905377 166.944553 
L 232.751797 166.944553 
L 233.158428 167.589138 
L 235.598217 167.589138 
L 236.004848 168.233723 
L 238.851268 168.233723 
L 239.2579 168.878308 
L 241.697688 168.878308 
L 242.10432 169.522893 
L 244.95074 169.522893 
L 245.357371 170.167478 
L 247.79716 170.167478 
L 248.203792 170.812063 
L 251.050212 170.812063 
L 251.456843 171.456648 
L 255.523158 171.456648 
L 255.929789 170.812063 
L 256.33642 170.812063 
L 256.33642 170.812063 
" clip-path="url(#pe1ff87659e)" style="fill: none; stroke-dasharray: 5.55,2.4; stroke-dashoffset: 0; stroke: #440154; stroke-width: 1.5"/>
   </g>
   <g id="line2d_12">
    <path d="M 59.12017 97.97396 
L 59.933433 99.26313 
L 60.340064 99.26313 
L 60.746696 99.907715 
L 61.153327 99.907715 
L 61.559958 100.5523 
L 61.96659 100.5523 
L 62.373221 101.196885 
L 63.186484 101.196885 
L 63.593116 101.84147 
L 63.999747 101.84147 
L 64.406379 102.486055 
L 64.81301 102.486055 
L 65.219641 103.13064 
L 66.032904 103.13064 
L 66.439536 103.775225 
L 67.252799 103.775225 
L 67.65943 104.41981 
L 68.066062 104.41981 
L 68.472693 105.064395 
L 69.285956 105.064395 
L 69.692587 105.70898 
L 70.50585 105.70898 
L 70.912482 106.353565 
L 71.725745 106.353565 
L 72.132376 106.99815 
L 72.945639 106.99815 
L 73.35227 107.642735 
L 74.165533 107.642735 
L 74.572165 108.28732 
L 75.385428 108.28732 
L 75.792059 108.931905 
L 76.605322 108.931905 
L 77.011953 109.57649 
L 78.231848 109.57649 
L 78.638479 110.221075 
L 79.451742 110.221075 
L 79.858373 110.86566 
L 80.671636 110.86566 
L 81.078268 111.510245 
L 82.298162 111.510245 
L 82.704794 112.15483 
L 83.518056 112.15483 
L 83.924688 112.799415 
L 85.144582 112.799415 
L 85.551214 113.444 
L 86.364477 113.444 
L 86.771108 114.088584 
L 87.991002 114.088584 
L 88.397634 114.733169 
L 89.617528 114.733169 
L 90.02416 115.377754 
L 90.837422 115.377754 
L 91.244054 116.022339 
L 92.463948 116.022339 
L 92.87058 116.666924 
L 94.090474 116.666924 
L 94.497105 117.311509 
L 95.717 117.311509 
L 96.123631 117.956094 
L 97.343526 117.956094 
L 97.750157 118.600679 
L 98.970051 118.600679 
L 99.376683 119.245264 
L 100.596577 119.245264 
L 101.003209 119.889849 
L 102.223103 119.889849 
L 102.629734 120.534434 
L 103.849629 120.534434 
L 104.25626 121.179019 
L 105.476154 121.179019 
L 105.882786 121.823604 
L 107.10268 121.823604 
L 107.509312 122.468189 
L 108.729206 122.468189 
L 109.135837 123.112774 
L 110.355732 123.112774 
L 110.762363 123.757359 
L 112.388889 123.757359 
L 112.79552 124.401944 
L 114.015415 124.401944 
L 114.422046 125.046529 
L 115.641941 125.046529 
L 116.048572 125.691114 
L 117.675098 125.691114 
L 118.081729 126.335699 
L 119.301624 126.335699 
L 119.708255 126.980284 
L 121.334781 126.980284 
L 121.741412 127.624869 
L 122.961307 127.624869 
L 123.367938 128.269454 
L 124.994464 128.269454 
L 125.401095 128.914039 
L 126.62099 128.914039 
L 127.027621 129.558624 
L 128.654147 129.558624 
L 129.060778 130.203209 
L 130.687304 130.203209 
L 131.093935 130.847794 
L 132.31383 130.847794 
L 132.720461 131.492379 
L 134.346987 131.492379 
L 134.753618 132.136964 
L 136.380144 132.136964 
L 136.786776 132.781549 
L 138.413301 132.781549 
L 138.819933 133.426134 
L 140.446459 133.426134 
L 140.85309 134.070719 
L 142.479616 134.070719 
L 142.886247 134.715304 
L 144.512773 134.715304 
L 144.919405 135.359889 
L 146.54593 135.359889 
L 146.952562 136.004474 
L 148.579088 136.004474 
L 148.985719 136.649059 
L 150.612245 136.649059 
L 151.018876 137.293644 
L 152.645402 137.293644 
L 153.052033 137.938229 
L 154.678559 137.938229 
L 155.085191 138.582814 
L 157.118348 138.582814 
L 157.524979 139.227399 
L 159.151505 139.227399 
L 159.558137 139.871984 
L 161.184662 139.871984 
L 161.591294 140.516569 
L 163.21782 140.516569 
L 163.624451 141.161154 
L 165.657608 141.161154 
L 166.06424 141.805739 
L 167.690766 141.805739 
L 168.097397 142.450324 
L 170.130554 142.450324 
L 170.537186 143.094909 
L 172.163711 143.094909 
L 172.570343 143.739494 
L 174.6035 143.739494 
L 175.010132 144.384079 
L 176.636657 144.384079 
L 177.043289 145.028664 
L 179.076446 145.028664 
L 179.483077 145.673249 
L 181.516235 145.673249 
L 181.922866 146.317833 
L 183.549392 146.317833 
L 183.956023 146.962418 
L 185.989181 146.962418 
L 186.395812 147.607003 
L 188.428969 147.607003 
L 188.835601 148.251588 
L 190.868758 148.251588 
L 191.275389 148.896173 
L 193.308547 148.896173 
L 193.715178 149.540758 
L 195.341704 149.540758 
L 195.748335 150.185343 
L 197.781492 150.185343 
L 198.188124 150.829928 
L 200.221281 150.829928 
L 200.627913 151.474513 
L 202.66107 151.474513 
L 203.067701 152.119098 
L 205.100858 152.119098 
L 205.50749 152.763683 
L 207.947279 152.763683 
L 208.35391 153.408268 
L 210.387067 153.408268 
L 210.793699 154.052853 
L 212.826856 154.052853 
L 213.233487 154.697438 
L 215.266645 154.697438 
L 215.673276 155.342023 
L 217.706433 155.342023 
L 218.113065 155.986608 
L 220.552853 155.986608 
L 220.959485 156.631193 
L 222.992642 156.631193 
L 223.399273 157.275778 
L 225.432431 157.275778 
L 225.839062 157.920363 
L 228.278851 157.920363 
L 228.685482 158.564948 
L 230.718639 158.564948 
L 231.125271 159.209533 
L 233.158428 159.209533 
L 233.56506 159.854118 
L 236.004848 159.854118 
L 236.41148 160.498703 
L 238.444637 160.498703 
L 238.851268 161.143288 
L 241.291057 161.143288 
L 241.697688 161.787873 
L 244.137477 161.787873 
L 244.544109 162.432458 
L 246.577266 162.432458 
L 246.983897 163.077043 
L 249.423686 163.077043 
L 249.830317 163.721628 
L 251.863475 163.721628 
L 252.270106 164.366213 
L 254.303263 164.366213 
L 254.709895 165.010798 
L 255.116526 165.010798 
L 255.929789 166.299968 
L 256.33642 166.299968 
L 256.33642 166.299968 
" clip-path="url(#pe1ff87659e)" style="fill: none; stroke: #440154; stroke-width: 1.5; stroke-linecap: square"/>
   </g>
   <g id="line2d_13">
    <path d="M 59.12017 96.68479 
L 59.933433 95.39562 
L 60.340064 95.39562 
L 60.746696 94.751035 
L 61.153327 94.751035 
L 61.559958 94.10645 
L 61.96659 94.10645 
L 62.373221 93.461865 
L 63.186484 93.461865 
L 63.593116 92.81728 
L 63.999747 92.81728 
L 64.406379 92.172695 
L 64.81301 92.172695 
L 65.219641 91.52811 
L 66.032904 91.52811 
L 66.439536 90.883525 
L 67.252799 90.883525 
L 67.65943 90.23894 
L 68.066062 90.23894 
L 68.472693 89.594355 
L 69.285956 89.594355 
L 69.692587 88.94977 
L 70.50585 88.94977 
L 70.912482 88.305185 
L 71.725745 88.305185 
L 72.132376 87.6606 
L 72.945639 87.6606 
L 73.35227 87.016015 
L 74.165533 87.016015 
L 74.572165 86.37143 
L 75.385428 86.37143 
L 75.792059 85.726845 
L 76.605322 85.726845 
L 77.011953 85.08226 
L 78.231848 85.08226 
L 78.638479 84.437675 
L 79.451742 84.437675 
L 79.858373 83.79309 
L 80.671636 83.79309 
L 81.078268 83.148505 
L 82.298162 83.148505 
L 82.704794 82.50392 
L 83.518056 82.50392 
L 83.924688 81.859335 
L 85.144582 81.859335 
L 85.551214 81.21475 
L 86.364477 81.21475 
L 86.771108 80.570166 
L 87.991002 80.570166 
L 88.397634 79.925581 
L 89.617528 79.925581 
L 90.02416 79.280996 
L 90.837422 79.280996 
L 91.244054 78.636411 
L 92.463948 78.636411 
L 92.87058 77.991826 
L 94.090474 77.991826 
L 94.497105 77.347241 
L 95.717 77.347241 
L 96.123631 76.702656 
L 97.343526 76.702656 
L 97.750157 76.058071 
L 98.970051 76.058071 
L 99.376683 75.413486 
L 100.596577 75.413486 
L 101.003209 74.768901 
L 102.223103 74.768901 
L 102.629734 74.124316 
L 103.849629 74.124316 
L 104.25626 73.479731 
L 105.476154 73.479731 
L 105.882786 72.835146 
L 107.10268 72.835146 
L 107.509312 72.190561 
L 108.729206 72.190561 
L 109.135837 71.545976 
L 110.355732 71.545976 
L 110.762363 70.901391 
L 112.388889 70.901391 
L 112.79552 70.256806 
L 114.015415 70.256806 
L 114.422046 69.612221 
L 115.641941 69.612221 
L 116.048572 68.967636 
L 117.675098 68.967636 
L 118.081729 68.323051 
L 119.301624 68.323051 
L 119.708255 67.678466 
L 121.334781 67.678466 
L 121.741412 67.033881 
L 122.961307 67.033881 
L 123.367938 66.389296 
L 124.994464 66.389296 
L 125.401095 65.744711 
L 126.62099 65.744711 
L 127.027621 65.100126 
L 128.654147 65.100126 
L 129.060778 64.455541 
L 130.687304 64.455541 
L 131.093935 63.810956 
L 132.31383 63.810956 
L 132.720461 63.166371 
L 134.346987 63.166371 
L 134.753618 62.521786 
L 136.380144 62.521786 
L 136.786776 61.877201 
L 138.413301 61.877201 
L 138.819933 61.232616 
L 140.446459 61.232616 
L 140.85309 60.588031 
L 142.479616 60.588031 
L 142.886247 59.943446 
L 144.512773 59.943446 
L 144.919405 59.298861 
L 146.54593 59.298861 
L 146.952562 58.654276 
L 148.579088 58.654276 
L 148.985719 58.009691 
L 150.612245 58.009691 
L 151.018876 57.365106 
L 152.645402 57.365106 
L 153.052033 56.720521 
L 154.678559 56.720521 
L 155.085191 56.075936 
L 157.118348 56.075936 
L 157.524979 55.431351 
L 159.151505 55.431351 
L 159.558137 54.786766 
L 161.184662 54.786766 
L 161.591294 54.142181 
L 163.21782 54.142181 
L 163.624451 53.497596 
L 165.657608 53.497596 
L 166.06424 52.853011 
L 167.690766 52.853011 
L 168.097397 52.208426 
L 170.130554 52.208426 
L 170.537186 51.563841 
L 172.163711 51.563841 
L 172.570343 50.919256 
L 174.6035 50.919256 
L 175.010132 50.274671 
L 176.636657 50.274671 
L 177.043289 49.630086 
L 179.076446 49.630086 
L 179.483077 48.985501 
L 181.516235 48.985501 
L 181.922866 48.340917 
L 183.549392 48.340917 
L 183.956023 47.696332 
L 185.989181 47.696332 
L 186.395812 47.051747 
L 188.428969 47.051747 
L 188.835601 46.407162 
L 190.868758 46.407162 
L 191.275389 45.762577 
L 193.308547 45.762577 
L 193.715178 45.117992 
L 195.341704 45.117992 
L 195.748335 44.473407 
L 197.781492 44.473407 
L 198.188124 43.828822 
L 200.221281 43.828822 
L 200.627913 43.184237 
L 202.66107 43.184237 
L 203.067701 42.539652 
L 205.100858 42.539652 
L 205.50749 41.895067 
L 207.947279 41.895067 
L 208.35391 41.250482 
L 210.387067 41.250482 
L 210.793699 40.605897 
L 212.826856 40.605897 
L 213.233487 39.961312 
L 215.266645 39.961312 
L 215.673276 39.316727 
L 217.706433 39.316727 
L 218.113065 38.672142 
L 220.552853 38.672142 
L 220.959485 38.027557 
L 222.992642 38.027557 
L 223.399273 37.382972 
L 225.432431 37.382972 
L 225.839062 36.738387 
L 228.278851 36.738387 
L 228.685482 36.093802 
L 230.718639 36.093802 
L 231.125271 35.449217 
L 233.158428 35.449217 
L 233.56506 34.804632 
L 236.004848 34.804632 
L 236.41148 34.160047 
L 238.444637 34.160047 
L 238.851268 33.515462 
L 241.291057 33.515462 
L 241.697688 32.870877 
L 244.137477 32.870877 
L 244.544109 32.226292 
L 246.577266 32.226292 
L 246.983897 31.581707 
L 249.423686 31.581707 
L 249.830317 30.937122 
L 251.863475 30.937122 
L 252.270106 30.292537 
L 254.303263 30.292537 
L 254.709895 29.647952 
L 255.116526 29.647952 
L 255.929789 28.358782 
L 256.33642 28.358782 
L 256.33642 28.358782 
" clip-path="url(#pe1ff87659e)" style="fill: none; stroke: #440154; stroke-width: 1.5; stroke-linecap: square"/>
   </g>
   <g id="line2d_14">
    <path d="M 53.42733 72.835146 
L 53.833961 72.190561 
L 54.647224 72.190561 
L 55.053855 71.545976 
L 55.867118 71.545976 
L 56.27375 70.901391 
L 57.493644 70.901391 
L 57.900275 70.256806 
L 58.713538 70.256806 
L 59.12017 69.612221 
L 60.340064 69.612221 
L 60.746696 68.967636 
L 62.373221 68.967636 
L 62.779853 68.323051 
L 64.406379 68.323051 
L 64.81301 67.678466 
L 66.439536 67.678466 
L 66.846167 67.033881 
L 68.879324 67.033881 
L 69.285956 66.389296 
L 71.725745 66.389296 
L 72.132376 65.744711 
L 74.572165 65.744711 
L 74.978796 65.100126 
L 77.418585 65.100126 
L 77.825216 64.455541 
L 80.265005 64.455541 
L 80.671636 63.810956 
L 83.518056 63.810956 
L 83.924688 63.166371 
L 86.364477 63.166371 
L 86.771108 62.521786 
L 89.617528 62.521786 
L 90.02416 61.877201 
L 92.463948 61.877201 
L 92.87058 61.232616 
L 95.717 61.232616 
L 96.123631 60.588031 
L 98.970051 60.588031 
L 99.376683 59.943446 
L 101.816471 59.943446 
L 102.223103 59.298861 
L 105.069523 59.298861 
L 105.476154 58.654276 
L 107.915943 58.654276 
L 108.322575 58.009691 
L 111.168995 58.009691 
L 111.575626 57.365106 
L 114.015415 57.365106 
L 114.422046 56.720521 
L 117.268466 56.720521 
L 117.675098 56.075936 
L 120.114886 56.075936 
L 120.521518 55.431351 
L 123.367938 55.431351 
L 123.774569 54.786766 
L 126.214358 54.786766 
L 126.62099 54.142181 
L 129.46741 54.142181 
L 129.874041 53.497596 
L 132.31383 53.497596 
L 132.720461 52.853011 
L 135.566881 52.853011 
L 135.973513 52.208426 
L 138.413301 52.208426 
L 138.819933 51.563841 
L 141.666353 51.563841 
L 142.072984 50.919256 
L 144.512773 50.919256 
L 144.919405 50.274671 
L 147.765825 50.274671 
L 148.172456 49.630086 
L 150.612245 49.630086 
L 151.018876 48.985501 
L 153.865296 48.985501 
L 154.271928 48.340917 
L 157.118348 48.340917 
L 157.524979 47.696332 
L 159.964768 47.696332 
L 160.3714 47.051747 
L 163.21782 47.051747 
L 163.624451 46.407162 
L 166.470871 46.407162 
L 166.877503 45.762577 
L 169.317291 45.762577 
L 169.723923 45.117992 
L 172.570343 45.117992 
L 172.976974 44.473407 
L 175.823394 44.473407 
L 176.230026 43.828822 
L 178.669815 43.828822 
L 179.076446 43.184237 
L 181.922866 43.184237 
L 182.329498 42.539652 
L 185.175918 42.539652 
L 185.582549 41.895067 
L 188.428969 41.895067 
L 188.835601 41.250482 
L 191.682021 41.250482 
L 192.088652 40.605897 
L 194.935072 40.605897 
L 195.341704 39.961312 
L 198.188124 39.961312 
L 198.594755 39.316727 
L 201.441175 39.316727 
L 201.847807 38.672142 
L 204.694227 38.672142 
L 205.100858 38.027557 
L 207.947279 38.027557 
L 208.35391 37.382972 
L 211.20033 37.382972 
L 211.606962 36.738387 
L 214.453382 36.738387 
L 214.860013 36.093802 
L 217.706433 36.093802 
L 218.113065 35.449217 
L 220.959485 35.449217 
L 221.366116 34.804632 
L 224.212536 34.804632 
L 224.619168 34.160047 
L 227.465588 34.160047 
L 227.872219 33.515462 
L 230.718639 33.515462 
L 231.125271 32.870877 
L 234.378322 32.870877 
L 234.784954 32.226292 
L 237.631374 32.226292 
L 238.038005 31.581707 
L 240.884426 31.581707 
L 241.291057 30.937122 
L 244.137477 30.937122 
L 244.544109 30.292537 
L 247.79716 30.292537 
L 248.203792 29.647952 
L 251.050212 29.647952 
L 251.456843 29.003367 
L 255.523158 29.003367 
L 255.929789 29.647952 
L 256.33642 29.647952 
L 256.33642 29.647952 
" clip-path="url(#pe1ff87659e)" style="fill: none; stroke-dasharray: 5.55,2.4; stroke-dashoffset: 0; stroke: #3b528b; stroke-width: 1.5"/>
   </g>
   <g id="line2d_15">
    <path d="M 53.42733 121.823604 
L 53.833961 122.468189 
L 54.647224 122.468189 
L 55.053855 123.112774 
L 55.867118 123.112774 
L 56.27375 123.757359 
L 57.493644 123.757359 
L 57.900275 124.401944 
L 58.713538 124.401944 
L 59.12017 125.046529 
L 60.340064 125.046529 
L 60.746696 125.691114 
L 62.373221 125.691114 
L 62.779853 126.335699 
L 64.406379 126.335699 
L 64.81301 126.980284 
L 66.439536 126.980284 
L 66.846167 127.624869 
L 68.879324 127.624869 
L 69.285956 128.269454 
L 71.725745 128.269454 
L 72.132376 128.914039 
L 74.572165 128.914039 
L 74.978796 129.558624 
L 77.418585 129.558624 
L 77.825216 130.203209 
L 80.265005 130.203209 
L 80.671636 130.847794 
L 83.518056 130.847794 
L 83.924688 131.492379 
L 86.364477 131.492379 
L 86.771108 132.136964 
L 89.617528 132.136964 
L 90.02416 132.781549 
L 92.463948 132.781549 
L 92.87058 133.426134 
L 95.717 133.426134 
L 96.123631 134.070719 
L 98.970051 134.070719 
L 99.376683 134.715304 
L 101.816471 134.715304 
L 102.223103 135.359889 
L 105.069523 135.359889 
L 105.476154 136.004474 
L 107.915943 136.004474 
L 108.322575 136.649059 
L 111.168995 136.649059 
L 111.575626 137.293644 
L 114.015415 137.293644 
L 114.422046 137.938229 
L 117.268466 137.938229 
L 117.675098 138.582814 
L 120.114886 138.582814 
L 120.521518 139.227399 
L 123.367938 139.227399 
L 123.774569 139.871984 
L 126.214358 139.871984 
L 126.62099 140.516569 
L 129.46741 140.516569 
L 129.874041 141.161154 
L 132.31383 141.161154 
L 132.720461 141.805739 
L 135.566881 141.805739 
L 135.973513 142.450324 
L 138.413301 142.450324 
L 138.819933 143.094909 
L 141.666353 143.094909 
L 142.072984 143.739494 
L 144.512773 143.739494 
L 144.919405 144.384079 
L 147.765825 144.384079 
L 148.172456 145.028664 
L 150.612245 145.028664 
L 151.018876 145.673249 
L 153.865296 145.673249 
L 154.271928 146.317833 
L 157.118348 146.317833 
L 157.524979 146.962418 
L 159.964768 146.962418 
L 160.3714 147.607003 
L 163.21782 147.607003 
L 163.624451 148.251588 
L 166.470871 148.251588 
L 166.877503 148.896173 
L 169.317291 148.896173 
L 169.723923 149.540758 
L 172.570343 149.540758 
L 172.976974 150.185343 
L 175.823394 150.185343 
L 176.230026 150.829928 
L 178.669815 150.829928 
L 179.076446 151.474513 
L 181.922866 151.474513 
L 182.329498 152.119098 
L 185.175918 152.119098 
L 185.582549 152.763683 
L 188.428969 152.763683 
L 188.835601 153.408268 
L 191.682021 153.408268 
L 192.088652 154.052853 
L 194.935072 154.052853 
L 195.341704 154.697438 
L 198.188124 154.697438 
L 198.594755 155.342023 
L 201.441175 155.342023 
L 201.847807 155.986608 
L 204.694227 155.986608 
L 205.100858 156.631193 
L 207.947279 156.631193 
L 208.35391 157.275778 
L 211.20033 157.275778 
L 211.606962 157.920363 
L 214.453382 157.920363 
L 214.860013 158.564948 
L 217.706433 158.564948 
L 218.113065 159.209533 
L 220.959485 159.209533 
L 221.366116 159.854118 
L 224.212536 159.854118 
L 224.619168 160.498703 
L 227.465588 160.498703 
L 227.872219 161.143288 
L 230.718639 161.143288 
L 231.125271 161.787873 
L 234.378322 161.787873 
L 234.784954 162.432458 
L 237.631374 162.432458 
L 238.038005 163.077043 
L 240.884426 163.077043 
L 241.291057 163.721628 
L 244.137477 163.721628 
L 244.544109 164.366213 
L 247.79716 164.366213 
L 248.203792 165.010798 
L 251.050212 165.010798 
L 251.456843 165.655383 
L 255.523158 165.655383 
L 255.929789 165.010798 
L 256.33642 165.010798 
L 256.33642 165.010798 
" clip-path="url(#pe1ff87659e)" style="fill: none; stroke-dasharray: 5.55,2.4; stroke-dashoffset: 0; stroke: #3b528b; stroke-width: 1.5"/>
   </g>
   <g id="line2d_16">
    <path d="M 61.96659 97.97396 
L 62.373221 98.618545 
L 62.779853 98.618545 
L 63.186484 99.26313 
L 63.593116 99.26313 
L 63.999747 99.907715 
L 64.406379 99.907715 
L 64.81301 100.5523 
L 65.626273 100.5523 
L 66.032904 101.196885 
L 66.439536 101.196885 
L 66.846167 101.84147 
L 67.65943 101.84147 
L 68.066062 102.486055 
L 68.879324 102.486055 
L 69.285956 103.13064 
L 70.099219 103.13064 
L 70.50585 103.775225 
L 71.725745 103.775225 
L 72.132376 104.41981 
L 72.945639 104.41981 
L 73.35227 105.064395 
L 74.165533 105.064395 
L 74.572165 105.70898 
L 75.385428 105.70898 
L 75.792059 106.353565 
L 77.011953 106.353565 
L 77.418585 106.99815 
L 78.231848 106.99815 
L 78.638479 107.642735 
L 79.858373 107.642735 
L 80.265005 108.28732 
L 81.484899 108.28732 
L 81.891531 108.931905 
L 82.704794 108.931905 
L 83.111425 109.57649 
L 84.331319 109.57649 
L 84.737951 110.221075 
L 85.957845 110.221075 
L 86.364477 110.86566 
L 87.584371 110.86566 
L 87.991002 111.510245 
L 88.804265 111.510245 
L 89.210897 112.15483 
L 90.430791 112.15483 
L 90.837422 112.799415 
L 92.057317 112.799415 
L 92.463948 113.444 
L 93.683843 113.444 
L 94.090474 114.088584 
L 95.310368 114.088584 
L 95.717 114.733169 
L 97.343526 114.733169 
L 97.750157 115.377754 
L 98.970051 115.377754 
L 99.376683 116.022339 
L 100.596577 116.022339 
L 101.003209 116.666924 
L 102.223103 116.666924 
L 102.629734 117.311509 
L 104.25626 117.311509 
L 104.662892 117.956094 
L 105.882786 117.956094 
L 106.289417 118.600679 
L 107.509312 118.600679 
L 107.915943 119.245264 
L 109.542469 119.245264 
L 109.9491 119.889849 
L 111.168995 119.889849 
L 111.575626 120.534434 
L 113.202152 120.534434 
L 113.608783 121.179019 
L 115.235309 121.179019 
L 115.641941 121.823604 
L 116.861835 121.823604 
L 117.268466 122.468189 
L 118.894992 122.468189 
L 119.301624 123.112774 
L 120.928149 123.112774 
L 121.334781 123.757359 
L 122.961307 123.757359 
L 123.367938 124.401944 
L 124.587832 124.401944 
L 124.994464 125.046529 
L 126.62099 125.046529 
L 127.027621 125.691114 
L 128.654147 125.691114 
L 129.060778 126.335699 
L 130.687304 126.335699 
L 131.093935 126.980284 
L 132.720461 126.980284 
L 133.127093 127.624869 
L 134.753618 127.624869 
L 135.16025 128.269454 
L 137.193407 128.269454 
L 137.600039 128.914039 
L 139.226564 128.914039 
L 139.633196 129.558624 
L 141.259722 129.558624 
L 141.666353 130.203209 
L 143.292879 130.203209 
L 143.69951 130.847794 
L 145.732667 130.847794 
L 146.139299 131.492379 
L 147.765825 131.492379 
L 148.172456 132.136964 
L 149.798982 132.136964 
L 150.205613 132.781549 
L 152.238771 132.781549 
L 152.645402 133.426134 
L 154.271928 133.426134 
L 154.678559 134.070719 
L 156.711717 134.070719 
L 157.118348 134.715304 
L 159.151505 134.715304 
L 159.558137 135.359889 
L 161.184662 135.359889 
L 161.591294 136.004474 
L 163.624451 136.004474 
L 164.031083 136.649059 
L 166.06424 136.649059 
L 166.470871 137.293644 
L 168.504028 137.293644 
L 168.91066 137.938229 
L 170.943817 137.938229 
L 171.350449 138.582814 
L 172.976974 138.582814 
L 173.383606 139.227399 
L 175.416763 139.227399 
L 175.823394 139.871984 
L 177.856552 139.871984 
L 178.263183 140.516569 
L 180.702972 140.516569 
L 181.109603 141.161154 
L 183.14276 141.161154 
L 183.549392 141.805739 
L 185.582549 141.805739 
L 185.989181 142.450324 
L 188.022338 142.450324 
L 188.428969 143.094909 
L 190.462126 143.094909 
L 190.868758 143.739494 
L 192.901915 143.739494 
L 193.308547 144.384079 
L 195.748335 144.384079 
L 196.154967 145.028664 
L 198.188124 145.028664 
L 198.594755 145.673249 
L 201.034544 145.673249 
L 201.441175 146.317833 
L 203.474333 146.317833 
L 203.880964 146.962418 
L 206.320753 146.962418 
L 206.727384 147.607003 
L 208.760541 147.607003 
L 209.167173 148.251588 
L 211.606962 148.251588 
L 212.013593 148.896173 
L 214.04675 148.896173 
L 214.453382 149.540758 
L 216.89317 149.540758 
L 217.299802 150.185343 
L 219.73959 150.185343 
L 220.146222 150.829928 
L 222.586011 150.829928 
L 222.992642 151.474513 
L 225.025799 151.474513 
L 225.432431 152.119098 
L 227.872219 152.119098 
L 228.278851 152.763683 
L 230.718639 152.763683 
L 231.125271 153.408268 
L 233.56506 153.408268 
L 233.971691 154.052853 
L 236.41148 154.052853 
L 236.818111 154.697438 
L 239.2579 154.697438 
L 239.664531 155.342023 
L 242.10432 155.342023 
L 242.510951 155.986608 
L 244.95074 155.986608 
L 245.357371 156.631193 
L 247.79716 156.631193 
L 248.203792 157.275778 
L 250.64358 157.275778 
L 251.050212 157.920363 
L 253.49 157.920363 
L 253.896632 158.564948 
L 254.709895 158.564948 
L 255.116526 159.209533 
L 255.523158 159.209533 
L 255.929789 159.854118 
L 256.33642 159.854118 
L 256.33642 159.854118 
" clip-path="url(#pe1ff87659e)" style="fill: none; stroke: #3b528b; stroke-width: 1.5; stroke-linecap: square"/>
   </g>
   <g id="line2d_17">
    <path d="M 61.96659 96.68479 
L 62.373221 96.040205 
L 62.779853 96.040205 
L 63.186484 95.39562 
L 63.593116 95.39562 
L 63.999747 94.751035 
L 64.406379 94.751035 
L 64.81301 94.10645 
L 65.626273 94.10645 
L 66.032904 93.461865 
L 66.439536 93.461865 
L 66.846167 92.81728 
L 67.65943 92.81728 
L 68.066062 92.172695 
L 68.879324 92.172695 
L 69.285956 91.52811 
L 70.099219 91.52811 
L 70.50585 90.883525 
L 71.725745 90.883525 
L 72.132376 90.23894 
L 72.945639 90.23894 
L 73.35227 89.594355 
L 74.165533 89.594355 
L 74.572165 88.94977 
L 75.385428 88.94977 
L 75.792059 88.305185 
L 77.011953 88.305185 
L 77.418585 87.6606 
L 78.231848 87.6606 
L 78.638479 87.016015 
L 79.858373 87.016015 
L 80.265005 86.37143 
L 81.484899 86.37143 
L 81.891531 85.726845 
L 82.704794 85.726845 
L 83.111425 85.08226 
L 84.331319 85.08226 
L 84.737951 84.437675 
L 85.957845 84.437675 
L 86.364477 83.79309 
L 87.584371 83.79309 
L 87.991002 83.148505 
L 88.804265 83.148505 
L 89.210897 82.50392 
L 90.430791 82.50392 
L 90.837422 81.859335 
L 92.057317 81.859335 
L 92.463948 81.21475 
L 93.683843 81.21475 
L 94.090474 80.570166 
L 95.310368 80.570166 
L 95.717 79.925581 
L 97.343526 79.925581 
L 97.750157 79.280996 
L 98.970051 79.280996 
L 99.376683 78.636411 
L 100.596577 78.636411 
L 101.003209 77.991826 
L 102.223103 77.991826 
L 102.629734 77.347241 
L 104.25626 77.347241 
L 104.662892 76.702656 
L 105.882786 76.702656 
L 106.289417 76.058071 
L 107.509312 76.058071 
L 107.915943 75.413486 
L 109.542469 75.413486 
L 109.9491 74.768901 
L 111.168995 74.768901 
L 111.575626 74.124316 
L 113.202152 74.124316 
L 113.608783 73.479731 
L 115.235309 73.479731 
L 115.641941 72.835146 
L 116.861835 72.835146 
L 117.268466 72.190561 
L 118.894992 72.190561 
L 119.301624 71.545976 
L 120.928149 71.545976 
L 121.334781 70.901391 
L 122.961307 70.901391 
L 123.367938 70.256806 
L 124.587832 70.256806 
L 124.994464 69.612221 
L 126.62099 69.612221 
L 127.027621 68.967636 
L 128.654147 68.967636 
L 129.060778 68.323051 
L 130.687304 68.323051 
L 131.093935 67.678466 
L 132.720461 67.678466 
L 133.127093 67.033881 
L 134.753618 67.033881 
L 135.16025 66.389296 
L 137.193407 66.389296 
L 137.600039 65.744711 
L 139.226564 65.744711 
L 139.633196 65.100126 
L 141.259722 65.100126 
L 141.666353 64.455541 
L 143.292879 64.455541 
L 143.69951 63.810956 
L 145.732667 63.810956 
L 146.139299 63.166371 
L 147.765825 63.166371 
L 148.172456 62.521786 
L 149.798982 62.521786 
L 150.205613 61.877201 
L 152.238771 61.877201 
L 152.645402 61.232616 
L 154.271928 61.232616 
L 154.678559 60.588031 
L 156.711717 60.588031 
L 157.118348 59.943446 
L 159.151505 59.943446 
L 159.558137 59.298861 
L 161.184662 59.298861 
L 161.591294 58.654276 
L 163.624451 58.654276 
L 164.031083 58.009691 
L 166.06424 58.009691 
L 166.470871 57.365106 
L 168.504028 57.365106 
L 168.91066 56.720521 
L 170.943817 56.720521 
L 171.350449 56.075936 
L 172.976974 56.075936 
L 173.383606 55.431351 
L 175.416763 55.431351 
L 175.823394 54.786766 
L 177.856552 54.786766 
L 178.263183 54.142181 
L 180.702972 54.142181 
L 181.109603 53.497596 
L 183.14276 53.497596 
L 183.549392 52.853011 
L 185.582549 52.853011 
L 185.989181 52.208426 
L 188.022338 52.208426 
L 188.428969 51.563841 
L 190.462126 51.563841 
L 190.868758 50.919256 
L 192.901915 50.919256 
L 193.308547 50.274671 
L 195.748335 50.274671 
L 196.154967 49.630086 
L 198.188124 49.630086 
L 198.594755 48.985501 
L 201.034544 48.985501 
L 201.441175 48.340917 
L 203.474333 48.340917 
L 203.880964 47.696332 
L 206.320753 47.696332 
L 206.727384 47.051747 
L 208.760541 47.051747 
L 209.167173 46.407162 
L 211.606962 46.407162 
L 212.013593 45.762577 
L 214.04675 45.762577 
L 214.453382 45.117992 
L 216.89317 45.117992 
L 217.299802 44.473407 
L 219.73959 44.473407 
L 220.146222 43.828822 
L 222.586011 43.828822 
L 222.992642 43.184237 
L 225.025799 43.184237 
L 225.432431 42.539652 
L 227.872219 42.539652 
L 228.278851 41.895067 
L 230.718639 41.895067 
L 231.125271 41.250482 
L 233.56506 41.250482 
L 233.971691 40.605897 
L 236.41148 40.605897 
L 236.818111 39.961312 
L 239.2579 39.961312 
L 239.664531 39.316727 
L 242.10432 39.316727 
L 242.510951 38.672142 
L 244.95074 38.672142 
L 245.357371 38.027557 
L 247.79716 38.027557 
L 248.203792 37.382972 
L 250.64358 37.382972 
L 251.050212 36.738387 
L 253.49 36.738387 
L 253.896632 36.093802 
L 254.709895 36.093802 
L 255.116526 35.449217 
L 255.523158 35.449217 
L 255.929789 34.804632 
L 256.33642 34.804632 
L 256.33642 34.804632 
" clip-path="url(#pe1ff87659e)" style="fill: none; stroke: #3b528b; stroke-width: 1.5; stroke-linecap: square"/>
   </g>
   <g id="line2d_18">
    <path d="M 53.42733 72.835146 
L 54.647224 72.835146 
L 55.053855 72.190561 
L 55.867118 72.190561 
L 56.27375 71.545976 
L 57.900275 71.545976 
L 58.306907 70.901391 
L 59.526801 70.901391 
L 59.933433 70.256806 
L 61.559958 70.256806 
L 61.96659 69.612221 
L 63.593116 69.612221 
L 63.999747 68.967636 
L 66.439536 68.967636 
L 66.846167 68.323051 
L 69.285956 68.323051 
L 69.692587 67.678466 
L 72.132376 67.678466 
L 72.539007 67.033881 
L 75.792059 67.033881 
L 76.19869 66.389296 
L 79.045111 66.389296 
L 79.451742 65.744711 
L 82.704794 65.744711 
L 83.111425 65.100126 
L 86.364477 65.100126 
L 86.771108 64.455541 
L 90.02416 64.455541 
L 90.430791 63.810956 
L 93.277211 63.810956 
L 93.683843 63.166371 
L 96.936894 63.166371 
L 97.343526 62.521786 
L 100.596577 62.521786 
L 101.003209 61.877201 
L 104.25626 61.877201 
L 104.662892 61.232616 
L 107.509312 61.232616 
L 107.915943 60.588031 
L 111.168995 60.588031 
L 111.575626 59.943446 
L 114.422046 59.943446 
L 114.828678 59.298861 
L 118.081729 59.298861 
L 118.488361 58.654276 
L 121.741412 58.654276 
L 122.148044 58.009691 
L 124.994464 58.009691 
L 125.401095 57.365106 
L 128.654147 57.365106 
L 129.060778 56.720521 
L 131.907198 56.720521 
L 132.31383 56.075936 
L 135.566881 56.075936 
L 135.973513 55.431351 
L 138.819933 55.431351 
L 139.226564 54.786766 
L 142.479616 54.786766 
L 142.886247 54.142181 
L 145.732667 54.142181 
L 146.139299 53.497596 
L 149.39235 53.497596 
L 149.798982 52.853011 
L 153.052033 52.853011 
L 153.458665 52.208426 
L 156.305085 52.208426 
L 156.711717 51.563841 
L 159.964768 51.563841 
L 160.3714 50.919256 
L 163.21782 50.919256 
L 163.624451 50.274671 
L 166.877503 50.274671 
L 167.284134 49.630086 
L 170.537186 49.630086 
L 170.943817 48.985501 
L 173.790237 48.985501 
L 174.196869 48.340917 
L 177.44992 48.340917 
L 177.856552 47.696332 
L 181.109603 47.696332 
L 181.516235 47.051747 
L 184.362655 47.051747 
L 184.769286 46.407162 
L 188.022338 46.407162 
L 188.428969 45.762577 
L 191.682021 45.762577 
L 192.088652 45.117992 
L 195.341704 45.117992 
L 195.748335 44.473407 
L 199.001387 44.473407 
L 199.408018 43.828822 
L 202.254438 43.828822 
L 202.66107 43.184237 
L 205.914121 43.184237 
L 206.320753 42.539652 
L 209.573804 42.539652 
L 209.980436 41.895067 
L 213.233487 41.895067 
L 213.640119 41.250482 
L 216.89317 41.250482 
L 217.299802 40.605897 
L 220.552853 40.605897 
L 220.959485 39.961312 
L 224.212536 39.961312 
L 224.619168 39.316727 
L 227.872219 39.316727 
L 228.278851 38.672142 
L 231.531902 38.672142 
L 231.938534 38.027557 
L 235.191585 38.027557 
L 235.598217 37.382972 
L 238.851268 37.382972 
L 239.2579 36.738387 
L 242.510951 36.738387 
L 242.917583 36.093802 
L 246.577266 36.093802 
L 246.983897 35.449217 
L 250.236949 35.449217 
L 250.64358 34.804632 
L 255.523158 34.804632 
L 255.929789 35.449217 
L 256.33642 35.449217 
L 256.33642 35.449217 
" clip-path="url(#pe1ff87659e)" style="fill: none; stroke-dasharray: 5.55,2.4; stroke-dashoffset: 0; stroke: #21918c; stroke-width: 1.5"/>
   </g>
   <g id="line2d_19">
    <path d="M 53.42733 121.823604 
L 54.647224 121.823604 
L 55.053855 122.468189 
L 55.867118 122.468189 
L 56.27375 123.112774 
L 57.900275 123.112774 
L 58.306907 123.757359 
L 59.526801 123.757359 
L 59.933433 124.401944 
L 61.559958 124.401944 
L 61.96659 125.046529 
L 63.593116 125.046529 
L 63.999747 125.691114 
L 66.439536 125.691114 
L 66.846167 126.335699 
L 69.285956 126.335699 
L 69.692587 126.980284 
L 72.132376 126.980284 
L 72.539007 127.624869 
L 75.792059 127.624869 
L 76.19869 128.269454 
L 79.045111 128.269454 
L 79.451742 128.914039 
L 82.704794 128.914039 
L 83.111425 129.558624 
L 86.364477 129.558624 
L 86.771108 130.203209 
L 90.02416 130.203209 
L 90.430791 130.847794 
L 93.277211 130.847794 
L 93.683843 131.492379 
L 96.936894 131.492379 
L 97.343526 132.136964 
L 100.596577 132.136964 
L 101.003209 132.781549 
L 104.25626 132.781549 
L 104.662892 133.426134 
L 107.509312 133.426134 
L 107.915943 134.070719 
L 111.168995 134.070719 
L 111.575626 134.715304 
L 114.422046 134.715304 
L 114.828678 135.359889 
L 118.081729 135.359889 
L 118.488361 136.004474 
L 121.741412 136.004474 
L 122.148044 136.649059 
L 124.994464 136.649059 
L 125.401095 137.293644 
L 128.654147 137.293644 
L 129.060778 137.938229 
L 131.907198 137.938229 
L 132.31383 138.582814 
L 135.566881 138.582814 
L 135.973513 139.227399 
L 138.819933 139.227399 
L 139.226564 139.871984 
L 142.479616 139.871984 
L 142.886247 140.516569 
L 145.732667 140.516569 
L 146.139299 141.161154 
L 149.39235 141.161154 
L 149.798982 141.805739 
L 153.052033 141.805739 
L 153.458665 142.450324 
L 156.305085 142.450324 
L 156.711717 143.094909 
L 159.964768 143.094909 
L 160.3714 143.739494 
L 163.21782 143.739494 
L 163.624451 144.384079 
L 166.877503 144.384079 
L 167.284134 145.028664 
L 170.537186 145.028664 
L 170.943817 145.673249 
L 173.790237 145.673249 
L 174.196869 146.317833 
L 177.44992 146.317833 
L 177.856552 146.962418 
L 181.109603 146.962418 
L 181.516235 147.607003 
L 184.362655 147.607003 
L 184.769286 148.251588 
L 188.022338 148.251588 
L 188.428969 148.896173 
L 191.682021 148.896173 
L 192.088652 149.540758 
L 195.341704 149.540758 
L 195.748335 150.185343 
L 199.001387 150.185343 
L 199.408018 150.829928 
L 202.254438 150.829928 
L 202.66107 151.474513 
L 205.914121 151.474513 
L 206.320753 152.119098 
L 209.573804 152.119098 
L 209.980436 152.763683 
L 213.233487 152.763683 
L 213.640119 153.408268 
L 216.89317 153.408268 
L 217.299802 154.052853 
L 220.552853 154.052853 
L 220.959485 154.697438 
L 224.212536 154.697438 
L 224.619168 155.342023 
L 227.872219 155.342023 
L 228.278851 155.986608 
L 231.531902 155.986608 
L 231.938534 156.631193 
L 235.191585 156.631193 
L 235.598217 157.275778 
L 238.851268 157.275778 
L 239.2579 157.920363 
L 242.510951 157.920363 
L 242.917583 158.564948 
L 246.577266 158.564948 
L 246.983897 159.209533 
L 250.236949 159.209533 
L 250.64358 159.854118 
L 255.523158 159.854118 
L 255.929789 159.209533 
L 256.33642 159.209533 
L 256.33642 159.209533 
" clip-path="url(#pe1ff87659e)" style="fill: none; stroke-dasharray: 5.55,2.4; stroke-dashoffset: 0; stroke: #21918c; stroke-width: 1.5"/>
   </g>
   <g id="line2d_20">
    <path d="M 65.219641 97.329375 
L 66.032904 98.618545 
L 66.439536 98.618545 
L 66.846167 99.26313 
L 67.252799 99.26313 
L 67.65943 99.907715 
L 68.472693 99.907715 
L 68.879324 100.5523 
L 69.692587 100.5523 
L 70.099219 101.196885 
L 70.912482 101.196885 
L 71.319113 101.84147 
L 72.539007 101.84147 
L 72.945639 102.486055 
L 73.758902 102.486055 
L 74.165533 103.13064 
L 75.385428 103.13064 
L 75.792059 103.775225 
L 77.011953 103.775225 
L 77.418585 104.41981 
L 78.231848 104.41981 
L 78.638479 105.064395 
L 79.858373 105.064395 
L 80.265005 105.70898 
L 81.484899 105.70898 
L 81.891531 106.353565 
L 83.111425 106.353565 
L 83.518056 106.99815 
L 84.737951 106.99815 
L 85.144582 107.642735 
L 86.364477 107.642735 
L 86.771108 108.28732 
L 87.991002 108.28732 
L 88.397634 108.931905 
L 89.617528 108.931905 
L 90.02416 109.57649 
L 91.244054 109.57649 
L 91.650685 110.221075 
L 93.277211 110.221075 
L 93.683843 110.86566 
L 94.903737 110.86566 
L 95.310368 111.510245 
L 96.530263 111.510245 
L 96.936894 112.15483 
L 98.56342 112.15483 
L 98.970051 112.799415 
L 100.189946 112.799415 
L 100.596577 113.444 
L 102.223103 113.444 
L 102.629734 114.088584 
L 103.849629 114.088584 
L 104.25626 114.733169 
L 105.882786 114.733169 
L 106.289417 115.377754 
L 107.915943 115.377754 
L 108.322575 116.022339 
L 109.542469 116.022339 
L 109.9491 116.666924 
L 111.575626 116.666924 
L 111.982258 117.311509 
L 113.608783 117.311509 
L 114.015415 117.956094 
L 115.641941 117.956094 
L 116.048572 118.600679 
L 117.675098 118.600679 
L 118.081729 119.245264 
L 119.708255 119.245264 
L 120.114886 119.889849 
L 121.741412 119.889849 
L 122.148044 120.534434 
L 123.774569 120.534434 
L 124.181201 121.179019 
L 126.214358 121.179019 
L 126.62099 121.823604 
L 128.247515 121.823604 
L 128.654147 122.468189 
L 130.280673 122.468189 
L 130.687304 123.112774 
L 132.720461 123.112774 
L 133.127093 123.757359 
L 134.753618 123.757359 
L 135.16025 124.401944 
L 137.193407 124.401944 
L 137.600039 125.046529 
L 139.226564 125.046529 
L 139.633196 125.691114 
L 141.666353 125.691114 
L 142.072984 126.335699 
L 143.69951 126.335699 
L 144.106142 126.980284 
L 146.139299 126.980284 
L 146.54593 127.624869 
L 148.579088 127.624869 
L 148.985719 128.269454 
L 151.018876 128.269454 
L 151.425508 128.914039 
L 153.458665 128.914039 
L 153.865296 129.558624 
L 155.898454 129.558624 
L 156.305085 130.203209 
L 158.338242 130.203209 
L 158.744874 130.847794 
L 160.778031 130.847794 
L 161.184662 131.492379 
L 163.21782 131.492379 
L 163.624451 132.136964 
L 165.657608 132.136964 
L 166.06424 132.781549 
L 168.097397 132.781549 
L 168.504028 133.426134 
L 170.943817 133.426134 
L 171.350449 134.070719 
L 173.383606 134.070719 
L 173.790237 134.715304 
L 176.230026 134.715304 
L 176.636657 135.359889 
L 178.669815 135.359889 
L 179.076446 136.004474 
L 181.516235 136.004474 
L 181.922866 136.649059 
L 183.956023 136.649059 
L 184.362655 137.293644 
L 186.802443 137.293644 
L 187.209075 137.938229 
L 189.648864 137.938229 
L 190.055495 138.582814 
L 192.088652 138.582814 
L 192.495284 139.227399 
L 194.935072 139.227399 
L 195.341704 139.871984 
L 197.781492 139.871984 
L 198.188124 140.516569 
L 200.627913 140.516569 
L 201.034544 141.161154 
L 203.474333 141.161154 
L 203.880964 141.805739 
L 206.320753 141.805739 
L 206.727384 142.450324 
L 209.167173 142.450324 
L 209.573804 143.094909 
L 212.013593 143.094909 
L 212.420224 143.739494 
L 214.860013 143.739494 
L 215.266645 144.384079 
L 217.706433 144.384079 
L 218.113065 145.028664 
L 220.959485 145.028664 
L 221.366116 145.673249 
L 223.805905 145.673249 
L 224.212536 146.317833 
L 226.652325 146.317833 
L 227.058956 146.962418 
L 229.905377 146.962418 
L 230.312008 147.607003 
L 232.751797 147.607003 
L 233.158428 148.251588 
L 236.004848 148.251588 
L 236.41148 148.896173 
L 238.851268 148.896173 
L 239.2579 149.540758 
L 242.10432 149.540758 
L 242.510951 150.185343 
L 245.357371 150.185343 
L 245.764003 150.829928 
L 248.203792 150.829928 
L 248.610423 151.474513 
L 251.456843 151.474513 
L 251.863475 152.119098 
L 253.896632 152.119098 
L 254.303263 152.763683 
L 255.116526 152.763683 
L 255.929789 154.052853 
L 256.33642 154.052853 
L 256.33642 154.052853 
" clip-path="url(#pe1ff87659e)" style="fill: none; stroke: #21918c; stroke-width: 1.5; stroke-linecap: square"/>
   </g>
   <g id="line2d_21">
    <path d="M 65.219641 97.329375 
L 66.032904 96.040205 
L 66.439536 96.040205 
L 66.846167 95.39562 
L 67.252799 95.39562 
L 67.65943 94.751035 
L 68.472693 94.751035 
L 68.879324 94.10645 
L 69.692587 94.10645 
L 70.099219 93.461865 
L 70.912482 93.461865 
L 71.319113 92.81728 
L 72.539007 92.81728 
L 72.945639 92.172695 
L 73.758902 92.172695 
L 74.165533 91.52811 
L 75.385428 91.52811 
L 75.792059 90.883525 
L 77.011953 90.883525 
L 77.418585 90.23894 
L 78.231848 90.23894 
L 78.638479 89.594355 
L 79.858373 89.594355 
L 80.265005 88.94977 
L 81.484899 88.94977 
L 81.891531 88.305185 
L 83.111425 88.305185 
L 83.518056 87.6606 
L 84.737951 87.6606 
L 85.144582 87.016015 
L 86.364477 87.016015 
L 86.771108 86.37143 
L 87.991002 86.37143 
L 88.397634 85.726845 
L 89.617528 85.726845 
L 90.02416 85.08226 
L 91.244054 85.08226 
L 91.650685 84.437675 
L 93.277211 84.437675 
L 93.683843 83.79309 
L 94.903737 83.79309 
L 95.310368 83.148505 
L 96.530263 83.148505 
L 96.936894 82.50392 
L 98.56342 82.50392 
L 98.970051 81.859335 
L 100.189946 81.859335 
L 100.596577 81.21475 
L 102.223103 81.21475 
L 102.629734 80.570166 
L 103.849629 80.570166 
L 104.25626 79.925581 
L 105.882786 79.925581 
L 106.289417 79.280996 
L 107.915943 79.280996 
L 108.322575 78.636411 
L 109.542469 78.636411 
L 109.9491 77.991826 
L 111.575626 77.991826 
L 111.982258 77.347241 
L 113.608783 77.347241 
L 114.015415 76.702656 
L 115.641941 76.702656 
L 116.048572 76.058071 
L 117.675098 76.058071 
L 118.081729 75.413486 
L 119.708255 75.413486 
L 120.114886 74.768901 
L 121.741412 74.768901 
L 122.148044 74.124316 
L 123.774569 74.124316 
L 124.181201 73.479731 
L 126.214358 73.479731 
L 126.62099 72.835146 
L 128.247515 72.835146 
L 128.654147 72.190561 
L 130.280673 72.190561 
L 130.687304 71.545976 
L 132.720461 71.545976 
L 133.127093 70.901391 
L 134.753618 70.901391 
L 135.16025 70.256806 
L 137.193407 70.256806 
L 137.600039 69.612221 
L 139.226564 69.612221 
L 139.633196 68.967636 
L 141.666353 68.967636 
L 142.072984 68.323051 
L 143.69951 68.323051 
L 144.106142 67.678466 
L 146.139299 67.678466 
L 146.54593 67.033881 
L 148.579088 67.033881 
L 148.985719 66.389296 
L 151.018876 66.389296 
L 151.425508 65.744711 
L 153.458665 65.744711 
L 153.865296 65.100126 
L 155.898454 65.100126 
L 156.305085 64.455541 
L 158.338242 64.455541 
L 158.744874 63.810956 
L 160.778031 63.810956 
L 161.184662 63.166371 
L 163.21782 63.166371 
L 163.624451 62.521786 
L 165.657608 62.521786 
L 166.06424 61.877201 
L 168.097397 61.877201 
L 168.504028 61.232616 
L 170.943817 61.232616 
L 171.350449 60.588031 
L 173.383606 60.588031 
L 173.790237 59.943446 
L 176.230026 59.943446 
L 176.636657 59.298861 
L 178.669815 59.298861 
L 179.076446 58.654276 
L 181.516235 58.654276 
L 181.922866 58.009691 
L 183.956023 58.009691 
L 184.362655 57.365106 
L 186.802443 57.365106 
L 187.209075 56.720521 
L 189.648864 56.720521 
L 190.055495 56.075936 
L 192.088652 56.075936 
L 192.495284 55.431351 
L 194.935072 55.431351 
L 195.341704 54.786766 
L 197.781492 54.786766 
L 198.188124 54.142181 
L 200.627913 54.142181 
L 201.034544 53.497596 
L 203.474333 53.497596 
L 203.880964 52.853011 
L 206.320753 52.853011 
L 206.727384 52.208426 
L 209.167173 52.208426 
L 209.573804 51.563841 
L 212.013593 51.563841 
L 212.420224 50.919256 
L 214.860013 50.919256 
L 215.266645 50.274671 
L 217.706433 50.274671 
L 218.113065 49.630086 
L 220.959485 49.630086 
L 221.366116 48.985501 
L 223.805905 48.985501 
L 224.212536 48.340917 
L 226.652325 48.340917 
L 227.058956 47.696332 
L 229.905377 47.696332 
L 230.312008 47.051747 
L 232.751797 47.051747 
L 233.158428 46.407162 
L 236.004848 46.407162 
L 236.41148 45.762577 
L 238.851268 45.762577 
L 239.2579 45.117992 
L 242.10432 45.117992 
L 242.510951 44.473407 
L 245.357371 44.473407 
L 245.764003 43.828822 
L 248.203792 43.828822 
L 248.610423 43.184237 
L 251.456843 43.184237 
L 251.863475 42.539652 
L 253.896632 42.539652 
L 254.303263 41.895067 
L 255.116526 41.895067 
L 255.929789 40.605897 
L 256.33642 40.605897 
L 256.33642 40.605897 
" clip-path="url(#pe1ff87659e)" style="fill: none; stroke: #21918c; stroke-width: 1.5; stroke-linecap: square"/>
   </g>
   <g id="line2d_22">
    <path d="M 53.42733 73.479731 
L 54.240592 73.479731 
L 54.647224 72.835146 
L 55.867118 72.835146 
L 56.27375 72.190561 
L 57.900275 72.190561 
L 58.306907 71.545976 
L 60.340064 71.545976 
L 60.746696 70.901391 
L 62.779853 70.901391 
L 63.186484 70.256806 
L 65.626273 70.256806 
L 66.032904 69.612221 
L 68.879324 69.612221 
L 69.285956 68.967636 
L 72.945639 68.967636 
L 73.35227 68.323051 
L 77.011953 68.323051 
L 77.418585 67.678466 
L 81.078268 67.678466 
L 81.484899 67.033881 
L 85.551214 67.033881 
L 85.957845 66.389296 
L 90.02416 66.389296 
L 90.430791 65.744711 
L 94.090474 65.744711 
L 94.497105 65.100126 
L 98.56342 65.100126 
L 98.970051 64.455541 
L 102.629734 64.455541 
L 103.036366 63.810956 
L 106.696049 63.810956 
L 107.10268 63.166371 
L 110.762363 63.166371 
L 111.168995 62.521786 
L 114.828678 62.521786 
L 115.235309 61.877201 
L 118.894992 61.877201 
L 119.301624 61.232616 
L 122.961307 61.232616 
L 123.367938 60.588031 
L 127.027621 60.588031 
L 127.434252 59.943446 
L 131.093935 59.943446 
L 131.500567 59.298861 
L 135.16025 59.298861 
L 135.566881 58.654276 
L 139.226564 58.654276 
L 139.633196 58.009691 
L 143.292879 58.009691 
L 143.69951 57.365106 
L 146.952562 57.365106 
L 147.359193 56.720521 
L 151.018876 56.720521 
L 151.425508 56.075936 
L 155.085191 56.075936 
L 155.491822 55.431351 
L 159.151505 55.431351 
L 159.558137 54.786766 
L 162.811188 54.786766 
L 163.21782 54.142181 
L 166.877503 54.142181 
L 167.284134 53.497596 
L 170.943817 53.497596 
L 171.350449 52.853011 
L 175.010132 52.853011 
L 175.416763 52.208426 
L 179.076446 52.208426 
L 179.483077 51.563841 
L 183.14276 51.563841 
L 183.549392 50.919256 
L 186.802443 50.919256 
L 187.209075 50.274671 
L 190.868758 50.274671 
L 191.275389 49.630086 
L 194.935072 49.630086 
L 195.341704 48.985501 
L 199.001387 48.985501 
L 199.408018 48.340917 
L 203.067701 48.340917 
L 203.474333 47.696332 
L 207.134016 47.696332 
L 207.540647 47.051747 
L 211.20033 47.051747 
L 211.606962 46.407162 
L 215.266645 46.407162 
L 215.673276 45.762577 
L 219.332959 45.762577 
L 219.73959 45.117992 
L 223.399273 45.117992 
L 223.805905 44.473407 
L 227.465588 44.473407 
L 227.872219 43.828822 
L 231.531902 43.828822 
L 231.938534 43.184237 
L 236.004848 43.184237 
L 236.41148 42.539652 
L 240.071163 42.539652 
L 240.477794 41.895067 
L 244.137477 41.895067 
L 244.544109 41.250482 
L 248.203792 41.250482 
L 248.610423 40.605897 
L 253.083369 40.605897 
L 253.49 39.961312 
L 254.303263 39.961312 
L 254.709895 40.605897 
L 255.523158 40.605897 
L 255.929789 41.250482 
L 256.33642 41.250482 
L 256.33642 41.250482 
" clip-path="url(#pe1ff87659e)" style="fill: none; stroke-dasharray: 5.55,2.4; stroke-dashoffset: 0; stroke: #5ec962; stroke-width: 1.5"/>
   </g>
   <g id="line2d_23">
    <path d="M 53.42733 121.179019 
L 54.240592 121.179019 
L 54.647224 121.823604 
L 55.867118 121.823604 
L 56.27375 122.468189 
L 57.900275 122.468189 
L 58.306907 123.112774 
L 60.340064 123.112774 
L 60.746696 123.757359 
L 62.779853 123.757359 
L 63.186484 124.401944 
L 65.626273 124.401944 
L 66.032904 125.046529 
L 68.879324 125.046529 
L 69.285956 125.691114 
L 72.945639 125.691114 
L 73.35227 126.335699 
L 77.011953 126.335699 
L 77.418585 126.980284 
L 81.078268 126.980284 
L 81.484899 127.624869 
L 85.551214 127.624869 
L 85.957845 128.269454 
L 90.02416 128.269454 
L 90.430791 128.914039 
L 94.090474 128.914039 
L 94.497105 129.558624 
L 98.56342 129.558624 
L 98.970051 130.203209 
L 102.629734 130.203209 
L 103.036366 130.847794 
L 106.696049 130.847794 
L 107.10268 131.492379 
L 110.762363 131.492379 
L 111.168995 132.136964 
L 114.828678 132.136964 
L 115.235309 132.781549 
L 118.894992 132.781549 
L 119.301624 133.426134 
L 122.961307 133.426134 
L 123.367938 134.070719 
L 127.027621 134.070719 
L 127.434252 134.715304 
L 131.093935 134.715304 
L 131.500567 135.359889 
L 135.16025 135.359889 
L 135.566881 136.004474 
L 139.226564 136.004474 
L 139.633196 136.649059 
L 143.292879 136.649059 
L 143.69951 137.293644 
L 146.952562 137.293644 
L 147.359193 137.938229 
L 151.018876 137.938229 
L 151.425508 138.582814 
L 155.085191 138.582814 
L 155.491822 139.227399 
L 159.151505 139.227399 
L 159.558137 139.871984 
L 162.811188 139.871984 
L 163.21782 140.516569 
L 166.877503 140.516569 
L 167.284134 141.161154 
L 170.943817 141.161154 
L 171.350449 141.805739 
L 175.010132 141.805739 
L 175.416763 142.450324 
L 179.076446 142.450324 
L 179.483077 143.094909 
L 183.14276 143.094909 
L 183.549392 143.739494 
L 186.802443 143.739494 
L 187.209075 144.384079 
L 190.868758 144.384079 
L 191.275389 145.028664 
L 194.935072 145.028664 
L 195.341704 145.673249 
L 199.001387 145.673249 
L 199.408018 146.317833 
L 203.067701 146.317833 
L 203.474333 146.962418 
L 207.134016 146.962418 
L 207.540647 147.607003 
L 211.20033 147.607003 
L 211.606962 148.251588 
L 215.266645 148.251588 
L 215.673276 148.896173 
L 219.332959 148.896173 
L 219.73959 149.540758 
L 223.399273 149.540758 
L 223.805905 150.185343 
L 227.465588 150.185343 
L 227.872219 150.829928 
L 231.531902 150.829928 
L 231.938534 151.474513 
L 236.004848 151.474513 
L 236.41148 152.119098 
L 240.071163 152.119098 
L 240.477794 152.763683 
L 244.137477 152.763683 
L 244.544109 153.408268 
L 248.203792 153.408268 
L 248.610423 154.052853 
L 253.083369 154.052853 
L 253.49 154.697438 
L 254.303263 154.697438 
L 254.709895 154.052853 
L 255.523158 154.052853 
L 255.929789 153.408268 
L 256.33642 153.408268 
L 256.33642 153.408268 
" clip-path="url(#pe1ff87659e)" style="fill: none; stroke-dasharray: 5.55,2.4; stroke-dashoffset: 0; stroke: #5ec962; stroke-width: 1.5"/>
   </g>
   <g id="line2d_24">
    <path d="M 69.692587 97.97396 
L 70.099219 98.618545 
L 70.50585 98.618545 
L 70.912482 99.26313 
L 71.725745 99.26313 
L 72.132376 99.907715 
L 73.35227 99.907715 
L 73.758902 100.5523 
L 74.572165 100.5523 
L 74.978796 101.196885 
L 76.19869 101.196885 
L 76.605322 101.84147 
L 77.825216 101.84147 
L 78.231848 102.486055 
L 79.451742 102.486055 
L 79.858373 103.13064 
L 81.078268 103.13064 
L 81.484899 103.775225 
L 83.111425 103.775225 
L 83.518056 104.41981 
L 84.737951 104.41981 
L 85.144582 105.064395 
L 86.364477 105.064395 
L 86.771108 105.70898 
L 87.991002 105.70898 
L 88.397634 106.353565 
L 90.02416 106.353565 
L 90.430791 106.99815 
L 91.650685 106.99815 
L 92.057317 107.642735 
L 93.683843 107.642735 
L 94.090474 108.28732 
L 95.717 108.28732 
L 96.123631 108.931905 
L 97.343526 108.931905 
L 97.750157 109.57649 
L 99.376683 109.57649 
L 99.783314 110.221075 
L 101.40984 110.221075 
L 101.816471 110.86566 
L 103.442997 110.86566 
L 103.849629 111.510245 
L 105.476154 111.510245 
L 105.882786 112.15483 
L 107.509312 112.15483 
L 107.915943 112.799415 
L 109.542469 112.799415 
L 109.9491 113.444 
L 111.575626 113.444 
L 111.982258 114.088584 
L 113.608783 114.088584 
L 114.015415 114.733169 
L 115.641941 114.733169 
L 116.048572 115.377754 
L 118.081729 115.377754 
L 118.488361 116.022339 
L 120.114886 116.022339 
L 120.521518 116.666924 
L 122.554675 116.666924 
L 122.961307 117.311509 
L 124.587832 117.311509 
L 124.994464 117.956094 
L 127.027621 117.956094 
L 127.434252 118.600679 
L 129.46741 118.600679 
L 129.874041 119.245264 
L 131.500567 119.245264 
L 131.907198 119.889849 
L 133.940356 119.889849 
L 134.346987 120.534434 
L 136.380144 120.534434 
L 136.786776 121.179019 
L 138.819933 121.179019 
L 139.226564 121.823604 
L 141.259722 121.823604 
L 141.666353 122.468189 
L 143.69951 122.468189 
L 144.106142 123.112774 
L 146.54593 123.112774 
L 146.952562 123.757359 
L 148.985719 123.757359 
L 149.39235 124.401944 
L 151.425508 124.401944 
L 151.832139 125.046529 
L 154.271928 125.046529 
L 154.678559 125.691114 
L 156.711717 125.691114 
L 157.118348 126.335699 
L 159.558137 126.335699 
L 159.964768 126.980284 
L 161.997925 126.980284 
L 162.404557 127.624869 
L 164.844345 127.624869 
L 165.250977 128.269454 
L 167.690766 128.269454 
L 168.097397 128.914039 
L 170.130554 128.914039 
L 170.537186 129.558624 
L 172.976974 129.558624 
L 173.383606 130.203209 
L 175.823394 130.203209 
L 176.230026 130.847794 
L 178.669815 130.847794 
L 179.076446 131.492379 
L 181.516235 131.492379 
L 181.922866 132.136964 
L 184.362655 132.136964 
L 184.769286 132.781549 
L 187.615706 132.781549 
L 188.022338 133.426134 
L 190.462126 133.426134 
L 190.868758 134.070719 
L 193.308547 134.070719 
L 193.715178 134.715304 
L 196.561598 134.715304 
L 196.96823 135.359889 
L 199.408018 135.359889 
L 199.81465 136.004474 
L 202.66107 136.004474 
L 203.067701 136.649059 
L 205.50749 136.649059 
L 205.914121 137.293644 
L 208.760541 137.293644 
L 209.167173 137.938229 
L 212.013593 137.938229 
L 212.420224 138.582814 
L 214.860013 138.582814 
L 215.266645 139.227399 
L 218.113065 139.227399 
L 218.519696 139.871984 
L 221.366116 139.871984 
L 221.772748 140.516569 
L 224.619168 140.516569 
L 225.025799 141.161154 
L 227.872219 141.161154 
L 228.278851 141.805739 
L 231.125271 141.805739 
L 231.531902 142.450324 
L 234.378322 142.450324 
L 234.784954 143.094909 
L 238.038005 143.094909 
L 238.444637 143.739494 
L 241.291057 143.739494 
L 241.697688 144.384079 
L 244.544109 144.384079 
L 244.95074 145.028664 
L 247.79716 145.028664 
L 248.203792 145.673249 
L 251.456843 145.673249 
L 251.863475 146.317833 
L 253.896632 146.317833 
L 254.303263 146.962418 
L 255.116526 146.962418 
L 255.929789 148.251588 
L 256.33642 148.251588 
L 256.33642 148.251588 
" clip-path="url(#pe1ff87659e)" style="fill: none; stroke: #5ec962; stroke-width: 1.5; stroke-linecap: square"/>
   </g>
   <g id="line2d_25">
    <path d="M 69.692587 96.68479 
L 70.099219 96.040205 
L 70.50585 96.040205 
L 70.912482 95.39562 
L 71.725745 95.39562 
L 72.132376 94.751035 
L 73.35227 94.751035 
L 73.758902 94.10645 
L 74.572165 94.10645 
L 74.978796 93.461865 
L 76.19869 93.461865 
L 76.605322 92.81728 
L 77.825216 92.81728 
L 78.231848 92.172695 
L 79.451742 92.172695 
L 79.858373 91.52811 
L 81.078268 91.52811 
L 81.484899 90.883525 
L 83.111425 90.883525 
L 83.518056 90.23894 
L 84.737951 90.23894 
L 85.144582 89.594355 
L 86.364477 89.594355 
L 86.771108 88.94977 
L 87.991002 88.94977 
L 88.397634 88.305185 
L 90.02416 88.305185 
L 90.430791 87.6606 
L 91.650685 87.6606 
L 92.057317 87.016015 
L 93.683843 87.016015 
L 94.090474 86.37143 
L 95.717 86.37143 
L 96.123631 85.726845 
L 97.343526 85.726845 
L 97.750157 85.08226 
L 99.376683 85.08226 
L 99.783314 84.437675 
L 101.40984 84.437675 
L 101.816471 83.79309 
L 103.442997 83.79309 
L 103.849629 83.148505 
L 105.476154 83.148505 
L 105.882786 82.50392 
L 107.509312 82.50392 
L 107.915943 81.859335 
L 109.542469 81.859335 
L 109.9491 81.21475 
L 111.575626 81.21475 
L 111.982258 80.570166 
L 113.608783 80.570166 
L 114.015415 79.925581 
L 115.641941 79.925581 
L 116.048572 79.280996 
L 118.081729 79.280996 
L 118.488361 78.636411 
L 120.114886 78.636411 
L 120.521518 77.991826 
L 122.554675 77.991826 
L 122.961307 77.347241 
L 124.587832 77.347241 
L 124.994464 76.702656 
L 127.027621 76.702656 
L 127.434252 76.058071 
L 129.46741 76.058071 
L 129.874041 75.413486 
L 131.500567 75.413486 
L 131.907198 74.768901 
L 133.940356 74.768901 
L 134.346987 74.124316 
L 136.380144 74.124316 
L 136.786776 73.479731 
L 138.819933 73.479731 
L 139.226564 72.835146 
L 141.259722 72.835146 
L 141.666353 72.190561 
L 143.69951 72.190561 
L 144.106142 71.545976 
L 146.54593 71.545976 
L 146.952562 70.901391 
L 148.985719 70.901391 
L 149.39235 70.256806 
L 151.425508 70.256806 
L 151.832139 69.612221 
L 154.271928 69.612221 
L 154.678559 68.967636 
L 156.711717 68.967636 
L 157.118348 68.323051 
L 159.558137 68.323051 
L 159.964768 67.678466 
L 161.997925 67.678466 
L 162.404557 67.033881 
L 164.844345 67.033881 
L 165.250977 66.389296 
L 167.690766 66.389296 
L 168.097397 65.744711 
L 170.130554 65.744711 
L 170.537186 65.100126 
L 172.976974 65.100126 
L 173.383606 64.455541 
L 175.823394 64.455541 
L 176.230026 63.810956 
L 178.669815 63.810956 
L 179.076446 63.166371 
L 181.516235 63.166371 
L 181.922866 62.521786 
L 184.362655 62.521786 
L 184.769286 61.877201 
L 187.615706 61.877201 
L 188.022338 61.232616 
L 190.462126 61.232616 
L 190.868758 60.588031 
L 193.308547 60.588031 
L 193.715178 59.943446 
L 196.561598 59.943446 
L 196.96823 59.298861 
L 199.408018 59.298861 
L 199.81465 58.654276 
L 202.66107 58.654276 
L 203.067701 58.009691 
L 205.50749 58.009691 
L 205.914121 57.365106 
L 208.760541 57.365106 
L 209.167173 56.720521 
L 212.013593 56.720521 
L 212.420224 56.075936 
L 214.860013 56.075936 
L 215.266645 55.431351 
L 218.113065 55.431351 
L 218.519696 54.786766 
L 221.366116 54.786766 
L 221.772748 54.142181 
L 224.619168 54.142181 
L 225.025799 53.497596 
L 227.872219 53.497596 
L 228.278851 52.853011 
L 231.125271 52.853011 
L 231.531902 52.208426 
L 234.378322 52.208426 
L 234.784954 51.563841 
L 238.038005 51.563841 
L 238.444637 50.919256 
L 241.291057 50.919256 
L 241.697688 50.274671 
L 244.544109 50.274671 
L 244.95074 49.630086 
L 247.79716 49.630086 
L 248.203792 48.985501 
L 251.456843 48.985501 
L 251.863475 48.340917 
L 253.896632 48.340917 
L 254.303263 47.696332 
L 255.116526 47.696332 
L 255.929789 46.407162 
L 256.33642 46.407162 
L 256.33642 46.407162 
" clip-path="url(#pe1ff87659e)" style="fill: none; stroke: #5ec962; stroke-width: 1.5; stroke-linecap: square"/>
   </g>
   <g id="line2d_26">
    <path d="M 53.42733 74.124316 
L 53.833961 73.479731 
L 55.460487 73.479731 
L 55.867118 72.835146 
L 57.493644 72.835146 
L 57.900275 72.190561 
L 60.746696 72.190561 
L 61.153327 71.545976 
L 64.406379 71.545976 
L 64.81301 70.901391 
L 68.879324 70.901391 
L 69.285956 70.256806 
L 73.758902 70.256806 
L 74.165533 69.612221 
L 79.045111 69.612221 
L 79.451742 68.967636 
L 84.331319 68.967636 
L 84.737951 68.323051 
L 89.617528 68.323051 
L 90.02416 67.678466 
L 94.903737 67.678466 
L 95.310368 67.033881 
L 100.189946 67.033881 
L 100.596577 66.389296 
L 105.069523 66.389296 
L 105.476154 65.744711 
L 110.355732 65.744711 
L 110.762363 65.100126 
L 115.235309 65.100126 
L 115.641941 64.455541 
L 120.114886 64.455541 
L 120.521518 63.810956 
L 124.587832 63.810956 
L 124.994464 63.166371 
L 129.46741 63.166371 
L 129.874041 62.521786 
L 134.346987 62.521786 
L 134.753618 61.877201 
L 138.819933 61.877201 
L 139.226564 61.232616 
L 143.69951 61.232616 
L 144.106142 60.588031 
L 148.172456 60.588031 
L 148.579088 59.943446 
L 152.645402 59.943446 
L 153.052033 59.298861 
L 157.524979 59.298861 
L 157.931611 58.654276 
L 161.997925 58.654276 
L 162.404557 58.009691 
L 166.470871 58.009691 
L 166.877503 57.365106 
L 171.350449 57.365106 
L 171.75708 56.720521 
L 175.823394 56.720521 
L 176.230026 56.075936 
L 180.29634 56.075936 
L 180.702972 55.431351 
L 184.769286 55.431351 
L 185.175918 54.786766 
L 189.648864 54.786766 
L 190.055495 54.142181 
L 194.121809 54.142181 
L 194.528441 53.497596 
L 198.594755 53.497596 
L 199.001387 52.853011 
L 203.474333 52.853011 
L 203.880964 52.208426 
L 207.947279 52.208426 
L 208.35391 51.563841 
L 212.826856 51.563841 
L 213.233487 50.919256 
L 217.299802 50.919256 
L 217.706433 50.274671 
L 221.772748 50.274671 
L 222.179379 49.630086 
L 226.652325 49.630086 
L 227.058956 48.985501 
L 231.125271 48.985501 
L 231.531902 48.340917 
L 236.004848 48.340917 
L 236.41148 47.696332 
L 240.477794 47.696332 
L 240.884426 47.051747 
L 245.357371 47.051747 
L 245.764003 46.407162 
L 249.830317 46.407162 
L 250.236949 45.762577 
L 255.116526 45.762577 
L 255.929789 47.051747 
L 256.33642 47.051747 
L 256.33642 47.051747 
" clip-path="url(#pe1ff87659e)" style="fill: none; stroke-dasharray: 5.55,2.4; stroke-dashoffset: 0; stroke: #fde725; stroke-width: 1.5"/>
   </g>
   <g id="line2d_27">
    <path d="M 53.42733 120.534434 
L 53.833961 121.179019 
L 55.460487 121.179019 
L 55.867118 121.823604 
L 57.493644 121.823604 
L 57.900275 122.468189 
L 60.746696 122.468189 
L 61.153327 123.112774 
L 64.406379 123.112774 
L 64.81301 123.757359 
L 68.879324 123.757359 
L 69.285956 124.401944 
L 73.758902 124.401944 
L 74.165533 125.046529 
L 79.045111 125.046529 
L 79.451742 125.691114 
L 84.331319 125.691114 
L 84.737951 126.335699 
L 89.617528 126.335699 
L 90.02416 126.980284 
L 94.903737 126.980284 
L 95.310368 127.624869 
L 100.189946 127.624869 
L 100.596577 128.269454 
L 105.069523 128.269454 
L 105.476154 128.914039 
L 110.355732 128.914039 
L 110.762363 129.558624 
L 115.235309 129.558624 
L 115.641941 130.203209 
L 120.114886 130.203209 
L 120.521518 130.847794 
L 124.587832 130.847794 
L 124.994464 131.492379 
L 129.46741 131.492379 
L 129.874041 132.136964 
L 134.346987 132.136964 
L 134.753618 132.781549 
L 138.819933 132.781549 
L 139.226564 133.426134 
L 143.69951 133.426134 
L 144.106142 134.070719 
L 148.172456 134.070719 
L 148.579088 134.715304 
L 152.645402 134.715304 
L 153.052033 135.359889 
L 157.524979 135.359889 
L 157.931611 136.004474 
L 161.997925 136.004474 
L 162.404557 136.649059 
L 166.470871 136.649059 
L 166.877503 137.293644 
L 171.350449 137.293644 
L 171.75708 137.938229 
L 175.823394 137.938229 
L 176.230026 138.582814 
L 180.29634 138.582814 
L 180.702972 139.227399 
L 184.769286 139.227399 
L 185.175918 139.871984 
L 189.648864 139.871984 
L 190.055495 140.516569 
L 194.121809 140.516569 
L 194.528441 141.161154 
L 198.594755 141.161154 
L 199.001387 141.805739 
L 203.474333 141.805739 
L 203.880964 142.450324 
L 207.947279 142.450324 
L 208.35391 143.094909 
L 212.826856 143.094909 
L 213.233487 143.739494 
L 217.299802 143.739494 
L 217.706433 144.384079 
L 221.772748 144.384079 
L 222.179379 145.028664 
L 226.652325 145.028664 
L 227.058956 145.673249 
L 231.125271 145.673249 
L 231.531902 146.317833 
L 236.004848 146.317833 
L 236.41148 146.962418 
L 240.477794 146.962418 
L 240.884426 147.607003 
L 245.357371 147.607003 
L 245.764003 148.251588 
L 249.830317 148.251588 
L 250.236949 148.896173 
L 255.116526 148.896173 
L 255.929789 147.607003 
L 256.33642 147.607003 
L 256.33642 147.607003 
" clip-path="url(#pe1ff87659e)" style="fill: none; stroke-dasharray: 5.55,2.4; stroke-dashoffset: 0; stroke: #fde725; stroke-width: 1.5"/>
   </g>
   <g id="line2d_28">
    <path d="M 74.572165 97.329375 
L 75.385428 98.618545 
L 76.19869 98.618545 
L 76.605322 99.26313 
L 77.418585 99.26313 
L 77.825216 99.907715 
L 79.045111 99.907715 
L 79.451742 100.5523 
L 80.671636 100.5523 
L 81.078268 101.196885 
L 82.298162 101.196885 
L 82.704794 101.84147 
L 84.331319 101.84147 
L 84.737951 102.486055 
L 85.957845 102.486055 
L 86.364477 103.13064 
L 87.991002 103.13064 
L 88.397634 103.775225 
L 90.02416 103.775225 
L 90.430791 104.41981 
L 92.057317 104.41981 
L 92.463948 105.064395 
L 94.090474 105.064395 
L 94.497105 105.70898 
L 96.123631 105.70898 
L 96.530263 106.353565 
L 98.156788 106.353565 
L 98.56342 106.99815 
L 100.189946 106.99815 
L 100.596577 107.642735 
L 102.223103 107.642735 
L 102.629734 108.28732 
L 104.25626 108.28732 
L 104.662892 108.931905 
L 106.696049 108.931905 
L 107.10268 109.57649 
L 108.729206 109.57649 
L 109.135837 110.221075 
L 111.168995 110.221075 
L 111.575626 110.86566 
L 113.202152 110.86566 
L 113.608783 111.510245 
L 115.641941 111.510245 
L 116.048572 112.15483 
L 118.081729 112.15483 
L 118.488361 112.799415 
L 120.114886 112.799415 
L 120.521518 113.444 
L 122.554675 113.444 
L 122.961307 114.088584 
L 124.994464 114.088584 
L 125.401095 114.733169 
L 127.434252 114.733169 
L 127.840884 115.377754 
L 130.280673 115.377754 
L 130.687304 116.022339 
L 132.720461 116.022339 
L 133.127093 116.666924 
L 135.16025 116.666924 
L 135.566881 117.311509 
L 138.00667 117.311509 
L 138.413301 117.956094 
L 140.446459 117.956094 
L 140.85309 118.600679 
L 143.292879 118.600679 
L 143.69951 119.245264 
L 146.139299 119.245264 
L 146.54593 119.889849 
L 148.579088 119.889849 
L 148.985719 120.534434 
L 151.425508 120.534434 
L 151.832139 121.179019 
L 154.271928 121.179019 
L 154.678559 121.823604 
L 157.118348 121.823604 
L 157.524979 122.468189 
L 159.964768 122.468189 
L 160.3714 123.112774 
L 162.811188 123.112774 
L 163.21782 123.757359 
L 166.06424 123.757359 
L 166.470871 124.401944 
L 168.91066 124.401944 
L 169.317291 125.046529 
L 172.163711 125.046529 
L 172.570343 125.691114 
L 175.010132 125.691114 
L 175.416763 126.335699 
L 178.263183 126.335699 
L 178.669815 126.980284 
L 181.109603 126.980284 
L 181.516235 127.624869 
L 184.362655 127.624869 
L 184.769286 128.269454 
L 187.615706 128.269454 
L 188.022338 128.914039 
L 190.868758 128.914039 
L 191.275389 129.558624 
L 194.121809 129.558624 
L 194.528441 130.203209 
L 197.374861 130.203209 
L 197.781492 130.847794 
L 200.627913 130.847794 
L 201.034544 131.492379 
L 204.287596 131.492379 
L 204.694227 132.136964 
L 207.540647 132.136964 
L 207.947279 132.781549 
L 210.793699 132.781549 
L 211.20033 133.426134 
L 214.453382 133.426134 
L 214.860013 134.070719 
L 217.706433 134.070719 
L 218.113065 134.715304 
L 221.366116 134.715304 
L 221.772748 135.359889 
L 225.025799 135.359889 
L 225.432431 136.004474 
L 228.685482 136.004474 
L 229.092114 136.649059 
L 231.938534 136.649059 
L 232.345165 137.293644 
L 235.598217 137.293644 
L 236.004848 137.938229 
L 239.2579 137.938229 
L 239.664531 138.582814 
L 242.917583 138.582814 
L 243.324214 139.227399 
L 246.983897 139.227399 
L 247.390529 139.871984 
L 250.64358 139.871984 
L 251.050212 140.516569 
L 253.49 140.516569 
L 253.896632 141.161154 
L 254.709895 141.161154 
L 255.116526 141.805739 
L 255.523158 141.805739 
L 255.929789 142.450324 
L 256.33642 142.450324 
L 256.33642 142.450324 
" clip-path="url(#pe1ff87659e)" style="fill: none; stroke: #fde725; stroke-width: 1.5; stroke-linecap: square"/>
   </g>
   <g id="line2d_29">
    <path d="M 74.572165 97.329375 
L 75.385428 96.040205 
L 76.19869 96.040205 
L 76.605322 95.39562 
L 77.418585 95.39562 
L 77.825216 94.751035 
L 79.045111 94.751035 
L 79.451742 94.10645 
L 80.671636 94.10645 
L 81.078268 93.461865 
L 82.298162 93.461865 
L 82.704794 92.81728 
L 84.331319 92.81728 
L 84.737951 92.172695 
L 85.957845 92.172695 
L 86.364477 91.52811 
L 87.991002 91.52811 
L 88.397634 90.883525 
L 90.02416 90.883525 
L 90.430791 90.23894 
L 92.057317 90.23894 
L 92.463948 89.594355 
L 94.090474 89.594355 
L 94.497105 88.94977 
L 96.123631 88.94977 
L 96.530263 88.305185 
L 98.156788 88.305185 
L 98.56342 87.6606 
L 100.189946 87.6606 
L 100.596577 87.016015 
L 102.223103 87.016015 
L 102.629734 86.37143 
L 104.25626 86.37143 
L 104.662892 85.726845 
L 106.696049 85.726845 
L 107.10268 85.08226 
L 108.729206 85.08226 
L 109.135837 84.437675 
L 111.168995 84.437675 
L 111.575626 83.79309 
L 113.202152 83.79309 
L 113.608783 83.148505 
L 115.641941 83.148505 
L 116.048572 82.50392 
L 118.081729 82.50392 
L 118.488361 81.859335 
L 120.114886 81.859335 
L 120.521518 81.21475 
L 122.554675 81.21475 
L 122.961307 80.570166 
L 124.994464 80.570166 
L 125.401095 79.925581 
L 127.434252 79.925581 
L 127.840884 79.280996 
L 130.280673 79.280996 
L 130.687304 78.636411 
L 132.720461 78.636411 
L 133.127093 77.991826 
L 135.16025 77.991826 
L 135.566881 77.347241 
L 138.00667 77.347241 
L 138.413301 76.702656 
L 140.446459 76.702656 
L 140.85309 76.058071 
L 143.292879 76.058071 
L 143.69951 75.413486 
L 146.139299 75.413486 
L 146.54593 74.768901 
L 148.579088 74.768901 
L 148.985719 74.124316 
L 151.425508 74.124316 
L 151.832139 73.479731 
L 154.271928 73.479731 
L 154.678559 72.835146 
L 157.118348 72.835146 
L 157.524979 72.190561 
L 159.964768 72.190561 
L 160.3714 71.545976 
L 162.811188 71.545976 
L 163.21782 70.901391 
L 166.06424 70.901391 
L 166.470871 70.256806 
L 168.91066 70.256806 
L 169.317291 69.612221 
L 172.163711 69.612221 
L 172.570343 68.967636 
L 175.010132 68.967636 
L 175.416763 68.323051 
L 178.263183 68.323051 
L 178.669815 67.678466 
L 181.109603 67.678466 
L 181.516235 67.033881 
L 184.362655 67.033881 
L 184.769286 66.389296 
L 187.615706 66.389296 
L 188.022338 65.744711 
L 190.868758 65.744711 
L 191.275389 65.100126 
L 194.121809 65.100126 
L 194.528441 64.455541 
L 197.374861 64.455541 
L 197.781492 63.810956 
L 200.627913 63.810956 
L 201.034544 63.166371 
L 204.287596 63.166371 
L 204.694227 62.521786 
L 207.540647 62.521786 
L 207.947279 61.877201 
L 210.793699 61.877201 
L 211.20033 61.232616 
L 214.453382 61.232616 
L 214.860013 60.588031 
L 217.706433 60.588031 
L 218.113065 59.943446 
L 221.366116 59.943446 
L 221.772748 59.298861 
L 225.025799 59.298861 
L 225.432431 58.654276 
L 228.685482 58.654276 
L 229.092114 58.009691 
L 231.938534 58.009691 
L 232.345165 57.365106 
L 235.598217 57.365106 
L 236.004848 56.720521 
L 239.2579 56.720521 
L 239.664531 56.075936 
L 242.917583 56.075936 
L 243.324214 55.431351 
L 246.983897 55.431351 
L 247.390529 54.786766 
L 250.64358 54.786766 
L 251.050212 54.142181 
L 253.49 54.142181 
L 253.896632 53.497596 
L 254.709895 53.497596 
L 255.116526 52.853011 
L 255.523158 52.853011 
L 255.929789 52.208426 
L 256.33642 52.208426 
L 256.33642 52.208426 
" clip-path="url(#pe1ff87659e)" style="fill: none; stroke: #fde725; stroke-width: 1.5; stroke-linecap: square"/>
   </g>
   <g id="patch_3">
    <path d="M 43.281875 178.869375 
L 43.281875 15.789375 
" style="fill: none; stroke: #000000; stroke-width: 0.8; stroke-linejoin: miter; stroke-linecap: square"/>
   </g>
   <g id="patch_4">
    <path d="M 43.281875 178.869375 
L 266.481875 178.869375 
" style="fill: none; stroke: #000000; stroke-width: 0.8; stroke-linejoin: miter; stroke-linecap: square"/>
   </g>
   <g id="text_12">
    <!-- B -->
    <g transform="translate(9.801875 15.789375)scale(0.12 -0.12)">
     <defs>
      <path id="Arial-BoldMT-42" d="M 469 4581 
L 2300 4581 
Q 2844 4581 3111 4536 
Q 3378 4491 3589 4347 
Q 3800 4203 3940 3964 
Q 4081 3725 4081 3428 
Q 4081 3106 3907 2837 
Q 3734 2569 3438 2434 
Q 3856 2313 4081 2019 
Q 4306 1725 4306 1328 
Q 4306 1016 4161 720 
Q 4016 425 3764 248 
Q 3513 72 3144 31 
Q 2913 6 2028 0 
L 469 0 
L 469 4581 
z
M 1394 3819 
L 1394 2759 
L 2000 2759 
Q 2541 2759 2672 2775 
Q 2909 2803 3045 2939 
Q 3181 3075 3181 3297 
Q 3181 3509 3064 3642 
Q 2947 3775 2716 3803 
Q 2578 3819 1925 3819 
L 1394 3819 
z
M 1394 1997 
L 1394 772 
L 2250 772 
Q 2750 772 2884 800 
Q 3091 838 3220 983 
Q 3350 1128 3350 1372 
Q 3350 1578 3250 1722 
Q 3150 1866 2961 1931 
Q 2772 1997 2141 1997 
L 1394 1997 
z
" transform="scale(0.015625)"/>
     </defs>
     <use xlink:href="#Arial-BoldMT-42"/>
    </g>
   </g>
   <g id="legend_1">
    <g id="text_13">
     <!-- $\Delta f$ -->
     <g transform="translate(301.51625 35.17875)scale(0.12 -0.12)">
      <defs>
       <path id="DejaVuSans-394" d="M 2188 4044 
L 906 525 
L 3472 525 
L 2188 4044 
z
M 50 0 
L 1831 4666 
L 2547 4666 
L 4325 0 
L 50 0 
z
" transform="scale(0.015625)"/>
       <path id="DejaVuSans-Oblique-66" d="M 3059 4863 
L 2969 4384 
L 2419 4384 
Q 2106 4384 1964 4261 
Q 1822 4138 1753 3809 
L 1691 3500 
L 2638 3500 
L 2553 3053 
L 1606 3053 
L 1013 0 
L 434 0 
L 1031 3053 
L 481 3053 
L 563 3500 
L 1113 3500 
L 1159 3744 
Q 1278 4363 1576 4613 
Q 1875 4863 2516 4863 
L 3059 4863 
z
" transform="scale(0.015625)"/>
      </defs>
      <use xlink:href="#DejaVuSans-394" transform="translate(0 0.015625)"/>
      <use xlink:href="#DejaVuSans-Oblique-66" transform="translate(68.408203 0.015625)"/>
     </g>
    </g>
    <g id="patch_5">
     <path d="M 277.281875 52.153125 
L 301.281875 52.153125 
L 301.281875 43.753125 
L 277.281875 43.753125 
z
" style="fill: #440154"/>
    </g>
    <g id="text_14">
     <!-- -0.5 -->
     <g transform="translate(310.881875 52.153125)scale(0.12 -0.12)">
      <defs>
       <path id="ArialMT-2d" d="M 203 1375 
L 203 1941 
L 1931 1941 
L 1931 1375 
L 203 1375 
z
" transform="scale(0.015625)"/>
       <path id="ArialMT-2e" d="M 581 0 
L 581 641 
L 1222 641 
L 1222 0 
L 581 0 
z
" transform="scale(0.015625)"/>
       <path id="ArialMT-35" d="M 266 1200 
L 856 1250 
Q 922 819 1161 601 
Q 1400 384 1738 384 
Q 2144 384 2425 690 
Q 2706 997 2706 1503 
Q 2706 1984 2436 2262 
Q 2166 2541 1728 2541 
Q 1456 2541 1237 2417 
Q 1019 2294 894 2097 
L 366 2166 
L 809 4519 
L 3088 4519 
L 3088 3981 
L 1259 3981 
L 1013 2750 
Q 1425 3038 1878 3038 
Q 2478 3038 2890 2622 
Q 3303 2206 3303 1553 
Q 3303 931 2941 478 
Q 2500 -78 1738 -78 
Q 1113 -78 717 272 
Q 322 622 266 1200 
z
" transform="scale(0.015625)"/>
      </defs>
      <use xlink:href="#ArialMT-2d"/>
      <use xlink:href="#ArialMT-30" x="33.300781"/>
      <use xlink:href="#ArialMT-2e" x="88.916016"/>
      <use xlink:href="#ArialMT-35" x="116.699219"/>
     </g>
    </g>
    <g id="patch_6">
     <path d="M 277.281875 69.1275 
L 301.281875 69.1275 
L 301.281875 60.7275 
L 277.281875 60.7275 
z
" style="fill: #3b528b"/>
    </g>
    <g id="text_15">
     <!-- -0.25 -->
     <g transform="translate(310.881875 69.1275)scale(0.12 -0.12)">
      <use xlink:href="#ArialMT-2d"/>
      <use xlink:href="#ArialMT-30" x="33.300781"/>
      <use xlink:href="#ArialMT-2e" x="88.916016"/>
      <use xlink:href="#ArialMT-32" x="116.699219"/>
      <use xlink:href="#ArialMT-35" x="172.314453"/>
     </g>
    </g>
    <g id="patch_7">
     <path d="M 277.281875 86.101875 
L 301.281875 86.101875 
L 301.281875 77.701875 
L 277.281875 77.701875 
z
" style="fill: #21918c"/>
    </g>
    <g id="text_16">
     <!-- 0.0 -->
     <g transform="translate(310.881875 86.101875)scale(0.12 -0.12)">
      <use xlink:href="#ArialMT-30"/>
      <use xlink:href="#ArialMT-2e" x="55.615234"/>
      <use xlink:href="#ArialMT-30" x="83.398438"/>
     </g>
    </g>
    <g id="patch_8">
     <path d="M 277.281875 103.07625 
L 301.281875 103.07625 
L 301.281875 94.67625 
L 277.281875 94.67625 
z
" style="fill: #5ec962"/>
    </g>
    <g id="text_17">
     <!-- 0.25 -->
     <g transform="translate(310.881875 103.07625)scale(0.12 -0.12)">
      <use xlink:href="#ArialMT-30"/>
      <use xlink:href="#ArialMT-2e" x="55.615234"/>
      <use xlink:href="#ArialMT-32" x="83.398438"/>
      <use xlink:href="#ArialMT-35" x="139.013672"/>
     </g>
    </g>
    <g id="patch_9">
     <path d="M 277.281875 120.050625 
L 301.281875 120.050625 
L 301.281875 111.650625 
L 277.281875 111.650625 
z
" style="fill: #fde725"/>
    </g>
    <g id="text_18">
     <!-- 0.5 -->
     <g transform="translate(310.881875 120.050625)scale(0.12 -0.12)">
      <use xlink:href="#ArialMT-30"/>
      <use xlink:href="#ArialMT-2e" x="55.615234"/>
      <use xlink:href="#ArialMT-35" x="83.398438"/>
     </g>
    </g>
   </g>
  </g>
 </g>
 <defs>
  <clipPath id="pe1ff87659e">
   <rect x="43.281875" y="15.789375" width="223.2" height="163.08"/>
  </clipPath>
 </defs>
</svg>
