<?xml version="1.0" encoding="utf-8" standalone="no"?>
<!DOCTYPE svg PUBLIC "-//W3C//DTD SVG 1.1//EN"
  "http://www.w3.org/Graphics/SVG/1.1/DTD/svg11.dtd">
<svg xmlns:xlink="http://www.w3.org/1999/xlink" width="351.36875pt" height="191.838125pt" viewBox="0 0 351.36875 191.838125" xmlns="http://www.w3.org/2000/svg" version="1.1">
 <metadata>
  <rdf:RDF xmlns:dc="http://purl.org/dc/elements/1.1/" xmlns:cc="http://creativecommons.org/ns#" xmlns:rdf="http://www.w3.org/1999/02/22-rdf-syntax-ns#">
   <cc:Work>
    <dc:type rdf:resource="http://purl.org/dc/dcmitype/StillImage"/>
    <dc:date>2023-02-12T10:34:29.270729</dc:date>
    <dc:format>image/svg+xml</dc:format>
    <dc:creator>
     <cc:Agent>
      <dc:title>Matplotlib v3.5.1, https://matplotlib.org/</dc:title>
     </cc:Agent>
    </dc:creator>
   </cc:Work>
  </rdf:RDF>
 </metadata>
 <defs>
  <style type="text/css">*{stroke-linejoin: round; stroke-linecap: butt}</style>
 </defs>
 <g id="figure_1">
  <g id="patch_1">
   <path d="M 0 191.838125 
L 351.36875 191.838125 
L 351.36875 0 
L 0 0 
L 0 191.838125 
z
" style="fill: none"/>
  </g>
  <g id="axes_1">
   <g id="patch_2">
    <path d="M 46.14125 151.689375 
L 230.28125 151.689375 
L 230.28125 15.789375 
L 46.14125 15.789375 
z
" style="fill: #ffffff"/>
   </g>
   <g id="matplotlib.axis_1">
    <g id="xtick_1">
     <g id="line2d_1">
      <defs>
       <path id="m3ebd9dbdf6" d="M 0 0 
L 0 3.5 
" style="stroke: #000000; stroke-width: 0.8"/>
      </defs>
      <g>
       <use xlink:href="#m3ebd9dbdf6" x="73.826635" y="151.689375" style="stroke: #000000; stroke-width: 0.8"/>
      </g>
     </g>
     <g id="text_1">
      <!-- −0.2 -->
      <g transform="translate(61.98226 167.27875)scale(0.12 -0.12)">
       <defs>
        <path id="ArialMT-2212" d="M 3381 1997 
L 356 1997 
L 356 2522 
L 3381 2522 
L 3381 1997 
z
" transform="scale(0.015625)"/>
        <path id="ArialMT-30" d="M 266 2259 
Q 266 3072 433 3567 
Q 600 4063 929 4331 
Q 1259 4600 1759 4600 
Q 2128 4600 2406 4451 
Q 2684 4303 2865 4023 
Q 3047 3744 3150 3342 
Q 3253 2941 3253 2259 
Q 3253 1453 3087 958 
Q 2922 463 2592 192 
Q 2263 -78 1759 -78 
Q 1097 -78 719 397 
Q 266 969 266 2259 
z
M 844 2259 
Q 844 1131 1108 757 
Q 1372 384 1759 384 
Q 2147 384 2411 759 
Q 2675 1134 2675 2259 
Q 2675 3391 2411 3762 
Q 2147 4134 1753 4134 
Q 1366 4134 1134 3806 
Q 844 3388 844 2259 
z
" transform="scale(0.015625)"/>
        <path id="ArialMT-2e" d="M 581 0 
L 581 641 
L 1222 641 
L 1222 0 
L 581 0 
z
" transform="scale(0.015625)"/>
        <path id="ArialMT-32" d="M 3222 541 
L 3222 0 
L 194 0 
Q 188 203 259 391 
Q 375 700 629 1000 
Q 884 1300 1366 1694 
Q 2113 2306 2375 2664 
Q 2638 3022 2638 3341 
Q 2638 3675 2398 3904 
Q 2159 4134 1775 4134 
Q 1369 4134 1125 3890 
Q 881 3647 878 3216 
L 300 3275 
Q 359 3922 746 4261 
Q 1134 4600 1788 4600 
Q 2447 4600 2831 4234 
Q 3216 3869 3216 3328 
Q 3216 3053 3103 2787 
Q 2991 2522 2730 2228 
Q 2469 1934 1863 1422 
Q 1356 997 1212 845 
Q 1069 694 975 541 
L 3222 541 
z
" transform="scale(0.015625)"/>
       </defs>
       <use xlink:href="#ArialMT-2212"/>
       <use xlink:href="#ArialMT-30" x="58.398438"/>
       <use xlink:href="#ArialMT-2e" x="114.013672"/>
       <use xlink:href="#ArialMT-32" x="141.796875"/>
      </g>
     </g>
    </g>
    <g id="xtick_2">
     <g id="line2d_2">
      <g>
       <use xlink:href="#m3ebd9dbdf6" x="138.21125" y="151.689375" style="stroke: #000000; stroke-width: 0.8"/>
      </g>
     </g>
     <g id="text_2">
      <!-- 0.0 -->
      <g transform="translate(129.87125 167.27875)scale(0.12 -0.12)">
       <use xlink:href="#ArialMT-30"/>
       <use xlink:href="#ArialMT-2e" x="55.615234"/>
       <use xlink:href="#ArialMT-30" x="83.398438"/>
      </g>
     </g>
    </g>
    <g id="xtick_3">
     <g id="line2d_3">
      <g>
       <use xlink:href="#m3ebd9dbdf6" x="202.595865" y="151.689375" style="stroke: #000000; stroke-width: 0.8"/>
      </g>
     </g>
     <g id="text_3">
      <!-- 0.2 -->
      <g transform="translate(194.255865 167.27875)scale(0.12 -0.12)">
       <use xlink:href="#ArialMT-30"/>
       <use xlink:href="#ArialMT-2e" x="55.615234"/>
       <use xlink:href="#ArialMT-32" x="83.398438"/>
      </g>
     </g>
    </g>
    <g id="text_4">
     <!-- Coherence -->
     <g transform="translate(108.860938 182.253125)scale(0.12 -0.12)">
      <defs>
       <path id="ArialMT-43" d="M 3763 1606 
L 4369 1453 
Q 4178 706 3683 314 
Q 3188 -78 2472 -78 
Q 1731 -78 1267 223 
Q 803 525 561 1097 
Q 319 1669 319 2325 
Q 319 3041 592 3573 
Q 866 4106 1370 4382 
Q 1875 4659 2481 4659 
Q 3169 4659 3637 4309 
Q 4106 3959 4291 3325 
L 3694 3184 
Q 3534 3684 3231 3912 
Q 2928 4141 2469 4141 
Q 1941 4141 1586 3887 
Q 1231 3634 1087 3207 
Q 944 2781 944 2328 
Q 944 1744 1114 1308 
Q 1284 872 1643 656 
Q 2003 441 2422 441 
Q 2931 441 3284 734 
Q 3638 1028 3763 1606 
z
" transform="scale(0.015625)"/>
       <path id="ArialMT-6f" d="M 213 1659 
Q 213 2581 725 3025 
Q 1153 3394 1769 3394 
Q 2453 3394 2887 2945 
Q 3322 2497 3322 1706 
Q 3322 1066 3130 698 
Q 2938 331 2570 128 
Q 2203 -75 1769 -75 
Q 1072 -75 642 372 
Q 213 819 213 1659 
z
M 791 1659 
Q 791 1022 1069 705 
Q 1347 388 1769 388 
Q 2188 388 2466 706 
Q 2744 1025 2744 1678 
Q 2744 2294 2464 2611 
Q 2184 2928 1769 2928 
Q 1347 2928 1069 2612 
Q 791 2297 791 1659 
z
" transform="scale(0.015625)"/>
       <path id="ArialMT-68" d="M 422 0 
L 422 4581 
L 984 4581 
L 984 2938 
Q 1378 3394 1978 3394 
Q 2347 3394 2619 3248 
Q 2891 3103 3008 2847 
Q 3125 2591 3125 2103 
L 3125 0 
L 2563 0 
L 2563 2103 
Q 2563 2525 2380 2717 
Q 2197 2909 1863 2909 
Q 1613 2909 1392 2779 
Q 1172 2650 1078 2428 
Q 984 2206 984 1816 
L 984 0 
L 422 0 
z
" transform="scale(0.015625)"/>
       <path id="ArialMT-65" d="M 2694 1069 
L 3275 997 
Q 3138 488 2766 206 
Q 2394 -75 1816 -75 
Q 1088 -75 661 373 
Q 234 822 234 1631 
Q 234 2469 665 2931 
Q 1097 3394 1784 3394 
Q 2450 3394 2872 2941 
Q 3294 2488 3294 1666 
Q 3294 1616 3291 1516 
L 816 1516 
Q 847 969 1125 678 
Q 1403 388 1819 388 
Q 2128 388 2347 550 
Q 2566 713 2694 1069 
z
M 847 1978 
L 2700 1978 
Q 2663 2397 2488 2606 
Q 2219 2931 1791 2931 
Q 1403 2931 1139 2672 
Q 875 2413 847 1978 
z
" transform="scale(0.015625)"/>
       <path id="ArialMT-72" d="M 416 0 
L 416 3319 
L 922 3319 
L 922 2816 
Q 1116 3169 1280 3281 
Q 1444 3394 1641 3394 
Q 1925 3394 2219 3213 
L 2025 2691 
Q 1819 2813 1613 2813 
Q 1428 2813 1281 2702 
Q 1134 2591 1072 2394 
Q 978 2094 978 1738 
L 978 0 
L 416 0 
z
" transform="scale(0.015625)"/>
       <path id="ArialMT-6e" d="M 422 0 
L 422 3319 
L 928 3319 
L 928 2847 
Q 1294 3394 1984 3394 
Q 2284 3394 2536 3286 
Q 2788 3178 2913 3003 
Q 3038 2828 3088 2588 
Q 3119 2431 3119 2041 
L 3119 0 
L 2556 0 
L 2556 2019 
Q 2556 2363 2490 2533 
Q 2425 2703 2258 2804 
Q 2091 2906 1866 2906 
Q 1506 2906 1245 2678 
Q 984 2450 984 1813 
L 984 0 
L 422 0 
z
" transform="scale(0.015625)"/>
       <path id="ArialMT-63" d="M 2588 1216 
L 3141 1144 
Q 3050 572 2676 248 
Q 2303 -75 1759 -75 
Q 1078 -75 664 370 
Q 250 816 250 1647 
Q 250 2184 428 2587 
Q 606 2991 970 3192 
Q 1334 3394 1763 3394 
Q 2303 3394 2647 3120 
Q 2991 2847 3088 2344 
L 2541 2259 
Q 2463 2594 2264 2762 
Q 2066 2931 1784 2931 
Q 1359 2931 1093 2626 
Q 828 2322 828 1663 
Q 828 994 1084 691 
Q 1341 388 1753 388 
Q 2084 388 2306 591 
Q 2528 794 2588 1216 
z
" transform="scale(0.015625)"/>
      </defs>
      <use xlink:href="#ArialMT-43"/>
      <use xlink:href="#ArialMT-6f" x="72.216797"/>
      <use xlink:href="#ArialMT-68" x="127.832031"/>
      <use xlink:href="#ArialMT-65" x="183.447266"/>
      <use xlink:href="#ArialMT-72" x="239.0625"/>
      <use xlink:href="#ArialMT-65" x="272.363281"/>
      <use xlink:href="#ArialMT-6e" x="327.978516"/>
      <use xlink:href="#ArialMT-63" x="383.59375"/>
      <use xlink:href="#ArialMT-65" x="433.59375"/>
     </g>
    </g>
   </g>
   <g id="matplotlib.axis_2">
    <g id="ytick_1">
     <g id="line2d_4">
      <defs>
       <path id="md2be8ccd8d" d="M 0 0 
L -3.5 0 
" style="stroke: #000000; stroke-width: 0.8"/>
      </defs>
      <g>
       <use xlink:href="#md2be8ccd8d" x="46.14125" y="134.645065" style="stroke: #000000; stroke-width: 0.8"/>
      </g>
     </g>
     <g id="text_5">
      <!-- 0.6 -->
      <g transform="translate(22.46125 138.939752)scale(0.12 -0.12)">
       <defs>
        <path id="ArialMT-36" d="M 3184 3459 
L 2625 3416 
Q 2550 3747 2413 3897 
Q 2184 4138 1850 4138 
Q 1581 4138 1378 3988 
Q 1113 3794 959 3422 
Q 806 3050 800 2363 
Q 1003 2672 1297 2822 
Q 1591 2972 1913 2972 
Q 2475 2972 2870 2558 
Q 3266 2144 3266 1488 
Q 3266 1056 3080 686 
Q 2894 316 2569 119 
Q 2244 -78 1831 -78 
Q 1128 -78 684 439 
Q 241 956 241 2144 
Q 241 3472 731 4075 
Q 1159 4600 1884 4600 
Q 2425 4600 2770 4297 
Q 3116 3994 3184 3459 
z
M 888 1484 
Q 888 1194 1011 928 
Q 1134 663 1356 523 
Q 1578 384 1822 384 
Q 2178 384 2434 671 
Q 2691 959 2691 1453 
Q 2691 1928 2437 2201 
Q 2184 2475 1800 2475 
Q 1419 2475 1153 2201 
Q 888 1928 888 1484 
z
" transform="scale(0.015625)"/>
       </defs>
       <use xlink:href="#ArialMT-30"/>
       <use xlink:href="#ArialMT-2e" x="55.615234"/>
       <use xlink:href="#ArialMT-36" x="83.398438"/>
      </g>
     </g>
    </g>
    <g id="ytick_2">
     <g id="line2d_5">
      <g>
       <use xlink:href="#md2be8ccd8d" x="46.14125" y="100.624717" style="stroke: #000000; stroke-width: 0.8"/>
      </g>
     </g>
     <g id="text_6">
      <!-- 0.8 -->
      <g transform="translate(22.46125 104.919405)scale(0.12 -0.12)">
       <defs>
        <path id="ArialMT-38" d="M 1131 2484 
Q 781 2613 612 2850 
Q 444 3088 444 3419 
Q 444 3919 803 4259 
Q 1163 4600 1759 4600 
Q 2359 4600 2725 4251 
Q 3091 3903 3091 3403 
Q 3091 3084 2923 2848 
Q 2756 2613 2416 2484 
Q 2838 2347 3058 2040 
Q 3278 1734 3278 1309 
Q 3278 722 2862 322 
Q 2447 -78 1769 -78 
Q 1091 -78 675 323 
Q 259 725 259 1325 
Q 259 1772 486 2073 
Q 713 2375 1131 2484 
z
M 1019 3438 
Q 1019 3113 1228 2906 
Q 1438 2700 1772 2700 
Q 2097 2700 2305 2904 
Q 2513 3109 2513 3406 
Q 2513 3716 2298 3927 
Q 2084 4138 1766 4138 
Q 1444 4138 1231 3931 
Q 1019 3725 1019 3438 
z
M 838 1322 
Q 838 1081 952 856 
Q 1066 631 1291 507 
Q 1516 384 1775 384 
Q 2178 384 2440 643 
Q 2703 903 2703 1303 
Q 2703 1709 2433 1975 
Q 2163 2241 1756 2241 
Q 1359 2241 1098 1978 
Q 838 1716 838 1322 
z
" transform="scale(0.015625)"/>
       </defs>
       <use xlink:href="#ArialMT-30"/>
       <use xlink:href="#ArialMT-2e" x="55.615234"/>
       <use xlink:href="#ArialMT-38" x="83.398438"/>
      </g>
     </g>
    </g>
    <g id="ytick_3">
     <g id="line2d_6">
      <g>
       <use xlink:href="#md2be8ccd8d" x="46.14125" y="66.604369" style="stroke: #000000; stroke-width: 0.8"/>
      </g>
     </g>
     <g id="text_7">
      <!-- 1.0 -->
      <g transform="translate(22.46125 70.899057)scale(0.12 -0.12)">
       <defs>
        <path id="ArialMT-31" d="M 2384 0 
L 1822 0 
L 1822 3584 
Q 1619 3391 1289 3197 
Q 959 3003 697 2906 
L 697 3450 
Q 1169 3672 1522 3987 
Q 1875 4303 2022 4600 
L 2384 4600 
L 2384 0 
z
" transform="scale(0.015625)"/>
       </defs>
       <use xlink:href="#ArialMT-31"/>
       <use xlink:href="#ArialMT-2e" x="55.615234"/>
       <use xlink:href="#ArialMT-30" x="83.398438"/>
      </g>
     </g>
    </g>
    <g id="ytick_4">
     <g id="line2d_7">
      <g>
       <use xlink:href="#md2be8ccd8d" x="46.14125" y="32.584022" style="stroke: #000000; stroke-width: 0.8"/>
      </g>
     </g>
     <g id="text_8">
      <!-- 1.2 -->
      <g transform="translate(22.46125 36.878709)scale(0.12 -0.12)">
       <use xlink:href="#ArialMT-31"/>
       <use xlink:href="#ArialMT-2e" x="55.615234"/>
       <use xlink:href="#ArialMT-32" x="83.398438"/>
      </g>
     </g>
    </g>
    <g id="text_9">
     <!-- Reaction time (s) -->
     <g transform="translate(15.935625 129.0825)rotate(-90)scale(0.12 -0.12)">
      <defs>
       <path id="ArialMT-52" d="M 503 0 
L 503 4581 
L 2534 4581 
Q 3147 4581 3465 4457 
Q 3784 4334 3975 4021 
Q 4166 3709 4166 3331 
Q 4166 2844 3850 2509 
Q 3534 2175 2875 2084 
Q 3116 1969 3241 1856 
Q 3506 1613 3744 1247 
L 4541 0 
L 3778 0 
L 3172 953 
Q 2906 1366 2734 1584 
Q 2563 1803 2427 1890 
Q 2291 1978 2150 2013 
Q 2047 2034 1813 2034 
L 1109 2034 
L 1109 0 
L 503 0 
z
M 1109 2559 
L 2413 2559 
Q 2828 2559 3062 2645 
Q 3297 2731 3419 2920 
Q 3541 3109 3541 3331 
Q 3541 3656 3305 3865 
Q 3069 4075 2559 4075 
L 1109 4075 
L 1109 2559 
z
" transform="scale(0.015625)"/>
       <path id="ArialMT-61" d="M 2588 409 
Q 2275 144 1986 34 
Q 1697 -75 1366 -75 
Q 819 -75 525 192 
Q 231 459 231 875 
Q 231 1119 342 1320 
Q 453 1522 633 1644 
Q 813 1766 1038 1828 
Q 1203 1872 1538 1913 
Q 2219 1994 2541 2106 
Q 2544 2222 2544 2253 
Q 2544 2597 2384 2738 
Q 2169 2928 1744 2928 
Q 1347 2928 1158 2789 
Q 969 2650 878 2297 
L 328 2372 
Q 403 2725 575 2942 
Q 747 3159 1072 3276 
Q 1397 3394 1825 3394 
Q 2250 3394 2515 3294 
Q 2781 3194 2906 3042 
Q 3031 2891 3081 2659 
Q 3109 2516 3109 2141 
L 3109 1391 
Q 3109 606 3145 398 
Q 3181 191 3288 0 
L 2700 0 
Q 2613 175 2588 409 
z
M 2541 1666 
Q 2234 1541 1622 1453 
Q 1275 1403 1131 1340 
Q 988 1278 909 1158 
Q 831 1038 831 891 
Q 831 666 1001 516 
Q 1172 366 1500 366 
Q 1825 366 2078 508 
Q 2331 650 2450 897 
Q 2541 1088 2541 1459 
L 2541 1666 
z
" transform="scale(0.015625)"/>
       <path id="ArialMT-74" d="M 1650 503 
L 1731 6 
Q 1494 -44 1306 -44 
Q 1000 -44 831 53 
Q 663 150 594 308 
Q 525 466 525 972 
L 525 2881 
L 113 2881 
L 113 3319 
L 525 3319 
L 525 4141 
L 1084 4478 
L 1084 3319 
L 1650 3319 
L 1650 2881 
L 1084 2881 
L 1084 941 
Q 1084 700 1114 631 
Q 1144 563 1211 522 
Q 1278 481 1403 481 
Q 1497 481 1650 503 
z
" transform="scale(0.015625)"/>
       <path id="ArialMT-69" d="M 425 3934 
L 425 4581 
L 988 4581 
L 988 3934 
L 425 3934 
z
M 425 0 
L 425 3319 
L 988 3319 
L 988 0 
L 425 0 
z
" transform="scale(0.015625)"/>
       <path id="ArialMT-20" transform="scale(0.015625)"/>
       <path id="ArialMT-6d" d="M 422 0 
L 422 3319 
L 925 3319 
L 925 2853 
Q 1081 3097 1340 3245 
Q 1600 3394 1931 3394 
Q 2300 3394 2536 3241 
Q 2772 3088 2869 2813 
Q 3263 3394 3894 3394 
Q 4388 3394 4653 3120 
Q 4919 2847 4919 2278 
L 4919 0 
L 4359 0 
L 4359 2091 
Q 4359 2428 4304 2576 
Q 4250 2725 4106 2815 
Q 3963 2906 3769 2906 
Q 3419 2906 3187 2673 
Q 2956 2441 2956 1928 
L 2956 0 
L 2394 0 
L 2394 2156 
Q 2394 2531 2256 2718 
Q 2119 2906 1806 2906 
Q 1569 2906 1367 2781 
Q 1166 2656 1075 2415 
Q 984 2175 984 1722 
L 984 0 
L 422 0 
z
" transform="scale(0.015625)"/>
       <path id="ArialMT-28" d="M 1497 -1347 
Q 1031 -759 709 28 
Q 388 816 388 1659 
Q 388 2403 628 3084 
Q 909 3875 1497 4659 
L 1900 4659 
Q 1522 4009 1400 3731 
Q 1209 3300 1100 2831 
Q 966 2247 966 1656 
Q 966 153 1900 -1347 
L 1497 -1347 
z
" transform="scale(0.015625)"/>
       <path id="ArialMT-73" d="M 197 991 
L 753 1078 
Q 800 744 1014 566 
Q 1228 388 1613 388 
Q 2000 388 2187 545 
Q 2375 703 2375 916 
Q 2375 1106 2209 1216 
Q 2094 1291 1634 1406 
Q 1016 1563 777 1677 
Q 538 1791 414 1992 
Q 291 2194 291 2438 
Q 291 2659 392 2848 
Q 494 3038 669 3163 
Q 800 3259 1026 3326 
Q 1253 3394 1513 3394 
Q 1903 3394 2198 3281 
Q 2494 3169 2634 2976 
Q 2775 2784 2828 2463 
L 2278 2388 
Q 2241 2644 2061 2787 
Q 1881 2931 1553 2931 
Q 1166 2931 1000 2803 
Q 834 2675 834 2503 
Q 834 2394 903 2306 
Q 972 2216 1119 2156 
Q 1203 2125 1616 2013 
Q 2213 1853 2448 1751 
Q 2684 1650 2818 1456 
Q 2953 1263 2953 975 
Q 2953 694 2789 445 
Q 2625 197 2315 61 
Q 2006 -75 1616 -75 
Q 969 -75 630 194 
Q 291 463 197 991 
z
" transform="scale(0.015625)"/>
       <path id="ArialMT-29" d="M 791 -1347 
L 388 -1347 
Q 1322 153 1322 1656 
Q 1322 2244 1188 2822 
Q 1081 3291 891 3722 
Q 769 4003 388 4659 
L 791 4659 
Q 1378 3875 1659 3084 
Q 1900 2403 1900 1659 
Q 1900 816 1576 28 
Q 1253 -759 791 -1347 
z
" transform="scale(0.015625)"/>
      </defs>
      <use xlink:href="#ArialMT-52"/>
      <use xlink:href="#ArialMT-65" x="72.216797"/>
      <use xlink:href="#ArialMT-61" x="127.832031"/>
      <use xlink:href="#ArialMT-63" x="183.447266"/>
      <use xlink:href="#ArialMT-74" x="233.447266"/>
      <use xlink:href="#ArialMT-69" x="261.230469"/>
      <use xlink:href="#ArialMT-6f" x="283.447266"/>
      <use xlink:href="#ArialMT-6e" x="339.0625"/>
      <use xlink:href="#ArialMT-20" x="394.677734"/>
      <use xlink:href="#ArialMT-74" x="422.460938"/>
      <use xlink:href="#ArialMT-69" x="450.244141"/>
      <use xlink:href="#ArialMT-6d" x="472.460938"/>
      <use xlink:href="#ArialMT-65" x="555.761719"/>
      <use xlink:href="#ArialMT-20" x="611.376953"/>
      <use xlink:href="#ArialMT-28" x="639.160156"/>
      <use xlink:href="#ArialMT-73" x="672.460938"/>
      <use xlink:href="#ArialMT-29" x="722.460938"/>
     </g>
    </g>
   </g>
   <g id="LineCollection_1">
    <path d="M 54.51125 105.523736 
L 54.51125 21.966648 
" clip-path="url(#p9dcec4de43)" style="fill: none; stroke: #800080; stroke-opacity: 0.5; stroke-width: 0.5"/>
    <path d="M 86.703558 114.373541 
L 86.703558 71.751892 
" clip-path="url(#p9dcec4de43)" style="fill: none; stroke: #800080; stroke-opacity: 0.5; stroke-width: 0.5"/>
    <path d="M 99.580481 126.187614 
L 99.580481 90.543501 
" clip-path="url(#p9dcec4de43)" style="fill: none; stroke: #800080; stroke-opacity: 0.5; stroke-width: 0.5"/>
    <path d="M 106.018942 115.754242 
L 106.018942 78.335391 
" clip-path="url(#p9dcec4de43)" style="fill: none; stroke: #800080; stroke-opacity: 0.5; stroke-width: 0.5"/>
    <path d="M 112.457404 113.640359 
L 112.457404 80.940569 
" clip-path="url(#p9dcec4de43)" style="fill: none; stroke: #800080; stroke-opacity: 0.5; stroke-width: 0.5"/>
    <path d="M 118.895865 124.342585 
L 118.895865 89.354698 
" clip-path="url(#p9dcec4de43)" style="fill: none; stroke: #800080; stroke-opacity: 0.5; stroke-width: 0.5"/>
    <path d="M 125.334327 124.422662 
L 125.334327 95.302693 
" clip-path="url(#p9dcec4de43)" style="fill: none; stroke: #800080; stroke-opacity: 0.5; stroke-width: 0.5"/>
    <path d="M 131.772788 123.944716 
L 131.772788 95.160767 
" clip-path="url(#p9dcec4de43)" style="fill: none; stroke: #800080; stroke-opacity: 0.5; stroke-width: 0.5"/>
    <path d="M 138.21125 124.331475 
L 138.21125 100.237892 
" clip-path="url(#p9dcec4de43)" style="fill: none; stroke: #800080; stroke-opacity: 0.5; stroke-width: 0.5"/>
    <path d="M 144.649712 123.120159 
L 144.649712 100.023971 
" clip-path="url(#p9dcec4de43)" style="fill: none; stroke: #800080; stroke-opacity: 0.5; stroke-width: 0.5"/>
    <path d="M 151.088173 122.701428 
L 151.088173 98.979189 
" clip-path="url(#p9dcec4de43)" style="fill: none; stroke: #800080; stroke-opacity: 0.5; stroke-width: 0.5"/>
    <path d="M 157.526635 121.495193 
L 157.526635 96.496014 
" clip-path="url(#p9dcec4de43)" style="fill: none; stroke: #800080; stroke-opacity: 0.5; stroke-width: 0.5"/>
    <path d="M 163.965096 121.215626 
L 163.965096 96.024159 
" clip-path="url(#p9dcec4de43)" style="fill: none; stroke: #800080; stroke-opacity: 0.5; stroke-width: 0.5"/>
    <path d="M 170.403558 122.148219 
L 170.403558 93.550353 
" clip-path="url(#p9dcec4de43)" style="fill: none; stroke: #800080; stroke-opacity: 0.5; stroke-width: 0.5"/>
    <path d="M 176.842019 111.028127 
L 176.842019 85.821268 
" clip-path="url(#p9dcec4de43)" style="fill: none; stroke: #800080; stroke-opacity: 0.5; stroke-width: 0.5"/>
    <path d="M 189.718942 106.768776 
L 189.718942 69.526707 
" clip-path="url(#p9dcec4de43)" style="fill: none; stroke: #800080; stroke-opacity: 0.5; stroke-width: 0.5"/>
    <path d="M 221.91125 145.512102 
L 221.91125 103.254889 
" clip-path="url(#p9dcec4de43)" style="fill: none; stroke: #800080; stroke-opacity: 0.5; stroke-width: 0.5"/>
   </g>
   <g id="line2d_8">
    <defs>
     <path id="mf474201144" d="M 1.5 0 
L -1.5 -0 
" style="stroke: #800080; stroke-opacity: 0.5"/>
    </defs>
    <g clip-path="url(#p9dcec4de43)">
     <use xlink:href="#mf474201144" x="54.51125" y="105.523736" style="fill: #800080; fill-opacity: 0.5; stroke: #800080; stroke-opacity: 0.5"/>
     <use xlink:href="#mf474201144" x="86.703558" y="114.373541" style="fill: #800080; fill-opacity: 0.5; stroke: #800080; stroke-opacity: 0.5"/>
     <use xlink:href="#mf474201144" x="99.580481" y="126.187614" style="fill: #800080; fill-opacity: 0.5; stroke: #800080; stroke-opacity: 0.5"/>
     <use xlink:href="#mf474201144" x="106.018942" y="115.754242" style="fill: #800080; fill-opacity: 0.5; stroke: #800080; stroke-opacity: 0.5"/>
     <use xlink:href="#mf474201144" x="112.457404" y="113.640359" style="fill: #800080; fill-opacity: 0.5; stroke: #800080; stroke-opacity: 0.5"/>
     <use xlink:href="#mf474201144" x="118.895865" y="124.342585" style="fill: #800080; fill-opacity: 0.5; stroke: #800080; stroke-opacity: 0.5"/>
     <use xlink:href="#mf474201144" x="125.334327" y="124.422662" style="fill: #800080; fill-opacity: 0.5; stroke: #800080; stroke-opacity: 0.5"/>
     <use xlink:href="#mf474201144" x="131.772788" y="123.944716" style="fill: #800080; fill-opacity: 0.5; stroke: #800080; stroke-opacity: 0.5"/>
     <use xlink:href="#mf474201144" x="138.21125" y="124.331475" style="fill: #800080; fill-opacity: 0.5; stroke: #800080; stroke-opacity: 0.5"/>
     <use xlink:href="#mf474201144" x="144.649712" y="123.120159" style="fill: #800080; fill-opacity: 0.5; stroke: #800080; stroke-opacity: 0.5"/>
     <use xlink:href="#mf474201144" x="151.088173" y="122.701428" style="fill: #800080; fill-opacity: 0.5; stroke: #800080; stroke-opacity: 0.5"/>
     <use xlink:href="#mf474201144" x="157.526635" y="121.495193" style="fill: #800080; fill-opacity: 0.5; stroke: #800080; stroke-opacity: 0.5"/>
     <use xlink:href="#mf474201144" x="163.965096" y="121.215626" style="fill: #800080; fill-opacity: 0.5; stroke: #800080; stroke-opacity: 0.5"/>
     <use xlink:href="#mf474201144" x="170.403558" y="122.148219" style="fill: #800080; fill-opacity: 0.5; stroke: #800080; stroke-opacity: 0.5"/>
     <use xlink:href="#mf474201144" x="176.842019" y="111.028127" style="fill: #800080; fill-opacity: 0.5; stroke: #800080; stroke-opacity: 0.5"/>
     <use xlink:href="#mf474201144" x="189.718942" y="106.768776" style="fill: #800080; fill-opacity: 0.5; stroke: #800080; stroke-opacity: 0.5"/>
     <use xlink:href="#mf474201144" x="221.91125" y="145.512102" style="fill: #800080; fill-opacity: 0.5; stroke: #800080; stroke-opacity: 0.5"/>
    </g>
   </g>
   <g id="line2d_9">
    <g clip-path="url(#p9dcec4de43)">
     <use xlink:href="#mf474201144" x="54.51125" y="21.966648" style="fill: #800080; fill-opacity: 0.5; stroke: #800080; stroke-opacity: 0.5"/>
     <use xlink:href="#mf474201144" x="86.703558" y="71.751892" style="fill: #800080; fill-opacity: 0.5; stroke: #800080; stroke-opacity: 0.5"/>
     <use xlink:href="#mf474201144" x="99.580481" y="90.543501" style="fill: #800080; fill-opacity: 0.5; stroke: #800080; stroke-opacity: 0.5"/>
     <use xlink:href="#mf474201144" x="106.018942" y="78.335391" style="fill: #800080; fill-opacity: 0.5; stroke: #800080; stroke-opacity: 0.5"/>
     <use xlink:href="#mf474201144" x="112.457404" y="80.940569" style="fill: #800080; fill-opacity: 0.5; stroke: #800080; stroke-opacity: 0.5"/>
     <use xlink:href="#mf474201144" x="118.895865" y="89.354698" style="fill: #800080; fill-opacity: 0.5; stroke: #800080; stroke-opacity: 0.5"/>
     <use xlink:href="#mf474201144" x="125.334327" y="95.302693" style="fill: #800080; fill-opacity: 0.5; stroke: #800080; stroke-opacity: 0.5"/>
     <use xlink:href="#mf474201144" x="131.772788" y="95.160767" style="fill: #800080; fill-opacity: 0.5; stroke: #800080; stroke-opacity: 0.5"/>
     <use xlink:href="#mf474201144" x="138.21125" y="100.237892" style="fill: #800080; fill-opacity: 0.5; stroke: #800080; stroke-opacity: 0.5"/>
     <use xlink:href="#mf474201144" x="144.649712" y="100.023971" style="fill: #800080; fill-opacity: 0.5; stroke: #800080; stroke-opacity: 0.5"/>
     <use xlink:href="#mf474201144" x="151.088173" y="98.979189" style="fill: #800080; fill-opacity: 0.5; stroke: #800080; stroke-opacity: 0.5"/>
     <use xlink:href="#mf474201144" x="157.526635" y="96.496014" style="fill: #800080; fill-opacity: 0.5; stroke: #800080; stroke-opacity: 0.5"/>
     <use xlink:href="#mf474201144" x="163.965096" y="96.024159" style="fill: #800080; fill-opacity: 0.5; stroke: #800080; stroke-opacity: 0.5"/>
     <use xlink:href="#mf474201144" x="170.403558" y="93.550353" style="fill: #800080; fill-opacity: 0.5; stroke: #800080; stroke-opacity: 0.5"/>
     <use xlink:href="#mf474201144" x="176.842019" y="85.821268" style="fill: #800080; fill-opacity: 0.5; stroke: #800080; stroke-opacity: 0.5"/>
     <use xlink:href="#mf474201144" x="189.718942" y="69.526707" style="fill: #800080; fill-opacity: 0.5; stroke: #800080; stroke-opacity: 0.5"/>
     <use xlink:href="#mf474201144" x="221.91125" y="103.254889" style="fill: #800080; fill-opacity: 0.5; stroke: #800080; stroke-opacity: 0.5"/>
    </g>
   </g>
   <g id="line2d_10">
    <defs>
     <path id="m9b482fa47d" d="M 0 3 
C 0.795609 3 1.55874 2.683901 2.12132 2.12132 
C 2.683901 1.55874 3 0.795609 3 0 
C 3 -0.795609 2.683901 -1.55874 2.12132 -2.12132 
C 1.55874 -2.683901 0.795609 -3 0 -3 
C -0.795609 -3 -1.55874 -2.683901 -2.12132 -2.12132 
C -2.683901 -1.55874 -3 -0.795609 -3 0 
C -3 0.795609 -2.683901 1.55874 -2.12132 2.12132 
C -1.55874 2.683901 -0.795609 3 0 3 
z
" style="stroke: #800080; stroke-opacity: 0.5"/>
    </defs>
    <g clip-path="url(#p9dcec4de43)">
     <use xlink:href="#m9b482fa47d" x="54.51125" y="63.745192" style="fill: #800080; fill-opacity: 0.5; stroke: #800080; stroke-opacity: 0.5"/>
     <use xlink:href="#m9b482fa47d" x="86.703558" y="93.062717" style="fill: #800080; fill-opacity: 0.5; stroke: #800080; stroke-opacity: 0.5"/>
     <use xlink:href="#m9b482fa47d" x="99.580481" y="108.365558" style="fill: #800080; fill-opacity: 0.5; stroke: #800080; stroke-opacity: 0.5"/>
     <use xlink:href="#m9b482fa47d" x="106.018942" y="97.044817" style="fill: #800080; fill-opacity: 0.5; stroke: #800080; stroke-opacity: 0.5"/>
     <use xlink:href="#m9b482fa47d" x="112.457404" y="97.290464" style="fill: #800080; fill-opacity: 0.5; stroke: #800080; stroke-opacity: 0.5"/>
     <use xlink:href="#m9b482fa47d" x="118.895865" y="106.848641" style="fill: #800080; fill-opacity: 0.5; stroke: #800080; stroke-opacity: 0.5"/>
     <use xlink:href="#m9b482fa47d" x="125.334327" y="109.862677" style="fill: #800080; fill-opacity: 0.5; stroke: #800080; stroke-opacity: 0.5"/>
     <use xlink:href="#m9b482fa47d" x="131.772788" y="109.552741" style="fill: #800080; fill-opacity: 0.5; stroke: #800080; stroke-opacity: 0.5"/>
     <use xlink:href="#m9b482fa47d" x="138.21125" y="112.284683" style="fill: #800080; fill-opacity: 0.5; stroke: #800080; stroke-opacity: 0.5"/>
     <use xlink:href="#m9b482fa47d" x="144.649712" y="111.572065" style="fill: #800080; fill-opacity: 0.5; stroke: #800080; stroke-opacity: 0.5"/>
     <use xlink:href="#m9b482fa47d" x="151.088173" y="110.840309" style="fill: #800080; fill-opacity: 0.5; stroke: #800080; stroke-opacity: 0.5"/>
     <use xlink:href="#m9b482fa47d" x="157.526635" y="108.995604" style="fill: #800080; fill-opacity: 0.5; stroke: #800080; stroke-opacity: 0.5"/>
     <use xlink:href="#m9b482fa47d" x="163.965096" y="108.619893" style="fill: #800080; fill-opacity: 0.5; stroke: #800080; stroke-opacity: 0.5"/>
     <use xlink:href="#m9b482fa47d" x="170.403558" y="107.849286" style="fill: #800080; fill-opacity: 0.5; stroke: #800080; stroke-opacity: 0.5"/>
     <use xlink:href="#m9b482fa47d" x="176.842019" y="98.424697" style="fill: #800080; fill-opacity: 0.5; stroke: #800080; stroke-opacity: 0.5"/>
     <use xlink:href="#m9b482fa47d" x="189.718942" y="88.147741" style="fill: #800080; fill-opacity: 0.5; stroke: #800080; stroke-opacity: 0.5"/>
     <use xlink:href="#m9b482fa47d" x="221.91125" y="124.383496" style="fill: #800080; fill-opacity: 0.5; stroke: #800080; stroke-opacity: 0.5"/>
    </g>
   </g>
   <g id="patch_3">
    <path d="M 46.14125 151.689375 
L 46.14125 15.789375 
" style="fill: none; stroke: #000000; stroke-width: 0.8; stroke-linejoin: miter; stroke-linecap: square"/>
   </g>
   <g id="patch_4">
    <path d="M 46.14125 151.689375 
L 230.28125 151.689375 
" style="fill: none; stroke: #000000; stroke-width: 0.8; stroke-linejoin: miter; stroke-linecap: square"/>
   </g>
   <g id="text_10">
    <!-- D -->
    <g transform="translate(18.52025 15.789375)scale(0.12 -0.12)">
     <defs>
      <path id="Arial-BoldMT-44" d="M 463 4581 
L 2153 4581 
Q 2725 4581 3025 4494 
Q 3428 4375 3715 4072 
Q 4003 3769 4153 3330 
Q 4303 2891 4303 2247 
Q 4303 1681 4163 1272 
Q 3991 772 3672 463 
Q 3431 228 3022 97 
Q 2716 0 2203 0 
L 463 0 
L 463 4581 
z
M 1388 3806 
L 1388 772 
L 2078 772 
Q 2466 772 2638 816 
Q 2863 872 3011 1006 
Q 3159 1141 3253 1448 
Q 3347 1756 3347 2288 
Q 3347 2819 3253 3103 
Q 3159 3388 2990 3547 
Q 2822 3706 2563 3763 
Q 2369 3806 1803 3806 
L 1388 3806 
z
" transform="scale(0.015625)"/>
     </defs>
     <use xlink:href="#Arial-BoldMT-44"/>
    </g>
   </g>
   <g id="legend_1">
    <g id="LineCollection_2">
     <path d="M 253.08125 36.97875 
L 253.08125 24.97875 
" style="fill: none; stroke: #800080; stroke-opacity: 0.5; stroke-width: 0.5"/>
    </g>
    <g id="line2d_11">
     <g>
      <use xlink:href="#mf474201144" x="253.08125" y="36.97875" style="fill: #800080; fill-opacity: 0.5; stroke: #800080; stroke-opacity: 0.5"/>
     </g>
    </g>
    <g id="line2d_12">
     <g>
      <use xlink:href="#mf474201144" x="253.08125" y="24.97875" style="fill: #800080; fill-opacity: 0.5; stroke: #800080; stroke-opacity: 0.5"/>
     </g>
    </g>
    <g id="line2d_13"/>
    <g id="line2d_14">
     <g>
      <use xlink:href="#m9b482fa47d" x="253.08125" y="30.97875" style="fill: #800080; fill-opacity: 0.5; stroke: #800080; stroke-opacity: 0.5"/>
     </g>
    </g>
    <g id="text_11">
     <!-- PD2 in CUE -->
     <g transform="translate(274.68125 35.17875)scale(0.12 -0.12)">
      <defs>
       <path id="ArialMT-50" d="M 494 0 
L 494 4581 
L 2222 4581 
Q 2678 4581 2919 4538 
Q 3256 4481 3484 4323 
Q 3713 4166 3852 3881 
Q 3991 3597 3991 3256 
Q 3991 2672 3619 2267 
Q 3247 1863 2275 1863 
L 1100 1863 
L 1100 0 
L 494 0 
z
M 1100 2403 
L 2284 2403 
Q 2872 2403 3119 2622 
Q 3366 2841 3366 3238 
Q 3366 3525 3220 3729 
Q 3075 3934 2838 4000 
Q 2684 4041 2272 4041 
L 1100 4041 
L 1100 2403 
z
" transform="scale(0.015625)"/>
       <path id="ArialMT-44" d="M 494 0 
L 494 4581 
L 2072 4581 
Q 2606 4581 2888 4516 
Q 3281 4425 3559 4188 
Q 3922 3881 4101 3404 
Q 4281 2928 4281 2316 
Q 4281 1794 4159 1391 
Q 4038 988 3847 723 
Q 3656 459 3429 307 
Q 3203 156 2883 78 
Q 2563 0 2147 0 
L 494 0 
z
M 1100 541 
L 2078 541 
Q 2531 541 2789 625 
Q 3047 709 3200 863 
Q 3416 1078 3536 1442 
Q 3656 1806 3656 2325 
Q 3656 3044 3420 3430 
Q 3184 3816 2847 3947 
Q 2603 4041 2063 4041 
L 1100 4041 
L 1100 541 
z
" transform="scale(0.015625)"/>
       <path id="ArialMT-55" d="M 3500 4581 
L 4106 4581 
L 4106 1934 
Q 4106 1244 3950 837 
Q 3794 431 3386 176 
Q 2978 -78 2316 -78 
Q 1672 -78 1262 144 
Q 853 366 678 786 
Q 503 1206 503 1934 
L 503 4581 
L 1109 4581 
L 1109 1938 
Q 1109 1341 1220 1058 
Q 1331 775 1601 622 
Q 1872 469 2263 469 
Q 2931 469 3215 772 
Q 3500 1075 3500 1938 
L 3500 4581 
z
" transform="scale(0.015625)"/>
       <path id="ArialMT-45" d="M 506 0 
L 506 4581 
L 3819 4581 
L 3819 4041 
L 1113 4041 
L 1113 2638 
L 3647 2638 
L 3647 2100 
L 1113 2100 
L 1113 541 
L 3925 541 
L 3925 0 
L 506 0 
z
" transform="scale(0.015625)"/>
      </defs>
      <use xlink:href="#ArialMT-50"/>
      <use xlink:href="#ArialMT-44" x="66.699219"/>
      <use xlink:href="#ArialMT-32" x="138.916016"/>
      <use xlink:href="#ArialMT-20" x="194.53125"/>
      <use xlink:href="#ArialMT-69" x="222.314453"/>
      <use xlink:href="#ArialMT-6e" x="244.53125"/>
      <use xlink:href="#ArialMT-20" x="300.146484"/>
      <use xlink:href="#ArialMT-43" x="327.929688"/>
      <use xlink:href="#ArialMT-55" x="400.146484"/>
      <use xlink:href="#ArialMT-45" x="472.363281"/>
     </g>
    </g>
   </g>
  </g>
 </g>
 <defs>
  <clipPath id="p9dcec4de43">
   <rect x="46.14125" y="15.789375" width="184.14" height="135.9"/>
  </clipPath>
 </defs>
</svg>
