<?xml version="1.0" encoding="utf-8" standalone="no"?>
<!DOCTYPE svg PUBLIC "-//W3C//DTD SVG 1.1//EN"
  "http://www.w3.org/Graphics/SVG/1.1/DTD/svg11.dtd">
<svg xmlns:xlink="http://www.w3.org/1999/xlink" width="343.5575pt" height="219.44375pt" viewBox="0 0 343.5575 219.44375" xmlns="http://www.w3.org/2000/svg" version="1.1">
 <metadata>
  <rdf:RDF xmlns:dc="http://purl.org/dc/elements/1.1/" xmlns:cc="http://creativecommons.org/ns#" xmlns:rdf="http://www.w3.org/1999/02/22-rdf-syntax-ns#">
   <cc:Work>
    <dc:type rdf:resource="http://purl.org/dc/dcmitype/StillImage"/>
    <dc:date>2023-02-13T15:08:06.725032</dc:date>
    <dc:format>image/svg+xml</dc:format>
    <dc:creator>
     <cc:Agent>
      <dc:title>Matplotlib v3.5.1, https://matplotlib.org/</dc:title>
     </cc:Agent>
    </dc:creator>
   </cc:Work>
  </rdf:RDF>
 </metadata>
 <defs>
  <style type="text/css">*{stroke-linejoin: round; stroke-linecap: butt}</style>
 </defs>
 <g id="figure_1">
  <g id="patch_1">
   <path d="M 0 219.44375 
L 343.5575 219.44375 
L 343.5575 0 
L 0 0 
L 0 219.44375 
z
" style="fill: none"/>
  </g>
  <g id="axes_1">
   <g id="patch_2">
    <path d="M 43.281875 178.869375 
L 266.481875 178.869375 
L 266.481875 15.789375 
L 43.281875 15.789375 
z
" style="fill: #ffffff"/>
   </g>
   <g id="matplotlib.axis_1">
    <g id="xtick_1">
     <g id="line2d_1">
      <defs>
       <path id="m04d4e811e0" d="M 0 0 
L 0 3.5 
" style="stroke: #000000; stroke-width: 0.8"/>
      </defs>
      <g>
       <use xlink:href="#m04d4e811e0" x="53.020698" y="178.869375" style="stroke: #000000; stroke-width: 0.8"/>
      </g>
     </g>
     <g id="text_1">
      <!-- 0 -->
      <g transform="translate(49.684136 194.45875)scale(0.12 -0.12)">
       <defs>
        <path id="ArialMT-30" d="M 266 2259 
Q 266 3072 433 3567 
Q 600 4063 929 4331 
Q 1259 4600 1759 4600 
Q 2128 4600 2406 4451 
Q 2684 4303 2865 4023 
Q 3047 3744 3150 3342 
Q 3253 2941 3253 2259 
Q 3253 1453 3087 958 
Q 2922 463 2592 192 
Q 2263 -78 1759 -78 
Q 1097 -78 719 397 
Q 266 969 266 2259 
z
M 844 2259 
Q 844 1131 1108 757 
Q 1372 384 1759 384 
Q 2147 384 2411 759 
Q 2675 1134 2675 2259 
Q 2675 3391 2411 3762 
Q 2147 4134 1753 4134 
Q 1366 4134 1134 3806 
Q 844 3388 844 2259 
z
" transform="scale(0.015625)"/>
       </defs>
       <use xlink:href="#ArialMT-30"/>
      </g>
     </g>
    </g>
    <g id="xtick_2">
     <g id="line2d_2">
      <g>
       <use xlink:href="#m04d4e811e0" x="93.683843" y="178.869375" style="stroke: #000000; stroke-width: 0.8"/>
      </g>
     </g>
     <g id="text_2">
      <!-- 2 -->
      <g transform="translate(90.34728 194.45875)scale(0.12 -0.12)">
       <defs>
        <path id="ArialMT-32" d="M 3222 541 
L 3222 0 
L 194 0 
Q 188 203 259 391 
Q 375 700 629 1000 
Q 884 1300 1366 1694 
Q 2113 2306 2375 2664 
Q 2638 3022 2638 3341 
Q 2638 3675 2398 3904 
Q 2159 4134 1775 4134 
Q 1369 4134 1125 3890 
Q 881 3647 878 3216 
L 300 3275 
Q 359 3922 746 4261 
Q 1134 4600 1788 4600 
Q 2447 4600 2831 4234 
Q 3216 3869 3216 3328 
Q 3216 3053 3103 2787 
Q 2991 2522 2730 2228 
Q 2469 1934 1863 1422 
Q 1356 997 1212 845 
Q 1069 694 975 541 
L 3222 541 
z
" transform="scale(0.015625)"/>
       </defs>
       <use xlink:href="#ArialMT-32"/>
      </g>
     </g>
    </g>
    <g id="xtick_3">
     <g id="line2d_3">
      <g>
       <use xlink:href="#m04d4e811e0" x="134.346987" y="178.869375" style="stroke: #000000; stroke-width: 0.8"/>
      </g>
     </g>
     <g id="text_3">
      <!-- 4 -->
      <g transform="translate(131.010425 194.45875)scale(0.12 -0.12)">
       <defs>
        <path id="ArialMT-34" d="M 2069 0 
L 2069 1097 
L 81 1097 
L 81 1613 
L 2172 4581 
L 2631 4581 
L 2631 1613 
L 3250 1613 
L 3250 1097 
L 2631 1097 
L 2631 0 
L 2069 0 
z
M 2069 1613 
L 2069 3678 
L 634 1613 
L 2069 1613 
z
" transform="scale(0.015625)"/>
       </defs>
       <use xlink:href="#ArialMT-34"/>
      </g>
     </g>
    </g>
    <g id="xtick_4">
     <g id="line2d_4">
      <g>
       <use xlink:href="#m04d4e811e0" x="175.010132" y="178.869375" style="stroke: #000000; stroke-width: 0.8"/>
      </g>
     </g>
     <g id="text_4">
      <!-- 6 -->
      <g transform="translate(171.673569 194.45875)scale(0.12 -0.12)">
       <defs>
        <path id="ArialMT-36" d="M 3184 3459 
L 2625 3416 
Q 2550 3747 2413 3897 
Q 2184 4138 1850 4138 
Q 1581 4138 1378 3988 
Q 1113 3794 959 3422 
Q 806 3050 800 2363 
Q 1003 2672 1297 2822 
Q 1591 2972 1913 2972 
Q 2475 2972 2870 2558 
Q 3266 2144 3266 1488 
Q 3266 1056 3080 686 
Q 2894 316 2569 119 
Q 2244 -78 1831 -78 
Q 1128 -78 684 439 
Q 241 956 241 2144 
Q 241 3472 731 4075 
Q 1159 4600 1884 4600 
Q 2425 4600 2770 4297 
Q 3116 3994 3184 3459 
z
M 888 1484 
Q 888 1194 1011 928 
Q 1134 663 1356 523 
Q 1578 384 1822 384 
Q 2178 384 2434 671 
Q 2691 959 2691 1453 
Q 2691 1928 2437 2201 
Q 2184 2475 1800 2475 
Q 1419 2475 1153 2201 
Q 888 1928 888 1484 
z
" transform="scale(0.015625)"/>
       </defs>
       <use xlink:href="#ArialMT-36"/>
      </g>
     </g>
    </g>
    <g id="xtick_5">
     <g id="line2d_5">
      <g>
       <use xlink:href="#m04d4e811e0" x="215.673276" y="178.869375" style="stroke: #000000; stroke-width: 0.8"/>
      </g>
     </g>
     <g id="text_5">
      <!-- 8 -->
      <g transform="translate(212.336713 194.45875)scale(0.12 -0.12)">
       <defs>
        <path id="ArialMT-38" d="M 1131 2484 
Q 781 2613 612 2850 
Q 444 3088 444 3419 
Q 444 3919 803 4259 
Q 1163 4600 1759 4600 
Q 2359 4600 2725 4251 
Q 3091 3903 3091 3403 
Q 3091 3084 2923 2848 
Q 2756 2613 2416 2484 
Q 2838 2347 3058 2040 
Q 3278 1734 3278 1309 
Q 3278 722 2862 322 
Q 2447 -78 1769 -78 
Q 1091 -78 675 323 
Q 259 725 259 1325 
Q 259 1772 486 2073 
Q 713 2375 1131 2484 
z
M 1019 3438 
Q 1019 3113 1228 2906 
Q 1438 2700 1772 2700 
Q 2097 2700 2305 2904 
Q 2513 3109 2513 3406 
Q 2513 3716 2298 3927 
Q 2084 4138 1766 4138 
Q 1444 4138 1231 3931 
Q 1019 3725 1019 3438 
z
M 838 1322 
Q 838 1081 952 856 
Q 1066 631 1291 507 
Q 1516 384 1775 384 
Q 2178 384 2440 643 
Q 2703 903 2703 1303 
Q 2703 1709 2433 1975 
Q 2163 2241 1756 2241 
Q 1359 2241 1098 1978 
Q 838 1716 838 1322 
z
" transform="scale(0.015625)"/>
       </defs>
       <use xlink:href="#ArialMT-38"/>
      </g>
     </g>
    </g>
    <g id="xtick_6">
     <g id="line2d_6">
      <g>
       <use xlink:href="#m04d4e811e0" x="256.33642" y="178.869375" style="stroke: #000000; stroke-width: 0.8"/>
      </g>
     </g>
     <g id="text_6">
      <!-- 10 -->
      <g transform="translate(249.663295 194.45875)scale(0.12 -0.12)">
       <defs>
        <path id="ArialMT-31" d="M 2384 0 
L 1822 0 
L 1822 3584 
Q 1619 3391 1289 3197 
Q 959 3003 697 2906 
L 697 3450 
Q 1169 3672 1522 3987 
Q 1875 4303 2022 4600 
L 2384 4600 
L 2384 0 
z
" transform="scale(0.015625)"/>
       </defs>
       <use xlink:href="#ArialMT-31"/>
       <use xlink:href="#ArialMT-30" x="55.615234"/>
      </g>
     </g>
    </g>
    <g id="text_7">
     <!-- Time($t$) -->
     <g transform="translate(135.141875 209.60375)scale(0.12 -0.12)">
      <defs>
       <path id="ArialMT-54" d="M 1659 0 
L 1659 4041 
L 150 4041 
L 150 4581 
L 3781 4581 
L 3781 4041 
L 2266 4041 
L 2266 0 
L 1659 0 
z
" transform="scale(0.015625)"/>
       <path id="ArialMT-69" d="M 425 3934 
L 425 4581 
L 988 4581 
L 988 3934 
L 425 3934 
z
M 425 0 
L 425 3319 
L 988 3319 
L 988 0 
L 425 0 
z
" transform="scale(0.015625)"/>
       <path id="ArialMT-6d" d="M 422 0 
L 422 3319 
L 925 3319 
L 925 2853 
Q 1081 3097 1340 3245 
Q 1600 3394 1931 3394 
Q 2300 3394 2536 3241 
Q 2772 3088 2869 2813 
Q 3263 3394 3894 3394 
Q 4388 3394 4653 3120 
Q 4919 2847 4919 2278 
L 4919 0 
L 4359 0 
L 4359 2091 
Q 4359 2428 4304 2576 
Q 4250 2725 4106 2815 
Q 3963 2906 3769 2906 
Q 3419 2906 3187 2673 
Q 2956 2441 2956 1928 
L 2956 0 
L 2394 0 
L 2394 2156 
Q 2394 2531 2256 2718 
Q 2119 2906 1806 2906 
Q 1569 2906 1367 2781 
Q 1166 2656 1075 2415 
Q 984 2175 984 1722 
L 984 0 
L 422 0 
z
" transform="scale(0.015625)"/>
       <path id="ArialMT-65" d="M 2694 1069 
L 3275 997 
Q 3138 488 2766 206 
Q 2394 -75 1816 -75 
Q 1088 -75 661 373 
Q 234 822 234 1631 
Q 234 2469 665 2931 
Q 1097 3394 1784 3394 
Q 2450 3394 2872 2941 
Q 3294 2488 3294 1666 
Q 3294 1616 3291 1516 
L 816 1516 
Q 847 969 1125 678 
Q 1403 388 1819 388 
Q 2128 388 2347 550 
Q 2566 713 2694 1069 
z
M 847 1978 
L 2700 1978 
Q 2663 2397 2488 2606 
Q 2219 2931 1791 2931 
Q 1403 2931 1139 2672 
Q 875 2413 847 1978 
z
" transform="scale(0.015625)"/>
       <path id="ArialMT-28" d="M 1497 -1347 
Q 1031 -759 709 28 
Q 388 816 388 1659 
Q 388 2403 628 3084 
Q 909 3875 1497 4659 
L 1900 4659 
Q 1522 4009 1400 3731 
Q 1209 3300 1100 2831 
Q 966 2247 966 1656 
Q 966 153 1900 -1347 
L 1497 -1347 
z
" transform="scale(0.015625)"/>
       <path id="DejaVuSans-Oblique-74" d="M 2706 3500 
L 2619 3053 
L 1472 3053 
L 1100 1153 
Q 1081 1047 1072 975 
Q 1063 903 1063 863 
Q 1063 663 1183 572 
Q 1303 481 1569 481 
L 2150 481 
L 2053 0 
L 1503 0 
Q 991 0 739 200 
Q 488 400 488 806 
Q 488 878 497 964 
Q 506 1050 525 1153 
L 897 3053 
L 409 3053 
L 500 3500 
L 978 3500 
L 1172 4494 
L 1747 4494 
L 1556 3500 
L 2706 3500 
z
" transform="scale(0.015625)"/>
       <path id="ArialMT-29" d="M 791 -1347 
L 388 -1347 
Q 1322 153 1322 1656 
Q 1322 2244 1188 2822 
Q 1081 3291 891 3722 
Q 769 4003 388 4659 
L 791 4659 
Q 1378 3875 1659 3084 
Q 1900 2403 1900 1659 
Q 1900 816 1576 28 
Q 1253 -759 791 -1347 
z
" transform="scale(0.015625)"/>
      </defs>
      <use xlink:href="#ArialMT-54" transform="translate(0 0.203125)"/>
      <use xlink:href="#ArialMT-69" transform="translate(61.083984 0.203125)"/>
      <use xlink:href="#ArialMT-6d" transform="translate(83.300781 0.203125)"/>
      <use xlink:href="#ArialMT-65" transform="translate(166.601562 0.203125)"/>
      <use xlink:href="#ArialMT-28" transform="translate(222.216797 0.203125)"/>
      <use xlink:href="#DejaVuSans-Oblique-74" transform="translate(255.517578 0.203125)"/>
      <use xlink:href="#ArialMT-29" transform="translate(294.726562 0.203125)"/>
     </g>
    </g>
   </g>
   <g id="matplotlib.axis_2">
    <g id="ytick_1">
     <g id="line2d_7">
      <defs>
       <path id="m763ff7237e" d="M 0 0 
L -3.5 0 
" style="stroke: #000000; stroke-width: 0.8"/>
      </defs>
      <g>
       <use xlink:href="#m763ff7237e" x="43.281875" y="140.029135" style="stroke: #000000; stroke-width: 0.8"/>
      </g>
     </g>
     <g id="text_8">
      <!-- −2 -->
      <g transform="translate(22.6 144.323822)scale(0.12 -0.12)">
       <defs>
        <path id="ArialMT-2212" d="M 3381 1997 
L 356 1997 
L 356 2522 
L 3381 2522 
L 3381 1997 
z
" transform="scale(0.015625)"/>
       </defs>
       <use xlink:href="#ArialMT-2212"/>
       <use xlink:href="#ArialMT-32" x="58.398438"/>
      </g>
     </g>
    </g>
    <g id="ytick_2">
     <g id="line2d_8">
      <g>
       <use xlink:href="#m763ff7237e" x="43.281875" y="97.023064" style="stroke: #000000; stroke-width: 0.8"/>
      </g>
     </g>
     <g id="text_9">
      <!-- 0 -->
      <g transform="translate(29.60875 101.317751)scale(0.12 -0.12)">
       <use xlink:href="#ArialMT-30"/>
      </g>
     </g>
    </g>
    <g id="ytick_3">
     <g id="line2d_9">
      <g>
       <use xlink:href="#m763ff7237e" x="43.281875" y="54.016993" style="stroke: #000000; stroke-width: 0.8"/>
      </g>
     </g>
     <g id="text_10">
      <!-- 2 -->
      <g transform="translate(29.60875 58.311681)scale(0.12 -0.12)">
       <use xlink:href="#ArialMT-32"/>
      </g>
     </g>
    </g>
    <g id="text_11">
     <!-- Evidence($x$) -->
     <g transform="translate(15.96 129.609375)rotate(-90)scale(0.12 -0.12)">
      <defs>
       <path id="ArialMT-45" d="M 506 0 
L 506 4581 
L 3819 4581 
L 3819 4041 
L 1113 4041 
L 1113 2638 
L 3647 2638 
L 3647 2100 
L 1113 2100 
L 1113 541 
L 3925 541 
L 3925 0 
L 506 0 
z
" transform="scale(0.015625)"/>
       <path id="ArialMT-76" d="M 1344 0 
L 81 3319 
L 675 3319 
L 1388 1331 
Q 1503 1009 1600 663 
Q 1675 925 1809 1294 
L 2547 3319 
L 3125 3319 
L 1869 0 
L 1344 0 
z
" transform="scale(0.015625)"/>
       <path id="ArialMT-64" d="M 2575 0 
L 2575 419 
Q 2259 -75 1647 -75 
Q 1250 -75 917 144 
Q 584 363 401 755 
Q 219 1147 219 1656 
Q 219 2153 384 2558 
Q 550 2963 881 3178 
Q 1213 3394 1622 3394 
Q 1922 3394 2156 3267 
Q 2391 3141 2538 2938 
L 2538 4581 
L 3097 4581 
L 3097 0 
L 2575 0 
z
M 797 1656 
Q 797 1019 1065 703 
Q 1334 388 1700 388 
Q 2069 388 2326 689 
Q 2584 991 2584 1609 
Q 2584 2291 2321 2609 
Q 2059 2928 1675 2928 
Q 1300 2928 1048 2622 
Q 797 2316 797 1656 
z
" transform="scale(0.015625)"/>
       <path id="ArialMT-6e" d="M 422 0 
L 422 3319 
L 928 3319 
L 928 2847 
Q 1294 3394 1984 3394 
Q 2284 3394 2536 3286 
Q 2788 3178 2913 3003 
Q 3038 2828 3088 2588 
Q 3119 2431 3119 2041 
L 3119 0 
L 2556 0 
L 2556 2019 
Q 2556 2363 2490 2533 
Q 2425 2703 2258 2804 
Q 2091 2906 1866 2906 
Q 1506 2906 1245 2678 
Q 984 2450 984 1813 
L 984 0 
L 422 0 
z
" transform="scale(0.015625)"/>
       <path id="ArialMT-63" d="M 2588 1216 
L 3141 1144 
Q 3050 572 2676 248 
Q 2303 -75 1759 -75 
Q 1078 -75 664 370 
Q 250 816 250 1647 
Q 250 2184 428 2587 
Q 606 2991 970 3192 
Q 1334 3394 1763 3394 
Q 2303 3394 2647 3120 
Q 2991 2847 3088 2344 
L 2541 2259 
Q 2463 2594 2264 2762 
Q 2066 2931 1784 2931 
Q 1359 2931 1093 2626 
Q 828 2322 828 1663 
Q 828 994 1084 691 
Q 1341 388 1753 388 
Q 2084 388 2306 591 
Q 2528 794 2588 1216 
z
" transform="scale(0.015625)"/>
       <path id="DejaVuSans-Oblique-78" d="M 3841 3500 
L 2234 1784 
L 3219 0 
L 2559 0 
L 1819 1388 
L 531 0 
L -166 0 
L 1556 1844 
L 641 3500 
L 1300 3500 
L 1972 2234 
L 3144 3500 
L 3841 3500 
z
" transform="scale(0.015625)"/>
      </defs>
      <use xlink:href="#ArialMT-45" transform="translate(0 0.203125)"/>
      <use xlink:href="#ArialMT-76" transform="translate(66.699219 0.203125)"/>
      <use xlink:href="#ArialMT-69" transform="translate(116.699219 0.203125)"/>
      <use xlink:href="#ArialMT-64" transform="translate(138.916016 0.203125)"/>
      <use xlink:href="#ArialMT-65" transform="translate(194.53125 0.203125)"/>
      <use xlink:href="#ArialMT-6e" transform="translate(250.146484 0.203125)"/>
      <use xlink:href="#ArialMT-63" transform="translate(305.761719 0.203125)"/>
      <use xlink:href="#ArialMT-65" transform="translate(355.761719 0.203125)"/>
      <use xlink:href="#ArialMT-28" transform="translate(411.376953 0.203125)"/>
      <use xlink:href="#DejaVuSans-Oblique-78" transform="translate(444.677734 0.203125)"/>
      <use xlink:href="#ArialMT-29" transform="translate(503.857422 0.203125)"/>
     </g>
    </g>
   </g>
   <g id="line2d_10">
    <path d="M 53.42733 77.725468 
L 57.493644 77.725468 
L 57.900275 77.112846 
L 79.045111 77.112846 
L 79.451742 76.500224 
L 88.804265 76.500224 
L 89.210897 75.887602 
L 97.343526 75.887602 
L 97.750157 75.27498 
L 105.476154 75.27498 
L 105.882786 74.662358 
L 112.79552 74.662358 
L 113.202152 74.049736 
L 120.114886 74.049736 
L 120.521518 73.437114 
L 127.027621 73.437114 
L 127.434252 72.824491 
L 133.533724 72.824491 
L 133.940356 72.211869 
L 140.446459 72.211869 
L 140.85309 71.599247 
L 146.54593 71.599247 
L 146.952562 70.986625 
L 153.052033 70.986625 
L 153.458665 70.374003 
L 159.558137 70.374003 
L 159.964768 69.761381 
L 165.657608 69.761381 
L 166.06424 69.148759 
L 172.163711 69.148759 
L 172.570343 68.536137 
L 178.263183 68.536137 
L 178.669815 67.923515 
L 184.362655 67.923515 
L 184.769286 67.310893 
L 190.868758 67.310893 
L 191.275389 66.698271 
L 196.96823 66.698271 
L 197.374861 66.085648 
L 203.067701 66.085648 
L 203.474333 65.473026 
L 209.573804 65.473026 
L 209.980436 64.860404 
L 215.673276 64.860404 
L 216.079907 64.247782 
L 221.772748 64.247782 
L 222.179379 63.63516 
L 228.278851 63.63516 
L 228.685482 63.022538 
L 234.378322 63.022538 
L 234.784954 62.409916 
L 240.477794 62.409916 
L 240.884426 61.797294 
L 246.983897 61.797294 
L 247.390529 61.184672 
L 253.083369 61.184672 
L 253.49 60.57205 
L 255.116526 60.57205 
L 255.523158 61.184672 
L 256.33642 61.184672 
L 256.33642 61.184672 
" clip-path="url(#pf8453d3644)" style="fill: none; stroke-dasharray: 5.55,2.4; stroke-dashoffset: 0; stroke: #440154; stroke-width: 1.5"/>
   </g>
   <g id="line2d_11">
    <path d="M 53.42733 116.933282 
L 57.493644 116.933282 
L 57.900275 117.545904 
L 79.045111 117.545904 
L 79.451742 118.158526 
L 88.804265 118.158526 
L 89.210897 118.771148 
L 97.343526 118.771148 
L 97.750157 119.38377 
L 105.476154 119.38377 
L 105.882786 119.996392 
L 112.79552 119.996392 
L 113.202152 120.609014 
L 120.114886 120.609014 
L 120.521518 121.221636 
L 127.027621 121.221636 
L 127.434252 121.834259 
L 133.533724 121.834259 
L 133.940356 122.446881 
L 140.446459 122.446881 
L 140.85309 123.059503 
L 146.54593 123.059503 
L 146.952562 123.672125 
L 153.052033 123.672125 
L 153.458665 124.284747 
L 159.558137 124.284747 
L 159.964768 124.897369 
L 165.657608 124.897369 
L 166.06424 125.509991 
L 172.163711 125.509991 
L 172.570343 126.122613 
L 178.263183 126.122613 
L 178.669815 126.735235 
L 184.362655 126.735235 
L 184.769286 127.347857 
L 190.868758 127.347857 
L 191.275389 127.960479 
L 196.96823 127.960479 
L 197.374861 128.573102 
L 203.067701 128.573102 
L 203.474333 129.185724 
L 209.573804 129.185724 
L 209.980436 129.798346 
L 215.673276 129.798346 
L 216.079907 130.410968 
L 221.772748 130.410968 
L 222.179379 131.02359 
L 228.278851 131.02359 
L 228.685482 131.636212 
L 234.378322 131.636212 
L 234.784954 132.248834 
L 240.477794 132.248834 
L 240.884426 132.861456 
L 246.983897 132.861456 
L 247.390529 133.474078 
L 253.083369 133.474078 
L 253.49 134.0867 
L 255.116526 134.0867 
L 255.523158 133.474078 
L 256.33642 133.474078 
L 256.33642 133.474078 
" clip-path="url(#pf8453d3644)" style="fill: none; stroke-dasharray: 5.55,2.4; stroke-dashoffset: 0; stroke: #440154; stroke-width: 1.5"/>
   </g>
   <g id="line2d_12">
    <path d="M 78.231848 97.329375 
L 78.638479 97.941997 
L 79.045111 97.941997 
L 79.451742 98.554619 
L 80.265005 98.554619 
L 80.671636 99.167241 
L 81.891531 99.167241 
L 82.298162 99.779863 
L 83.924688 99.779863 
L 84.331319 100.392485 
L 85.957845 100.392485 
L 86.364477 101.005108 
L 88.397634 101.005108 
L 88.804265 101.61773 
L 90.837422 101.61773 
L 91.244054 102.230352 
L 93.277211 102.230352 
L 93.683843 102.842974 
L 96.123631 102.842974 
L 96.530263 103.455596 
L 98.56342 103.455596 
L 98.970051 104.068218 
L 101.40984 104.068218 
L 101.816471 104.68084 
L 103.849629 104.68084 
L 104.25626 105.293462 
L 106.696049 105.293462 
L 107.10268 105.906084 
L 109.542469 105.906084 
L 109.9491 106.518706 
L 112.388889 106.518706 
L 112.79552 107.131328 
L 115.641941 107.131328 
L 116.048572 107.743951 
L 118.488361 107.743951 
L 118.894992 108.356573 
L 121.741412 108.356573 
L 122.148044 108.969195 
L 124.587832 108.969195 
L 124.994464 109.581817 
L 127.840884 109.581817 
L 128.247515 110.194439 
L 131.093935 110.194439 
L 131.500567 110.807061 
L 134.346987 110.807061 
L 134.753618 111.419683 
L 138.00667 111.419683 
L 138.413301 112.032305 
L 141.259722 112.032305 
L 141.666353 112.644927 
L 144.919405 112.644927 
L 145.326036 113.257549 
L 148.579088 113.257549 
L 148.985719 113.870171 
L 152.238771 113.870171 
L 152.645402 114.482793 
L 155.898454 114.482793 
L 156.305085 115.095416 
L 159.558137 115.095416 
L 159.964768 115.708038 
L 163.624451 115.708038 
L 164.031083 116.32066 
L 167.284134 116.32066 
L 167.690766 116.933282 
L 171.350449 116.933282 
L 171.75708 117.545904 
L 175.416763 117.545904 
L 175.823394 118.158526 
L 179.483077 118.158526 
L 179.889709 118.771148 
L 183.549392 118.771148 
L 183.956023 119.38377 
L 187.615706 119.38377 
L 188.022338 119.996392 
L 192.088652 119.996392 
L 192.495284 120.609014 
L 196.561598 120.609014 
L 196.96823 121.221636 
L 200.627913 121.221636 
L 201.034544 121.834259 
L 205.100858 121.834259 
L 205.50749 122.446881 
L 209.573804 122.446881 
L 209.980436 123.059503 
L 214.04675 123.059503 
L 214.453382 123.672125 
L 218.926328 123.672125 
L 219.332959 124.284747 
L 223.399273 124.284747 
L 223.805905 124.897369 
L 228.278851 124.897369 
L 228.685482 125.509991 
L 232.751797 125.509991 
L 233.158428 126.122613 
L 237.631374 126.122613 
L 238.038005 126.735235 
L 242.510951 126.735235 
L 242.917583 127.347857 
L 247.390529 127.347857 
L 247.79716 127.960479 
L 252.270106 127.960479 
L 252.676737 128.573102 
L 255.116526 128.573102 
L 255.523158 129.185724 
L 256.33642 129.185724 
L 256.33642 129.185724 
" clip-path="url(#pf8453d3644)" style="fill: none; stroke: #440154; stroke-width: 1.5; stroke-linecap: square"/>
   </g>
   <g id="line2d_13">
    <path d="M 78.231848 97.329375 
L 78.638479 96.716753 
L 79.045111 96.716753 
L 79.451742 96.104131 
L 80.265005 96.104131 
L 80.671636 95.491509 
L 81.891531 95.491509 
L 82.298162 94.878887 
L 83.924688 94.878887 
L 84.331319 94.266265 
L 85.957845 94.266265 
L 86.364477 93.653642 
L 88.397634 93.653642 
L 88.804265 93.04102 
L 90.837422 93.04102 
L 91.244054 92.428398 
L 93.277211 92.428398 
L 93.683843 91.815776 
L 96.123631 91.815776 
L 96.530263 91.203154 
L 98.56342 91.203154 
L 98.970051 90.590532 
L 101.40984 90.590532 
L 101.816471 89.97791 
L 103.849629 89.97791 
L 104.25626 89.365288 
L 106.696049 89.365288 
L 107.10268 88.752666 
L 109.542469 88.752666 
L 109.9491 88.140044 
L 112.388889 88.140044 
L 112.79552 87.527422 
L 115.641941 87.527422 
L 116.048572 86.914799 
L 118.488361 86.914799 
L 118.894992 86.302177 
L 121.741412 86.302177 
L 122.148044 85.689555 
L 124.587832 85.689555 
L 124.994464 85.076933 
L 127.840884 85.076933 
L 128.247515 84.464311 
L 131.093935 84.464311 
L 131.500567 83.851689 
L 134.346987 83.851689 
L 134.753618 83.239067 
L 138.00667 83.239067 
L 138.413301 82.626445 
L 141.259722 82.626445 
L 141.666353 82.013823 
L 144.919405 82.013823 
L 145.326036 81.401201 
L 148.579088 81.401201 
L 148.985719 80.788579 
L 152.238771 80.788579 
L 152.645402 80.175957 
L 155.898454 80.175957 
L 156.305085 79.563334 
L 159.558137 79.563334 
L 159.964768 78.950712 
L 163.624451 78.950712 
L 164.031083 78.33809 
L 167.284134 78.33809 
L 167.690766 77.725468 
L 171.350449 77.725468 
L 171.75708 77.112846 
L 175.416763 77.112846 
L 175.823394 76.500224 
L 179.483077 76.500224 
L 179.889709 75.887602 
L 183.549392 75.887602 
L 183.956023 75.27498 
L 187.615706 75.27498 
L 188.022338 74.662358 
L 192.088652 74.662358 
L 192.495284 74.049736 
L 196.561598 74.049736 
L 196.96823 73.437114 
L 200.627913 73.437114 
L 201.034544 72.824491 
L 205.100858 72.824491 
L 205.50749 72.211869 
L 209.573804 72.211869 
L 209.980436 71.599247 
L 214.04675 71.599247 
L 214.453382 70.986625 
L 218.926328 70.986625 
L 219.332959 70.374003 
L 223.399273 70.374003 
L 223.805905 69.761381 
L 228.278851 69.761381 
L 228.685482 69.148759 
L 232.751797 69.148759 
L 233.158428 68.536137 
L 237.631374 68.536137 
L 238.038005 67.923515 
L 242.510951 67.923515 
L 242.917583 67.310893 
L 247.390529 67.310893 
L 247.79716 66.698271 
L 252.270106 66.698271 
L 252.676737 66.085648 
L 255.116526 66.085648 
L 255.523158 65.473026 
L 256.33642 65.473026 
L 256.33642 65.473026 
" clip-path="url(#pf8453d3644)" style="fill: none; stroke: #440154; stroke-width: 1.5; stroke-linecap: square"/>
   </g>
   <g id="line2d_14">
    <path d="M 53.42733 75.887602 
L 55.053855 75.887602 
L 55.460487 75.27498 
L 57.493644 75.27498 
L 57.900275 74.662358 
L 60.340064 74.662358 
L 60.746696 74.049736 
L 63.999747 74.049736 
L 64.406379 73.437114 
L 67.65943 73.437114 
L 68.066062 72.824491 
L 72.132376 72.824491 
L 72.539007 72.211869 
L 77.011953 72.211869 
L 77.418585 71.599247 
L 82.298162 71.599247 
L 82.704794 70.986625 
L 87.177739 70.986625 
L 87.584371 70.374003 
L 92.057317 70.374003 
L 92.463948 69.761381 
L 96.936894 69.761381 
L 97.343526 69.148759 
L 101.816471 69.148759 
L 102.223103 68.536137 
L 106.289417 68.536137 
L 106.696049 67.923515 
L 110.762363 67.923515 
L 111.168995 67.310893 
L 115.235309 67.310893 
L 115.641941 66.698271 
L 119.708255 66.698271 
L 120.114886 66.085648 
L 124.181201 66.085648 
L 124.587832 65.473026 
L 128.654147 65.473026 
L 129.060778 64.860404 
L 133.127093 64.860404 
L 133.533724 64.247782 
L 137.600039 64.247782 
L 138.00667 63.63516 
L 141.666353 63.63516 
L 142.072984 63.022538 
L 146.139299 63.022538 
L 146.54593 62.409916 
L 150.612245 62.409916 
L 151.018876 61.797294 
L 154.678559 61.797294 
L 155.085191 61.184672 
L 159.151505 61.184672 
L 159.558137 60.57205 
L 163.624451 60.57205 
L 164.031083 59.959428 
L 167.690766 59.959428 
L 168.097397 59.346806 
L 172.163711 59.346806 
L 172.570343 58.734183 
L 176.636657 58.734183 
L 177.043289 58.121561 
L 180.702972 58.121561 
L 181.109603 57.508939 
L 185.175918 57.508939 
L 185.582549 56.896317 
L 189.648864 56.896317 
L 190.055495 56.283695 
L 194.121809 56.283695 
L 194.528441 55.671073 
L 198.188124 55.671073 
L 198.594755 55.058451 
L 202.66107 55.058451 
L 203.067701 54.445829 
L 207.134016 54.445829 
L 207.540647 53.833207 
L 211.606962 53.833207 
L 212.013593 53.220585 
L 216.079907 53.220585 
L 216.486539 52.607963 
L 220.552853 52.607963 
L 220.959485 51.99534 
L 225.025799 51.99534 
L 225.432431 51.382718 
L 229.498745 51.382718 
L 229.905377 50.770096 
L 233.971691 50.770096 
L 234.378322 50.157474 
L 238.444637 50.157474 
L 238.851268 49.544852 
L 242.917583 49.544852 
L 243.324214 48.93223 
L 247.390529 48.93223 
L 247.79716 48.319608 
L 251.863475 48.319608 
L 252.270106 47.706986 
L 255.116526 47.706986 
L 255.523158 48.319608 
L 256.33642 48.319608 
L 256.33642 48.319608 
" clip-path="url(#pf8453d3644)" style="fill: none; stroke-dasharray: 5.55,2.4; stroke-dashoffset: 0; stroke: #31688e; stroke-width: 1.5"/>
   </g>
   <g id="line2d_15">
    <path d="M 53.42733 118.771148 
L 55.053855 118.771148 
L 55.460487 119.38377 
L 57.493644 119.38377 
L 57.900275 119.996392 
L 60.340064 119.996392 
L 60.746696 120.609014 
L 63.999747 120.609014 
L 64.406379 121.221636 
L 67.65943 121.221636 
L 68.066062 121.834259 
L 72.132376 121.834259 
L 72.539007 122.446881 
L 77.011953 122.446881 
L 77.418585 123.059503 
L 82.298162 123.059503 
L 82.704794 123.672125 
L 87.177739 123.672125 
L 87.584371 124.284747 
L 92.057317 124.284747 
L 92.463948 124.897369 
L 96.936894 124.897369 
L 97.343526 125.509991 
L 101.816471 125.509991 
L 102.223103 126.122613 
L 106.289417 126.122613 
L 106.696049 126.735235 
L 110.762363 126.735235 
L 111.168995 127.347857 
L 115.235309 127.347857 
L 115.641941 127.960479 
L 119.708255 127.960479 
L 120.114886 128.573102 
L 124.181201 128.573102 
L 124.587832 129.185724 
L 128.654147 129.185724 
L 129.060778 129.798346 
L 133.127093 129.798346 
L 133.533724 130.410968 
L 137.600039 130.410968 
L 138.00667 131.02359 
L 141.666353 131.02359 
L 142.072984 131.636212 
L 146.139299 131.636212 
L 146.54593 132.248834 
L 150.612245 132.248834 
L 151.018876 132.861456 
L 154.678559 132.861456 
L 155.085191 133.474078 
L 159.151505 133.474078 
L 159.558137 134.0867 
L 163.624451 134.0867 
L 164.031083 134.699322 
L 167.690766 134.699322 
L 168.097397 135.311944 
L 172.163711 135.311944 
L 172.570343 135.924567 
L 176.636657 135.924567 
L 177.043289 136.537189 
L 180.702972 136.537189 
L 181.109603 137.149811 
L 185.175918 137.149811 
L 185.582549 137.762433 
L 189.648864 137.762433 
L 190.055495 138.375055 
L 194.121809 138.375055 
L 194.528441 138.987677 
L 198.188124 138.987677 
L 198.594755 139.600299 
L 202.66107 139.600299 
L 203.067701 140.212921 
L 207.134016 140.212921 
L 207.540647 140.825543 
L 211.606962 140.825543 
L 212.013593 141.438165 
L 216.079907 141.438165 
L 216.486539 142.050787 
L 220.552853 142.050787 
L 220.959485 142.66341 
L 225.025799 142.66341 
L 225.432431 143.276032 
L 229.498745 143.276032 
L 229.905377 143.888654 
L 233.971691 143.888654 
L 234.378322 144.501276 
L 238.444637 144.501276 
L 238.851268 145.113898 
L 242.917583 145.113898 
L 243.324214 145.72652 
L 247.390529 145.72652 
L 247.79716 146.339142 
L 251.863475 146.339142 
L 252.270106 146.951764 
L 255.116526 146.951764 
L 255.523158 146.339142 
L 256.33642 146.339142 
L 256.33642 146.339142 
" clip-path="url(#pf8453d3644)" style="fill: none; stroke-dasharray: 5.55,2.4; stroke-dashoffset: 0; stroke: #31688e; stroke-width: 1.5"/>
   </g>
   <g id="line2d_16">
    <path d="M 69.692587 97.941997 
L 70.099219 97.941997 
L 70.50585 98.554619 
L 70.912482 98.554619 
L 71.319113 99.167241 
L 72.132376 99.167241 
L 72.539007 99.779863 
L 73.35227 99.779863 
L 73.758902 100.392485 
L 74.978796 100.392485 
L 75.385428 101.005108 
L 77.011953 101.005108 
L 77.418585 101.61773 
L 78.638479 101.61773 
L 79.045111 102.230352 
L 80.265005 102.230352 
L 80.671636 102.842974 
L 82.298162 102.842974 
L 82.704794 103.455596 
L 83.924688 103.455596 
L 84.331319 104.068218 
L 85.957845 104.068218 
L 86.364477 104.68084 
L 87.991002 104.68084 
L 88.397634 105.293462 
L 89.617528 105.293462 
L 90.02416 105.906084 
L 91.650685 105.906084 
L 92.057317 106.518706 
L 93.683843 106.518706 
L 94.090474 107.131328 
L 95.717 107.131328 
L 96.123631 107.743951 
L 97.750157 107.743951 
L 98.156788 108.356573 
L 99.783314 108.356573 
L 100.189946 108.969195 
L 102.223103 108.969195 
L 102.629734 109.581817 
L 104.25626 109.581817 
L 104.662892 110.194439 
L 106.289417 110.194439 
L 106.696049 110.807061 
L 108.729206 110.807061 
L 109.135837 111.419683 
L 110.762363 111.419683 
L 111.168995 112.032305 
L 113.202152 112.032305 
L 113.608783 112.644927 
L 115.641941 112.644927 
L 116.048572 113.257549 
L 118.081729 113.257549 
L 118.488361 113.870171 
L 120.521518 113.870171 
L 120.928149 114.482793 
L 122.961307 114.482793 
L 123.367938 115.095416 
L 125.401095 115.095416 
L 125.807727 115.708038 
L 127.840884 115.708038 
L 128.247515 116.32066 
L 130.280673 116.32066 
L 130.687304 116.933282 
L 132.720461 116.933282 
L 133.127093 117.545904 
L 135.566881 117.545904 
L 135.973513 118.158526 
L 138.00667 118.158526 
L 138.413301 118.771148 
L 140.85309 118.771148 
L 141.259722 119.38377 
L 143.292879 119.38377 
L 143.69951 119.996392 
L 146.139299 119.996392 
L 146.54593 120.609014 
L 148.985719 120.609014 
L 149.39235 121.221636 
L 151.832139 121.221636 
L 152.238771 121.834259 
L 154.678559 121.834259 
L 155.085191 122.446881 
L 157.524979 122.446881 
L 157.931611 123.059503 
L 160.3714 123.059503 
L 160.778031 123.672125 
L 163.21782 123.672125 
L 163.624451 124.284747 
L 166.470871 124.284747 
L 166.877503 124.897369 
L 169.317291 124.897369 
L 169.723923 125.509991 
L 172.570343 125.509991 
L 172.976974 126.122613 
L 175.416763 126.122613 
L 175.823394 126.735235 
L 178.669815 126.735235 
L 179.076446 127.347857 
L 181.922866 127.347857 
L 182.329498 127.960479 
L 184.769286 127.960479 
L 185.175918 128.573102 
L 188.022338 128.573102 
L 188.428969 129.185724 
L 191.275389 129.185724 
L 191.682021 129.798346 
L 194.528441 129.798346 
L 194.935072 130.410968 
L 197.781492 130.410968 
L 198.188124 131.02359 
L 201.034544 131.02359 
L 201.441175 131.636212 
L 204.694227 131.636212 
L 205.100858 132.248834 
L 207.947279 132.248834 
L 208.35391 132.861456 
L 211.20033 132.861456 
L 211.606962 133.474078 
L 214.860013 133.474078 
L 215.266645 134.0867 
L 218.113065 134.0867 
L 218.519696 134.699322 
L 221.772748 134.699322 
L 222.179379 135.311944 
L 225.432431 135.311944 
L 225.839062 135.924567 
L 228.685482 135.924567 
L 229.092114 136.537189 
L 232.345165 136.537189 
L 232.751797 137.149811 
L 236.004848 137.149811 
L 236.41148 137.762433 
L 239.664531 137.762433 
L 240.071163 138.375055 
L 243.324214 138.375055 
L 243.730846 138.987677 
L 246.983897 138.987677 
L 247.390529 139.600299 
L 250.64358 139.600299 
L 251.050212 140.212921 
L 253.896632 140.212921 
L 254.303263 140.825543 
L 255.116526 140.825543 
L 255.523158 141.438165 
L 256.33642 141.438165 
L 256.33642 141.438165 
" clip-path="url(#pf8453d3644)" style="fill: none; stroke: #31688e; stroke-width: 1.5; stroke-linecap: square"/>
   </g>
   <g id="line2d_17">
    <path d="M 69.692587 96.716753 
L 70.099219 96.716753 
L 70.50585 96.104131 
L 70.912482 96.104131 
L 71.319113 95.491509 
L 72.132376 95.491509 
L 72.539007 94.878887 
L 73.35227 94.878887 
L 73.758902 94.266265 
L 74.978796 94.266265 
L 75.385428 93.653642 
L 77.011953 93.653642 
L 77.418585 93.04102 
L 78.638479 93.04102 
L 79.045111 92.428398 
L 80.265005 92.428398 
L 80.671636 91.815776 
L 82.298162 91.815776 
L 82.704794 91.203154 
L 83.924688 91.203154 
L 84.331319 90.590532 
L 85.957845 90.590532 
L 86.364477 89.97791 
L 87.991002 89.97791 
L 88.397634 89.365288 
L 89.617528 89.365288 
L 90.02416 88.752666 
L 91.650685 88.752666 
L 92.057317 88.140044 
L 93.683843 88.140044 
L 94.090474 87.527422 
L 95.717 87.527422 
L 96.123631 86.914799 
L 97.750157 86.914799 
L 98.156788 86.302177 
L 99.783314 86.302177 
L 100.189946 85.689555 
L 102.223103 85.689555 
L 102.629734 85.076933 
L 104.25626 85.076933 
L 104.662892 84.464311 
L 106.289417 84.464311 
L 106.696049 83.851689 
L 108.729206 83.851689 
L 109.135837 83.239067 
L 110.762363 83.239067 
L 111.168995 82.626445 
L 113.202152 82.626445 
L 113.608783 82.013823 
L 115.641941 82.013823 
L 116.048572 81.401201 
L 118.081729 81.401201 
L 118.488361 80.788579 
L 120.521518 80.788579 
L 120.928149 80.175957 
L 122.961307 80.175957 
L 123.367938 79.563334 
L 125.401095 79.563334 
L 125.807727 78.950712 
L 127.840884 78.950712 
L 128.247515 78.33809 
L 130.280673 78.33809 
L 130.687304 77.725468 
L 132.720461 77.725468 
L 133.127093 77.112846 
L 135.566881 77.112846 
L 135.973513 76.500224 
L 138.00667 76.500224 
L 138.413301 75.887602 
L 140.85309 75.887602 
L 141.259722 75.27498 
L 143.292879 75.27498 
L 143.69951 74.662358 
L 146.139299 74.662358 
L 146.54593 74.049736 
L 148.985719 74.049736 
L 149.39235 73.437114 
L 151.832139 73.437114 
L 152.238771 72.824491 
L 154.678559 72.824491 
L 155.085191 72.211869 
L 157.524979 72.211869 
L 157.931611 71.599247 
L 160.3714 71.599247 
L 160.778031 70.986625 
L 163.21782 70.986625 
L 163.624451 70.374003 
L 166.470871 70.374003 
L 166.877503 69.761381 
L 169.317291 69.761381 
L 169.723923 69.148759 
L 172.570343 69.148759 
L 172.976974 68.536137 
L 175.416763 68.536137 
L 175.823394 67.923515 
L 178.669815 67.923515 
L 179.076446 67.310893 
L 181.922866 67.310893 
L 182.329498 66.698271 
L 184.769286 66.698271 
L 185.175918 66.085648 
L 188.022338 66.085648 
L 188.428969 65.473026 
L 191.275389 65.473026 
L 191.682021 64.860404 
L 194.528441 64.860404 
L 194.935072 64.247782 
L 197.781492 64.247782 
L 198.188124 63.63516 
L 201.034544 63.63516 
L 201.441175 63.022538 
L 204.694227 63.022538 
L 205.100858 62.409916 
L 207.947279 62.409916 
L 208.35391 61.797294 
L 211.20033 61.797294 
L 211.606962 61.184672 
L 214.860013 61.184672 
L 215.266645 60.57205 
L 218.113065 60.57205 
L 218.519696 59.959428 
L 221.772748 59.959428 
L 222.179379 59.346806 
L 225.432431 59.346806 
L 225.839062 58.734183 
L 228.685482 58.734183 
L 229.092114 58.121561 
L 232.345165 58.121561 
L 232.751797 57.508939 
L 236.004848 57.508939 
L 236.41148 56.896317 
L 239.664531 56.896317 
L 240.071163 56.283695 
L 243.324214 56.283695 
L 243.730846 55.671073 
L 246.983897 55.671073 
L 247.390529 55.058451 
L 250.64358 55.058451 
L 251.050212 54.445829 
L 253.896632 54.445829 
L 254.303263 53.833207 
L 255.116526 53.833207 
L 255.523158 53.220585 
L 256.33642 53.220585 
L 256.33642 53.220585 
" clip-path="url(#pf8453d3644)" style="fill: none; stroke: #31688e; stroke-width: 1.5; stroke-linecap: square"/>
   </g>
   <g id="line2d_18">
    <path d="M 53.42733 74.049736 
L 54.647224 74.049736 
L 55.053855 73.437114 
L 55.867118 73.437114 
L 56.27375 72.824491 
L 57.900275 72.824491 
L 58.306907 72.211869 
L 59.526801 72.211869 
L 59.933433 71.599247 
L 61.559958 71.599247 
L 61.96659 70.986625 
L 63.593116 70.986625 
L 63.999747 70.374003 
L 66.439536 70.374003 
L 66.846167 69.761381 
L 69.285956 69.761381 
L 69.692587 69.148759 
L 72.132376 69.148759 
L 72.539007 68.536137 
L 75.792059 68.536137 
L 76.19869 67.923515 
L 79.045111 67.923515 
L 79.451742 67.310893 
L 82.704794 67.310893 
L 83.111425 66.698271 
L 86.364477 66.698271 
L 86.771108 66.085648 
L 90.02416 66.085648 
L 90.430791 65.473026 
L 93.277211 65.473026 
L 93.683843 64.860404 
L 96.936894 64.860404 
L 97.343526 64.247782 
L 100.596577 64.247782 
L 101.003209 63.63516 
L 104.25626 63.63516 
L 104.662892 63.022538 
L 107.509312 63.022538 
L 107.915943 62.409916 
L 111.168995 62.409916 
L 111.575626 61.797294 
L 114.422046 61.797294 
L 114.828678 61.184672 
L 118.081729 61.184672 
L 118.488361 60.57205 
L 121.741412 60.57205 
L 122.148044 59.959428 
L 124.994464 59.959428 
L 125.401095 59.346806 
L 128.654147 59.346806 
L 129.060778 58.734183 
L 131.907198 58.734183 
L 132.31383 58.121561 
L 135.566881 58.121561 
L 135.973513 57.508939 
L 138.819933 57.508939 
L 139.226564 56.896317 
L 142.479616 56.896317 
L 142.886247 56.283695 
L 145.732667 56.283695 
L 146.139299 55.671073 
L 149.39235 55.671073 
L 149.798982 55.058451 
L 153.052033 55.058451 
L 153.458665 54.445829 
L 156.305085 54.445829 
L 156.711717 53.833207 
L 159.964768 53.833207 
L 160.3714 53.220585 
L 163.21782 53.220585 
L 163.624451 52.607963 
L 166.877503 52.607963 
L 167.284134 51.99534 
L 170.537186 51.99534 
L 170.943817 51.382718 
L 173.790237 51.382718 
L 174.196869 50.770096 
L 177.44992 50.770096 
L 177.856552 50.157474 
L 181.109603 50.157474 
L 181.516235 49.544852 
L 184.362655 49.544852 
L 184.769286 48.93223 
L 188.022338 48.93223 
L 188.428969 48.319608 
L 191.682021 48.319608 
L 192.088652 47.706986 
L 195.341704 47.706986 
L 195.748335 47.094364 
L 199.001387 47.094364 
L 199.408018 46.481742 
L 202.254438 46.481742 
L 202.66107 45.86912 
L 205.914121 45.86912 
L 206.320753 45.256497 
L 209.573804 45.256497 
L 209.980436 44.643875 
L 213.233487 44.643875 
L 213.640119 44.031253 
L 216.89317 44.031253 
L 217.299802 43.418631 
L 220.552853 43.418631 
L 220.959485 42.806009 
L 224.212536 42.806009 
L 224.619168 42.193387 
L 227.872219 42.193387 
L 228.278851 41.580765 
L 231.531902 41.580765 
L 231.938534 40.968143 
L 235.191585 40.968143 
L 235.598217 40.355521 
L 238.851268 40.355521 
L 239.2579 39.742899 
L 242.510951 39.742899 
L 242.917583 39.130277 
L 246.577266 39.130277 
L 246.983897 38.517654 
L 250.236949 38.517654 
L 250.64358 37.905032 
L 255.523158 37.905032 
L 255.929789 38.517654 
L 256.33642 38.517654 
L 256.33642 38.517654 
" clip-path="url(#pf8453d3644)" style="fill: none; stroke-dasharray: 5.55,2.4; stroke-dashoffset: 0; stroke: #21918c; stroke-width: 1.5"/>
   </g>
   <g id="line2d_19">
    <path d="M 53.42733 120.609014 
L 54.647224 120.609014 
L 55.053855 121.221636 
L 55.867118 121.221636 
L 56.27375 121.834259 
L 57.900275 121.834259 
L 58.306907 122.446881 
L 59.526801 122.446881 
L 59.933433 123.059503 
L 61.559958 123.059503 
L 61.96659 123.672125 
L 63.593116 123.672125 
L 63.999747 124.284747 
L 66.439536 124.284747 
L 66.846167 124.897369 
L 69.285956 124.897369 
L 69.692587 125.509991 
L 72.132376 125.509991 
L 72.539007 126.122613 
L 75.792059 126.122613 
L 76.19869 126.735235 
L 79.045111 126.735235 
L 79.451742 127.347857 
L 82.704794 127.347857 
L 83.111425 127.960479 
L 86.364477 127.960479 
L 86.771108 128.573102 
L 90.02416 128.573102 
L 90.430791 129.185724 
L 93.277211 129.185724 
L 93.683843 129.798346 
L 96.936894 129.798346 
L 97.343526 130.410968 
L 100.596577 130.410968 
L 101.003209 131.02359 
L 104.25626 131.02359 
L 104.662892 131.636212 
L 107.509312 131.636212 
L 107.915943 132.248834 
L 111.168995 132.248834 
L 111.575626 132.861456 
L 114.422046 132.861456 
L 114.828678 133.474078 
L 118.081729 133.474078 
L 118.488361 134.0867 
L 121.741412 134.0867 
L 122.148044 134.699322 
L 124.994464 134.699322 
L 125.401095 135.311944 
L 128.654147 135.311944 
L 129.060778 135.924567 
L 131.907198 135.924567 
L 132.31383 136.537189 
L 135.566881 136.537189 
L 135.973513 137.149811 
L 138.819933 137.149811 
L 139.226564 137.762433 
L 142.479616 137.762433 
L 142.886247 138.375055 
L 145.732667 138.375055 
L 146.139299 138.987677 
L 149.39235 138.987677 
L 149.798982 139.600299 
L 153.052033 139.600299 
L 153.458665 140.212921 
L 156.305085 140.212921 
L 156.711717 140.825543 
L 159.964768 140.825543 
L 160.3714 141.438165 
L 163.21782 141.438165 
L 163.624451 142.050787 
L 166.877503 142.050787 
L 167.284134 142.66341 
L 170.537186 142.66341 
L 170.943817 143.276032 
L 173.790237 143.276032 
L 174.196869 143.888654 
L 177.44992 143.888654 
L 177.856552 144.501276 
L 181.109603 144.501276 
L 181.516235 145.113898 
L 184.362655 145.113898 
L 184.769286 145.72652 
L 188.022338 145.72652 
L 188.428969 146.339142 
L 191.682021 146.339142 
L 192.088652 146.951764 
L 195.341704 146.951764 
L 195.748335 147.564386 
L 199.001387 147.564386 
L 199.408018 148.177008 
L 202.254438 148.177008 
L 202.66107 148.78963 
L 205.914121 148.78963 
L 206.320753 149.402253 
L 209.573804 149.402253 
L 209.980436 150.014875 
L 213.233487 150.014875 
L 213.640119 150.627497 
L 216.89317 150.627497 
L 217.299802 151.240119 
L 220.552853 151.240119 
L 220.959485 151.852741 
L 224.212536 151.852741 
L 224.619168 152.465363 
L 227.872219 152.465363 
L 228.278851 153.077985 
L 231.531902 153.077985 
L 231.938534 153.690607 
L 235.191585 153.690607 
L 235.598217 154.303229 
L 238.851268 154.303229 
L 239.2579 154.915851 
L 242.510951 154.915851 
L 242.917583 155.528473 
L 246.577266 155.528473 
L 246.983897 156.141096 
L 250.236949 156.141096 
L 250.64358 156.753718 
L 255.523158 156.753718 
L 255.929789 156.141096 
L 256.33642 156.141096 
L 256.33642 156.141096 
" clip-path="url(#pf8453d3644)" style="fill: none; stroke-dasharray: 5.55,2.4; stroke-dashoffset: 0; stroke: #21918c; stroke-width: 1.5"/>
   </g>
   <g id="line2d_20">
    <path d="M 65.219641 97.329375 
L 66.032904 98.554619 
L 66.439536 98.554619 
L 66.846167 99.167241 
L 67.252799 99.167241 
L 67.65943 99.779863 
L 68.472693 99.779863 
L 68.879324 100.392485 
L 69.692587 100.392485 
L 70.099219 101.005108 
L 70.912482 101.005108 
L 71.319113 101.61773 
L 72.539007 101.61773 
L 72.945639 102.230352 
L 73.758902 102.230352 
L 74.165533 102.842974 
L 75.385428 102.842974 
L 75.792059 103.455596 
L 77.011953 103.455596 
L 77.418585 104.068218 
L 78.231848 104.068218 
L 78.638479 104.68084 
L 79.858373 104.68084 
L 80.265005 105.293462 
L 81.484899 105.293462 
L 81.891531 105.906084 
L 83.111425 105.906084 
L 83.518056 106.518706 
L 84.737951 106.518706 
L 85.144582 107.131328 
L 86.364477 107.131328 
L 86.771108 107.743951 
L 87.991002 107.743951 
L 88.397634 108.356573 
L 89.617528 108.356573 
L 90.02416 108.969195 
L 91.244054 108.969195 
L 91.650685 109.581817 
L 93.277211 109.581817 
L 93.683843 110.194439 
L 94.903737 110.194439 
L 95.310368 110.807061 
L 96.530263 110.807061 
L 96.936894 111.419683 
L 98.56342 111.419683 
L 98.970051 112.032305 
L 100.189946 112.032305 
L 100.596577 112.644927 
L 102.223103 112.644927 
L 102.629734 113.257549 
L 103.849629 113.257549 
L 104.25626 113.870171 
L 105.882786 113.870171 
L 106.289417 114.482793 
L 107.915943 114.482793 
L 108.322575 115.095416 
L 109.542469 115.095416 
L 109.9491 115.708038 
L 111.575626 115.708038 
L 111.982258 116.32066 
L 113.608783 116.32066 
L 114.015415 116.933282 
L 115.641941 116.933282 
L 116.048572 117.545904 
L 117.675098 117.545904 
L 118.081729 118.158526 
L 119.708255 118.158526 
L 120.114886 118.771148 
L 121.741412 118.771148 
L 122.148044 119.38377 
L 123.774569 119.38377 
L 124.181201 119.996392 
L 126.214358 119.996392 
L 126.62099 120.609014 
L 128.247515 120.609014 
L 128.654147 121.221636 
L 130.280673 121.221636 
L 130.687304 121.834259 
L 132.720461 121.834259 
L 133.127093 122.446881 
L 134.753618 122.446881 
L 135.16025 123.059503 
L 137.193407 123.059503 
L 137.600039 123.672125 
L 139.226564 123.672125 
L 139.633196 124.284747 
L 141.666353 124.284747 
L 142.072984 124.897369 
L 143.69951 124.897369 
L 144.106142 125.509991 
L 146.139299 125.509991 
L 146.54593 126.122613 
L 148.579088 126.122613 
L 148.985719 126.735235 
L 151.018876 126.735235 
L 151.425508 127.347857 
L 153.458665 127.347857 
L 153.865296 127.960479 
L 155.898454 127.960479 
L 156.305085 128.573102 
L 158.338242 128.573102 
L 158.744874 129.185724 
L 160.778031 129.185724 
L 161.184662 129.798346 
L 163.21782 129.798346 
L 163.624451 130.410968 
L 165.657608 130.410968 
L 166.06424 131.02359 
L 168.097397 131.02359 
L 168.504028 131.636212 
L 170.943817 131.636212 
L 171.350449 132.248834 
L 173.383606 132.248834 
L 173.790237 132.861456 
L 176.230026 132.861456 
L 176.636657 133.474078 
L 178.669815 133.474078 
L 179.076446 134.0867 
L 181.516235 134.0867 
L 181.922866 134.699322 
L 183.956023 134.699322 
L 184.362655 135.311944 
L 186.802443 135.311944 
L 187.209075 135.924567 
L 189.648864 135.924567 
L 190.055495 136.537189 
L 192.088652 136.537189 
L 192.495284 137.149811 
L 194.935072 137.149811 
L 195.341704 137.762433 
L 197.781492 137.762433 
L 198.188124 138.375055 
L 200.627913 138.375055 
L 201.034544 138.987677 
L 203.474333 138.987677 
L 203.880964 139.600299 
L 206.320753 139.600299 
L 206.727384 140.212921 
L 209.167173 140.212921 
L 209.573804 140.825543 
L 212.013593 140.825543 
L 212.420224 141.438165 
L 214.860013 141.438165 
L 215.266645 142.050787 
L 217.706433 142.050787 
L 218.113065 142.66341 
L 220.959485 142.66341 
L 221.366116 143.276032 
L 223.805905 143.276032 
L 224.212536 143.888654 
L 226.652325 143.888654 
L 227.058956 144.501276 
L 229.905377 144.501276 
L 230.312008 145.113898 
L 232.751797 145.113898 
L 233.158428 145.72652 
L 236.004848 145.72652 
L 236.41148 146.339142 
L 238.851268 146.339142 
L 239.2579 146.951764 
L 242.10432 146.951764 
L 242.510951 147.564386 
L 245.357371 147.564386 
L 245.764003 148.177008 
L 248.203792 148.177008 
L 248.610423 148.78963 
L 251.456843 148.78963 
L 251.863475 149.402253 
L 253.896632 149.402253 
L 254.303263 150.014875 
L 255.116526 150.014875 
L 255.929789 151.240119 
L 256.33642 151.240119 
L 256.33642 151.240119 
" clip-path="url(#pf8453d3644)" style="fill: none; stroke: #21918c; stroke-width: 1.5; stroke-linecap: square"/>
   </g>
   <g id="line2d_21">
    <path d="M 65.219641 97.329375 
L 66.032904 96.104131 
L 66.439536 96.104131 
L 66.846167 95.491509 
L 67.252799 95.491509 
L 67.65943 94.878887 
L 68.472693 94.878887 
L 68.879324 94.266265 
L 69.692587 94.266265 
L 70.099219 93.653642 
L 70.912482 93.653642 
L 71.319113 93.04102 
L 72.539007 93.04102 
L 72.945639 92.428398 
L 73.758902 92.428398 
L 74.165533 91.815776 
L 75.385428 91.815776 
L 75.792059 91.203154 
L 77.011953 91.203154 
L 77.418585 90.590532 
L 78.231848 90.590532 
L 78.638479 89.97791 
L 79.858373 89.97791 
L 80.265005 89.365288 
L 81.484899 89.365288 
L 81.891531 88.752666 
L 83.111425 88.752666 
L 83.518056 88.140044 
L 84.737951 88.140044 
L 85.144582 87.527422 
L 86.364477 87.527422 
L 86.771108 86.914799 
L 87.991002 86.914799 
L 88.397634 86.302177 
L 89.617528 86.302177 
L 90.02416 85.689555 
L 91.244054 85.689555 
L 91.650685 85.076933 
L 93.277211 85.076933 
L 93.683843 84.464311 
L 94.903737 84.464311 
L 95.310368 83.851689 
L 96.530263 83.851689 
L 96.936894 83.239067 
L 98.56342 83.239067 
L 98.970051 82.626445 
L 100.189946 82.626445 
L 100.596577 82.013823 
L 102.223103 82.013823 
L 102.629734 81.401201 
L 103.849629 81.401201 
L 104.25626 80.788579 
L 105.882786 80.788579 
L 106.289417 80.175957 
L 107.915943 80.175957 
L 108.322575 79.563334 
L 109.542469 79.563334 
L 109.9491 78.950712 
L 111.575626 78.950712 
L 111.982258 78.33809 
L 113.608783 78.33809 
L 114.015415 77.725468 
L 115.641941 77.725468 
L 116.048572 77.112846 
L 117.675098 77.112846 
L 118.081729 76.500224 
L 119.708255 76.500224 
L 120.114886 75.887602 
L 121.741412 75.887602 
L 122.148044 75.27498 
L 123.774569 75.27498 
L 124.181201 74.662358 
L 126.214358 74.662358 
L 126.62099 74.049736 
L 128.247515 74.049736 
L 128.654147 73.437114 
L 130.280673 73.437114 
L 130.687304 72.824491 
L 132.720461 72.824491 
L 133.127093 72.211869 
L 134.753618 72.211869 
L 135.16025 71.599247 
L 137.193407 71.599247 
L 137.600039 70.986625 
L 139.226564 70.986625 
L 139.633196 70.374003 
L 141.666353 70.374003 
L 142.072984 69.761381 
L 143.69951 69.761381 
L 144.106142 69.148759 
L 146.139299 69.148759 
L 146.54593 68.536137 
L 148.579088 68.536137 
L 148.985719 67.923515 
L 151.018876 67.923515 
L 151.425508 67.310893 
L 153.458665 67.310893 
L 153.865296 66.698271 
L 155.898454 66.698271 
L 156.305085 66.085648 
L 158.338242 66.085648 
L 158.744874 65.473026 
L 160.778031 65.473026 
L 161.184662 64.860404 
L 163.21782 64.860404 
L 163.624451 64.247782 
L 165.657608 64.247782 
L 166.06424 63.63516 
L 168.097397 63.63516 
L 168.504028 63.022538 
L 170.943817 63.022538 
L 171.350449 62.409916 
L 173.383606 62.409916 
L 173.790237 61.797294 
L 176.230026 61.797294 
L 176.636657 61.184672 
L 178.669815 61.184672 
L 179.076446 60.57205 
L 181.516235 60.57205 
L 181.922866 59.959428 
L 183.956023 59.959428 
L 184.362655 59.346806 
L 186.802443 59.346806 
L 187.209075 58.734183 
L 189.648864 58.734183 
L 190.055495 58.121561 
L 192.088652 58.121561 
L 192.495284 57.508939 
L 194.935072 57.508939 
L 195.341704 56.896317 
L 197.781492 56.896317 
L 198.188124 56.283695 
L 200.627913 56.283695 
L 201.034544 55.671073 
L 203.474333 55.671073 
L 203.880964 55.058451 
L 206.320753 55.058451 
L 206.727384 54.445829 
L 209.167173 54.445829 
L 209.573804 53.833207 
L 212.013593 53.833207 
L 212.420224 53.220585 
L 214.860013 53.220585 
L 215.266645 52.607963 
L 217.706433 52.607963 
L 218.113065 51.99534 
L 220.959485 51.99534 
L 221.366116 51.382718 
L 223.805905 51.382718 
L 224.212536 50.770096 
L 226.652325 50.770096 
L 227.058956 50.157474 
L 229.905377 50.157474 
L 230.312008 49.544852 
L 232.751797 49.544852 
L 233.158428 48.93223 
L 236.004848 48.93223 
L 236.41148 48.319608 
L 238.851268 48.319608 
L 239.2579 47.706986 
L 242.10432 47.706986 
L 242.510951 47.094364 
L 245.357371 47.094364 
L 245.764003 46.481742 
L 248.203792 46.481742 
L 248.610423 45.86912 
L 251.456843 45.86912 
L 251.863475 45.256497 
L 253.896632 45.256497 
L 254.303263 44.643875 
L 255.116526 44.643875 
L 255.929789 43.418631 
L 256.33642 43.418631 
L 256.33642 43.418631 
" clip-path="url(#pf8453d3644)" style="fill: none; stroke: #21918c; stroke-width: 1.5; stroke-linecap: square"/>
   </g>
   <g id="line2d_22">
    <path d="M 53.42733 72.824491 
L 53.833961 72.211869 
L 54.647224 72.211869 
L 55.053855 71.599247 
L 55.867118 71.599247 
L 56.27375 70.986625 
L 57.087013 70.986625 
L 57.493644 70.374003 
L 58.713538 70.374003 
L 59.12017 69.761381 
L 60.340064 69.761381 
L 60.746696 69.148759 
L 61.96659 69.148759 
L 62.373221 68.536137 
L 63.593116 68.536137 
L 63.999747 67.923515 
L 65.626273 67.923515 
L 66.032904 67.310893 
L 67.65943 67.310893 
L 68.066062 66.698271 
L 70.099219 66.698271 
L 70.50585 66.085648 
L 72.539007 66.085648 
L 72.945639 65.473026 
L 74.978796 65.473026 
L 75.385428 64.860404 
L 77.825216 64.860404 
L 78.231848 64.247782 
L 80.671636 64.247782 
L 81.078268 63.63516 
L 83.518056 63.63516 
L 83.924688 63.022538 
L 86.364477 63.022538 
L 86.771108 62.409916 
L 89.617528 62.409916 
L 90.02416 61.797294 
L 92.463948 61.797294 
L 92.87058 61.184672 
L 95.310368 61.184672 
L 95.717 60.57205 
L 98.156788 60.57205 
L 98.56342 59.959428 
L 101.40984 59.959428 
L 101.816471 59.346806 
L 104.25626 59.346806 
L 104.662892 58.734183 
L 107.10268 58.734183 
L 107.509312 58.121561 
L 109.9491 58.121561 
L 110.355732 57.508939 
L 113.202152 57.508939 
L 113.608783 56.896317 
L 116.048572 56.896317 
L 116.455203 56.283695 
L 118.894992 56.283695 
L 119.301624 55.671073 
L 121.741412 55.671073 
L 122.148044 55.058451 
L 124.994464 55.058451 
L 125.401095 54.445829 
L 127.840884 54.445829 
L 128.247515 53.833207 
L 130.687304 53.833207 
L 131.093935 53.220585 
L 133.940356 53.220585 
L 134.346987 52.607963 
L 136.786776 52.607963 
L 137.193407 51.99534 
L 139.633196 51.99534 
L 140.039827 51.382718 
L 142.886247 51.382718 
L 143.292879 50.770096 
L 145.732667 50.770096 
L 146.139299 50.157474 
L 148.579088 50.157474 
L 148.985719 49.544852 
L 151.832139 49.544852 
L 152.238771 48.93223 
L 154.678559 48.93223 
L 155.085191 48.319608 
L 157.931611 48.319608 
L 158.338242 47.706986 
L 160.778031 47.706986 
L 161.184662 47.094364 
L 164.031083 47.094364 
L 164.437714 46.481742 
L 166.877503 46.481742 
L 167.284134 45.86912 
L 170.130554 45.86912 
L 170.537186 45.256497 
L 172.976974 45.256497 
L 173.383606 44.643875 
L 176.230026 44.643875 
L 176.636657 44.031253 
L 179.076446 44.031253 
L 179.483077 43.418631 
L 182.329498 43.418631 
L 182.736129 42.806009 
L 185.175918 42.806009 
L 185.582549 42.193387 
L 188.428969 42.193387 
L 188.835601 41.580765 
L 191.682021 41.580765 
L 192.088652 40.968143 
L 194.528441 40.968143 
L 194.935072 40.355521 
L 197.781492 40.355521 
L 198.188124 39.742899 
L 201.034544 39.742899 
L 201.441175 39.130277 
L 204.287596 39.130277 
L 204.694227 38.517654 
L 207.134016 38.517654 
L 207.540647 37.905032 
L 210.387067 37.905032 
L 210.793699 37.29241 
L 213.640119 37.29241 
L 214.04675 36.679788 
L 216.89317 36.679788 
L 217.299802 36.067166 
L 220.146222 36.067166 
L 220.552853 35.454544 
L 223.399273 35.454544 
L 223.805905 34.841922 
L 226.652325 34.841922 
L 227.058956 34.2293 
L 229.905377 34.2293 
L 230.312008 33.616678 
L 233.158428 33.616678 
L 233.56506 33.004056 
L 236.41148 33.004056 
L 236.818111 32.391434 
L 239.664531 32.391434 
L 240.071163 31.778812 
L 242.917583 31.778812 
L 243.324214 31.166189 
L 246.170634 31.166189 
L 246.577266 30.553567 
L 249.423686 30.553567 
L 249.830317 29.940945 
L 255.523158 29.940945 
L 255.929789 30.553567 
L 256.33642 30.553567 
L 256.33642 30.553567 
" clip-path="url(#pf8453d3644)" style="fill: none; stroke-dasharray: 5.55,2.4; stroke-dashoffset: 0; stroke: #35b779; stroke-width: 1.5"/>
   </g>
   <g id="line2d_23">
    <path d="M 53.42733 121.834259 
L 53.833961 122.446881 
L 54.647224 122.446881 
L 55.053855 123.059503 
L 55.867118 123.059503 
L 56.27375 123.672125 
L 57.087013 123.672125 
L 57.493644 124.284747 
L 58.713538 124.284747 
L 59.12017 124.897369 
L 60.340064 124.897369 
L 60.746696 125.509991 
L 61.96659 125.509991 
L 62.373221 126.122613 
L 63.593116 126.122613 
L 63.999747 126.735235 
L 65.626273 126.735235 
L 66.032904 127.347857 
L 67.65943 127.347857 
L 68.066062 127.960479 
L 70.099219 127.960479 
L 70.50585 128.573102 
L 72.539007 128.573102 
L 72.945639 129.185724 
L 74.978796 129.185724 
L 75.385428 129.798346 
L 77.825216 129.798346 
L 78.231848 130.410968 
L 80.671636 130.410968 
L 81.078268 131.02359 
L 83.518056 131.02359 
L 83.924688 131.636212 
L 86.364477 131.636212 
L 86.771108 132.248834 
L 89.617528 132.248834 
L 90.02416 132.861456 
L 92.463948 132.861456 
L 92.87058 133.474078 
L 95.310368 133.474078 
L 95.717 134.0867 
L 98.156788 134.0867 
L 98.56342 134.699322 
L 101.40984 134.699322 
L 101.816471 135.311944 
L 104.25626 135.311944 
L 104.662892 135.924567 
L 107.10268 135.924567 
L 107.509312 136.537189 
L 109.9491 136.537189 
L 110.355732 137.149811 
L 113.202152 137.149811 
L 113.608783 137.762433 
L 116.048572 137.762433 
L 116.455203 138.375055 
L 118.894992 138.375055 
L 119.301624 138.987677 
L 121.741412 138.987677 
L 122.148044 139.600299 
L 124.994464 139.600299 
L 125.401095 140.212921 
L 127.840884 140.212921 
L 128.247515 140.825543 
L 130.687304 140.825543 
L 131.093935 141.438165 
L 133.940356 141.438165 
L 134.346987 142.050787 
L 136.786776 142.050787 
L 137.193407 142.66341 
L 139.633196 142.66341 
L 140.039827 143.276032 
L 142.886247 143.276032 
L 143.292879 143.888654 
L 145.732667 143.888654 
L 146.139299 144.501276 
L 148.579088 144.501276 
L 148.985719 145.113898 
L 151.832139 145.113898 
L 152.238771 145.72652 
L 154.678559 145.72652 
L 155.085191 146.339142 
L 157.931611 146.339142 
L 158.338242 146.951764 
L 160.778031 146.951764 
L 161.184662 147.564386 
L 164.031083 147.564386 
L 164.437714 148.177008 
L 166.877503 148.177008 
L 167.284134 148.78963 
L 170.130554 148.78963 
L 170.537186 149.402253 
L 172.976974 149.402253 
L 173.383606 150.014875 
L 176.230026 150.014875 
L 176.636657 150.627497 
L 179.076446 150.627497 
L 179.483077 151.240119 
L 182.329498 151.240119 
L 182.736129 151.852741 
L 185.175918 151.852741 
L 185.582549 152.465363 
L 188.428969 152.465363 
L 188.835601 153.077985 
L 191.682021 153.077985 
L 192.088652 153.690607 
L 194.528441 153.690607 
L 194.935072 154.303229 
L 197.781492 154.303229 
L 198.188124 154.915851 
L 201.034544 154.915851 
L 201.441175 155.528473 
L 204.287596 155.528473 
L 204.694227 156.141096 
L 207.134016 156.141096 
L 207.540647 156.753718 
L 210.387067 156.753718 
L 210.793699 157.36634 
L 213.640119 157.36634 
L 214.04675 157.978962 
L 216.89317 157.978962 
L 217.299802 158.591584 
L 220.146222 158.591584 
L 220.552853 159.204206 
L 223.399273 159.204206 
L 223.805905 159.816828 
L 226.652325 159.816828 
L 227.058956 160.42945 
L 229.905377 160.42945 
L 230.312008 161.042072 
L 233.158428 161.042072 
L 233.56506 161.654694 
L 236.41148 161.654694 
L 236.818111 162.267316 
L 239.664531 162.267316 
L 240.071163 162.879938 
L 242.917583 162.879938 
L 243.324214 163.492561 
L 246.170634 163.492561 
L 246.577266 164.105183 
L 249.423686 164.105183 
L 249.830317 164.717805 
L 255.523158 164.717805 
L 255.929789 164.105183 
L 256.33642 164.105183 
L 256.33642 164.105183 
" clip-path="url(#pf8453d3644)" style="fill: none; stroke-dasharray: 5.55,2.4; stroke-dashoffset: 0; stroke: #35b779; stroke-width: 1.5"/>
   </g>
   <g id="line2d_24">
    <path d="M 62.779853 97.329375 
L 63.999747 99.167241 
L 64.406379 99.167241 
L 64.81301 99.779863 
L 65.219641 99.779863 
L 65.626273 100.392485 
L 66.439536 100.392485 
L 66.846167 101.005108 
L 67.65943 101.005108 
L 68.066062 101.61773 
L 68.879324 101.61773 
L 69.285956 102.230352 
L 70.099219 102.230352 
L 70.50585 102.842974 
L 71.319113 102.842974 
L 71.725745 103.455596 
L 72.539007 103.455596 
L 72.945639 104.068218 
L 73.758902 104.068218 
L 74.165533 104.68084 
L 74.978796 104.68084 
L 75.385428 105.293462 
L 76.605322 105.293462 
L 77.011953 105.906084 
L 77.825216 105.906084 
L 78.231848 106.518706 
L 79.045111 106.518706 
L 79.451742 107.131328 
L 80.671636 107.131328 
L 81.078268 107.743951 
L 81.891531 107.743951 
L 82.298162 108.356573 
L 83.518056 108.356573 
L 83.924688 108.969195 
L 85.144582 108.969195 
L 85.551214 109.581817 
L 86.364477 109.581817 
L 86.771108 110.194439 
L 87.991002 110.194439 
L 88.397634 110.807061 
L 89.617528 110.807061 
L 90.02416 111.419683 
L 90.837422 111.419683 
L 91.244054 112.032305 
L 92.463948 112.032305 
L 92.87058 112.644927 
L 94.090474 112.644927 
L 94.497105 113.257549 
L 95.717 113.257549 
L 96.123631 113.870171 
L 97.343526 113.870171 
L 97.750157 114.482793 
L 98.970051 114.482793 
L 99.376683 115.095416 
L 100.596577 115.095416 
L 101.003209 115.708038 
L 102.223103 115.708038 
L 102.629734 116.32066 
L 103.849629 116.32066 
L 104.25626 116.933282 
L 105.882786 116.933282 
L 106.289417 117.545904 
L 107.509312 117.545904 
L 107.915943 118.158526 
L 109.135837 118.158526 
L 109.542469 118.771148 
L 110.762363 118.771148 
L 111.168995 119.38377 
L 112.79552 119.38377 
L 113.202152 119.996392 
L 114.422046 119.996392 
L 114.828678 120.609014 
L 116.455203 120.609014 
L 116.861835 121.221636 
L 118.081729 121.221636 
L 118.488361 121.834259 
L 120.114886 121.834259 
L 120.521518 122.446881 
L 121.741412 122.446881 
L 122.148044 123.059503 
L 123.774569 123.059503 
L 124.181201 123.672125 
L 125.807727 123.672125 
L 126.214358 124.284747 
L 127.434252 124.284747 
L 127.840884 124.897369 
L 129.46741 124.897369 
L 129.874041 125.509991 
L 131.500567 125.509991 
L 131.907198 126.122613 
L 133.533724 126.122613 
L 133.940356 126.735235 
L 135.566881 126.735235 
L 135.973513 127.347857 
L 137.600039 127.347857 
L 138.00667 127.960479 
L 139.633196 127.960479 
L 140.039827 128.573102 
L 141.666353 128.573102 
L 142.072984 129.185724 
L 143.69951 129.185724 
L 144.106142 129.798346 
L 145.732667 129.798346 
L 146.139299 130.410968 
L 147.765825 130.410968 
L 148.172456 131.02359 
L 149.798982 131.02359 
L 150.205613 131.636212 
L 151.832139 131.636212 
L 152.238771 132.248834 
L 154.271928 132.248834 
L 154.678559 132.861456 
L 156.305085 132.861456 
L 156.711717 133.474078 
L 158.744874 133.474078 
L 159.151505 134.0867 
L 160.778031 134.0867 
L 161.184662 134.699322 
L 162.811188 134.699322 
L 163.21782 135.311944 
L 165.250977 135.311944 
L 165.657608 135.924567 
L 167.690766 135.924567 
L 168.097397 136.537189 
L 169.723923 136.537189 
L 170.130554 137.149811 
L 172.163711 137.149811 
L 172.570343 137.762433 
L 174.6035 137.762433 
L 175.010132 138.375055 
L 176.636657 138.375055 
L 177.043289 138.987677 
L 179.076446 138.987677 
L 179.483077 139.600299 
L 181.516235 139.600299 
L 181.922866 140.212921 
L 183.956023 140.212921 
L 184.362655 140.825543 
L 186.395812 140.825543 
L 186.802443 141.438165 
L 188.835601 141.438165 
L 189.242232 142.050787 
L 191.275389 142.050787 
L 191.682021 142.66341 
L 193.715178 142.66341 
L 194.121809 143.276032 
L 196.154967 143.276032 
L 196.561598 143.888654 
L 198.594755 143.888654 
L 199.001387 144.501276 
L 201.034544 144.501276 
L 201.441175 145.113898 
L 203.474333 145.113898 
L 203.880964 145.72652 
L 206.320753 145.72652 
L 206.727384 146.339142 
L 208.760541 146.339142 
L 209.167173 146.951764 
L 211.20033 146.951764 
L 211.606962 147.564386 
L 214.04675 147.564386 
L 214.453382 148.177008 
L 216.486539 148.177008 
L 216.89317 148.78963 
L 219.332959 148.78963 
L 219.73959 149.402253 
L 221.772748 149.402253 
L 222.179379 150.014875 
L 224.619168 150.014875 
L 225.025799 150.627497 
L 227.058956 150.627497 
L 227.465588 151.240119 
L 229.905377 151.240119 
L 230.312008 151.852741 
L 232.751797 151.852741 
L 233.158428 152.465363 
L 235.191585 152.465363 
L 235.598217 153.077985 
L 238.038005 153.077985 
L 238.444637 153.690607 
L 240.884426 153.690607 
L 241.291057 154.303229 
L 243.730846 154.303229 
L 244.137477 154.915851 
L 246.170634 154.915851 
L 246.577266 155.528473 
L 249.017054 155.528473 
L 249.423686 156.141096 
L 251.863475 156.141096 
L 252.270106 156.753718 
L 253.896632 156.753718 
L 254.303263 157.36634 
L 254.709895 157.36634 
L 255.116526 157.978962 
L 255.523158 157.978962 
L 255.929789 159.204206 
L 256.33642 159.204206 
L 256.33642 159.204206 
" clip-path="url(#pf8453d3644)" style="fill: none; stroke: #35b779; stroke-width: 1.5; stroke-linecap: square"/>
   </g>
   <g id="line2d_25">
    <path d="M 62.779853 97.329375 
L 63.999747 95.491509 
L 64.406379 95.491509 
L 64.81301 94.878887 
L 65.219641 94.878887 
L 65.626273 94.266265 
L 66.439536 94.266265 
L 66.846167 93.653642 
L 67.65943 93.653642 
L 68.066062 93.04102 
L 68.879324 93.04102 
L 69.285956 92.428398 
L 70.099219 92.428398 
L 70.50585 91.815776 
L 71.319113 91.815776 
L 71.725745 91.203154 
L 72.539007 91.203154 
L 72.945639 90.590532 
L 73.758902 90.590532 
L 74.165533 89.97791 
L 74.978796 89.97791 
L 75.385428 89.365288 
L 76.605322 89.365288 
L 77.011953 88.752666 
L 77.825216 88.752666 
L 78.231848 88.140044 
L 79.045111 88.140044 
L 79.451742 87.527422 
L 80.671636 87.527422 
L 81.078268 86.914799 
L 81.891531 86.914799 
L 82.298162 86.302177 
L 83.518056 86.302177 
L 83.924688 85.689555 
L 85.144582 85.689555 
L 85.551214 85.076933 
L 86.364477 85.076933 
L 86.771108 84.464311 
L 87.991002 84.464311 
L 88.397634 83.851689 
L 89.617528 83.851689 
L 90.02416 83.239067 
L 90.837422 83.239067 
L 91.244054 82.626445 
L 92.463948 82.626445 
L 92.87058 82.013823 
L 94.090474 82.013823 
L 94.497105 81.401201 
L 95.717 81.401201 
L 96.123631 80.788579 
L 97.343526 80.788579 
L 97.750157 80.175957 
L 98.970051 80.175957 
L 99.376683 79.563334 
L 100.596577 79.563334 
L 101.003209 78.950712 
L 102.223103 78.950712 
L 102.629734 78.33809 
L 103.849629 78.33809 
L 104.25626 77.725468 
L 105.882786 77.725468 
L 106.289417 77.112846 
L 107.509312 77.112846 
L 107.915943 76.500224 
L 109.135837 76.500224 
L 109.542469 75.887602 
L 110.762363 75.887602 
L 111.168995 75.27498 
L 112.79552 75.27498 
L 113.202152 74.662358 
L 114.422046 74.662358 
L 114.828678 74.049736 
L 116.455203 74.049736 
L 116.861835 73.437114 
L 118.081729 73.437114 
L 118.488361 72.824491 
L 120.114886 72.824491 
L 120.521518 72.211869 
L 121.741412 72.211869 
L 122.148044 71.599247 
L 123.774569 71.599247 
L 124.181201 70.986625 
L 125.807727 70.986625 
L 126.214358 70.374003 
L 127.434252 70.374003 
L 127.840884 69.761381 
L 129.46741 69.761381 
L 129.874041 69.148759 
L 131.500567 69.148759 
L 131.907198 68.536137 
L 133.533724 68.536137 
L 133.940356 67.923515 
L 135.566881 67.923515 
L 135.973513 67.310893 
L 137.600039 67.310893 
L 138.00667 66.698271 
L 139.633196 66.698271 
L 140.039827 66.085648 
L 141.666353 66.085648 
L 142.072984 65.473026 
L 143.69951 65.473026 
L 144.106142 64.860404 
L 145.732667 64.860404 
L 146.139299 64.247782 
L 147.765825 64.247782 
L 148.172456 63.63516 
L 149.798982 63.63516 
L 150.205613 63.022538 
L 151.832139 63.022538 
L 152.238771 62.409916 
L 154.271928 62.409916 
L 154.678559 61.797294 
L 156.305085 61.797294 
L 156.711717 61.184672 
L 158.744874 61.184672 
L 159.151505 60.57205 
L 160.778031 60.57205 
L 161.184662 59.959428 
L 162.811188 59.959428 
L 163.21782 59.346806 
L 165.250977 59.346806 
L 165.657608 58.734183 
L 167.690766 58.734183 
L 168.097397 58.121561 
L 169.723923 58.121561 
L 170.130554 57.508939 
L 172.163711 57.508939 
L 172.570343 56.896317 
L 174.6035 56.896317 
L 175.010132 56.283695 
L 176.636657 56.283695 
L 177.043289 55.671073 
L 179.076446 55.671073 
L 179.483077 55.058451 
L 181.516235 55.058451 
L 181.922866 54.445829 
L 183.956023 54.445829 
L 184.362655 53.833207 
L 186.395812 53.833207 
L 186.802443 53.220585 
L 188.835601 53.220585 
L 189.242232 52.607963 
L 191.275389 52.607963 
L 191.682021 51.99534 
L 193.715178 51.99534 
L 194.121809 51.382718 
L 196.154967 51.382718 
L 196.561598 50.770096 
L 198.594755 50.770096 
L 199.001387 50.157474 
L 201.034544 50.157474 
L 201.441175 49.544852 
L 203.474333 49.544852 
L 203.880964 48.93223 
L 206.320753 48.93223 
L 206.727384 48.319608 
L 208.760541 48.319608 
L 209.167173 47.706986 
L 211.20033 47.706986 
L 211.606962 47.094364 
L 214.04675 47.094364 
L 214.453382 46.481742 
L 216.486539 46.481742 
L 216.89317 45.86912 
L 219.332959 45.86912 
L 219.73959 45.256497 
L 221.772748 45.256497 
L 222.179379 44.643875 
L 224.619168 44.643875 
L 225.025799 44.031253 
L 227.058956 44.031253 
L 227.465588 43.418631 
L 229.905377 43.418631 
L 230.312008 42.806009 
L 232.751797 42.806009 
L 233.158428 42.193387 
L 235.191585 42.193387 
L 235.598217 41.580765 
L 238.038005 41.580765 
L 238.444637 40.968143 
L 240.884426 40.968143 
L 241.291057 40.355521 
L 243.730846 40.355521 
L 244.137477 39.742899 
L 246.170634 39.742899 
L 246.577266 39.130277 
L 249.017054 39.130277 
L 249.423686 38.517654 
L 251.863475 38.517654 
L 252.270106 37.905032 
L 253.896632 37.905032 
L 254.303263 37.29241 
L 254.709895 37.29241 
L 255.116526 36.679788 
L 255.523158 36.679788 
L 255.929789 35.454544 
L 256.33642 35.454544 
L 256.33642 35.454544 
" clip-path="url(#pf8453d3644)" style="fill: none; stroke: #35b779; stroke-width: 1.5; stroke-linecap: square"/>
   </g>
   <g id="line2d_26">
    <path d="M 53.42733 70.986625 
L 54.240592 70.986625 
L 54.647224 70.374003 
L 55.460487 70.374003 
L 55.867118 69.761381 
L 56.27375 69.761381 
L 56.680381 69.148759 
L 57.493644 69.148759 
L 57.900275 68.536137 
L 58.713538 68.536137 
L 59.12017 67.923515 
L 59.933433 67.923515 
L 60.340064 67.310893 
L 61.559958 67.310893 
L 61.96659 66.698271 
L 62.779853 66.698271 
L 63.186484 66.085648 
L 64.406379 66.085648 
L 64.81301 65.473026 
L 66.032904 65.473026 
L 66.439536 64.860404 
L 68.066062 64.860404 
L 68.472693 64.247782 
L 70.099219 64.247782 
L 70.50585 63.63516 
L 72.132376 63.63516 
L 72.539007 63.022538 
L 74.165533 63.022538 
L 74.572165 62.409916 
L 76.605322 62.409916 
L 77.011953 61.797294 
L 79.045111 61.797294 
L 79.451742 61.184672 
L 81.484899 61.184672 
L 81.891531 60.57205 
L 83.924688 60.57205 
L 84.331319 59.959428 
L 86.364477 59.959428 
L 86.771108 59.346806 
L 89.210897 59.346806 
L 89.617528 58.734183 
L 91.650685 58.734183 
L 92.057317 58.121561 
L 94.090474 58.121561 
L 94.497105 57.508939 
L 96.936894 57.508939 
L 97.343526 56.896317 
L 99.376683 56.896317 
L 99.783314 56.283695 
L 101.816471 56.283695 
L 102.223103 55.671073 
L 104.662892 55.671073 
L 105.069523 55.058451 
L 107.10268 55.058451 
L 107.509312 54.445829 
L 109.542469 54.445829 
L 109.9491 53.833207 
L 112.388889 53.833207 
L 112.79552 53.220585 
L 114.828678 53.220585 
L 115.235309 52.607963 
L 117.675098 52.607963 
L 118.081729 51.99534 
L 120.114886 51.99534 
L 120.521518 51.382718 
L 122.961307 51.382718 
L 123.367938 50.770096 
L 125.401095 50.770096 
L 125.807727 50.157474 
L 128.247515 50.157474 
L 128.654147 49.544852 
L 130.687304 49.544852 
L 131.093935 48.93223 
L 133.533724 48.93223 
L 133.940356 48.319608 
L 135.973513 48.319608 
L 136.380144 47.706986 
L 138.819933 47.706986 
L 139.226564 47.094364 
L 141.259722 47.094364 
L 141.666353 46.481742 
L 144.106142 46.481742 
L 144.512773 45.86912 
L 146.952562 45.86912 
L 147.359193 45.256497 
L 149.39235 45.256497 
L 149.798982 44.643875 
L 152.238771 44.643875 
L 152.645402 44.031253 
L 155.085191 44.031253 
L 155.491822 43.418631 
L 157.524979 43.418631 
L 157.931611 42.806009 
L 160.3714 42.806009 
L 160.778031 42.193387 
L 163.21782 42.193387 
L 163.624451 41.580765 
L 166.06424 41.580765 
L 166.470871 40.968143 
L 168.504028 40.968143 
L 168.91066 40.355521 
L 171.350449 40.355521 
L 171.75708 39.742899 
L 174.196869 39.742899 
L 174.6035 39.130277 
L 177.043289 39.130277 
L 177.44992 38.517654 
L 179.889709 38.517654 
L 180.29634 37.905032 
L 182.329498 37.905032 
L 182.736129 37.29241 
L 185.175918 37.29241 
L 185.582549 36.679788 
L 188.022338 36.679788 
L 188.428969 36.067166 
L 190.868758 36.067166 
L 191.275389 35.454544 
L 193.715178 35.454544 
L 194.121809 34.841922 
L 196.561598 34.841922 
L 196.96823 34.2293 
L 199.408018 34.2293 
L 199.81465 33.616678 
L 202.254438 33.616678 
L 202.66107 33.004056 
L 205.100858 33.004056 
L 205.50749 32.391434 
L 207.947279 32.391434 
L 208.35391 31.778812 
L 211.20033 31.778812 
L 211.606962 31.166189 
L 214.04675 31.166189 
L 214.453382 30.553567 
L 216.89317 30.553567 
L 217.299802 29.940945 
L 219.73959 29.940945 
L 220.146222 29.328323 
L 222.586011 29.328323 
L 222.992642 28.715701 
L 225.432431 28.715701 
L 225.839062 28.103079 
L 228.685482 28.103079 
L 229.092114 27.490457 
L 231.531902 27.490457 
L 231.938534 26.877835 
L 234.378322 26.877835 
L 234.784954 26.265213 
L 237.631374 26.265213 
L 238.038005 25.652591 
L 240.477794 25.652591 
L 240.884426 25.039969 
L 243.324214 25.039969 
L 243.730846 24.427346 
L 246.577266 24.427346 
L 246.983897 23.814724 
L 249.423686 23.814724 
L 249.830317 23.202102 
L 255.523158 23.202102 
L 255.929789 23.814724 
L 256.33642 23.814724 
L 256.33642 23.814724 
" clip-path="url(#pf8453d3644)" style="fill: none; stroke-dasharray: 5.55,2.4; stroke-dashoffset: 0; stroke: #fde725; stroke-width: 1.5"/>
   </g>
   <g id="line2d_27">
    <path d="M 53.42733 123.672125 
L 54.240592 123.672125 
L 54.647224 124.284747 
L 55.460487 124.284747 
L 55.867118 124.897369 
L 56.27375 124.897369 
L 56.680381 125.509991 
L 57.493644 125.509991 
L 57.900275 126.122613 
L 58.713538 126.122613 
L 59.12017 126.735235 
L 59.933433 126.735235 
L 60.340064 127.347857 
L 61.559958 127.347857 
L 61.96659 127.960479 
L 62.779853 127.960479 
L 63.186484 128.573102 
L 64.406379 128.573102 
L 64.81301 129.185724 
L 66.032904 129.185724 
L 66.439536 129.798346 
L 68.066062 129.798346 
L 68.472693 130.410968 
L 70.099219 130.410968 
L 70.50585 131.02359 
L 72.132376 131.02359 
L 72.539007 131.636212 
L 74.165533 131.636212 
L 74.572165 132.248834 
L 76.605322 132.248834 
L 77.011953 132.861456 
L 79.045111 132.861456 
L 79.451742 133.474078 
L 81.484899 133.474078 
L 81.891531 134.0867 
L 83.924688 134.0867 
L 84.331319 134.699322 
L 86.364477 134.699322 
L 86.771108 135.311944 
L 89.210897 135.311944 
L 89.617528 135.924567 
L 91.650685 135.924567 
L 92.057317 136.537189 
L 94.090474 136.537189 
L 94.497105 137.149811 
L 96.936894 137.149811 
L 97.343526 137.762433 
L 99.376683 137.762433 
L 99.783314 138.375055 
L 101.816471 138.375055 
L 102.223103 138.987677 
L 104.662892 138.987677 
L 105.069523 139.600299 
L 107.10268 139.600299 
L 107.509312 140.212921 
L 109.542469 140.212921 
L 109.9491 140.825543 
L 112.388889 140.825543 
L 112.79552 141.438165 
L 114.828678 141.438165 
L 115.235309 142.050787 
L 117.675098 142.050787 
L 118.081729 142.66341 
L 120.114886 142.66341 
L 120.521518 143.276032 
L 122.961307 143.276032 
L 123.367938 143.888654 
L 125.401095 143.888654 
L 125.807727 144.501276 
L 128.247515 144.501276 
L 128.654147 145.113898 
L 130.687304 145.113898 
L 131.093935 145.72652 
L 133.533724 145.72652 
L 133.940356 146.339142 
L 135.973513 146.339142 
L 136.380144 146.951764 
L 138.819933 146.951764 
L 139.226564 147.564386 
L 141.259722 147.564386 
L 141.666353 148.177008 
L 144.106142 148.177008 
L 144.512773 148.78963 
L 146.952562 148.78963 
L 147.359193 149.402253 
L 149.39235 149.402253 
L 149.798982 150.014875 
L 152.238771 150.014875 
L 152.645402 150.627497 
L 155.085191 150.627497 
L 155.491822 151.240119 
L 157.524979 151.240119 
L 157.931611 151.852741 
L 160.3714 151.852741 
L 160.778031 152.465363 
L 163.21782 152.465363 
L 163.624451 153.077985 
L 166.06424 153.077985 
L 166.470871 153.690607 
L 168.504028 153.690607 
L 168.91066 154.303229 
L 171.350449 154.303229 
L 171.75708 154.915851 
L 174.196869 154.915851 
L 174.6035 155.528473 
L 177.043289 155.528473 
L 177.44992 156.141096 
L 179.889709 156.141096 
L 180.29634 156.753718 
L 182.329498 156.753718 
L 182.736129 157.36634 
L 185.175918 157.36634 
L 185.582549 157.978962 
L 188.022338 157.978962 
L 188.428969 158.591584 
L 190.868758 158.591584 
L 191.275389 159.204206 
L 193.715178 159.204206 
L 194.121809 159.816828 
L 196.561598 159.816828 
L 196.96823 160.42945 
L 199.408018 160.42945 
L 199.81465 161.042072 
L 202.254438 161.042072 
L 202.66107 161.654694 
L 205.100858 161.654694 
L 205.50749 162.267316 
L 207.947279 162.267316 
L 208.35391 162.879938 
L 211.20033 162.879938 
L 211.606962 163.492561 
L 214.04675 163.492561 
L 214.453382 164.105183 
L 216.89317 164.105183 
L 217.299802 164.717805 
L 219.73959 164.717805 
L 220.146222 165.330427 
L 222.586011 165.330427 
L 222.992642 165.943049 
L 225.432431 165.943049 
L 225.839062 166.555671 
L 228.685482 166.555671 
L 229.092114 167.168293 
L 231.531902 167.168293 
L 231.938534 167.780915 
L 234.378322 167.780915 
L 234.784954 168.393537 
L 237.631374 168.393537 
L 238.038005 169.006159 
L 240.477794 169.006159 
L 240.884426 169.618781 
L 243.324214 169.618781 
L 243.730846 170.231404 
L 246.577266 170.231404 
L 246.983897 170.844026 
L 249.423686 170.844026 
L 249.830317 171.456648 
L 255.523158 171.456648 
L 255.929789 170.844026 
L 256.33642 170.844026 
L 256.33642 170.844026 
" clip-path="url(#pf8453d3644)" style="fill: none; stroke-dasharray: 5.55,2.4; stroke-dashoffset: 0; stroke: #fde725; stroke-width: 1.5"/>
   </g>
   <g id="line2d_28">
    <path d="M 61.153327 97.329375 
L 61.559958 98.554619 
L 61.96659 98.554619 
L 62.373221 99.167241 
L 62.779853 99.167241 
L 63.186484 99.779863 
L 63.593116 99.779863 
L 63.999747 100.392485 
L 64.406379 100.392485 
L 64.81301 101.005108 
L 65.219641 101.005108 
L 65.626273 101.61773 
L 66.439536 101.61773 
L 66.846167 102.230352 
L 67.252799 102.230352 
L 67.65943 102.842974 
L 68.472693 102.842974 
L 68.879324 103.455596 
L 69.692587 103.455596 
L 70.099219 104.068218 
L 70.912482 104.068218 
L 71.319113 104.68084 
L 71.725745 104.68084 
L 72.132376 105.293462 
L 72.945639 105.293462 
L 73.35227 105.906084 
L 74.165533 105.906084 
L 74.572165 106.518706 
L 75.385428 106.518706 
L 75.792059 107.131328 
L 76.605322 107.131328 
L 77.011953 107.743951 
L 78.231848 107.743951 
L 78.638479 108.356573 
L 79.451742 108.356573 
L 79.858373 108.969195 
L 80.671636 108.969195 
L 81.078268 109.581817 
L 81.891531 109.581817 
L 82.298162 110.194439 
L 83.111425 110.194439 
L 83.518056 110.807061 
L 84.737951 110.807061 
L 85.144582 111.419683 
L 85.957845 111.419683 
L 86.364477 112.032305 
L 87.584371 112.032305 
L 87.991002 112.644927 
L 88.804265 112.644927 
L 89.210897 113.257549 
L 90.430791 113.257549 
L 90.837422 113.870171 
L 91.650685 113.870171 
L 92.057317 114.482793 
L 93.277211 114.482793 
L 93.683843 115.095416 
L 94.497105 115.095416 
L 94.903737 115.708038 
L 96.123631 115.708038 
L 96.530263 116.32066 
L 97.750157 116.32066 
L 98.156788 116.933282 
L 98.970051 116.933282 
L 99.376683 117.545904 
L 100.596577 117.545904 
L 101.003209 118.158526 
L 102.223103 118.158526 
L 102.629734 118.771148 
L 103.849629 118.771148 
L 104.25626 119.38377 
L 105.476154 119.38377 
L 105.882786 119.996392 
L 106.696049 119.996392 
L 107.10268 120.609014 
L 108.322575 120.609014 
L 108.729206 121.221636 
L 109.9491 121.221636 
L 110.355732 121.834259 
L 111.575626 121.834259 
L 111.982258 122.446881 
L 113.202152 122.446881 
L 113.608783 123.059503 
L 115.235309 123.059503 
L 115.641941 123.672125 
L 116.861835 123.672125 
L 117.268466 124.284747 
L 118.488361 124.284747 
L 118.894992 124.897369 
L 120.114886 124.897369 
L 120.521518 125.509991 
L 121.741412 125.509991 
L 122.148044 126.122613 
L 123.774569 126.122613 
L 124.181201 126.735235 
L 125.401095 126.735235 
L 125.807727 127.347857 
L 127.027621 127.347857 
L 127.434252 127.960479 
L 129.060778 127.960479 
L 129.46741 128.573102 
L 130.687304 128.573102 
L 131.093935 129.185724 
L 132.31383 129.185724 
L 132.720461 129.798346 
L 134.346987 129.798346 
L 134.753618 130.410968 
L 135.973513 130.410968 
L 136.380144 131.02359 
L 138.00667 131.02359 
L 138.413301 131.636212 
L 140.039827 131.636212 
L 140.446459 132.248834 
L 141.666353 132.248834 
L 142.072984 132.861456 
L 143.69951 132.861456 
L 144.106142 133.474078 
L 145.732667 133.474078 
L 146.139299 134.0867 
L 147.359193 134.0867 
L 147.765825 134.699322 
L 149.39235 134.699322 
L 149.798982 135.311944 
L 151.425508 135.311944 
L 151.832139 135.924567 
L 153.458665 135.924567 
L 153.865296 136.537189 
L 155.491822 136.537189 
L 155.898454 137.149811 
L 157.524979 137.149811 
L 157.931611 137.762433 
L 159.558137 137.762433 
L 159.964768 138.375055 
L 161.591294 138.375055 
L 161.997925 138.987677 
L 163.624451 138.987677 
L 164.031083 139.600299 
L 165.657608 139.600299 
L 166.06424 140.212921 
L 167.690766 140.212921 
L 168.097397 140.825543 
L 169.723923 140.825543 
L 170.130554 141.438165 
L 172.163711 141.438165 
L 172.570343 142.050787 
L 174.196869 142.050787 
L 174.6035 142.66341 
L 176.230026 142.66341 
L 176.636657 143.276032 
L 178.263183 143.276032 
L 178.669815 143.888654 
L 180.702972 143.888654 
L 181.109603 144.501276 
L 182.736129 144.501276 
L 183.14276 145.113898 
L 185.175918 145.113898 
L 185.582549 145.72652 
L 187.209075 145.72652 
L 187.615706 146.339142 
L 189.242232 146.339142 
L 189.648864 146.951764 
L 191.682021 146.951764 
L 192.088652 147.564386 
L 194.121809 147.564386 
L 194.528441 148.177008 
L 196.154967 148.177008 
L 196.561598 148.78963 
L 198.594755 148.78963 
L 199.001387 149.402253 
L 200.627913 149.402253 
L 201.034544 150.014875 
L 203.067701 150.014875 
L 203.474333 150.627497 
L 205.50749 150.627497 
L 205.914121 151.240119 
L 207.947279 151.240119 
L 208.35391 151.852741 
L 210.387067 151.852741 
L 210.793699 152.465363 
L 212.420224 152.465363 
L 212.826856 153.077985 
L 214.860013 153.077985 
L 215.266645 153.690607 
L 217.299802 153.690607 
L 217.706433 154.303229 
L 219.73959 154.303229 
L 220.146222 154.915851 
L 222.179379 154.915851 
L 222.586011 155.528473 
L 224.619168 155.528473 
L 225.025799 156.141096 
L 227.058956 156.141096 
L 227.465588 156.753718 
L 229.498745 156.753718 
L 229.905377 157.36634 
L 231.938534 157.36634 
L 232.345165 157.978962 
L 234.784954 157.978962 
L 235.191585 158.591584 
L 237.224743 158.591584 
L 237.631374 159.204206 
L 239.664531 159.204206 
L 240.071163 159.816828 
L 242.10432 159.816828 
L 242.510951 160.42945 
L 244.544109 160.42945 
L 244.95074 161.042072 
L 247.390529 161.042072 
L 247.79716 161.654694 
L 249.830317 161.654694 
L 250.236949 162.267316 
L 252.270106 162.267316 
L 252.676737 162.879938 
L 253.896632 162.879938 
L 254.303263 163.492561 
L 254.709895 163.492561 
L 255.929789 165.330427 
L 256.33642 165.330427 
L 256.33642 165.330427 
" clip-path="url(#pf8453d3644)" style="fill: none; stroke: #fde725; stroke-width: 1.5; stroke-linecap: square"/>
   </g>
   <g id="line2d_29">
    <path d="M 61.153327 97.329375 
L 61.559958 96.104131 
L 61.96659 96.104131 
L 62.373221 95.491509 
L 62.779853 95.491509 
L 63.186484 94.878887 
L 63.593116 94.878887 
L 63.999747 94.266265 
L 64.406379 94.266265 
L 64.81301 93.653642 
L 65.219641 93.653642 
L 65.626273 93.04102 
L 66.439536 93.04102 
L 66.846167 92.428398 
L 67.252799 92.428398 
L 67.65943 91.815776 
L 68.472693 91.815776 
L 68.879324 91.203154 
L 69.692587 91.203154 
L 70.099219 90.590532 
L 70.912482 90.590532 
L 71.319113 89.97791 
L 71.725745 89.97791 
L 72.132376 89.365288 
L 72.945639 89.365288 
L 73.35227 88.752666 
L 74.165533 88.752666 
L 74.572165 88.140044 
L 75.385428 88.140044 
L 75.792059 87.527422 
L 76.605322 87.527422 
L 77.011953 86.914799 
L 78.231848 86.914799 
L 78.638479 86.302177 
L 79.451742 86.302177 
L 79.858373 85.689555 
L 80.671636 85.689555 
L 81.078268 85.076933 
L 81.891531 85.076933 
L 82.298162 84.464311 
L 83.111425 84.464311 
L 83.518056 83.851689 
L 84.737951 83.851689 
L 85.144582 83.239067 
L 85.957845 83.239067 
L 86.364477 82.626445 
L 87.584371 82.626445 
L 87.991002 82.013823 
L 88.804265 82.013823 
L 89.210897 81.401201 
L 90.430791 81.401201 
L 90.837422 80.788579 
L 91.650685 80.788579 
L 92.057317 80.175957 
L 93.277211 80.175957 
L 93.683843 79.563334 
L 94.497105 79.563334 
L 94.903737 78.950712 
L 96.123631 78.950712 
L 96.530263 78.33809 
L 97.750157 78.33809 
L 98.156788 77.725468 
L 98.970051 77.725468 
L 99.376683 77.112846 
L 100.596577 77.112846 
L 101.003209 76.500224 
L 102.223103 76.500224 
L 102.629734 75.887602 
L 103.849629 75.887602 
L 104.25626 75.27498 
L 105.476154 75.27498 
L 105.882786 74.662358 
L 106.696049 74.662358 
L 107.10268 74.049736 
L 108.322575 74.049736 
L 108.729206 73.437114 
L 109.9491 73.437114 
L 110.355732 72.824491 
L 111.575626 72.824491 
L 111.982258 72.211869 
L 113.202152 72.211869 
L 113.608783 71.599247 
L 115.235309 71.599247 
L 115.641941 70.986625 
L 116.861835 70.986625 
L 117.268466 70.374003 
L 118.488361 70.374003 
L 118.894992 69.761381 
L 120.114886 69.761381 
L 120.521518 69.148759 
L 121.741412 69.148759 
L 122.148044 68.536137 
L 123.774569 68.536137 
L 124.181201 67.923515 
L 125.401095 67.923515 
L 125.807727 67.310893 
L 127.027621 67.310893 
L 127.434252 66.698271 
L 129.060778 66.698271 
L 129.46741 66.085648 
L 130.687304 66.085648 
L 131.093935 65.473026 
L 132.31383 65.473026 
L 132.720461 64.860404 
L 134.346987 64.860404 
L 134.753618 64.247782 
L 135.973513 64.247782 
L 136.380144 63.63516 
L 138.00667 63.63516 
L 138.413301 63.022538 
L 140.039827 63.022538 
L 140.446459 62.409916 
L 141.666353 62.409916 
L 142.072984 61.797294 
L 143.69951 61.797294 
L 144.106142 61.184672 
L 145.732667 61.184672 
L 146.139299 60.57205 
L 147.359193 60.57205 
L 147.765825 59.959428 
L 149.39235 59.959428 
L 149.798982 59.346806 
L 151.425508 59.346806 
L 151.832139 58.734183 
L 153.458665 58.734183 
L 153.865296 58.121561 
L 155.491822 58.121561 
L 155.898454 57.508939 
L 157.524979 57.508939 
L 157.931611 56.896317 
L 159.558137 56.896317 
L 159.964768 56.283695 
L 161.591294 56.283695 
L 161.997925 55.671073 
L 163.624451 55.671073 
L 164.031083 55.058451 
L 165.657608 55.058451 
L 166.06424 54.445829 
L 167.690766 54.445829 
L 168.097397 53.833207 
L 169.723923 53.833207 
L 170.130554 53.220585 
L 172.163711 53.220585 
L 172.570343 52.607963 
L 174.196869 52.607963 
L 174.6035 51.99534 
L 176.230026 51.99534 
L 176.636657 51.382718 
L 178.263183 51.382718 
L 178.669815 50.770096 
L 180.702972 50.770096 
L 181.109603 50.157474 
L 182.736129 50.157474 
L 183.14276 49.544852 
L 185.175918 49.544852 
L 185.582549 48.93223 
L 187.209075 48.93223 
L 187.615706 48.319608 
L 189.242232 48.319608 
L 189.648864 47.706986 
L 191.682021 47.706986 
L 192.088652 47.094364 
L 194.121809 47.094364 
L 194.528441 46.481742 
L 196.154967 46.481742 
L 196.561598 45.86912 
L 198.594755 45.86912 
L 199.001387 45.256497 
L 200.627913 45.256497 
L 201.034544 44.643875 
L 203.067701 44.643875 
L 203.474333 44.031253 
L 205.50749 44.031253 
L 205.914121 43.418631 
L 207.947279 43.418631 
L 208.35391 42.806009 
L 210.387067 42.806009 
L 210.793699 42.193387 
L 212.420224 42.193387 
L 212.826856 41.580765 
L 214.860013 41.580765 
L 215.266645 40.968143 
L 217.299802 40.968143 
L 217.706433 40.355521 
L 219.73959 40.355521 
L 220.146222 39.742899 
L 222.179379 39.742899 
L 222.586011 39.130277 
L 224.619168 39.130277 
L 225.025799 38.517654 
L 227.058956 38.517654 
L 227.465588 37.905032 
L 229.498745 37.905032 
L 229.905377 37.29241 
L 231.938534 37.29241 
L 232.345165 36.679788 
L 234.784954 36.679788 
L 235.191585 36.067166 
L 237.224743 36.067166 
L 237.631374 35.454544 
L 239.664531 35.454544 
L 240.071163 34.841922 
L 242.10432 34.841922 
L 242.510951 34.2293 
L 244.544109 34.2293 
L 244.95074 33.616678 
L 247.390529 33.616678 
L 247.79716 33.004056 
L 249.830317 33.004056 
L 250.236949 32.391434 
L 252.270106 32.391434 
L 252.676737 31.778812 
L 253.896632 31.778812 
L 254.303263 31.166189 
L 254.709895 31.166189 
L 255.929789 29.328323 
L 256.33642 29.328323 
L 256.33642 29.328323 
" clip-path="url(#pf8453d3644)" style="fill: none; stroke: #fde725; stroke-width: 1.5; stroke-linecap: square"/>
   </g>
   <g id="patch_3">
    <path d="M 43.281875 178.869375 
L 43.281875 15.789375 
" style="fill: none; stroke: #000000; stroke-width: 0.8; stroke-linejoin: miter; stroke-linecap: square"/>
   </g>
   <g id="patch_4">
    <path d="M 43.281875 178.869375 
L 266.481875 178.869375 
" style="fill: none; stroke: #000000; stroke-width: 0.8; stroke-linejoin: miter; stroke-linecap: square"/>
   </g>
   <g id="text_12">
    <!-- D -->
    <g transform="translate(9.801875 15.789375)scale(0.12 -0.12)">
     <defs>
      <path id="Arial-BoldMT-44" d="M 463 4581 
L 2153 4581 
Q 2725 4581 3025 4494 
Q 3428 4375 3715 4072 
Q 4003 3769 4153 3330 
Q 4303 2891 4303 2247 
Q 4303 1681 4163 1272 
Q 3991 772 3672 463 
Q 3431 228 3022 97 
Q 2716 0 2203 0 
L 463 0 
L 463 4581 
z
M 1388 3806 
L 1388 772 
L 2078 772 
Q 2466 772 2638 816 
Q 2863 872 3011 1006 
Q 3159 1141 3253 1448 
Q 3347 1756 3347 2288 
Q 3347 2819 3253 3103 
Q 3159 3388 2990 3547 
Q 2822 3706 2563 3763 
Q 2369 3806 1803 3806 
L 1388 3806 
z
" transform="scale(0.015625)"/>
     </defs>
     <use xlink:href="#Arial-BoldMT-44"/>
    </g>
   </g>
   <g id="legend_1">
    <g id="text_13">
     <!-- $\Delta R$ -->
     <g transform="translate(296.139688 35.17875)scale(0.12 -0.12)">
      <defs>
       <path id="DejaVuSans-394" d="M 2188 4044 
L 906 525 
L 3472 525 
L 2188 4044 
z
M 50 0 
L 1831 4666 
L 2547 4666 
L 4325 0 
L 50 0 
z
" transform="scale(0.015625)"/>
       <path id="DejaVuSans-Oblique-52" d="M 1613 4147 
L 1294 2491 
L 2106 2491 
Q 2584 2491 2879 2755 
Q 3175 3019 3175 3444 
Q 3175 3784 2976 3965 
Q 2778 4147 2406 4147 
L 1613 4147 
z
M 2772 2241 
Q 2972 2194 3105 2009 
Q 3238 1825 3413 1275 
L 3809 0 
L 3144 0 
L 2778 1197 
Q 2638 1659 2453 1815 
Q 2269 1972 1888 1972 
L 1191 1972 
L 806 0 
L 172 0 
L 1081 4666 
L 2503 4666 
Q 3150 4666 3495 4373 
Q 3841 4081 3841 3531 
Q 3841 3044 3547 2687 
Q 3253 2331 2772 2241 
z
" transform="scale(0.015625)"/>
      </defs>
      <use xlink:href="#DejaVuSans-394" transform="translate(0 0.09375)"/>
      <use xlink:href="#DejaVuSans-Oblique-52" transform="translate(68.408203 0.09375)"/>
     </g>
    </g>
    <g id="patch_5">
     <path d="M 277.281875 52.153125 
L 301.281875 52.153125 
L 301.281875 43.753125 
L 277.281875 43.753125 
z
" style="fill: #440154"/>
    </g>
    <g id="text_14">
     <!-- -3.0 -->
     <g transform="translate(310.881875 52.153125)scale(0.12 -0.12)">
      <defs>
       <path id="ArialMT-2d" d="M 203 1375 
L 203 1941 
L 1931 1941 
L 1931 1375 
L 203 1375 
z
" transform="scale(0.015625)"/>
       <path id="ArialMT-33" d="M 269 1209 
L 831 1284 
Q 928 806 1161 595 
Q 1394 384 1728 384 
Q 2125 384 2398 659 
Q 2672 934 2672 1341 
Q 2672 1728 2419 1979 
Q 2166 2231 1775 2231 
Q 1616 2231 1378 2169 
L 1441 2663 
Q 1497 2656 1531 2656 
Q 1891 2656 2178 2843 
Q 2466 3031 2466 3422 
Q 2466 3731 2256 3934 
Q 2047 4138 1716 4138 
Q 1388 4138 1169 3931 
Q 950 3725 888 3313 
L 325 3413 
Q 428 3978 793 4289 
Q 1159 4600 1703 4600 
Q 2078 4600 2393 4439 
Q 2709 4278 2876 4000 
Q 3044 3722 3044 3409 
Q 3044 3113 2884 2869 
Q 2725 2625 2413 2481 
Q 2819 2388 3044 2092 
Q 3269 1797 3269 1353 
Q 3269 753 2831 336 
Q 2394 -81 1725 -81 
Q 1122 -81 723 278 
Q 325 638 269 1209 
z
" transform="scale(0.015625)"/>
       <path id="ArialMT-2e" d="M 581 0 
L 581 641 
L 1222 641 
L 1222 0 
L 581 0 
z
" transform="scale(0.015625)"/>
      </defs>
      <use xlink:href="#ArialMT-2d"/>
      <use xlink:href="#ArialMT-33" x="33.300781"/>
      <use xlink:href="#ArialMT-2e" x="88.916016"/>
      <use xlink:href="#ArialMT-30" x="116.699219"/>
     </g>
    </g>
    <g id="patch_6">
     <path d="M 277.281875 69.1275 
L 301.281875 69.1275 
L 301.281875 60.7275 
L 277.281875 60.7275 
z
" style="fill: #31688e"/>
    </g>
    <g id="text_15">
     <!-- -1.0 -->
     <g transform="translate(310.881875 69.1275)scale(0.12 -0.12)">
      <use xlink:href="#ArialMT-2d"/>
      <use xlink:href="#ArialMT-31" x="33.300781"/>
      <use xlink:href="#ArialMT-2e" x="88.916016"/>
      <use xlink:href="#ArialMT-30" x="116.699219"/>
     </g>
    </g>
    <g id="patch_7">
     <path d="M 277.281875 86.101875 
L 301.281875 86.101875 
L 301.281875 77.701875 
L 277.281875 77.701875 
z
" style="fill: #21918c"/>
    </g>
    <g id="text_16">
     <!-- 0.0 -->
     <g transform="translate(310.881875 86.101875)scale(0.12 -0.12)">
      <use xlink:href="#ArialMT-30"/>
      <use xlink:href="#ArialMT-2e" x="55.615234"/>
      <use xlink:href="#ArialMT-30" x="83.398438"/>
     </g>
    </g>
    <g id="patch_8">
     <path d="M 277.281875 103.07625 
L 301.281875 103.07625 
L 301.281875 94.67625 
L 277.281875 94.67625 
z
" style="fill: #35b779"/>
    </g>
    <g id="text_17">
     <!-- 1.0 -->
     <g transform="translate(310.881875 103.07625)scale(0.12 -0.12)">
      <use xlink:href="#ArialMT-31"/>
      <use xlink:href="#ArialMT-2e" x="55.615234"/>
      <use xlink:href="#ArialMT-30" x="83.398438"/>
     </g>
    </g>
    <g id="patch_9">
     <path d="M 277.281875 120.050625 
L 301.281875 120.050625 
L 301.281875 111.650625 
L 277.281875 111.650625 
z
" style="fill: #fde725"/>
    </g>
    <g id="text_18">
     <!-- 3.0 -->
     <g transform="translate(310.881875 120.050625)scale(0.12 -0.12)">
      <use xlink:href="#ArialMT-33"/>
      <use xlink:href="#ArialMT-2e" x="55.615234"/>
      <use xlink:href="#ArialMT-30" x="83.398438"/>
     </g>
    </g>
   </g>
  </g>
 </g>
 <defs>
  <clipPath id="pf8453d3644">
   <rect x="43.281875" y="15.789375" width="223.2" height="163.08"/>
  </clipPath>
 </defs>
</svg>
