<?xml version="1.0" encoding="utf-8" standalone="no"?>
<!DOCTYPE svg PUBLIC "-//W3C//DTD SVG 1.1//EN"
  "http://www.w3.org/Graphics/SVG/1.1/DTD/svg11.dtd">
<svg xmlns:xlink="http://www.w3.org/1999/xlink" width="343.5575pt" height="219.44375pt" viewBox="0 0 343.5575 219.44375" xmlns="http://www.w3.org/2000/svg" version="1.1">
 <metadata>
  <rdf:RDF xmlns:dc="http://purl.org/dc/elements/1.1/" xmlns:cc="http://creativecommons.org/ns#" xmlns:rdf="http://www.w3.org/1999/02/22-rdf-syntax-ns#">
   <cc:Work>
    <dc:type rdf:resource="http://purl.org/dc/dcmitype/StillImage"/>
    <dc:date>2023-02-13T15:08:06.482756</dc:date>
    <dc:format>image/svg+xml</dc:format>
    <dc:creator>
     <cc:Agent>
      <dc:title>Matplotlib v3.5.1, https://matplotlib.org/</dc:title>
     </cc:Agent>
    </dc:creator>
   </cc:Work>
  </rdf:RDF>
 </metadata>
 <defs>
  <style type="text/css">*{stroke-linejoin: round; stroke-linecap: butt}</style>
 </defs>
 <g id="figure_1">
  <g id="patch_1">
   <path d="M 0 219.44375 
L 343.5575 219.44375 
L 343.5575 0 
L 0 0 
L 0 219.44375 
z
" style="fill: none"/>
  </g>
  <g id="axes_1">
   <g id="patch_2">
    <path d="M 43.281875 178.869375 
L 266.481875 178.869375 
L 266.481875 15.789375 
L 43.281875 15.789375 
z
" style="fill: #ffffff"/>
   </g>
   <g id="matplotlib.axis_1">
    <g id="xtick_1">
     <g id="line2d_1">
      <defs>
       <path id="me4b2871537" d="M 0 0 
L 0 3.5 
" style="stroke: #000000; stroke-width: 0.8"/>
      </defs>
      <g>
       <use xlink:href="#me4b2871537" x="53.020698" y="178.869375" style="stroke: #000000; stroke-width: 0.8"/>
      </g>
     </g>
     <g id="text_1">
      <!-- 0 -->
      <g transform="translate(49.684136 194.45875)scale(0.12 -0.12)">
       <defs>
        <path id="ArialMT-30" d="M 266 2259 
Q 266 3072 433 3567 
Q 600 4063 929 4331 
Q 1259 4600 1759 4600 
Q 2128 4600 2406 4451 
Q 2684 4303 2865 4023 
Q 3047 3744 3150 3342 
Q 3253 2941 3253 2259 
Q 3253 1453 3087 958 
Q 2922 463 2592 192 
Q 2263 -78 1759 -78 
Q 1097 -78 719 397 
Q 266 969 266 2259 
z
M 844 2259 
Q 844 1131 1108 757 
Q 1372 384 1759 384 
Q 2147 384 2411 759 
Q 2675 1134 2675 2259 
Q 2675 3391 2411 3762 
Q 2147 4134 1753 4134 
Q 1366 4134 1134 3806 
Q 844 3388 844 2259 
z
" transform="scale(0.015625)"/>
       </defs>
       <use xlink:href="#ArialMT-30"/>
      </g>
     </g>
    </g>
    <g id="xtick_2">
     <g id="line2d_2">
      <g>
       <use xlink:href="#me4b2871537" x="93.683843" y="178.869375" style="stroke: #000000; stroke-width: 0.8"/>
      </g>
     </g>
     <g id="text_2">
      <!-- 2 -->
      <g transform="translate(90.34728 194.45875)scale(0.12 -0.12)">
       <defs>
        <path id="ArialMT-32" d="M 3222 541 
L 3222 0 
L 194 0 
Q 188 203 259 391 
Q 375 700 629 1000 
Q 884 1300 1366 1694 
Q 2113 2306 2375 2664 
Q 2638 3022 2638 3341 
Q 2638 3675 2398 3904 
Q 2159 4134 1775 4134 
Q 1369 4134 1125 3890 
Q 881 3647 878 3216 
L 300 3275 
Q 359 3922 746 4261 
Q 1134 4600 1788 4600 
Q 2447 4600 2831 4234 
Q 3216 3869 3216 3328 
Q 3216 3053 3103 2787 
Q 2991 2522 2730 2228 
Q 2469 1934 1863 1422 
Q 1356 997 1212 845 
Q 1069 694 975 541 
L 3222 541 
z
" transform="scale(0.015625)"/>
       </defs>
       <use xlink:href="#ArialMT-32"/>
      </g>
     </g>
    </g>
    <g id="xtick_3">
     <g id="line2d_3">
      <g>
       <use xlink:href="#me4b2871537" x="134.346987" y="178.869375" style="stroke: #000000; stroke-width: 0.8"/>
      </g>
     </g>
     <g id="text_3">
      <!-- 4 -->
      <g transform="translate(131.010425 194.45875)scale(0.12 -0.12)">
       <defs>
        <path id="ArialMT-34" d="M 2069 0 
L 2069 1097 
L 81 1097 
L 81 1613 
L 2172 4581 
L 2631 4581 
L 2631 1613 
L 3250 1613 
L 3250 1097 
L 2631 1097 
L 2631 0 
L 2069 0 
z
M 2069 1613 
L 2069 3678 
L 634 1613 
L 2069 1613 
z
" transform="scale(0.015625)"/>
       </defs>
       <use xlink:href="#ArialMT-34"/>
      </g>
     </g>
    </g>
    <g id="xtick_4">
     <g id="line2d_4">
      <g>
       <use xlink:href="#me4b2871537" x="175.010132" y="178.869375" style="stroke: #000000; stroke-width: 0.8"/>
      </g>
     </g>
     <g id="text_4">
      <!-- 6 -->
      <g transform="translate(171.673569 194.45875)scale(0.12 -0.12)">
       <defs>
        <path id="ArialMT-36" d="M 3184 3459 
L 2625 3416 
Q 2550 3747 2413 3897 
Q 2184 4138 1850 4138 
Q 1581 4138 1378 3988 
Q 1113 3794 959 3422 
Q 806 3050 800 2363 
Q 1003 2672 1297 2822 
Q 1591 2972 1913 2972 
Q 2475 2972 2870 2558 
Q 3266 2144 3266 1488 
Q 3266 1056 3080 686 
Q 2894 316 2569 119 
Q 2244 -78 1831 -78 
Q 1128 -78 684 439 
Q 241 956 241 2144 
Q 241 3472 731 4075 
Q 1159 4600 1884 4600 
Q 2425 4600 2770 4297 
Q 3116 3994 3184 3459 
z
M 888 1484 
Q 888 1194 1011 928 
Q 1134 663 1356 523 
Q 1578 384 1822 384 
Q 2178 384 2434 671 
Q 2691 959 2691 1453 
Q 2691 1928 2437 2201 
Q 2184 2475 1800 2475 
Q 1419 2475 1153 2201 
Q 888 1928 888 1484 
z
" transform="scale(0.015625)"/>
       </defs>
       <use xlink:href="#ArialMT-36"/>
      </g>
     </g>
    </g>
    <g id="xtick_5">
     <g id="line2d_5">
      <g>
       <use xlink:href="#me4b2871537" x="215.673276" y="178.869375" style="stroke: #000000; stroke-width: 0.8"/>
      </g>
     </g>
     <g id="text_5">
      <!-- 8 -->
      <g transform="translate(212.336713 194.45875)scale(0.12 -0.12)">
       <defs>
        <path id="ArialMT-38" d="M 1131 2484 
Q 781 2613 612 2850 
Q 444 3088 444 3419 
Q 444 3919 803 4259 
Q 1163 4600 1759 4600 
Q 2359 4600 2725 4251 
Q 3091 3903 3091 3403 
Q 3091 3084 2923 2848 
Q 2756 2613 2416 2484 
Q 2838 2347 3058 2040 
Q 3278 1734 3278 1309 
Q 3278 722 2862 322 
Q 2447 -78 1769 -78 
Q 1091 -78 675 323 
Q 259 725 259 1325 
Q 259 1772 486 2073 
Q 713 2375 1131 2484 
z
M 1019 3438 
Q 1019 3113 1228 2906 
Q 1438 2700 1772 2700 
Q 2097 2700 2305 2904 
Q 2513 3109 2513 3406 
Q 2513 3716 2298 3927 
Q 2084 4138 1766 4138 
Q 1444 4138 1231 3931 
Q 1019 3725 1019 3438 
z
M 838 1322 
Q 838 1081 952 856 
Q 1066 631 1291 507 
Q 1516 384 1775 384 
Q 2178 384 2440 643 
Q 2703 903 2703 1303 
Q 2703 1709 2433 1975 
Q 2163 2241 1756 2241 
Q 1359 2241 1098 1978 
Q 838 1716 838 1322 
z
" transform="scale(0.015625)"/>
       </defs>
       <use xlink:href="#ArialMT-38"/>
      </g>
     </g>
    </g>
    <g id="xtick_6">
     <g id="line2d_6">
      <g>
       <use xlink:href="#me4b2871537" x="256.33642" y="178.869375" style="stroke: #000000; stroke-width: 0.8"/>
      </g>
     </g>
     <g id="text_6">
      <!-- 10 -->
      <g transform="translate(249.663295 194.45875)scale(0.12 -0.12)">
       <defs>
        <path id="ArialMT-31" d="M 2384 0 
L 1822 0 
L 1822 3584 
Q 1619 3391 1289 3197 
Q 959 3003 697 2906 
L 697 3450 
Q 1169 3672 1522 3987 
Q 1875 4303 2022 4600 
L 2384 4600 
L 2384 0 
z
" transform="scale(0.015625)"/>
       </defs>
       <use xlink:href="#ArialMT-31"/>
       <use xlink:href="#ArialMT-30" x="55.615234"/>
      </g>
     </g>
    </g>
    <g id="text_7">
     <!-- Time($t$) -->
     <g transform="translate(135.141875 209.60375)scale(0.12 -0.12)">
      <defs>
       <path id="ArialMT-54" d="M 1659 0 
L 1659 4041 
L 150 4041 
L 150 4581 
L 3781 4581 
L 3781 4041 
L 2266 4041 
L 2266 0 
L 1659 0 
z
" transform="scale(0.015625)"/>
       <path id="ArialMT-69" d="M 425 3934 
L 425 4581 
L 988 4581 
L 988 3934 
L 425 3934 
z
M 425 0 
L 425 3319 
L 988 3319 
L 988 0 
L 425 0 
z
" transform="scale(0.015625)"/>
       <path id="ArialMT-6d" d="M 422 0 
L 422 3319 
L 925 3319 
L 925 2853 
Q 1081 3097 1340 3245 
Q 1600 3394 1931 3394 
Q 2300 3394 2536 3241 
Q 2772 3088 2869 2813 
Q 3263 3394 3894 3394 
Q 4388 3394 4653 3120 
Q 4919 2847 4919 2278 
L 4919 0 
L 4359 0 
L 4359 2091 
Q 4359 2428 4304 2576 
Q 4250 2725 4106 2815 
Q 3963 2906 3769 2906 
Q 3419 2906 3187 2673 
Q 2956 2441 2956 1928 
L 2956 0 
L 2394 0 
L 2394 2156 
Q 2394 2531 2256 2718 
Q 2119 2906 1806 2906 
Q 1569 2906 1367 2781 
Q 1166 2656 1075 2415 
Q 984 2175 984 1722 
L 984 0 
L 422 0 
z
" transform="scale(0.015625)"/>
       <path id="ArialMT-65" d="M 2694 1069 
L 3275 997 
Q 3138 488 2766 206 
Q 2394 -75 1816 -75 
Q 1088 -75 661 373 
Q 234 822 234 1631 
Q 234 2469 665 2931 
Q 1097 3394 1784 3394 
Q 2450 3394 2872 2941 
Q 3294 2488 3294 1666 
Q 3294 1616 3291 1516 
L 816 1516 
Q 847 969 1125 678 
Q 1403 388 1819 388 
Q 2128 388 2347 550 
Q 2566 713 2694 1069 
z
M 847 1978 
L 2700 1978 
Q 2663 2397 2488 2606 
Q 2219 2931 1791 2931 
Q 1403 2931 1139 2672 
Q 875 2413 847 1978 
z
" transform="scale(0.015625)"/>
       <path id="ArialMT-28" d="M 1497 -1347 
Q 1031 -759 709 28 
Q 388 816 388 1659 
Q 388 2403 628 3084 
Q 909 3875 1497 4659 
L 1900 4659 
Q 1522 4009 1400 3731 
Q 1209 3300 1100 2831 
Q 966 2247 966 1656 
Q 966 153 1900 -1347 
L 1497 -1347 
z
" transform="scale(0.015625)"/>
       <path id="DejaVuSans-Oblique-74" d="M 2706 3500 
L 2619 3053 
L 1472 3053 
L 1100 1153 
Q 1081 1047 1072 975 
Q 1063 903 1063 863 
Q 1063 663 1183 572 
Q 1303 481 1569 481 
L 2150 481 
L 2053 0 
L 1503 0 
Q 991 0 739 200 
Q 488 400 488 806 
Q 488 878 497 964 
Q 506 1050 525 1153 
L 897 3053 
L 409 3053 
L 500 3500 
L 978 3500 
L 1172 4494 
L 1747 4494 
L 1556 3500 
L 2706 3500 
z
" transform="scale(0.015625)"/>
       <path id="ArialMT-29" d="M 791 -1347 
L 388 -1347 
Q 1322 153 1322 1656 
Q 1322 2244 1188 2822 
Q 1081 3291 891 3722 
Q 769 4003 388 4659 
L 791 4659 
Q 1378 3875 1659 3084 
Q 1900 2403 1900 1659 
Q 1900 816 1576 28 
Q 1253 -759 791 -1347 
z
" transform="scale(0.015625)"/>
      </defs>
      <use xlink:href="#ArialMT-54" transform="translate(0 0.203125)"/>
      <use xlink:href="#ArialMT-69" transform="translate(61.083984 0.203125)"/>
      <use xlink:href="#ArialMT-6d" transform="translate(83.300781 0.203125)"/>
      <use xlink:href="#ArialMT-65" transform="translate(166.601562 0.203125)"/>
      <use xlink:href="#ArialMT-28" transform="translate(222.216797 0.203125)"/>
      <use xlink:href="#DejaVuSans-Oblique-74" transform="translate(255.517578 0.203125)"/>
      <use xlink:href="#ArialMT-29" transform="translate(294.726562 0.203125)"/>
     </g>
    </g>
   </g>
   <g id="matplotlib.axis_2">
    <g id="ytick_1">
     <g id="line2d_7">
      <defs>
       <path id="mce0d8917e0" d="M 0 0 
L -3.5 0 
" style="stroke: #000000; stroke-width: 0.8"/>
      </defs>
      <g>
       <use xlink:href="#mce0d8917e0" x="43.281875" y="144.299111" style="stroke: #000000; stroke-width: 0.8"/>
      </g>
     </g>
     <g id="text_8">
      <!-- −2 -->
      <g transform="translate(22.6 148.593798)scale(0.12 -0.12)">
       <defs>
        <path id="ArialMT-2212" d="M 3381 1997 
L 356 1997 
L 356 2522 
L 3381 2522 
L 3381 1997 
z
" transform="scale(0.015625)"/>
       </defs>
       <use xlink:href="#ArialMT-2212"/>
       <use xlink:href="#ArialMT-32" x="58.398438"/>
      </g>
     </g>
    </g>
    <g id="ytick_2">
     <g id="line2d_8">
      <g>
       <use xlink:href="#mce0d8917e0" x="43.281875" y="96.992433" style="stroke: #000000; stroke-width: 0.8"/>
      </g>
     </g>
     <g id="text_9">
      <!-- 0 -->
      <g transform="translate(29.60875 101.28712)scale(0.12 -0.12)">
       <use xlink:href="#ArialMT-30"/>
      </g>
     </g>
    </g>
    <g id="ytick_3">
     <g id="line2d_9">
      <g>
       <use xlink:href="#mce0d8917e0" x="43.281875" y="49.685755" style="stroke: #000000; stroke-width: 0.8"/>
      </g>
     </g>
     <g id="text_10">
      <!-- 2 -->
      <g transform="translate(29.60875 53.980443)scale(0.12 -0.12)">
       <use xlink:href="#ArialMT-32"/>
      </g>
     </g>
    </g>
    <g id="text_11">
     <!-- Evidence($x$) -->
     <g transform="translate(15.96 129.609375)rotate(-90)scale(0.12 -0.12)">
      <defs>
       <path id="ArialMT-45" d="M 506 0 
L 506 4581 
L 3819 4581 
L 3819 4041 
L 1113 4041 
L 1113 2638 
L 3647 2638 
L 3647 2100 
L 1113 2100 
L 1113 541 
L 3925 541 
L 3925 0 
L 506 0 
z
" transform="scale(0.015625)"/>
       <path id="ArialMT-76" d="M 1344 0 
L 81 3319 
L 675 3319 
L 1388 1331 
Q 1503 1009 1600 663 
Q 1675 925 1809 1294 
L 2547 3319 
L 3125 3319 
L 1869 0 
L 1344 0 
z
" transform="scale(0.015625)"/>
       <path id="ArialMT-64" d="M 2575 0 
L 2575 419 
Q 2259 -75 1647 -75 
Q 1250 -75 917 144 
Q 584 363 401 755 
Q 219 1147 219 1656 
Q 219 2153 384 2558 
Q 550 2963 881 3178 
Q 1213 3394 1622 3394 
Q 1922 3394 2156 3267 
Q 2391 3141 2538 2938 
L 2538 4581 
L 3097 4581 
L 3097 0 
L 2575 0 
z
M 797 1656 
Q 797 1019 1065 703 
Q 1334 388 1700 388 
Q 2069 388 2326 689 
Q 2584 991 2584 1609 
Q 2584 2291 2321 2609 
Q 2059 2928 1675 2928 
Q 1300 2928 1048 2622 
Q 797 2316 797 1656 
z
" transform="scale(0.015625)"/>
       <path id="ArialMT-6e" d="M 422 0 
L 422 3319 
L 928 3319 
L 928 2847 
Q 1294 3394 1984 3394 
Q 2284 3394 2536 3286 
Q 2788 3178 2913 3003 
Q 3038 2828 3088 2588 
Q 3119 2431 3119 2041 
L 3119 0 
L 2556 0 
L 2556 2019 
Q 2556 2363 2490 2533 
Q 2425 2703 2258 2804 
Q 2091 2906 1866 2906 
Q 1506 2906 1245 2678 
Q 984 2450 984 1813 
L 984 0 
L 422 0 
z
" transform="scale(0.015625)"/>
       <path id="ArialMT-63" d="M 2588 1216 
L 3141 1144 
Q 3050 572 2676 248 
Q 2303 -75 1759 -75 
Q 1078 -75 664 370 
Q 250 816 250 1647 
Q 250 2184 428 2587 
Q 606 2991 970 3192 
Q 1334 3394 1763 3394 
Q 2303 3394 2647 3120 
Q 2991 2847 3088 2344 
L 2541 2259 
Q 2463 2594 2264 2762 
Q 2066 2931 1784 2931 
Q 1359 2931 1093 2626 
Q 828 2322 828 1663 
Q 828 994 1084 691 
Q 1341 388 1753 388 
Q 2084 388 2306 591 
Q 2528 794 2588 1216 
z
" transform="scale(0.015625)"/>
       <path id="DejaVuSans-Oblique-78" d="M 3841 3500 
L 2234 1784 
L 3219 0 
L 2559 0 
L 1819 1388 
L 531 0 
L -166 0 
L 1556 1844 
L 641 3500 
L 1300 3500 
L 1972 2234 
L 3144 3500 
L 3841 3500 
z
" transform="scale(0.015625)"/>
      </defs>
      <use xlink:href="#ArialMT-45" transform="translate(0 0.203125)"/>
      <use xlink:href="#ArialMT-76" transform="translate(66.699219 0.203125)"/>
      <use xlink:href="#ArialMT-69" transform="translate(116.699219 0.203125)"/>
      <use xlink:href="#ArialMT-64" transform="translate(138.916016 0.203125)"/>
      <use xlink:href="#ArialMT-65" transform="translate(194.53125 0.203125)"/>
      <use xlink:href="#ArialMT-6e" transform="translate(250.146484 0.203125)"/>
      <use xlink:href="#ArialMT-63" transform="translate(305.761719 0.203125)"/>
      <use xlink:href="#ArialMT-65" transform="translate(355.761719 0.203125)"/>
      <use xlink:href="#ArialMT-28" transform="translate(411.376953 0.203125)"/>
      <use xlink:href="#DejaVuSans-Oblique-78" transform="translate(444.677734 0.203125)"/>
      <use xlink:href="#ArialMT-29" transform="translate(503.857422 0.203125)"/>
     </g>
    </g>
   </g>
   <g id="line2d_10">
    <path d="M 53.42733 69.026235 
L 56.27375 69.026235 
L 56.680381 68.35235 
L 59.933433 68.35235 
L 60.340064 67.678466 
L 63.593116 67.678466 
L 63.999747 67.004582 
L 67.65943 67.004582 
L 68.066062 66.330697 
L 71.725745 66.330697 
L 72.132376 65.656813 
L 76.605322 65.656813 
L 77.011953 64.982929 
L 81.484899 64.982929 
L 81.891531 64.309044 
L 86.771108 64.309044 
L 87.177739 63.63516 
L 92.057317 63.63516 
L 92.463948 62.961276 
L 97.750157 62.961276 
L 98.156788 62.287392 
L 103.442997 62.287392 
L 103.849629 61.613507 
L 109.135837 61.613507 
L 109.542469 60.939623 
L 114.828678 60.939623 
L 115.235309 60.265739 
L 120.114886 60.265739 
L 120.521518 59.591854 
L 125.807727 59.591854 
L 126.214358 58.91797 
L 131.093935 58.91797 
L 131.500567 58.244086 
L 136.786776 58.244086 
L 137.193407 57.570201 
L 142.072984 57.570201 
L 142.479616 56.896317 
L 147.359193 56.896317 
L 147.765825 56.222433 
L 152.645402 56.222433 
L 153.052033 55.548549 
L 157.931611 55.548549 
L 158.338242 54.874664 
L 163.624451 54.874664 
L 164.031083 54.20078 
L 168.91066 54.20078 
L 169.317291 53.526896 
L 174.196869 53.526896 
L 174.6035 52.853011 
L 179.483077 52.853011 
L 179.889709 52.179127 
L 184.362655 52.179127 
L 184.769286 51.505243 
L 189.648864 51.505243 
L 190.055495 50.831358 
L 194.935072 50.831358 
L 195.341704 50.157474 
L 200.221281 50.157474 
L 200.627913 49.48359 
L 205.50749 49.48359 
L 205.914121 48.809706 
L 210.793699 48.809706 
L 211.20033 48.135821 
L 216.079907 48.135821 
L 216.486539 47.461937 
L 221.366116 47.461937 
L 221.772748 46.788053 
L 226.652325 46.788053 
L 227.058956 46.114168 
L 231.938534 46.114168 
L 232.345165 45.440284 
L 237.224743 45.440284 
L 237.631374 44.7664 
L 242.510951 44.7664 
L 242.917583 44.092515 
L 247.79716 44.092515 
L 248.203792 43.418631 
L 255.116526 43.418631 
L 255.929789 44.7664 
L 256.33642 44.7664 
L 256.33642 44.7664 
" clip-path="url(#p80df3967d7)" style="fill: none; stroke-dasharray: 5.55,2.4; stroke-dashoffset: 0; stroke: #440154; stroke-width: 1.5"/>
   </g>
   <g id="line2d_11">
    <path d="M 53.42733 125.632515 
L 56.27375 125.632515 
L 56.680381 126.3064 
L 59.933433 126.3064 
L 60.340064 126.980284 
L 63.593116 126.980284 
L 63.999747 127.654168 
L 67.65943 127.654168 
L 68.066062 128.328053 
L 71.725745 128.328053 
L 72.132376 129.001937 
L 76.605322 129.001937 
L 77.011953 129.675821 
L 81.484899 129.675821 
L 81.891531 130.349706 
L 86.771108 130.349706 
L 87.177739 131.02359 
L 92.057317 131.02359 
L 92.463948 131.697474 
L 97.750157 131.697474 
L 98.156788 132.371358 
L 103.442997 132.371358 
L 103.849629 133.045243 
L 109.135837 133.045243 
L 109.542469 133.719127 
L 114.828678 133.719127 
L 115.235309 134.393011 
L 120.114886 134.393011 
L 120.521518 135.066896 
L 125.807727 135.066896 
L 126.214358 135.74078 
L 131.093935 135.74078 
L 131.500567 136.414664 
L 136.786776 136.414664 
L 137.193407 137.088549 
L 142.072984 137.088549 
L 142.479616 137.762433 
L 147.359193 137.762433 
L 147.765825 138.436317 
L 152.645402 138.436317 
L 153.052033 139.110201 
L 157.931611 139.110201 
L 158.338242 139.784086 
L 163.624451 139.784086 
L 164.031083 140.45797 
L 168.91066 140.45797 
L 169.317291 141.131854 
L 174.196869 141.131854 
L 174.6035 141.805739 
L 179.483077 141.805739 
L 179.889709 142.479623 
L 184.362655 142.479623 
L 184.769286 143.153507 
L 189.648864 143.153507 
L 190.055495 143.827392 
L 194.935072 143.827392 
L 195.341704 144.501276 
L 200.221281 144.501276 
L 200.627913 145.17516 
L 205.50749 145.17516 
L 205.914121 145.849044 
L 210.793699 145.849044 
L 211.20033 146.522929 
L 216.079907 146.522929 
L 216.486539 147.196813 
L 221.366116 147.196813 
L 221.772748 147.870697 
L 226.652325 147.870697 
L 227.058956 148.544582 
L 231.938534 148.544582 
L 232.345165 149.218466 
L 237.224743 149.218466 
L 237.631374 149.89235 
L 242.510951 149.89235 
L 242.917583 150.566235 
L 247.79716 150.566235 
L 248.203792 151.240119 
L 255.116526 151.240119 
L 255.929789 149.89235 
L 256.33642 149.89235 
L 256.33642 149.89235 
" clip-path="url(#p80df3967d7)" style="fill: none; stroke-dasharray: 5.55,2.4; stroke-dashoffset: 0; stroke: #440154; stroke-width: 1.5"/>
   </g>
   <g id="line2d_12">
    <path d="M 59.933433 97.329375 
L 60.746696 98.677144 
L 61.153327 98.677144 
L 61.559958 99.351028 
L 62.373221 99.351028 
L 62.779853 100.024912 
L 63.593116 100.024912 
L 63.999747 100.698796 
L 64.81301 100.698796 
L 65.219641 101.372681 
L 66.439536 101.372681 
L 66.846167 102.046565 
L 68.066062 102.046565 
L 68.472693 102.720449 
L 69.692587 102.720449 
L 70.099219 103.394334 
L 71.319113 103.394334 
L 71.725745 104.068218 
L 72.945639 104.068218 
L 73.35227 104.742102 
L 74.978796 104.742102 
L 75.385428 105.415987 
L 76.605322 105.415987 
L 77.011953 106.089871 
L 78.638479 106.089871 
L 79.045111 106.763755 
L 80.671636 106.763755 
L 81.078268 107.437639 
L 82.704794 107.437639 
L 83.111425 108.111524 
L 85.144582 108.111524 
L 85.551214 108.785408 
L 87.177739 108.785408 
L 87.584371 109.459292 
L 89.617528 109.459292 
L 90.02416 110.133177 
L 91.650685 110.133177 
L 92.057317 110.807061 
L 94.090474 110.807061 
L 94.497105 111.480945 
L 96.936894 111.480945 
L 97.343526 112.15483 
L 99.376683 112.15483 
L 99.783314 112.828714 
L 102.223103 112.828714 
L 102.629734 113.502598 
L 104.662892 113.502598 
L 105.069523 114.176482 
L 107.509312 114.176482 
L 107.915943 114.850367 
L 110.355732 114.850367 
L 110.762363 115.524251 
L 113.202152 115.524251 
L 113.608783 116.198135 
L 116.048572 116.198135 
L 116.455203 116.87202 
L 118.894992 116.87202 
L 119.301624 117.545904 
L 122.148044 117.545904 
L 122.554675 118.219788 
L 124.994464 118.219788 
L 125.401095 118.893673 
L 128.247515 118.893673 
L 128.654147 119.567557 
L 131.093935 119.567557 
L 131.500567 120.241441 
L 134.346987 120.241441 
L 134.753618 120.915325 
L 137.600039 120.915325 
L 138.00667 121.58921 
L 140.85309 121.58921 
L 141.259722 122.263094 
L 144.106142 122.263094 
L 144.512773 122.936978 
L 147.359193 122.936978 
L 147.765825 123.610863 
L 150.612245 123.610863 
L 151.018876 124.284747 
L 153.865296 124.284747 
L 154.271928 124.958631 
L 157.524979 124.958631 
L 157.931611 125.632515 
L 160.778031 125.632515 
L 161.184662 126.3064 
L 164.437714 126.3064 
L 164.844345 126.980284 
L 167.690766 126.980284 
L 168.097397 127.654168 
L 171.350449 127.654168 
L 171.75708 128.328053 
L 175.010132 128.328053 
L 175.416763 129.001937 
L 178.263183 129.001937 
L 178.669815 129.675821 
L 181.922866 129.675821 
L 182.329498 130.349706 
L 185.582549 130.349706 
L 185.989181 131.02359 
L 189.242232 131.02359 
L 189.648864 131.697474 
L 192.901915 131.697474 
L 193.308547 132.371358 
L 196.96823 132.371358 
L 197.374861 133.045243 
L 200.627913 133.045243 
L 201.034544 133.719127 
L 204.287596 133.719127 
L 204.694227 134.393011 
L 208.35391 134.393011 
L 208.760541 135.066896 
L 212.013593 135.066896 
L 212.420224 135.74078 
L 216.079907 135.74078 
L 216.486539 136.414664 
L 220.146222 136.414664 
L 220.552853 137.088549 
L 224.212536 137.088549 
L 224.619168 137.762433 
L 227.872219 137.762433 
L 228.278851 138.436317 
L 231.938534 138.436317 
L 232.345165 139.110201 
L 236.004848 139.110201 
L 236.41148 139.784086 
L 240.071163 139.784086 
L 240.477794 140.45797 
L 244.544109 140.45797 
L 244.95074 141.131854 
L 248.610423 141.131854 
L 249.017054 141.805739 
L 252.270106 141.805739 
L 252.676737 142.479623 
L 254.303263 142.479623 
L 254.709895 143.153507 
L 255.116526 143.153507 
L 255.929789 144.501276 
L 256.33642 144.501276 
L 256.33642 144.501276 
" clip-path="url(#p80df3967d7)" style="fill: none; stroke: #440154; stroke-width: 1.5; stroke-linecap: square"/>
   </g>
   <g id="line2d_13">
    <path d="M 59.933433 97.329375 
L 60.746696 95.981606 
L 61.153327 95.981606 
L 61.559958 95.307722 
L 62.373221 95.307722 
L 62.779853 94.633838 
L 63.593116 94.633838 
L 63.999747 93.959954 
L 64.81301 93.959954 
L 65.219641 93.286069 
L 66.439536 93.286069 
L 66.846167 92.612185 
L 68.066062 92.612185 
L 68.472693 91.938301 
L 69.692587 91.938301 
L 70.099219 91.264416 
L 71.319113 91.264416 
L 71.725745 90.590532 
L 72.945639 90.590532 
L 73.35227 89.916648 
L 74.978796 89.916648 
L 75.385428 89.242763 
L 76.605322 89.242763 
L 77.011953 88.568879 
L 78.638479 88.568879 
L 79.045111 87.894995 
L 80.671636 87.894995 
L 81.078268 87.221111 
L 82.704794 87.221111 
L 83.111425 86.547226 
L 85.144582 86.547226 
L 85.551214 85.873342 
L 87.177739 85.873342 
L 87.584371 85.199458 
L 89.617528 85.199458 
L 90.02416 84.525573 
L 91.650685 84.525573 
L 92.057317 83.851689 
L 94.090474 83.851689 
L 94.497105 83.177805 
L 96.936894 83.177805 
L 97.343526 82.50392 
L 99.376683 82.50392 
L 99.783314 81.830036 
L 102.223103 81.830036 
L 102.629734 81.156152 
L 104.662892 81.156152 
L 105.069523 80.482268 
L 107.509312 80.482268 
L 107.915943 79.808383 
L 110.355732 79.808383 
L 110.762363 79.134499 
L 113.202152 79.134499 
L 113.608783 78.460615 
L 116.048572 78.460615 
L 116.455203 77.78673 
L 118.894992 77.78673 
L 119.301624 77.112846 
L 122.148044 77.112846 
L 122.554675 76.438962 
L 124.994464 76.438962 
L 125.401095 75.765077 
L 128.247515 75.765077 
L 128.654147 75.091193 
L 131.093935 75.091193 
L 131.500567 74.417309 
L 134.346987 74.417309 
L 134.753618 73.743425 
L 137.600039 73.743425 
L 138.00667 73.06954 
L 140.85309 73.06954 
L 141.259722 72.395656 
L 144.106142 72.395656 
L 144.512773 71.721772 
L 147.359193 71.721772 
L 147.765825 71.047887 
L 150.612245 71.047887 
L 151.018876 70.374003 
L 153.865296 70.374003 
L 154.271928 69.700119 
L 157.524979 69.700119 
L 157.931611 69.026235 
L 160.778031 69.026235 
L 161.184662 68.35235 
L 164.437714 68.35235 
L 164.844345 67.678466 
L 167.690766 67.678466 
L 168.097397 67.004582 
L 171.350449 67.004582 
L 171.75708 66.330697 
L 175.010132 66.330697 
L 175.416763 65.656813 
L 178.263183 65.656813 
L 178.669815 64.982929 
L 181.922866 64.982929 
L 182.329498 64.309044 
L 185.582549 64.309044 
L 185.989181 63.63516 
L 189.242232 63.63516 
L 189.648864 62.961276 
L 192.901915 62.961276 
L 193.308547 62.287392 
L 196.96823 62.287392 
L 197.374861 61.613507 
L 200.627913 61.613507 
L 201.034544 60.939623 
L 204.287596 60.939623 
L 204.694227 60.265739 
L 208.35391 60.265739 
L 208.760541 59.591854 
L 212.013593 59.591854 
L 212.420224 58.91797 
L 216.079907 58.91797 
L 216.486539 58.244086 
L 220.146222 58.244086 
L 220.552853 57.570201 
L 224.212536 57.570201 
L 224.619168 56.896317 
L 227.872219 56.896317 
L 228.278851 56.222433 
L 231.938534 56.222433 
L 232.345165 55.548549 
L 236.004848 55.548549 
L 236.41148 54.874664 
L 240.071163 54.874664 
L 240.477794 54.20078 
L 244.544109 54.20078 
L 244.95074 53.526896 
L 248.610423 53.526896 
L 249.017054 52.853011 
L 252.270106 52.853011 
L 252.676737 52.179127 
L 254.303263 52.179127 
L 254.709895 51.505243 
L 255.116526 51.505243 
L 255.929789 50.157474 
L 256.33642 50.157474 
L 256.33642 50.157474 
" clip-path="url(#p80df3967d7)" style="fill: none; stroke: #440154; stroke-width: 1.5; stroke-linecap: square"/>
   </g>
   <g id="line2d_14">
    <path d="M 53.42733 70.374003 
L 55.053855 70.374003 
L 55.460487 69.700119 
L 57.087013 69.700119 
L 57.493644 69.026235 
L 59.526801 69.026235 
L 59.933433 68.35235 
L 61.96659 68.35235 
L 62.373221 67.678466 
L 64.81301 67.678466 
L 65.219641 67.004582 
L 68.066062 67.004582 
L 68.472693 66.330697 
L 71.319113 66.330697 
L 71.725745 65.656813 
L 75.385428 65.656813 
L 75.792059 64.982929 
L 79.451742 64.982929 
L 79.858373 64.309044 
L 83.518056 64.309044 
L 83.924688 63.63516 
L 87.991002 63.63516 
L 88.397634 62.961276 
L 92.463948 62.961276 
L 92.87058 62.287392 
L 96.936894 62.287392 
L 97.343526 61.613507 
L 101.003209 61.613507 
L 101.40984 60.939623 
L 105.476154 60.939623 
L 105.882786 60.265739 
L 109.9491 60.265739 
L 110.355732 59.591854 
L 114.015415 59.591854 
L 114.422046 58.91797 
L 118.081729 58.91797 
L 118.488361 58.244086 
L 122.554675 58.244086 
L 122.961307 57.570201 
L 126.62099 57.570201 
L 127.027621 56.896317 
L 130.687304 56.896317 
L 131.093935 56.222433 
L 135.16025 56.222433 
L 135.566881 55.548549 
L 139.226564 55.548549 
L 139.633196 54.874664 
L 143.292879 54.874664 
L 143.69951 54.20078 
L 147.359193 54.20078 
L 147.765825 53.526896 
L 151.425508 53.526896 
L 151.832139 52.853011 
L 155.898454 52.853011 
L 156.305085 52.179127 
L 159.964768 52.179127 
L 160.3714 51.505243 
L 164.031083 51.505243 
L 164.437714 50.831358 
L 168.097397 50.831358 
L 168.504028 50.157474 
L 172.163711 50.157474 
L 172.570343 49.48359 
L 176.230026 49.48359 
L 176.636657 48.809706 
L 180.29634 48.809706 
L 180.702972 48.135821 
L 184.769286 48.135821 
L 185.175918 47.461937 
L 188.835601 47.461937 
L 189.242232 46.788053 
L 192.901915 46.788053 
L 193.308547 46.114168 
L 196.96823 46.114168 
L 197.374861 45.440284 
L 201.441175 45.440284 
L 201.847807 44.7664 
L 205.50749 44.7664 
L 205.914121 44.092515 
L 209.573804 44.092515 
L 209.980436 43.418631 
L 213.640119 43.418631 
L 214.04675 42.744747 
L 218.113065 42.744747 
L 218.519696 42.070863 
L 222.179379 42.070863 
L 222.586011 41.396978 
L 226.652325 41.396978 
L 227.058956 40.723094 
L 230.718639 40.723094 
L 231.125271 40.04921 
L 235.191585 40.04921 
L 235.598217 39.375325 
L 239.2579 39.375325 
L 239.664531 38.701441 
L 243.730846 38.701441 
L 244.137477 38.027557 
L 247.79716 38.027557 
L 248.203792 37.353673 
L 252.676737 37.353673 
L 253.083369 36.679788 
L 254.303263 36.679788 
L 254.709895 37.353673 
L 255.523158 37.353673 
L 255.929789 38.027557 
L 256.33642 38.027557 
L 256.33642 38.027557 
" clip-path="url(#p80df3967d7)" style="fill: none; stroke-dasharray: 5.55,2.4; stroke-dashoffset: 0; stroke: #3b528b; stroke-width: 1.5"/>
   </g>
   <g id="line2d_15">
    <path d="M 53.42733 124.284747 
L 55.053855 124.284747 
L 55.460487 124.958631 
L 57.087013 124.958631 
L 57.493644 125.632515 
L 59.526801 125.632515 
L 59.933433 126.3064 
L 61.96659 126.3064 
L 62.373221 126.980284 
L 64.81301 126.980284 
L 65.219641 127.654168 
L 68.066062 127.654168 
L 68.472693 128.328053 
L 71.319113 128.328053 
L 71.725745 129.001937 
L 75.385428 129.001937 
L 75.792059 129.675821 
L 79.451742 129.675821 
L 79.858373 130.349706 
L 83.518056 130.349706 
L 83.924688 131.02359 
L 87.991002 131.02359 
L 88.397634 131.697474 
L 92.463948 131.697474 
L 92.87058 132.371358 
L 96.936894 132.371358 
L 97.343526 133.045243 
L 101.003209 133.045243 
L 101.40984 133.719127 
L 105.476154 133.719127 
L 105.882786 134.393011 
L 109.9491 134.393011 
L 110.355732 135.066896 
L 114.015415 135.066896 
L 114.422046 135.74078 
L 118.081729 135.74078 
L 118.488361 136.414664 
L 122.554675 136.414664 
L 122.961307 137.088549 
L 126.62099 137.088549 
L 127.027621 137.762433 
L 130.687304 137.762433 
L 131.093935 138.436317 
L 135.16025 138.436317 
L 135.566881 139.110201 
L 139.226564 139.110201 
L 139.633196 139.784086 
L 143.292879 139.784086 
L 143.69951 140.45797 
L 147.359193 140.45797 
L 147.765825 141.131854 
L 151.425508 141.131854 
L 151.832139 141.805739 
L 155.898454 141.805739 
L 156.305085 142.479623 
L 159.964768 142.479623 
L 160.3714 143.153507 
L 164.031083 143.153507 
L 164.437714 143.827392 
L 168.097397 143.827392 
L 168.504028 144.501276 
L 172.163711 144.501276 
L 172.570343 145.17516 
L 176.230026 145.17516 
L 176.636657 145.849044 
L 180.29634 145.849044 
L 180.702972 146.522929 
L 184.769286 146.522929 
L 185.175918 147.196813 
L 188.835601 147.196813 
L 189.242232 147.870697 
L 192.901915 147.870697 
L 193.308547 148.544582 
L 196.96823 148.544582 
L 197.374861 149.218466 
L 201.441175 149.218466 
L 201.847807 149.89235 
L 205.50749 149.89235 
L 205.914121 150.566235 
L 209.573804 150.566235 
L 209.980436 151.240119 
L 213.640119 151.240119 
L 214.04675 151.914003 
L 218.113065 151.914003 
L 218.519696 152.587887 
L 222.179379 152.587887 
L 222.586011 153.261772 
L 226.652325 153.261772 
L 227.058956 153.935656 
L 230.718639 153.935656 
L 231.125271 154.60954 
L 235.191585 154.60954 
L 235.598217 155.283425 
L 239.2579 155.283425 
L 239.664531 155.957309 
L 243.730846 155.957309 
L 244.137477 156.631193 
L 247.79716 156.631193 
L 248.203792 157.305077 
L 252.676737 157.305077 
L 253.083369 157.978962 
L 254.303263 157.978962 
L 254.709895 157.305077 
L 255.523158 157.305077 
L 255.929789 156.631193 
L 256.33642 156.631193 
L 256.33642 156.631193 
" clip-path="url(#p80df3967d7)" style="fill: none; stroke-dasharray: 5.55,2.4; stroke-dashoffset: 0; stroke: #3b528b; stroke-width: 1.5"/>
   </g>
   <g id="line2d_16">
    <path d="M 63.186484 97.329375 
L 63.999747 98.677144 
L 64.406379 98.677144 
L 64.81301 99.351028 
L 65.219641 99.351028 
L 65.626273 100.024912 
L 66.439536 100.024912 
L 66.846167 100.698796 
L 67.65943 100.698796 
L 68.066062 101.372681 
L 69.285956 101.372681 
L 69.692587 102.046565 
L 70.50585 102.046565 
L 70.912482 102.720449 
L 72.132376 102.720449 
L 72.539007 103.394334 
L 73.758902 103.394334 
L 74.165533 104.068218 
L 75.385428 104.068218 
L 75.792059 104.742102 
L 77.011953 104.742102 
L 77.418585 105.415987 
L 78.638479 105.415987 
L 79.045111 106.089871 
L 80.265005 106.089871 
L 80.671636 106.763755 
L 82.298162 106.763755 
L 82.704794 107.437639 
L 83.924688 107.437639 
L 84.331319 108.111524 
L 85.957845 108.111524 
L 86.364477 108.785408 
L 87.991002 108.785408 
L 88.397634 109.459292 
L 90.02416 109.459292 
L 90.430791 110.133177 
L 92.057317 110.133177 
L 92.463948 110.807061 
L 94.090474 110.807061 
L 94.497105 111.480945 
L 96.123631 111.480945 
L 96.530263 112.15483 
L 98.156788 112.15483 
L 98.56342 112.828714 
L 100.189946 112.828714 
L 100.596577 113.502598 
L 102.629734 113.502598 
L 103.036366 114.176482 
L 104.662892 114.176482 
L 105.069523 114.850367 
L 106.696049 114.850367 
L 107.10268 115.524251 
L 109.135837 115.524251 
L 109.542469 116.198135 
L 111.575626 116.198135 
L 111.982258 116.87202 
L 113.608783 116.87202 
L 114.015415 117.545904 
L 116.048572 117.545904 
L 116.455203 118.219788 
L 118.488361 118.219788 
L 118.894992 118.893673 
L 120.928149 118.893673 
L 121.334781 119.567557 
L 123.367938 119.567557 
L 123.774569 120.241441 
L 125.807727 120.241441 
L 126.214358 120.915325 
L 128.247515 120.915325 
L 128.654147 121.58921 
L 130.687304 121.58921 
L 131.093935 122.263094 
L 133.127093 122.263094 
L 133.533724 122.936978 
L 135.566881 122.936978 
L 135.973513 123.610863 
L 138.413301 123.610863 
L 138.819933 124.284747 
L 140.85309 124.284747 
L 141.259722 124.958631 
L 143.69951 124.958631 
L 144.106142 125.632515 
L 146.139299 125.632515 
L 146.54593 126.3064 
L 148.985719 126.3064 
L 149.39235 126.980284 
L 151.832139 126.980284 
L 152.238771 127.654168 
L 154.271928 127.654168 
L 154.678559 128.328053 
L 157.118348 128.328053 
L 157.524979 129.001937 
L 159.964768 129.001937 
L 160.3714 129.675821 
L 162.811188 129.675821 
L 163.21782 130.349706 
L 165.657608 130.349706 
L 166.06424 131.02359 
L 168.504028 131.02359 
L 168.91066 131.697474 
L 171.350449 131.697474 
L 171.75708 132.371358 
L 174.196869 132.371358 
L 174.6035 133.045243 
L 177.44992 133.045243 
L 177.856552 133.719127 
L 180.29634 133.719127 
L 180.702972 134.393011 
L 183.14276 134.393011 
L 183.549392 135.066896 
L 186.395812 135.066896 
L 186.802443 135.74078 
L 189.242232 135.74078 
L 189.648864 136.414664 
L 192.495284 136.414664 
L 192.901915 137.088549 
L 195.748335 137.088549 
L 196.154967 137.762433 
L 198.594755 137.762433 
L 199.001387 138.436317 
L 201.847807 138.436317 
L 202.254438 139.110201 
L 205.100858 139.110201 
L 205.50749 139.784086 
L 208.35391 139.784086 
L 208.760541 140.45797 
L 211.606962 140.45797 
L 212.013593 141.131854 
L 214.860013 141.131854 
L 215.266645 141.805739 
L 218.113065 141.805739 
L 218.519696 142.479623 
L 221.366116 142.479623 
L 221.772748 143.153507 
L 224.619168 143.153507 
L 225.025799 143.827392 
L 228.278851 143.827392 
L 228.685482 144.501276 
L 231.531902 144.501276 
L 231.938534 145.17516 
L 234.784954 145.17516 
L 235.191585 145.849044 
L 238.444637 145.849044 
L 238.851268 146.522929 
L 241.697688 146.522929 
L 242.10432 147.196813 
L 245.357371 147.196813 
L 245.764003 147.870697 
L 249.017054 147.870697 
L 249.423686 148.544582 
L 252.270106 148.544582 
L 252.676737 149.218466 
L 254.303263 149.218466 
L 254.709895 149.89235 
L 255.116526 149.89235 
L 255.929789 151.240119 
L 256.33642 151.240119 
L 256.33642 151.240119 
" clip-path="url(#p80df3967d7)" style="fill: none; stroke: #3b528b; stroke-width: 1.5; stroke-linecap: square"/>
   </g>
   <g id="line2d_17">
    <path d="M 63.186484 97.329375 
L 63.999747 95.981606 
L 64.406379 95.981606 
L 64.81301 95.307722 
L 65.219641 95.307722 
L 65.626273 94.633838 
L 66.439536 94.633838 
L 66.846167 93.959954 
L 67.65943 93.959954 
L 68.066062 93.286069 
L 69.285956 93.286069 
L 69.692587 92.612185 
L 70.50585 92.612185 
L 70.912482 91.938301 
L 72.132376 91.938301 
L 72.539007 91.264416 
L 73.758902 91.264416 
L 74.165533 90.590532 
L 75.385428 90.590532 
L 75.792059 89.916648 
L 77.011953 89.916648 
L 77.418585 89.242763 
L 78.638479 89.242763 
L 79.045111 88.568879 
L 80.265005 88.568879 
L 80.671636 87.894995 
L 82.298162 87.894995 
L 82.704794 87.221111 
L 83.924688 87.221111 
L 84.331319 86.547226 
L 85.957845 86.547226 
L 86.364477 85.873342 
L 87.991002 85.873342 
L 88.397634 85.199458 
L 90.02416 85.199458 
L 90.430791 84.525573 
L 92.057317 84.525573 
L 92.463948 83.851689 
L 94.090474 83.851689 
L 94.497105 83.177805 
L 96.123631 83.177805 
L 96.530263 82.50392 
L 98.156788 82.50392 
L 98.56342 81.830036 
L 100.189946 81.830036 
L 100.596577 81.156152 
L 102.629734 81.156152 
L 103.036366 80.482268 
L 104.662892 80.482268 
L 105.069523 79.808383 
L 106.696049 79.808383 
L 107.10268 79.134499 
L 109.135837 79.134499 
L 109.542469 78.460615 
L 111.575626 78.460615 
L 111.982258 77.78673 
L 113.608783 77.78673 
L 114.015415 77.112846 
L 116.048572 77.112846 
L 116.455203 76.438962 
L 118.488361 76.438962 
L 118.894992 75.765077 
L 120.928149 75.765077 
L 121.334781 75.091193 
L 123.367938 75.091193 
L 123.774569 74.417309 
L 125.807727 74.417309 
L 126.214358 73.743425 
L 128.247515 73.743425 
L 128.654147 73.06954 
L 130.687304 73.06954 
L 131.093935 72.395656 
L 133.127093 72.395656 
L 133.533724 71.721772 
L 135.566881 71.721772 
L 135.973513 71.047887 
L 138.413301 71.047887 
L 138.819933 70.374003 
L 140.85309 70.374003 
L 141.259722 69.700119 
L 143.69951 69.700119 
L 144.106142 69.026235 
L 146.139299 69.026235 
L 146.54593 68.35235 
L 148.985719 68.35235 
L 149.39235 67.678466 
L 151.832139 67.678466 
L 152.238771 67.004582 
L 154.271928 67.004582 
L 154.678559 66.330697 
L 157.118348 66.330697 
L 157.524979 65.656813 
L 159.964768 65.656813 
L 160.3714 64.982929 
L 162.811188 64.982929 
L 163.21782 64.309044 
L 165.657608 64.309044 
L 166.06424 63.63516 
L 168.504028 63.63516 
L 168.91066 62.961276 
L 171.350449 62.961276 
L 171.75708 62.287392 
L 174.196869 62.287392 
L 174.6035 61.613507 
L 177.44992 61.613507 
L 177.856552 60.939623 
L 180.29634 60.939623 
L 180.702972 60.265739 
L 183.14276 60.265739 
L 183.549392 59.591854 
L 186.395812 59.591854 
L 186.802443 58.91797 
L 189.242232 58.91797 
L 189.648864 58.244086 
L 192.495284 58.244086 
L 192.901915 57.570201 
L 195.748335 57.570201 
L 196.154967 56.896317 
L 198.594755 56.896317 
L 199.001387 56.222433 
L 201.847807 56.222433 
L 202.254438 55.548549 
L 205.100858 55.548549 
L 205.50749 54.874664 
L 208.35391 54.874664 
L 208.760541 54.20078 
L 211.606962 54.20078 
L 212.013593 53.526896 
L 214.860013 53.526896 
L 215.266645 52.853011 
L 218.113065 52.853011 
L 218.519696 52.179127 
L 221.366116 52.179127 
L 221.772748 51.505243 
L 224.619168 51.505243 
L 225.025799 50.831358 
L 228.278851 50.831358 
L 228.685482 50.157474 
L 231.531902 50.157474 
L 231.938534 49.48359 
L 234.784954 49.48359 
L 235.191585 48.809706 
L 238.444637 48.809706 
L 238.851268 48.135821 
L 241.697688 48.135821 
L 242.10432 47.461937 
L 245.357371 47.461937 
L 245.764003 46.788053 
L 249.017054 46.788053 
L 249.423686 46.114168 
L 252.270106 46.114168 
L 252.676737 45.440284 
L 254.303263 45.440284 
L 254.709895 44.7664 
L 255.116526 44.7664 
L 255.929789 43.418631 
L 256.33642 43.418631 
L 256.33642 43.418631 
" clip-path="url(#p80df3967d7)" style="fill: none; stroke: #3b528b; stroke-width: 1.5; stroke-linecap: square"/>
   </g>
   <g id="line2d_18">
    <path d="M 53.42733 71.721772 
L 54.647224 71.721772 
L 55.053855 71.047887 
L 55.867118 71.047887 
L 56.27375 70.374003 
L 57.900275 70.374003 
L 58.306907 69.700119 
L 59.526801 69.700119 
L 59.933433 69.026235 
L 61.559958 69.026235 
L 61.96659 68.35235 
L 63.593116 68.35235 
L 63.999747 67.678466 
L 66.439536 67.678466 
L 66.846167 67.004582 
L 69.285956 67.004582 
L 69.692587 66.330697 
L 72.132376 66.330697 
L 72.539007 65.656813 
L 75.792059 65.656813 
L 76.19869 64.982929 
L 79.045111 64.982929 
L 79.451742 64.309044 
L 82.704794 64.309044 
L 83.111425 63.63516 
L 86.364477 63.63516 
L 86.771108 62.961276 
L 90.02416 62.961276 
L 90.430791 62.287392 
L 93.277211 62.287392 
L 93.683843 61.613507 
L 96.936894 61.613507 
L 97.343526 60.939623 
L 100.596577 60.939623 
L 101.003209 60.265739 
L 104.25626 60.265739 
L 104.662892 59.591854 
L 107.509312 59.591854 
L 107.915943 58.91797 
L 111.168995 58.91797 
L 111.575626 58.244086 
L 114.422046 58.244086 
L 114.828678 57.570201 
L 118.081729 57.570201 
L 118.488361 56.896317 
L 121.741412 56.896317 
L 122.148044 56.222433 
L 124.994464 56.222433 
L 125.401095 55.548549 
L 128.654147 55.548549 
L 129.060778 54.874664 
L 131.907198 54.874664 
L 132.31383 54.20078 
L 135.566881 54.20078 
L 135.973513 53.526896 
L 138.819933 53.526896 
L 139.226564 52.853011 
L 142.479616 52.853011 
L 142.886247 52.179127 
L 145.732667 52.179127 
L 146.139299 51.505243 
L 149.39235 51.505243 
L 149.798982 50.831358 
L 153.052033 50.831358 
L 153.458665 50.157474 
L 156.305085 50.157474 
L 156.711717 49.48359 
L 159.964768 49.48359 
L 160.3714 48.809706 
L 163.21782 48.809706 
L 163.624451 48.135821 
L 166.877503 48.135821 
L 167.284134 47.461937 
L 170.537186 47.461937 
L 170.943817 46.788053 
L 173.790237 46.788053 
L 174.196869 46.114168 
L 177.44992 46.114168 
L 177.856552 45.440284 
L 181.109603 45.440284 
L 181.516235 44.7664 
L 184.362655 44.7664 
L 184.769286 44.092515 
L 188.022338 44.092515 
L 188.428969 43.418631 
L 191.682021 43.418631 
L 192.088652 42.744747 
L 195.341704 42.744747 
L 195.748335 42.070863 
L 199.001387 42.070863 
L 199.408018 41.396978 
L 202.254438 41.396978 
L 202.66107 40.723094 
L 205.914121 40.723094 
L 206.320753 40.04921 
L 209.573804 40.04921 
L 209.980436 39.375325 
L 213.233487 39.375325 
L 213.640119 38.701441 
L 216.89317 38.701441 
L 217.299802 38.027557 
L 220.552853 38.027557 
L 220.959485 37.353673 
L 224.212536 37.353673 
L 224.619168 36.679788 
L 227.872219 36.679788 
L 228.278851 36.005904 
L 231.531902 36.005904 
L 231.938534 35.33202 
L 235.191585 35.33202 
L 235.598217 34.658135 
L 238.851268 34.658135 
L 239.2579 33.984251 
L 242.510951 33.984251 
L 242.917583 33.310367 
L 246.577266 33.310367 
L 246.983897 32.636482 
L 250.236949 32.636482 
L 250.64358 31.962598 
L 255.523158 31.962598 
L 255.929789 32.636482 
L 256.33642 32.636482 
L 256.33642 32.636482 
" clip-path="url(#p80df3967d7)" style="fill: none; stroke-dasharray: 5.55,2.4; stroke-dashoffset: 0; stroke: #21918c; stroke-width: 1.5"/>
   </g>
   <g id="line2d_19">
    <path d="M 53.42733 122.936978 
L 54.647224 122.936978 
L 55.053855 123.610863 
L 55.867118 123.610863 
L 56.27375 124.284747 
L 57.900275 124.284747 
L 58.306907 124.958631 
L 59.526801 124.958631 
L 59.933433 125.632515 
L 61.559958 125.632515 
L 61.96659 126.3064 
L 63.593116 126.3064 
L 63.999747 126.980284 
L 66.439536 126.980284 
L 66.846167 127.654168 
L 69.285956 127.654168 
L 69.692587 128.328053 
L 72.132376 128.328053 
L 72.539007 129.001937 
L 75.792059 129.001937 
L 76.19869 129.675821 
L 79.045111 129.675821 
L 79.451742 130.349706 
L 82.704794 130.349706 
L 83.111425 131.02359 
L 86.364477 131.02359 
L 86.771108 131.697474 
L 90.02416 131.697474 
L 90.430791 132.371358 
L 93.277211 132.371358 
L 93.683843 133.045243 
L 96.936894 133.045243 
L 97.343526 133.719127 
L 100.596577 133.719127 
L 101.003209 134.393011 
L 104.25626 134.393011 
L 104.662892 135.066896 
L 107.509312 135.066896 
L 107.915943 135.74078 
L 111.168995 135.74078 
L 111.575626 136.414664 
L 114.422046 136.414664 
L 114.828678 137.088549 
L 118.081729 137.088549 
L 118.488361 137.762433 
L 121.741412 137.762433 
L 122.148044 138.436317 
L 124.994464 138.436317 
L 125.401095 139.110201 
L 128.654147 139.110201 
L 129.060778 139.784086 
L 131.907198 139.784086 
L 132.31383 140.45797 
L 135.566881 140.45797 
L 135.973513 141.131854 
L 138.819933 141.131854 
L 139.226564 141.805739 
L 142.479616 141.805739 
L 142.886247 142.479623 
L 145.732667 142.479623 
L 146.139299 143.153507 
L 149.39235 143.153507 
L 149.798982 143.827392 
L 153.052033 143.827392 
L 153.458665 144.501276 
L 156.305085 144.501276 
L 156.711717 145.17516 
L 159.964768 145.17516 
L 160.3714 145.849044 
L 163.21782 145.849044 
L 163.624451 146.522929 
L 166.877503 146.522929 
L 167.284134 147.196813 
L 170.537186 147.196813 
L 170.943817 147.870697 
L 173.790237 147.870697 
L 174.196869 148.544582 
L 177.44992 148.544582 
L 177.856552 149.218466 
L 181.109603 149.218466 
L 181.516235 149.89235 
L 184.362655 149.89235 
L 184.769286 150.566235 
L 188.022338 150.566235 
L 188.428969 151.240119 
L 191.682021 151.240119 
L 192.088652 151.914003 
L 195.341704 151.914003 
L 195.748335 152.587887 
L 199.001387 152.587887 
L 199.408018 153.261772 
L 202.254438 153.261772 
L 202.66107 153.935656 
L 205.914121 153.935656 
L 206.320753 154.60954 
L 209.573804 154.60954 
L 209.980436 155.283425 
L 213.233487 155.283425 
L 213.640119 155.957309 
L 216.89317 155.957309 
L 217.299802 156.631193 
L 220.552853 156.631193 
L 220.959485 157.305077 
L 224.212536 157.305077 
L 224.619168 157.978962 
L 227.872219 157.978962 
L 228.278851 158.652846 
L 231.531902 158.652846 
L 231.938534 159.32673 
L 235.191585 159.32673 
L 235.598217 160.000615 
L 238.851268 160.000615 
L 239.2579 160.674499 
L 242.510951 160.674499 
L 242.917583 161.348383 
L 246.577266 161.348383 
L 246.983897 162.022268 
L 250.236949 162.022268 
L 250.64358 162.696152 
L 255.523158 162.696152 
L 255.929789 162.022268 
L 256.33642 162.022268 
L 256.33642 162.022268 
" clip-path="url(#p80df3967d7)" style="fill: none; stroke-dasharray: 5.55,2.4; stroke-dashoffset: 0; stroke: #21918c; stroke-width: 1.5"/>
   </g>
   <g id="line2d_20">
    <path d="M 65.219641 97.329375 
L 66.032904 98.677144 
L 66.439536 98.677144 
L 66.846167 99.351028 
L 67.252799 99.351028 
L 67.65943 100.024912 
L 68.472693 100.024912 
L 68.879324 100.698796 
L 69.692587 100.698796 
L 70.099219 101.372681 
L 70.912482 101.372681 
L 71.319113 102.046565 
L 72.539007 102.046565 
L 72.945639 102.720449 
L 73.758902 102.720449 
L 74.165533 103.394334 
L 75.385428 103.394334 
L 75.792059 104.068218 
L 77.011953 104.068218 
L 77.418585 104.742102 
L 78.231848 104.742102 
L 78.638479 105.415987 
L 79.858373 105.415987 
L 80.265005 106.089871 
L 81.484899 106.089871 
L 81.891531 106.763755 
L 83.111425 106.763755 
L 83.518056 107.437639 
L 84.737951 107.437639 
L 85.144582 108.111524 
L 86.364477 108.111524 
L 86.771108 108.785408 
L 87.991002 108.785408 
L 88.397634 109.459292 
L 89.617528 109.459292 
L 90.02416 110.133177 
L 91.244054 110.133177 
L 91.650685 110.807061 
L 93.277211 110.807061 
L 93.683843 111.480945 
L 94.903737 111.480945 
L 95.310368 112.15483 
L 96.530263 112.15483 
L 96.936894 112.828714 
L 98.56342 112.828714 
L 98.970051 113.502598 
L 100.189946 113.502598 
L 100.596577 114.176482 
L 102.223103 114.176482 
L 102.629734 114.850367 
L 103.849629 114.850367 
L 104.25626 115.524251 
L 105.882786 115.524251 
L 106.289417 116.198135 
L 107.915943 116.198135 
L 108.322575 116.87202 
L 109.542469 116.87202 
L 109.9491 117.545904 
L 111.575626 117.545904 
L 111.982258 118.219788 
L 113.608783 118.219788 
L 114.015415 118.893673 
L 115.641941 118.893673 
L 116.048572 119.567557 
L 117.675098 119.567557 
L 118.081729 120.241441 
L 119.708255 120.241441 
L 120.114886 120.915325 
L 121.741412 120.915325 
L 122.148044 121.58921 
L 123.774569 121.58921 
L 124.181201 122.263094 
L 126.214358 122.263094 
L 126.62099 122.936978 
L 128.247515 122.936978 
L 128.654147 123.610863 
L 130.280673 123.610863 
L 130.687304 124.284747 
L 132.720461 124.284747 
L 133.127093 124.958631 
L 134.753618 124.958631 
L 135.16025 125.632515 
L 137.193407 125.632515 
L 137.600039 126.3064 
L 139.226564 126.3064 
L 139.633196 126.980284 
L 141.666353 126.980284 
L 142.072984 127.654168 
L 143.69951 127.654168 
L 144.106142 128.328053 
L 146.139299 128.328053 
L 146.54593 129.001937 
L 148.579088 129.001937 
L 148.985719 129.675821 
L 151.018876 129.675821 
L 151.425508 130.349706 
L 153.458665 130.349706 
L 153.865296 131.02359 
L 155.898454 131.02359 
L 156.305085 131.697474 
L 158.338242 131.697474 
L 158.744874 132.371358 
L 160.778031 132.371358 
L 161.184662 133.045243 
L 163.21782 133.045243 
L 163.624451 133.719127 
L 165.657608 133.719127 
L 166.06424 134.393011 
L 168.097397 134.393011 
L 168.504028 135.066896 
L 170.943817 135.066896 
L 171.350449 135.74078 
L 173.383606 135.74078 
L 173.790237 136.414664 
L 176.230026 136.414664 
L 176.636657 137.088549 
L 178.669815 137.088549 
L 179.076446 137.762433 
L 181.516235 137.762433 
L 181.922866 138.436317 
L 183.956023 138.436317 
L 184.362655 139.110201 
L 186.802443 139.110201 
L 187.209075 139.784086 
L 189.648864 139.784086 
L 190.055495 140.45797 
L 192.088652 140.45797 
L 192.495284 141.131854 
L 194.935072 141.131854 
L 195.341704 141.805739 
L 197.781492 141.805739 
L 198.188124 142.479623 
L 200.627913 142.479623 
L 201.034544 143.153507 
L 203.474333 143.153507 
L 203.880964 143.827392 
L 206.320753 143.827392 
L 206.727384 144.501276 
L 209.167173 144.501276 
L 209.573804 145.17516 
L 212.013593 145.17516 
L 212.420224 145.849044 
L 214.860013 145.849044 
L 215.266645 146.522929 
L 217.706433 146.522929 
L 218.113065 147.196813 
L 220.959485 147.196813 
L 221.366116 147.870697 
L 223.805905 147.870697 
L 224.212536 148.544582 
L 226.652325 148.544582 
L 227.058956 149.218466 
L 229.905377 149.218466 
L 230.312008 149.89235 
L 232.751797 149.89235 
L 233.158428 150.566235 
L 236.004848 150.566235 
L 236.41148 151.240119 
L 238.851268 151.240119 
L 239.2579 151.914003 
L 242.10432 151.914003 
L 242.510951 152.587887 
L 245.357371 152.587887 
L 245.764003 153.261772 
L 248.203792 153.261772 
L 248.610423 153.935656 
L 251.456843 153.935656 
L 251.863475 154.60954 
L 253.896632 154.60954 
L 254.303263 155.283425 
L 255.116526 155.283425 
L 255.929789 156.631193 
L 256.33642 156.631193 
L 256.33642 156.631193 
" clip-path="url(#p80df3967d7)" style="fill: none; stroke: #21918c; stroke-width: 1.5; stroke-linecap: square"/>
   </g>
   <g id="line2d_21">
    <path d="M 65.219641 97.329375 
L 66.032904 95.981606 
L 66.439536 95.981606 
L 66.846167 95.307722 
L 67.252799 95.307722 
L 67.65943 94.633838 
L 68.472693 94.633838 
L 68.879324 93.959954 
L 69.692587 93.959954 
L 70.099219 93.286069 
L 70.912482 93.286069 
L 71.319113 92.612185 
L 72.539007 92.612185 
L 72.945639 91.938301 
L 73.758902 91.938301 
L 74.165533 91.264416 
L 75.385428 91.264416 
L 75.792059 90.590532 
L 77.011953 90.590532 
L 77.418585 89.916648 
L 78.231848 89.916648 
L 78.638479 89.242763 
L 79.858373 89.242763 
L 80.265005 88.568879 
L 81.484899 88.568879 
L 81.891531 87.894995 
L 83.111425 87.894995 
L 83.518056 87.221111 
L 84.737951 87.221111 
L 85.144582 86.547226 
L 86.364477 86.547226 
L 86.771108 85.873342 
L 87.991002 85.873342 
L 88.397634 85.199458 
L 89.617528 85.199458 
L 90.02416 84.525573 
L 91.244054 84.525573 
L 91.650685 83.851689 
L 93.277211 83.851689 
L 93.683843 83.177805 
L 94.903737 83.177805 
L 95.310368 82.50392 
L 96.530263 82.50392 
L 96.936894 81.830036 
L 98.56342 81.830036 
L 98.970051 81.156152 
L 100.189946 81.156152 
L 100.596577 80.482268 
L 102.223103 80.482268 
L 102.629734 79.808383 
L 103.849629 79.808383 
L 104.25626 79.134499 
L 105.882786 79.134499 
L 106.289417 78.460615 
L 107.915943 78.460615 
L 108.322575 77.78673 
L 109.542469 77.78673 
L 109.9491 77.112846 
L 111.575626 77.112846 
L 111.982258 76.438962 
L 113.608783 76.438962 
L 114.015415 75.765077 
L 115.641941 75.765077 
L 116.048572 75.091193 
L 117.675098 75.091193 
L 118.081729 74.417309 
L 119.708255 74.417309 
L 120.114886 73.743425 
L 121.741412 73.743425 
L 122.148044 73.06954 
L 123.774569 73.06954 
L 124.181201 72.395656 
L 126.214358 72.395656 
L 126.62099 71.721772 
L 128.247515 71.721772 
L 128.654147 71.047887 
L 130.280673 71.047887 
L 130.687304 70.374003 
L 132.720461 70.374003 
L 133.127093 69.700119 
L 134.753618 69.700119 
L 135.16025 69.026235 
L 137.193407 69.026235 
L 137.600039 68.35235 
L 139.226564 68.35235 
L 139.633196 67.678466 
L 141.666353 67.678466 
L 142.072984 67.004582 
L 143.69951 67.004582 
L 144.106142 66.330697 
L 146.139299 66.330697 
L 146.54593 65.656813 
L 148.579088 65.656813 
L 148.985719 64.982929 
L 151.018876 64.982929 
L 151.425508 64.309044 
L 153.458665 64.309044 
L 153.865296 63.63516 
L 155.898454 63.63516 
L 156.305085 62.961276 
L 158.338242 62.961276 
L 158.744874 62.287392 
L 160.778031 62.287392 
L 161.184662 61.613507 
L 163.21782 61.613507 
L 163.624451 60.939623 
L 165.657608 60.939623 
L 166.06424 60.265739 
L 168.097397 60.265739 
L 168.504028 59.591854 
L 170.943817 59.591854 
L 171.350449 58.91797 
L 173.383606 58.91797 
L 173.790237 58.244086 
L 176.230026 58.244086 
L 176.636657 57.570201 
L 178.669815 57.570201 
L 179.076446 56.896317 
L 181.516235 56.896317 
L 181.922866 56.222433 
L 183.956023 56.222433 
L 184.362655 55.548549 
L 186.802443 55.548549 
L 187.209075 54.874664 
L 189.648864 54.874664 
L 190.055495 54.20078 
L 192.088652 54.20078 
L 192.495284 53.526896 
L 194.935072 53.526896 
L 195.341704 52.853011 
L 197.781492 52.853011 
L 198.188124 52.179127 
L 200.627913 52.179127 
L 201.034544 51.505243 
L 203.474333 51.505243 
L 203.880964 50.831358 
L 206.320753 50.831358 
L 206.727384 50.157474 
L 209.167173 50.157474 
L 209.573804 49.48359 
L 212.013593 49.48359 
L 212.420224 48.809706 
L 214.860013 48.809706 
L 215.266645 48.135821 
L 217.706433 48.135821 
L 218.113065 47.461937 
L 220.959485 47.461937 
L 221.366116 46.788053 
L 223.805905 46.788053 
L 224.212536 46.114168 
L 226.652325 46.114168 
L 227.058956 45.440284 
L 229.905377 45.440284 
L 230.312008 44.7664 
L 232.751797 44.7664 
L 233.158428 44.092515 
L 236.004848 44.092515 
L 236.41148 43.418631 
L 238.851268 43.418631 
L 239.2579 42.744747 
L 242.10432 42.744747 
L 242.510951 42.070863 
L 245.357371 42.070863 
L 245.764003 41.396978 
L 248.203792 41.396978 
L 248.610423 40.723094 
L 251.456843 40.723094 
L 251.863475 40.04921 
L 253.896632 40.04921 
L 254.303263 39.375325 
L 255.116526 39.375325 
L 255.929789 38.027557 
L 256.33642 38.027557 
L 256.33642 38.027557 
" clip-path="url(#p80df3967d7)" style="fill: none; stroke: #21918c; stroke-width: 1.5; stroke-linecap: square"/>
   </g>
   <g id="line2d_22">
    <path d="M 53.42733 73.06954 
L 54.240592 73.06954 
L 54.647224 72.395656 
L 55.460487 72.395656 
L 55.867118 71.721772 
L 56.680381 71.721772 
L 57.087013 71.047887 
L 57.900275 71.047887 
L 58.306907 70.374003 
L 59.526801 70.374003 
L 59.933433 69.700119 
L 61.153327 69.700119 
L 61.559958 69.026235 
L 62.779853 69.026235 
L 63.186484 68.35235 
L 65.219641 68.35235 
L 65.626273 67.678466 
L 67.252799 67.678466 
L 67.65943 67.004582 
L 70.099219 67.004582 
L 70.50585 66.330697 
L 72.945639 66.330697 
L 73.35227 65.656813 
L 75.792059 65.656813 
L 76.19869 64.982929 
L 78.638479 64.982929 
L 79.045111 64.309044 
L 81.891531 64.309044 
L 82.298162 63.63516 
L 84.737951 63.63516 
L 85.144582 62.961276 
L 87.991002 62.961276 
L 88.397634 62.287392 
L 90.837422 62.287392 
L 91.244054 61.613507 
L 94.090474 61.613507 
L 94.497105 60.939623 
L 96.936894 60.939623 
L 97.343526 60.265739 
L 100.189946 60.265739 
L 100.596577 59.591854 
L 103.036366 59.591854 
L 103.442997 58.91797 
L 106.289417 58.91797 
L 106.696049 58.244086 
L 109.135837 58.244086 
L 109.542469 57.570201 
L 112.388889 57.570201 
L 112.79552 56.896317 
L 115.235309 56.896317 
L 115.641941 56.222433 
L 118.488361 56.222433 
L 118.894992 55.548549 
L 121.334781 55.548549 
L 121.741412 54.874664 
L 124.181201 54.874664 
L 124.587832 54.20078 
L 127.434252 54.20078 
L 127.840884 53.526896 
L 130.280673 53.526896 
L 130.687304 52.853011 
L 133.533724 52.853011 
L 133.940356 52.179127 
L 136.380144 52.179127 
L 136.786776 51.505243 
L 139.633196 51.505243 
L 140.039827 50.831358 
L 142.479616 50.831358 
L 142.886247 50.157474 
L 145.732667 50.157474 
L 146.139299 49.48359 
L 148.985719 49.48359 
L 149.39235 48.809706 
L 151.832139 48.809706 
L 152.238771 48.135821 
L 155.085191 48.135821 
L 155.491822 47.461937 
L 157.931611 47.461937 
L 158.338242 46.788053 
L 161.184662 46.788053 
L 161.591294 46.114168 
L 164.437714 46.114168 
L 164.844345 45.440284 
L 167.284134 45.440284 
L 167.690766 44.7664 
L 170.537186 44.7664 
L 170.943817 44.092515 
L 173.790237 44.092515 
L 174.196869 43.418631 
L 177.043289 43.418631 
L 177.44992 42.744747 
L 179.889709 42.744747 
L 180.29634 42.070863 
L 183.14276 42.070863 
L 183.549392 41.396978 
L 186.395812 41.396978 
L 186.802443 40.723094 
L 189.648864 40.723094 
L 190.055495 40.04921 
L 192.901915 40.04921 
L 193.308547 39.375325 
L 195.748335 39.375325 
L 196.154967 38.701441 
L 199.001387 38.701441 
L 199.408018 38.027557 
L 202.254438 38.027557 
L 202.66107 37.353673 
L 205.50749 37.353673 
L 205.914121 36.679788 
L 208.760541 36.679788 
L 209.167173 36.005904 
L 212.013593 36.005904 
L 212.420224 35.33202 
L 215.266645 35.33202 
L 215.673276 34.658135 
L 218.519696 34.658135 
L 218.926328 33.984251 
L 221.772748 33.984251 
L 222.179379 33.310367 
L 225.025799 33.310367 
L 225.432431 32.636482 
L 228.278851 32.636482 
L 228.685482 31.962598 
L 231.531902 31.962598 
L 231.938534 31.288714 
L 234.784954 31.288714 
L 235.191585 30.61483 
L 238.038005 30.61483 
L 238.444637 29.940945 
L 241.697688 29.940945 
L 242.10432 29.267061 
L 244.95074 29.267061 
L 245.357371 28.593177 
L 248.203792 28.593177 
L 248.610423 27.919292 
L 251.456843 27.919292 
L 251.863475 27.245408 
L 255.523158 27.245408 
L 255.929789 27.919292 
L 256.33642 27.919292 
L 256.33642 27.919292 
" clip-path="url(#p80df3967d7)" style="fill: none; stroke-dasharray: 5.55,2.4; stroke-dashoffset: 0; stroke: #5ec962; stroke-width: 1.5"/>
   </g>
   <g id="line2d_23">
    <path d="M 53.42733 121.58921 
L 54.240592 121.58921 
L 54.647224 122.263094 
L 55.460487 122.263094 
L 55.867118 122.936978 
L 56.680381 122.936978 
L 57.087013 123.610863 
L 57.900275 123.610863 
L 58.306907 124.284747 
L 59.526801 124.284747 
L 59.933433 124.958631 
L 61.153327 124.958631 
L 61.559958 125.632515 
L 62.779853 125.632515 
L 63.186484 126.3064 
L 65.219641 126.3064 
L 65.626273 126.980284 
L 67.252799 126.980284 
L 67.65943 127.654168 
L 70.099219 127.654168 
L 70.50585 128.328053 
L 72.945639 128.328053 
L 73.35227 129.001937 
L 75.792059 129.001937 
L 76.19869 129.675821 
L 78.638479 129.675821 
L 79.045111 130.349706 
L 81.891531 130.349706 
L 82.298162 131.02359 
L 84.737951 131.02359 
L 85.144582 131.697474 
L 87.991002 131.697474 
L 88.397634 132.371358 
L 90.837422 132.371358 
L 91.244054 133.045243 
L 94.090474 133.045243 
L 94.497105 133.719127 
L 96.936894 133.719127 
L 97.343526 134.393011 
L 100.189946 134.393011 
L 100.596577 135.066896 
L 103.036366 135.066896 
L 103.442997 135.74078 
L 106.289417 135.74078 
L 106.696049 136.414664 
L 109.135837 136.414664 
L 109.542469 137.088549 
L 112.388889 137.088549 
L 112.79552 137.762433 
L 115.235309 137.762433 
L 115.641941 138.436317 
L 118.488361 138.436317 
L 118.894992 139.110201 
L 121.334781 139.110201 
L 121.741412 139.784086 
L 124.181201 139.784086 
L 124.587832 140.45797 
L 127.434252 140.45797 
L 127.840884 141.131854 
L 130.280673 141.131854 
L 130.687304 141.805739 
L 133.533724 141.805739 
L 133.940356 142.479623 
L 136.380144 142.479623 
L 136.786776 143.153507 
L 139.633196 143.153507 
L 140.039827 143.827392 
L 142.479616 143.827392 
L 142.886247 144.501276 
L 145.732667 144.501276 
L 146.139299 145.17516 
L 148.985719 145.17516 
L 149.39235 145.849044 
L 151.832139 145.849044 
L 152.238771 146.522929 
L 155.085191 146.522929 
L 155.491822 147.196813 
L 157.931611 147.196813 
L 158.338242 147.870697 
L 161.184662 147.870697 
L 161.591294 148.544582 
L 164.437714 148.544582 
L 164.844345 149.218466 
L 167.284134 149.218466 
L 167.690766 149.89235 
L 170.537186 149.89235 
L 170.943817 150.566235 
L 173.790237 150.566235 
L 174.196869 151.240119 
L 177.043289 151.240119 
L 177.44992 151.914003 
L 179.889709 151.914003 
L 180.29634 152.587887 
L 183.14276 152.587887 
L 183.549392 153.261772 
L 186.395812 153.261772 
L 186.802443 153.935656 
L 189.648864 153.935656 
L 190.055495 154.60954 
L 192.901915 154.60954 
L 193.308547 155.283425 
L 195.748335 155.283425 
L 196.154967 155.957309 
L 199.001387 155.957309 
L 199.408018 156.631193 
L 202.254438 156.631193 
L 202.66107 157.305077 
L 205.50749 157.305077 
L 205.914121 157.978962 
L 208.760541 157.978962 
L 209.167173 158.652846 
L 212.013593 158.652846 
L 212.420224 159.32673 
L 215.266645 159.32673 
L 215.673276 160.000615 
L 218.519696 160.000615 
L 218.926328 160.674499 
L 221.772748 160.674499 
L 222.179379 161.348383 
L 225.025799 161.348383 
L 225.432431 162.022268 
L 228.278851 162.022268 
L 228.685482 162.696152 
L 231.531902 162.696152 
L 231.938534 163.370036 
L 234.784954 163.370036 
L 235.191585 164.04392 
L 238.038005 164.04392 
L 238.444637 164.717805 
L 241.697688 164.717805 
L 242.10432 165.391689 
L 244.95074 165.391689 
L 245.357371 166.065573 
L 248.203792 166.065573 
L 248.610423 166.739458 
L 251.456843 166.739458 
L 251.863475 167.413342 
L 255.523158 167.413342 
L 255.929789 166.739458 
L 256.33642 166.739458 
L 256.33642 166.739458 
" clip-path="url(#p80df3967d7)" style="fill: none; stroke-dasharray: 5.55,2.4; stroke-dashoffset: 0; stroke: #5ec962; stroke-width: 1.5"/>
   </g>
   <g id="line2d_24">
    <path d="M 66.846167 98.003259 
L 67.252799 98.677144 
L 67.65943 98.677144 
L 68.066062 99.351028 
L 68.472693 99.351028 
L 68.879324 100.024912 
L 69.692587 100.024912 
L 70.099219 100.698796 
L 70.912482 100.698796 
L 71.319113 101.372681 
L 72.132376 101.372681 
L 72.539007 102.046565 
L 73.35227 102.046565 
L 73.758902 102.720449 
L 74.572165 102.720449 
L 74.978796 103.394334 
L 76.19869 103.394334 
L 76.605322 104.068218 
L 77.418585 104.068218 
L 77.825216 104.742102 
L 78.638479 104.742102 
L 79.045111 105.415987 
L 80.265005 105.415987 
L 80.671636 106.089871 
L 81.484899 106.089871 
L 81.891531 106.763755 
L 83.111425 106.763755 
L 83.518056 107.437639 
L 84.331319 107.437639 
L 84.737951 108.111524 
L 85.957845 108.111524 
L 86.364477 108.785408 
L 87.177739 108.785408 
L 87.584371 109.459292 
L 88.804265 109.459292 
L 89.210897 110.133177 
L 90.02416 110.133177 
L 90.430791 110.807061 
L 91.650685 110.807061 
L 92.057317 111.480945 
L 93.277211 111.480945 
L 93.683843 112.15483 
L 94.903737 112.15483 
L 95.310368 112.828714 
L 96.530263 112.828714 
L 96.936894 113.502598 
L 98.156788 113.502598 
L 98.56342 114.176482 
L 99.783314 114.176482 
L 100.189946 114.850367 
L 101.40984 114.850367 
L 101.816471 115.524251 
L 103.036366 115.524251 
L 103.442997 116.198135 
L 104.662892 116.198135 
L 105.069523 116.87202 
L 106.289417 116.87202 
L 106.696049 117.545904 
L 107.915943 117.545904 
L 108.322575 118.219788 
L 109.9491 118.219788 
L 110.355732 118.893673 
L 111.575626 118.893673 
L 111.982258 119.567557 
L 113.202152 119.567557 
L 113.608783 120.241441 
L 115.235309 120.241441 
L 115.641941 120.915325 
L 116.861835 120.915325 
L 117.268466 121.58921 
L 118.894992 121.58921 
L 119.301624 122.263094 
L 120.521518 122.263094 
L 120.928149 122.936978 
L 122.554675 122.936978 
L 122.961307 123.610863 
L 124.587832 123.610863 
L 124.994464 124.284747 
L 126.214358 124.284747 
L 126.62099 124.958631 
L 128.247515 124.958631 
L 128.654147 125.632515 
L 130.280673 125.632515 
L 130.687304 126.3064 
L 132.31383 126.3064 
L 132.720461 126.980284 
L 134.346987 126.980284 
L 134.753618 127.654168 
L 136.380144 127.654168 
L 136.786776 128.328053 
L 138.413301 128.328053 
L 138.819933 129.001937 
L 140.446459 129.001937 
L 140.85309 129.675821 
L 142.479616 129.675821 
L 142.886247 130.349706 
L 144.512773 130.349706 
L 144.919405 131.02359 
L 146.952562 131.02359 
L 147.359193 131.697474 
L 148.985719 131.697474 
L 149.39235 132.371358 
L 151.018876 132.371358 
L 151.425508 133.045243 
L 153.458665 133.045243 
L 153.865296 133.719127 
L 155.491822 133.719127 
L 155.898454 134.393011 
L 157.931611 134.393011 
L 158.338242 135.066896 
L 159.964768 135.066896 
L 160.3714 135.74078 
L 162.404557 135.74078 
L 162.811188 136.414664 
L 164.844345 136.414664 
L 165.250977 137.088549 
L 166.877503 137.088549 
L 167.284134 137.762433 
L 169.317291 137.762433 
L 169.723923 138.436317 
L 171.75708 138.436317 
L 172.163711 139.110201 
L 174.196869 139.110201 
L 174.6035 139.784086 
L 176.636657 139.784086 
L 177.043289 140.45797 
L 179.076446 140.45797 
L 179.483077 141.131854 
L 181.516235 141.131854 
L 181.922866 141.805739 
L 183.956023 141.805739 
L 184.362655 142.479623 
L 186.395812 142.479623 
L 186.802443 143.153507 
L 188.835601 143.153507 
L 189.242232 143.827392 
L 191.275389 143.827392 
L 191.682021 144.501276 
L 193.715178 144.501276 
L 194.121809 145.17516 
L 196.561598 145.17516 
L 196.96823 145.849044 
L 199.001387 145.849044 
L 199.408018 146.522929 
L 201.441175 146.522929 
L 201.847807 147.196813 
L 204.287596 147.196813 
L 204.694227 147.870697 
L 206.727384 147.870697 
L 207.134016 148.544582 
L 209.573804 148.544582 
L 209.980436 149.218466 
L 212.013593 149.218466 
L 212.420224 149.89235 
L 214.860013 149.89235 
L 215.266645 150.566235 
L 217.299802 150.566235 
L 217.706433 151.240119 
L 220.146222 151.240119 
L 220.552853 151.914003 
L 222.992642 151.914003 
L 223.399273 152.587887 
L 225.839062 152.587887 
L 226.245694 153.261772 
L 228.278851 153.261772 
L 228.685482 153.935656 
L 231.125271 153.935656 
L 231.531902 154.60954 
L 233.971691 154.60954 
L 234.378322 155.283425 
L 236.818111 155.283425 
L 237.224743 155.957309 
L 239.664531 155.957309 
L 240.071163 156.631193 
L 242.510951 156.631193 
L 242.917583 157.305077 
L 245.357371 157.305077 
L 245.764003 157.978962 
L 248.203792 157.978962 
L 248.610423 158.652846 
L 251.050212 158.652846 
L 251.456843 159.32673 
L 253.49 159.32673 
L 253.896632 160.000615 
L 254.709895 160.000615 
L 255.116526 160.674499 
L 255.523158 160.674499 
L 255.929789 161.348383 
L 256.33642 161.348383 
L 256.33642 161.348383 
" clip-path="url(#p80df3967d7)" style="fill: none; stroke: #5ec962; stroke-width: 1.5; stroke-linecap: square"/>
   </g>
   <g id="line2d_25">
    <path d="M 66.846167 96.655491 
L 67.252799 95.981606 
L 67.65943 95.981606 
L 68.066062 95.307722 
L 68.472693 95.307722 
L 68.879324 94.633838 
L 69.692587 94.633838 
L 70.099219 93.959954 
L 70.912482 93.959954 
L 71.319113 93.286069 
L 72.132376 93.286069 
L 72.539007 92.612185 
L 73.35227 92.612185 
L 73.758902 91.938301 
L 74.572165 91.938301 
L 74.978796 91.264416 
L 76.19869 91.264416 
L 76.605322 90.590532 
L 77.418585 90.590532 
L 77.825216 89.916648 
L 78.638479 89.916648 
L 79.045111 89.242763 
L 80.265005 89.242763 
L 80.671636 88.568879 
L 81.484899 88.568879 
L 81.891531 87.894995 
L 83.111425 87.894995 
L 83.518056 87.221111 
L 84.331319 87.221111 
L 84.737951 86.547226 
L 85.957845 86.547226 
L 86.364477 85.873342 
L 87.177739 85.873342 
L 87.584371 85.199458 
L 88.804265 85.199458 
L 89.210897 84.525573 
L 90.02416 84.525573 
L 90.430791 83.851689 
L 91.650685 83.851689 
L 92.057317 83.177805 
L 93.277211 83.177805 
L 93.683843 82.50392 
L 94.903737 82.50392 
L 95.310368 81.830036 
L 96.530263 81.830036 
L 96.936894 81.156152 
L 98.156788 81.156152 
L 98.56342 80.482268 
L 99.783314 80.482268 
L 100.189946 79.808383 
L 101.40984 79.808383 
L 101.816471 79.134499 
L 103.036366 79.134499 
L 103.442997 78.460615 
L 104.662892 78.460615 
L 105.069523 77.78673 
L 106.289417 77.78673 
L 106.696049 77.112846 
L 107.915943 77.112846 
L 108.322575 76.438962 
L 109.9491 76.438962 
L 110.355732 75.765077 
L 111.575626 75.765077 
L 111.982258 75.091193 
L 113.202152 75.091193 
L 113.608783 74.417309 
L 115.235309 74.417309 
L 115.641941 73.743425 
L 116.861835 73.743425 
L 117.268466 73.06954 
L 118.894992 73.06954 
L 119.301624 72.395656 
L 120.521518 72.395656 
L 120.928149 71.721772 
L 122.554675 71.721772 
L 122.961307 71.047887 
L 124.587832 71.047887 
L 124.994464 70.374003 
L 126.214358 70.374003 
L 126.62099 69.700119 
L 128.247515 69.700119 
L 128.654147 69.026235 
L 130.280673 69.026235 
L 130.687304 68.35235 
L 132.31383 68.35235 
L 132.720461 67.678466 
L 134.346987 67.678466 
L 134.753618 67.004582 
L 136.380144 67.004582 
L 136.786776 66.330697 
L 138.413301 66.330697 
L 138.819933 65.656813 
L 140.446459 65.656813 
L 140.85309 64.982929 
L 142.479616 64.982929 
L 142.886247 64.309044 
L 144.512773 64.309044 
L 144.919405 63.63516 
L 146.952562 63.63516 
L 147.359193 62.961276 
L 148.985719 62.961276 
L 149.39235 62.287392 
L 151.018876 62.287392 
L 151.425508 61.613507 
L 153.458665 61.613507 
L 153.865296 60.939623 
L 155.491822 60.939623 
L 155.898454 60.265739 
L 157.931611 60.265739 
L 158.338242 59.591854 
L 159.964768 59.591854 
L 160.3714 58.91797 
L 162.404557 58.91797 
L 162.811188 58.244086 
L 164.844345 58.244086 
L 165.250977 57.570201 
L 166.877503 57.570201 
L 167.284134 56.896317 
L 169.317291 56.896317 
L 169.723923 56.222433 
L 171.75708 56.222433 
L 172.163711 55.548549 
L 174.196869 55.548549 
L 174.6035 54.874664 
L 176.636657 54.874664 
L 177.043289 54.20078 
L 179.076446 54.20078 
L 179.483077 53.526896 
L 181.516235 53.526896 
L 181.922866 52.853011 
L 183.956023 52.853011 
L 184.362655 52.179127 
L 186.395812 52.179127 
L 186.802443 51.505243 
L 188.835601 51.505243 
L 189.242232 50.831358 
L 191.275389 50.831358 
L 191.682021 50.157474 
L 193.715178 50.157474 
L 194.121809 49.48359 
L 196.561598 49.48359 
L 196.96823 48.809706 
L 199.001387 48.809706 
L 199.408018 48.135821 
L 201.441175 48.135821 
L 201.847807 47.461937 
L 204.287596 47.461937 
L 204.694227 46.788053 
L 206.727384 46.788053 
L 207.134016 46.114168 
L 209.573804 46.114168 
L 209.980436 45.440284 
L 212.013593 45.440284 
L 212.420224 44.7664 
L 214.860013 44.7664 
L 215.266645 44.092515 
L 217.299802 44.092515 
L 217.706433 43.418631 
L 220.146222 43.418631 
L 220.552853 42.744747 
L 222.992642 42.744747 
L 223.399273 42.070863 
L 225.839062 42.070863 
L 226.245694 41.396978 
L 228.278851 41.396978 
L 228.685482 40.723094 
L 231.125271 40.723094 
L 231.531902 40.04921 
L 233.971691 40.04921 
L 234.378322 39.375325 
L 236.818111 39.375325 
L 237.224743 38.701441 
L 239.664531 38.701441 
L 240.071163 38.027557 
L 242.510951 38.027557 
L 242.917583 37.353673 
L 245.357371 37.353673 
L 245.764003 36.679788 
L 248.203792 36.679788 
L 248.610423 36.005904 
L 251.050212 36.005904 
L 251.456843 35.33202 
L 253.49 35.33202 
L 253.896632 34.658135 
L 254.709895 34.658135 
L 255.116526 33.984251 
L 255.523158 33.984251 
L 255.929789 33.310367 
L 256.33642 33.310367 
L 256.33642 33.310367 
" clip-path="url(#p80df3967d7)" style="fill: none; stroke: #5ec962; stroke-width: 1.5; stroke-linecap: square"/>
   </g>
   <g id="line2d_26">
    <path d="M 53.42733 74.417309 
L 53.833961 74.417309 
L 54.240592 73.743425 
L 54.647224 73.743425 
L 55.053855 73.06954 
L 55.460487 73.06954 
L 55.867118 72.395656 
L 56.680381 72.395656 
L 57.087013 71.721772 
L 57.900275 71.721772 
L 58.306907 71.047887 
L 59.12017 71.047887 
L 59.526801 70.374003 
L 60.340064 70.374003 
L 60.746696 69.700119 
L 61.96659 69.700119 
L 62.373221 69.026235 
L 63.999747 69.026235 
L 64.406379 68.35235 
L 66.032904 68.35235 
L 66.439536 67.678466 
L 68.066062 67.678466 
L 68.472693 67.004582 
L 70.50585 67.004582 
L 70.912482 66.330697 
L 73.35227 66.330697 
L 73.758902 65.656813 
L 75.792059 65.656813 
L 76.19869 64.982929 
L 78.231848 64.982929 
L 78.638479 64.309044 
L 81.078268 64.309044 
L 81.484899 63.63516 
L 83.518056 63.63516 
L 83.924688 62.961276 
L 86.364477 62.961276 
L 86.771108 62.287392 
L 88.804265 62.287392 
L 89.210897 61.613507 
L 91.650685 61.613507 
L 92.057317 60.939623 
L 94.090474 60.939623 
L 94.497105 60.265739 
L 96.936894 60.265739 
L 97.343526 59.591854 
L 99.783314 59.591854 
L 100.189946 58.91797 
L 102.223103 58.91797 
L 102.629734 58.244086 
L 105.069523 58.244086 
L 105.476154 57.570201 
L 107.915943 57.570201 
L 108.322575 56.896317 
L 110.355732 56.896317 
L 110.762363 56.222433 
L 113.202152 56.222433 
L 113.608783 55.548549 
L 116.048572 55.548549 
L 116.455203 54.874664 
L 118.488361 54.874664 
L 118.894992 54.20078 
L 121.334781 54.20078 
L 121.741412 53.526896 
L 124.181201 53.526896 
L 124.587832 52.853011 
L 127.027621 52.853011 
L 127.434252 52.179127 
L 129.874041 52.179127 
L 130.280673 51.505243 
L 132.31383 51.505243 
L 132.720461 50.831358 
L 135.16025 50.831358 
L 135.566881 50.157474 
L 138.00667 50.157474 
L 138.413301 49.48359 
L 140.85309 49.48359 
L 141.259722 48.809706 
L 143.69951 48.809706 
L 144.106142 48.135821 
L 146.139299 48.135821 
L 146.54593 47.461937 
L 148.985719 47.461937 
L 149.39235 46.788053 
L 151.832139 46.788053 
L 152.238771 46.114168 
L 154.678559 46.114168 
L 155.085191 45.440284 
L 157.524979 45.440284 
L 157.931611 44.7664 
L 160.3714 44.7664 
L 160.778031 44.092515 
L 163.21782 44.092515 
L 163.624451 43.418631 
L 166.06424 43.418631 
L 166.470871 42.744747 
L 168.91066 42.744747 
L 169.317291 42.070863 
L 171.75708 42.070863 
L 172.163711 41.396978 
L 174.6035 41.396978 
L 175.010132 40.723094 
L 177.44992 40.723094 
L 177.856552 40.04921 
L 180.29634 40.04921 
L 180.702972 39.375325 
L 183.14276 39.375325 
L 183.549392 38.701441 
L 185.989181 38.701441 
L 186.395812 38.027557 
L 188.835601 38.027557 
L 189.242232 37.353673 
L 191.682021 37.353673 
L 192.088652 36.679788 
L 194.935072 36.679788 
L 195.341704 36.005904 
L 197.781492 36.005904 
L 198.188124 35.33202 
L 200.627913 35.33202 
L 201.034544 34.658135 
L 203.474333 34.658135 
L 203.880964 33.984251 
L 206.320753 33.984251 
L 206.727384 33.310367 
L 209.167173 33.310367 
L 209.573804 32.636482 
L 212.420224 32.636482 
L 212.826856 31.962598 
L 215.266645 31.962598 
L 215.673276 31.288714 
L 218.113065 31.288714 
L 218.519696 30.61483 
L 220.959485 30.61483 
L 221.366116 29.940945 
L 224.212536 29.940945 
L 224.619168 29.267061 
L 227.058956 29.267061 
L 227.465588 28.593177 
L 229.905377 28.593177 
L 230.312008 27.919292 
L 233.158428 27.919292 
L 233.56506 27.245408 
L 236.004848 27.245408 
L 236.41148 26.571524 
L 238.851268 26.571524 
L 239.2579 25.897639 
L 241.697688 25.897639 
L 242.10432 25.223755 
L 244.95074 25.223755 
L 245.357371 24.549871 
L 247.79716 24.549871 
L 248.203792 23.875987 
L 251.050212 23.875987 
L 251.456843 23.202102 
L 255.523158 23.202102 
L 255.929789 23.875987 
L 256.33642 23.875987 
L 256.33642 23.875987 
" clip-path="url(#p80df3967d7)" style="fill: none; stroke-dasharray: 5.55,2.4; stroke-dashoffset: 0; stroke: #fde725; stroke-width: 1.5"/>
   </g>
   <g id="line2d_27">
    <path d="M 53.42733 120.241441 
L 53.833961 120.241441 
L 54.240592 120.915325 
L 54.647224 120.915325 
L 55.053855 121.58921 
L 55.460487 121.58921 
L 55.867118 122.263094 
L 56.680381 122.263094 
L 57.087013 122.936978 
L 57.900275 122.936978 
L 58.306907 123.610863 
L 59.12017 123.610863 
L 59.526801 124.284747 
L 60.340064 124.284747 
L 60.746696 124.958631 
L 61.96659 124.958631 
L 62.373221 125.632515 
L 63.999747 125.632515 
L 64.406379 126.3064 
L 66.032904 126.3064 
L 66.439536 126.980284 
L 68.066062 126.980284 
L 68.472693 127.654168 
L 70.50585 127.654168 
L 70.912482 128.328053 
L 73.35227 128.328053 
L 73.758902 129.001937 
L 75.792059 129.001937 
L 76.19869 129.675821 
L 78.231848 129.675821 
L 78.638479 130.349706 
L 81.078268 130.349706 
L 81.484899 131.02359 
L 83.518056 131.02359 
L 83.924688 131.697474 
L 86.364477 131.697474 
L 86.771108 132.371358 
L 88.804265 132.371358 
L 89.210897 133.045243 
L 91.650685 133.045243 
L 92.057317 133.719127 
L 94.090474 133.719127 
L 94.497105 134.393011 
L 96.936894 134.393011 
L 97.343526 135.066896 
L 99.783314 135.066896 
L 100.189946 135.74078 
L 102.223103 135.74078 
L 102.629734 136.414664 
L 105.069523 136.414664 
L 105.476154 137.088549 
L 107.915943 137.088549 
L 108.322575 137.762433 
L 110.355732 137.762433 
L 110.762363 138.436317 
L 113.202152 138.436317 
L 113.608783 139.110201 
L 116.048572 139.110201 
L 116.455203 139.784086 
L 118.488361 139.784086 
L 118.894992 140.45797 
L 121.334781 140.45797 
L 121.741412 141.131854 
L 124.181201 141.131854 
L 124.587832 141.805739 
L 127.027621 141.805739 
L 127.434252 142.479623 
L 129.874041 142.479623 
L 130.280673 143.153507 
L 132.31383 143.153507 
L 132.720461 143.827392 
L 135.16025 143.827392 
L 135.566881 144.501276 
L 138.00667 144.501276 
L 138.413301 145.17516 
L 140.85309 145.17516 
L 141.259722 145.849044 
L 143.69951 145.849044 
L 144.106142 146.522929 
L 146.139299 146.522929 
L 146.54593 147.196813 
L 148.985719 147.196813 
L 149.39235 147.870697 
L 151.832139 147.870697 
L 152.238771 148.544582 
L 154.678559 148.544582 
L 155.085191 149.218466 
L 157.524979 149.218466 
L 157.931611 149.89235 
L 160.3714 149.89235 
L 160.778031 150.566235 
L 163.21782 150.566235 
L 163.624451 151.240119 
L 166.06424 151.240119 
L 166.470871 151.914003 
L 168.91066 151.914003 
L 169.317291 152.587887 
L 171.75708 152.587887 
L 172.163711 153.261772 
L 174.6035 153.261772 
L 175.010132 153.935656 
L 177.44992 153.935656 
L 177.856552 154.60954 
L 180.29634 154.60954 
L 180.702972 155.283425 
L 183.14276 155.283425 
L 183.549392 155.957309 
L 185.989181 155.957309 
L 186.395812 156.631193 
L 188.835601 156.631193 
L 189.242232 157.305077 
L 191.682021 157.305077 
L 192.088652 157.978962 
L 194.935072 157.978962 
L 195.341704 158.652846 
L 197.781492 158.652846 
L 198.188124 159.32673 
L 200.627913 159.32673 
L 201.034544 160.000615 
L 203.474333 160.000615 
L 203.880964 160.674499 
L 206.320753 160.674499 
L 206.727384 161.348383 
L 209.167173 161.348383 
L 209.573804 162.022268 
L 212.420224 162.022268 
L 212.826856 162.696152 
L 215.266645 162.696152 
L 215.673276 163.370036 
L 218.113065 163.370036 
L 218.519696 164.04392 
L 220.959485 164.04392 
L 221.366116 164.717805 
L 224.212536 164.717805 
L 224.619168 165.391689 
L 227.058956 165.391689 
L 227.465588 166.065573 
L 229.905377 166.065573 
L 230.312008 166.739458 
L 233.158428 166.739458 
L 233.56506 167.413342 
L 236.004848 167.413342 
L 236.41148 168.087226 
L 238.851268 168.087226 
L 239.2579 168.761111 
L 241.697688 168.761111 
L 242.10432 169.434995 
L 244.95074 169.434995 
L 245.357371 170.108879 
L 247.79716 170.108879 
L 248.203792 170.782763 
L 251.050212 170.782763 
L 251.456843 171.456648 
L 255.523158 171.456648 
L 255.929789 170.782763 
L 256.33642 170.782763 
L 256.33642 170.782763 
" clip-path="url(#p80df3967d7)" style="fill: none; stroke-dasharray: 5.55,2.4; stroke-dashoffset: 0; stroke: #fde725; stroke-width: 1.5"/>
   </g>
   <g id="line2d_28">
    <path d="M 67.65943 98.003259 
L 68.066062 98.677144 
L 68.472693 98.677144 
L 68.879324 99.351028 
L 69.285956 99.351028 
L 69.692587 100.024912 
L 70.099219 100.024912 
L 70.50585 100.698796 
L 71.319113 100.698796 
L 71.725745 101.372681 
L 72.539007 101.372681 
L 72.945639 102.046565 
L 73.758902 102.046565 
L 74.165533 102.720449 
L 74.978796 102.720449 
L 75.385428 103.394334 
L 76.19869 103.394334 
L 76.605322 104.068218 
L 77.418585 104.068218 
L 77.825216 104.742102 
L 78.638479 104.742102 
L 79.045111 105.415987 
L 79.858373 105.415987 
L 80.265005 106.089871 
L 81.078268 106.089871 
L 81.484899 106.763755 
L 82.298162 106.763755 
L 82.704794 107.437639 
L 83.518056 107.437639 
L 83.924688 108.111524 
L 84.737951 108.111524 
L 85.144582 108.785408 
L 86.364477 108.785408 
L 86.771108 109.459292 
L 87.584371 109.459292 
L 87.991002 110.133177 
L 88.804265 110.133177 
L 89.210897 110.807061 
L 90.430791 110.807061 
L 90.837422 111.480945 
L 91.650685 111.480945 
L 92.057317 112.15483 
L 92.87058 112.15483 
L 93.277211 112.828714 
L 94.497105 112.828714 
L 94.903737 113.502598 
L 95.717 113.502598 
L 96.123631 114.176482 
L 97.343526 114.176482 
L 97.750157 114.850367 
L 98.970051 114.850367 
L 99.376683 115.524251 
L 100.189946 115.524251 
L 100.596577 116.198135 
L 101.816471 116.198135 
L 102.223103 116.87202 
L 103.442997 116.87202 
L 103.849629 117.545904 
L 105.069523 117.545904 
L 105.476154 118.219788 
L 106.289417 118.219788 
L 106.696049 118.893673 
L 107.915943 118.893673 
L 108.322575 119.567557 
L 109.542469 119.567557 
L 109.9491 120.241441 
L 111.168995 120.241441 
L 111.575626 120.915325 
L 112.79552 120.915325 
L 113.202152 121.58921 
L 114.828678 121.58921 
L 115.235309 122.263094 
L 116.455203 122.263094 
L 116.861835 122.936978 
L 118.081729 122.936978 
L 118.488361 123.610863 
L 119.708255 123.610863 
L 120.114886 124.284747 
L 121.334781 124.284747 
L 121.741412 124.958631 
L 123.367938 124.958631 
L 123.774569 125.632515 
L 124.994464 125.632515 
L 125.401095 126.3064 
L 127.027621 126.3064 
L 127.434252 126.980284 
L 128.654147 126.980284 
L 129.060778 127.654168 
L 130.687304 127.654168 
L 131.093935 128.328053 
L 132.31383 128.328053 
L 132.720461 129.001937 
L 134.346987 129.001937 
L 134.753618 129.675821 
L 135.973513 129.675821 
L 136.380144 130.349706 
L 138.00667 130.349706 
L 138.413301 131.02359 
L 140.039827 131.02359 
L 140.446459 131.697474 
L 142.072984 131.697474 
L 142.479616 132.371358 
L 144.106142 132.371358 
L 144.512773 133.045243 
L 146.139299 133.045243 
L 146.54593 133.719127 
L 148.172456 133.719127 
L 148.579088 134.393011 
L 150.205613 134.393011 
L 150.612245 135.066896 
L 152.238771 135.066896 
L 152.645402 135.74078 
L 154.271928 135.74078 
L 154.678559 136.414664 
L 156.305085 136.414664 
L 156.711717 137.088549 
L 158.338242 137.088549 
L 158.744874 137.762433 
L 160.3714 137.762433 
L 160.778031 138.436317 
L 162.404557 138.436317 
L 162.811188 139.110201 
L 164.844345 139.110201 
L 165.250977 139.784086 
L 166.877503 139.784086 
L 167.284134 140.45797 
L 168.91066 140.45797 
L 169.317291 141.131854 
L 171.350449 141.131854 
L 171.75708 141.805739 
L 173.383606 141.805739 
L 173.790237 142.479623 
L 175.823394 142.479623 
L 176.230026 143.153507 
L 177.856552 143.153507 
L 178.263183 143.827392 
L 180.29634 143.827392 
L 180.702972 144.501276 
L 182.736129 144.501276 
L 183.14276 145.17516 
L 184.769286 145.17516 
L 185.175918 145.849044 
L 187.209075 145.849044 
L 187.615706 146.522929 
L 189.648864 146.522929 
L 190.055495 147.196813 
L 191.682021 147.196813 
L 192.088652 147.870697 
L 194.121809 147.870697 
L 194.528441 148.544582 
L 196.561598 148.544582 
L 196.96823 149.218466 
L 199.001387 149.218466 
L 199.408018 149.89235 
L 201.441175 149.89235 
L 201.847807 150.566235 
L 203.880964 150.566235 
L 204.287596 151.240119 
L 206.320753 151.240119 
L 206.727384 151.914003 
L 208.760541 151.914003 
L 209.167173 152.587887 
L 211.20033 152.587887 
L 211.606962 153.261772 
L 213.640119 153.261772 
L 214.04675 153.935656 
L 216.079907 153.935656 
L 216.486539 154.60954 
L 218.519696 154.60954 
L 218.926328 155.283425 
L 220.959485 155.283425 
L 221.366116 155.957309 
L 223.399273 155.957309 
L 223.805905 156.631193 
L 226.245694 156.631193 
L 226.652325 157.305077 
L 228.685482 157.305077 
L 229.092114 157.978962 
L 231.125271 157.978962 
L 231.531902 158.652846 
L 233.56506 158.652846 
L 233.971691 159.32673 
L 236.41148 159.32673 
L 236.818111 160.000615 
L 238.851268 160.000615 
L 239.2579 160.674499 
L 241.291057 160.674499 
L 241.697688 161.348383 
L 244.137477 161.348383 
L 244.544109 162.022268 
L 246.577266 162.022268 
L 246.983897 162.696152 
L 249.423686 162.696152 
L 249.830317 163.370036 
L 251.863475 163.370036 
L 252.270106 164.04392 
L 253.896632 164.04392 
L 254.303263 164.717805 
L 255.116526 164.717805 
L 255.929789 166.065573 
L 256.33642 166.065573 
L 256.33642 166.065573 
" clip-path="url(#p80df3967d7)" style="fill: none; stroke: #fde725; stroke-width: 1.5; stroke-linecap: square"/>
   </g>
   <g id="line2d_29">
    <path d="M 67.65943 96.655491 
L 68.066062 95.981606 
L 68.472693 95.981606 
L 68.879324 95.307722 
L 69.285956 95.307722 
L 69.692587 94.633838 
L 70.099219 94.633838 
L 70.50585 93.959954 
L 71.319113 93.959954 
L 71.725745 93.286069 
L 72.539007 93.286069 
L 72.945639 92.612185 
L 73.758902 92.612185 
L 74.165533 91.938301 
L 74.978796 91.938301 
L 75.385428 91.264416 
L 76.19869 91.264416 
L 76.605322 90.590532 
L 77.418585 90.590532 
L 77.825216 89.916648 
L 78.638479 89.916648 
L 79.045111 89.242763 
L 79.858373 89.242763 
L 80.265005 88.568879 
L 81.078268 88.568879 
L 81.484899 87.894995 
L 82.298162 87.894995 
L 82.704794 87.221111 
L 83.518056 87.221111 
L 83.924688 86.547226 
L 84.737951 86.547226 
L 85.144582 85.873342 
L 86.364477 85.873342 
L 86.771108 85.199458 
L 87.584371 85.199458 
L 87.991002 84.525573 
L 88.804265 84.525573 
L 89.210897 83.851689 
L 90.430791 83.851689 
L 90.837422 83.177805 
L 91.650685 83.177805 
L 92.057317 82.50392 
L 92.87058 82.50392 
L 93.277211 81.830036 
L 94.497105 81.830036 
L 94.903737 81.156152 
L 95.717 81.156152 
L 96.123631 80.482268 
L 97.343526 80.482268 
L 97.750157 79.808383 
L 98.970051 79.808383 
L 99.376683 79.134499 
L 100.189946 79.134499 
L 100.596577 78.460615 
L 101.816471 78.460615 
L 102.223103 77.78673 
L 103.442997 77.78673 
L 103.849629 77.112846 
L 105.069523 77.112846 
L 105.476154 76.438962 
L 106.289417 76.438962 
L 106.696049 75.765077 
L 107.915943 75.765077 
L 108.322575 75.091193 
L 109.542469 75.091193 
L 109.9491 74.417309 
L 111.168995 74.417309 
L 111.575626 73.743425 
L 112.79552 73.743425 
L 113.202152 73.06954 
L 114.828678 73.06954 
L 115.235309 72.395656 
L 116.455203 72.395656 
L 116.861835 71.721772 
L 118.081729 71.721772 
L 118.488361 71.047887 
L 119.708255 71.047887 
L 120.114886 70.374003 
L 121.334781 70.374003 
L 121.741412 69.700119 
L 123.367938 69.700119 
L 123.774569 69.026235 
L 124.994464 69.026235 
L 125.401095 68.35235 
L 127.027621 68.35235 
L 127.434252 67.678466 
L 128.654147 67.678466 
L 129.060778 67.004582 
L 130.687304 67.004582 
L 131.093935 66.330697 
L 132.31383 66.330697 
L 132.720461 65.656813 
L 134.346987 65.656813 
L 134.753618 64.982929 
L 135.973513 64.982929 
L 136.380144 64.309044 
L 138.00667 64.309044 
L 138.413301 63.63516 
L 140.039827 63.63516 
L 140.446459 62.961276 
L 142.072984 62.961276 
L 142.479616 62.287392 
L 144.106142 62.287392 
L 144.512773 61.613507 
L 146.139299 61.613507 
L 146.54593 60.939623 
L 148.172456 60.939623 
L 148.579088 60.265739 
L 150.205613 60.265739 
L 150.612245 59.591854 
L 152.238771 59.591854 
L 152.645402 58.91797 
L 154.271928 58.91797 
L 154.678559 58.244086 
L 156.305085 58.244086 
L 156.711717 57.570201 
L 158.338242 57.570201 
L 158.744874 56.896317 
L 160.3714 56.896317 
L 160.778031 56.222433 
L 162.404557 56.222433 
L 162.811188 55.548549 
L 164.844345 55.548549 
L 165.250977 54.874664 
L 166.877503 54.874664 
L 167.284134 54.20078 
L 168.91066 54.20078 
L 169.317291 53.526896 
L 171.350449 53.526896 
L 171.75708 52.853011 
L 173.383606 52.853011 
L 173.790237 52.179127 
L 175.823394 52.179127 
L 176.230026 51.505243 
L 177.856552 51.505243 
L 178.263183 50.831358 
L 180.29634 50.831358 
L 180.702972 50.157474 
L 182.736129 50.157474 
L 183.14276 49.48359 
L 184.769286 49.48359 
L 185.175918 48.809706 
L 187.209075 48.809706 
L 187.615706 48.135821 
L 189.648864 48.135821 
L 190.055495 47.461937 
L 191.682021 47.461937 
L 192.088652 46.788053 
L 194.121809 46.788053 
L 194.528441 46.114168 
L 196.561598 46.114168 
L 196.96823 45.440284 
L 199.001387 45.440284 
L 199.408018 44.7664 
L 201.441175 44.7664 
L 201.847807 44.092515 
L 203.880964 44.092515 
L 204.287596 43.418631 
L 206.320753 43.418631 
L 206.727384 42.744747 
L 208.760541 42.744747 
L 209.167173 42.070863 
L 211.20033 42.070863 
L 211.606962 41.396978 
L 213.640119 41.396978 
L 214.04675 40.723094 
L 216.079907 40.723094 
L 216.486539 40.04921 
L 218.519696 40.04921 
L 218.926328 39.375325 
L 220.959485 39.375325 
L 221.366116 38.701441 
L 223.399273 38.701441 
L 223.805905 38.027557 
L 226.245694 38.027557 
L 226.652325 37.353673 
L 228.685482 37.353673 
L 229.092114 36.679788 
L 231.125271 36.679788 
L 231.531902 36.005904 
L 233.56506 36.005904 
L 233.971691 35.33202 
L 236.41148 35.33202 
L 236.818111 34.658135 
L 238.851268 34.658135 
L 239.2579 33.984251 
L 241.291057 33.984251 
L 241.697688 33.310367 
L 244.137477 33.310367 
L 244.544109 32.636482 
L 246.577266 32.636482 
L 246.983897 31.962598 
L 249.423686 31.962598 
L 249.830317 31.288714 
L 251.863475 31.288714 
L 252.270106 30.61483 
L 253.896632 30.61483 
L 254.303263 29.940945 
L 255.116526 29.940945 
L 255.929789 28.593177 
L 256.33642 28.593177 
L 256.33642 28.593177 
" clip-path="url(#p80df3967d7)" style="fill: none; stroke: #fde725; stroke-width: 1.5; stroke-linecap: square"/>
   </g>
   <g id="patch_3">
    <path d="M 43.281875 178.869375 
L 43.281875 15.789375 
" style="fill: none; stroke: #000000; stroke-width: 0.8; stroke-linejoin: miter; stroke-linecap: square"/>
   </g>
   <g id="patch_4">
    <path d="M 43.281875 178.869375 
L 266.481875 178.869375 
" style="fill: none; stroke: #000000; stroke-width: 0.8; stroke-linejoin: miter; stroke-linecap: square"/>
   </g>
   <g id="text_12">
    <!-- E -->
    <g transform="translate(9.801875 15.789375)scale(0.12 -0.12)">
     <defs>
      <path id="Arial-BoldMT-45" d="M 466 0 
L 466 4581 
L 3863 4581 
L 3863 3806 
L 1391 3806 
L 1391 2791 
L 3691 2791 
L 3691 2019 
L 1391 2019 
L 1391 772 
L 3950 772 
L 3950 0 
L 466 0 
z
" transform="scale(0.015625)"/>
     </defs>
     <use xlink:href="#Arial-BoldMT-45"/>
    </g>
   </g>
   <g id="legend_1">
    <g id="text_13">
     <!-- $\Delta k$ -->
     <g transform="translate(296.799688 35.17875)scale(0.12 -0.12)">
      <defs>
       <path id="DejaVuSans-394" d="M 2188 4044 
L 906 525 
L 3472 525 
L 2188 4044 
z
M 50 0 
L 1831 4666 
L 2547 4666 
L 4325 0 
L 50 0 
z
" transform="scale(0.015625)"/>
       <path id="DejaVuSans-Oblique-6b" d="M 1172 4863 
L 1747 4863 
L 1197 2028 
L 3169 3500 
L 3916 3500 
L 1716 1825 
L 3322 0 
L 2625 0 
L 1131 1709 
L 800 0 
L 225 0 
L 1172 4863 
z
" transform="scale(0.015625)"/>
      </defs>
      <use xlink:href="#DejaVuSans-394" transform="translate(0 0.015625)"/>
      <use xlink:href="#DejaVuSans-Oblique-6b" transform="translate(68.408203 0.015625)"/>
     </g>
    </g>
    <g id="patch_5">
     <path d="M 277.281875 52.153125 
L 301.281875 52.153125 
L 301.281875 43.753125 
L 277.281875 43.753125 
z
" style="fill: #440154"/>
    </g>
    <g id="text_14">
     <!-- -4.0 -->
     <g transform="translate(310.881875 52.153125)scale(0.12 -0.12)">
      <defs>
       <path id="ArialMT-2d" d="M 203 1375 
L 203 1941 
L 1931 1941 
L 1931 1375 
L 203 1375 
z
" transform="scale(0.015625)"/>
       <path id="ArialMT-2e" d="M 581 0 
L 581 641 
L 1222 641 
L 1222 0 
L 581 0 
z
" transform="scale(0.015625)"/>
      </defs>
      <use xlink:href="#ArialMT-2d"/>
      <use xlink:href="#ArialMT-34" x="33.300781"/>
      <use xlink:href="#ArialMT-2e" x="88.916016"/>
      <use xlink:href="#ArialMT-30" x="116.699219"/>
     </g>
    </g>
    <g id="patch_6">
     <path d="M 277.281875 69.1275 
L 301.281875 69.1275 
L 301.281875 60.7275 
L 277.281875 60.7275 
z
" style="fill: #3b528b"/>
    </g>
    <g id="text_15">
     <!-- -2.0 -->
     <g transform="translate(310.881875 69.1275)scale(0.12 -0.12)">
      <use xlink:href="#ArialMT-2d"/>
      <use xlink:href="#ArialMT-32" x="33.300781"/>
      <use xlink:href="#ArialMT-2e" x="88.916016"/>
      <use xlink:href="#ArialMT-30" x="116.699219"/>
     </g>
    </g>
    <g id="patch_7">
     <path d="M 277.281875 86.101875 
L 301.281875 86.101875 
L 301.281875 77.701875 
L 277.281875 77.701875 
z
" style="fill: #21918c"/>
    </g>
    <g id="text_16">
     <!-- 0.0 -->
     <g transform="translate(310.881875 86.101875)scale(0.12 -0.12)">
      <use xlink:href="#ArialMT-30"/>
      <use xlink:href="#ArialMT-2e" x="55.615234"/>
      <use xlink:href="#ArialMT-30" x="83.398438"/>
     </g>
    </g>
    <g id="patch_8">
     <path d="M 277.281875 103.07625 
L 301.281875 103.07625 
L 301.281875 94.67625 
L 277.281875 94.67625 
z
" style="fill: #5ec962"/>
    </g>
    <g id="text_17">
     <!-- 2.0 -->
     <g transform="translate(310.881875 103.07625)scale(0.12 -0.12)">
      <use xlink:href="#ArialMT-32"/>
      <use xlink:href="#ArialMT-2e" x="55.615234"/>
      <use xlink:href="#ArialMT-30" x="83.398438"/>
     </g>
    </g>
    <g id="patch_9">
     <path d="M 277.281875 120.050625 
L 301.281875 120.050625 
L 301.281875 111.650625 
L 277.281875 111.650625 
z
" style="fill: #fde725"/>
    </g>
    <g id="text_18">
     <!-- 4.0 -->
     <g transform="translate(310.881875 120.050625)scale(0.12 -0.12)">
      <use xlink:href="#ArialMT-34"/>
      <use xlink:href="#ArialMT-2e" x="55.615234"/>
      <use xlink:href="#ArialMT-30" x="83.398438"/>
     </g>
    </g>
   </g>
  </g>
 </g>
 <defs>
  <clipPath id="p80df3967d7">
   <rect x="43.281875" y="15.789375" width="223.2" height="163.08"/>
  </clipPath>
 </defs>
</svg>
